M48
;GenerationSoftware,Autodesk,EAGLE,9.6.2*%
;CreationDate,2023-01-22T21:33:43Z*%
FMAT,2
ICI,OFF
METRIC,TZ,000.000
T5C0.610
T4C0.920
T3C1.150
T2C2.300
T1C2.921
%
G90
M71
T1
X91880Y7050
X92120Y19020
T2
X88630Y38100
X88630Y50140
T3
X19620Y77440
X17080Y77440
X14540Y77440
X12000Y77440
X9460Y77440
X3440Y65220
X3440Y67760
X3370Y39240
X28720Y77440
X3370Y49400
X3370Y46860
X3370Y44320
X3370Y41780
X3370Y35450
X3370Y32910
X3370Y30370
X3370Y27830
X3370Y25290
X12500Y3630
X9960Y3630
X7420Y3630
X4880Y3630
X2340Y3630
X26550Y3630
X24010Y3630
X21470Y3630
X18930Y3630
X16390Y3630
X40400Y3820
X37860Y3820
X35320Y3820
X32780Y3820
X30240Y3820
X54450Y3820
X51910Y3820
X49370Y3820
X46830Y3820
X44290Y3820
X68500Y3820
X65960Y3820
X63420Y3820
X60880Y3820
X58340Y3820
X82550Y3820
X80010Y3820
X74930Y3820
X72390Y3820
X3560Y58520
X3560Y55980
X3560Y53440
X33800Y77440
X31260Y77440
X77470Y3820
X26180Y77440
X23640Y77440
X3440Y62680
T4
X83920Y45370
X83920Y42870
X85920Y45370
X85920Y42870
T5
X43420Y27800
X48500Y27800
M30