G75*
%MOIN*%
%OFA0B0*%
%FSLAX24Y24*%
%IPPOS*%
%LPD*%
%AMOC8*
5,1,8,0,0,1.08239X$1,22.5*
%
%ADD10C,0.0000*%
%ADD11C,0.0040*%
%ADD12C,0.0079*%
%ADD13C,0.0060*%
%ADD14C,0.0020*%
%ADD15R,0.0200X0.0050*%
%ADD16C,0.0050*%
%ADD17C,0.0039*%
%ADD18C,0.0157*%
%ADD19C,0.0080*%
D10*
X000327Y000327D02*
X000327Y031823D01*
X035760Y031823D01*
X035760Y000327D01*
X000327Y000327D01*
D11*
X003987Y003395D02*
X003987Y003856D01*
X004141Y003702D01*
X004294Y003856D01*
X004294Y003395D01*
X004448Y003472D02*
X004525Y003395D01*
X004678Y003395D01*
X004755Y003472D01*
X004755Y003779D01*
X004678Y003856D01*
X004525Y003856D01*
X004448Y003779D01*
X004448Y003472D01*
X004908Y003856D02*
X005215Y003856D01*
X005062Y003856D02*
X005062Y003395D01*
X005369Y003472D02*
X005369Y003779D01*
X005445Y003856D01*
X005599Y003856D01*
X005675Y003779D01*
X005675Y003472D01*
X005599Y003395D01*
X005445Y003395D01*
X005369Y003472D01*
X005829Y003395D02*
X005829Y003856D01*
X006059Y003856D01*
X006136Y003779D01*
X006136Y003626D01*
X006059Y003549D01*
X005829Y003549D01*
X005982Y003549D02*
X006136Y003395D01*
X006289Y003395D02*
X006596Y003395D01*
X006443Y003395D02*
X006443Y003856D01*
X006289Y003702D01*
X008343Y005402D02*
X008343Y005555D01*
X008343Y005478D02*
X008803Y005478D01*
X008803Y005402D02*
X008803Y005555D01*
X008726Y005708D02*
X008803Y005785D01*
X008803Y005939D01*
X008726Y006015D01*
X008573Y006169D02*
X008573Y006476D01*
X008803Y006399D02*
X008343Y006399D01*
X008573Y006169D01*
X008419Y006015D02*
X008343Y005939D01*
X008343Y005785D01*
X008419Y005708D01*
X008726Y005708D01*
X009046Y003856D02*
X009200Y003702D01*
X009353Y003856D01*
X009353Y003395D01*
X009507Y003472D02*
X009584Y003395D01*
X009737Y003395D01*
X009814Y003472D01*
X009814Y003779D01*
X009737Y003856D01*
X009584Y003856D01*
X009507Y003779D01*
X009507Y003472D01*
X009046Y003395D02*
X009046Y003856D01*
X009967Y003856D02*
X010274Y003856D01*
X010121Y003856D02*
X010121Y003395D01*
X010428Y003472D02*
X010504Y003395D01*
X010658Y003395D01*
X010735Y003472D01*
X010735Y003779D01*
X010658Y003856D01*
X010504Y003856D01*
X010428Y003779D01*
X010428Y003472D01*
X010888Y003395D02*
X010888Y003856D01*
X011118Y003856D01*
X011195Y003779D01*
X011195Y003626D01*
X011118Y003549D01*
X010888Y003549D01*
X011041Y003549D02*
X011195Y003395D01*
X011348Y003395D02*
X011655Y003702D01*
X011655Y003779D01*
X011579Y003856D01*
X011425Y003856D01*
X011348Y003779D01*
X011348Y003395D02*
X011655Y003395D01*
X014105Y003399D02*
X014105Y003860D01*
X014259Y003706D01*
X014412Y003860D01*
X014412Y003399D01*
X014566Y003476D02*
X014643Y003399D01*
X014796Y003399D01*
X014873Y003476D01*
X014873Y003783D01*
X014796Y003860D01*
X014643Y003860D01*
X014566Y003783D01*
X014566Y003476D01*
X015026Y003860D02*
X015333Y003860D01*
X015180Y003860D02*
X015180Y003399D01*
X015487Y003476D02*
X015487Y003783D01*
X015563Y003860D01*
X015717Y003860D01*
X015794Y003783D01*
X015794Y003476D01*
X015717Y003399D01*
X015563Y003399D01*
X015487Y003476D01*
X015947Y003553D02*
X016177Y003553D01*
X016254Y003629D01*
X016254Y003783D01*
X016177Y003860D01*
X015947Y003860D01*
X015947Y003399D01*
X016101Y003553D02*
X016254Y003399D01*
X016407Y003476D02*
X016484Y003399D01*
X016638Y003399D01*
X016714Y003476D01*
X016714Y003553D01*
X016638Y003629D01*
X016561Y003629D01*
X016638Y003629D02*
X016714Y003706D01*
X016714Y003783D01*
X016638Y003860D01*
X016484Y003860D01*
X016407Y003783D01*
X014275Y005398D02*
X014275Y005551D01*
X014275Y005474D02*
X013815Y005474D01*
X013815Y005398D02*
X013815Y005551D01*
X013892Y005705D02*
X013815Y005781D01*
X013815Y005935D01*
X013892Y006011D01*
X013815Y006165D02*
X014045Y006165D01*
X013968Y006318D01*
X013968Y006395D01*
X014045Y006472D01*
X014199Y006472D01*
X014275Y006395D01*
X014275Y006242D01*
X014199Y006165D01*
X014199Y006011D02*
X014275Y005935D01*
X014275Y005781D01*
X014199Y005705D01*
X013892Y005705D01*
X013815Y006165D02*
X013815Y006472D01*
X013803Y007674D02*
X013880Y007750D01*
X013880Y007904D01*
X013803Y007981D01*
X013880Y008134D02*
X013880Y008441D01*
X013880Y008594D02*
X013803Y008594D01*
X013496Y008901D01*
X013419Y008901D01*
X013419Y008594D01*
X013419Y008287D02*
X013880Y008287D01*
X013573Y008134D02*
X013419Y008287D01*
X013496Y007981D02*
X013419Y007904D01*
X013419Y007750D01*
X013496Y007674D01*
X013803Y007674D01*
X018294Y007826D02*
X018371Y007750D01*
X018677Y007750D01*
X018754Y007826D01*
X018754Y007980D01*
X018677Y008057D01*
X018754Y008210D02*
X018754Y008517D01*
X018754Y008364D02*
X018294Y008364D01*
X018447Y008210D01*
X018371Y008057D02*
X018294Y007980D01*
X018294Y007826D01*
X018524Y008670D02*
X018524Y008901D01*
X018601Y008977D01*
X018677Y008977D01*
X018754Y008901D01*
X018754Y008747D01*
X018677Y008670D01*
X018524Y008670D01*
X018371Y008824D01*
X018294Y008977D01*
X019689Y006492D02*
X019766Y006338D01*
X019919Y006185D01*
X019919Y006415D01*
X019996Y006492D01*
X020073Y006492D01*
X020149Y006415D01*
X020149Y006261D01*
X020073Y006185D01*
X019919Y006185D01*
X019766Y006031D02*
X019689Y005954D01*
X019689Y005801D01*
X019766Y005724D01*
X020073Y005724D01*
X020149Y005801D01*
X020149Y005954D01*
X020073Y006031D01*
X020149Y005571D02*
X020149Y005417D01*
X020149Y005494D02*
X019689Y005494D01*
X019689Y005417D02*
X019689Y005571D01*
X019668Y003860D02*
X019668Y003399D01*
X019822Y003476D02*
X019822Y003783D01*
X019899Y003860D01*
X020052Y003860D01*
X020129Y003783D01*
X020129Y003476D01*
X020052Y003399D01*
X019899Y003399D01*
X019822Y003476D01*
X019515Y003706D02*
X019668Y003860D01*
X019515Y003706D02*
X019361Y003860D01*
X019361Y003399D01*
X020282Y003860D02*
X020589Y003860D01*
X020436Y003860D02*
X020436Y003399D01*
X020743Y003476D02*
X020743Y003783D01*
X020819Y003860D01*
X020973Y003860D01*
X021050Y003783D01*
X021050Y003476D01*
X020973Y003399D01*
X020819Y003399D01*
X020743Y003476D01*
X021203Y003553D02*
X021433Y003553D01*
X021510Y003629D01*
X021510Y003783D01*
X021433Y003860D01*
X021203Y003860D01*
X021203Y003399D01*
X021356Y003553D02*
X021510Y003399D01*
X021663Y003629D02*
X021970Y003629D01*
X021894Y003399D02*
X021894Y003860D01*
X021663Y003629D01*
X023921Y005409D02*
X023921Y005563D01*
X023921Y005486D02*
X024382Y005486D01*
X024382Y005409D02*
X024382Y005563D01*
X024305Y005716D02*
X024382Y005793D01*
X024382Y005947D01*
X024305Y006023D01*
X024305Y006177D02*
X024382Y006177D01*
X024305Y006177D02*
X023998Y006484D01*
X023921Y006484D01*
X023921Y006177D01*
X023998Y006023D02*
X023921Y005947D01*
X023921Y005793D01*
X023998Y005716D01*
X024305Y005716D01*
X024578Y003860D02*
X024731Y003706D01*
X024885Y003860D01*
X024885Y003399D01*
X025038Y003476D02*
X025115Y003399D01*
X025269Y003399D01*
X025345Y003476D01*
X025345Y003783D01*
X025269Y003860D01*
X025115Y003860D01*
X025038Y003783D01*
X025038Y003476D01*
X024578Y003399D02*
X024578Y003860D01*
X025499Y003860D02*
X025806Y003860D01*
X025652Y003860D02*
X025652Y003399D01*
X025959Y003476D02*
X025959Y003783D01*
X026036Y003860D01*
X026189Y003860D01*
X026266Y003783D01*
X026266Y003476D01*
X026189Y003399D01*
X026036Y003399D01*
X025959Y003476D01*
X026420Y003553D02*
X026650Y003553D01*
X026726Y003629D01*
X026726Y003783D01*
X026650Y003860D01*
X026420Y003860D01*
X026420Y003399D01*
X026573Y003553D02*
X026726Y003399D01*
X026880Y003476D02*
X026957Y003399D01*
X027110Y003399D01*
X027187Y003476D01*
X027187Y003629D01*
X027110Y003706D01*
X027033Y003706D01*
X026880Y003629D01*
X026880Y003860D01*
X027187Y003860D01*
X028961Y005405D02*
X028961Y005559D01*
X028961Y005482D02*
X029421Y005482D01*
X029421Y005405D02*
X029421Y005559D01*
X029344Y005712D02*
X029421Y005789D01*
X029421Y005943D01*
X029344Y006019D01*
X029344Y006173D02*
X029268Y006173D01*
X029191Y006250D01*
X029191Y006403D01*
X029268Y006480D01*
X029344Y006480D01*
X029421Y006403D01*
X029421Y006250D01*
X029344Y006173D01*
X029191Y006250D02*
X029114Y006173D01*
X029037Y006173D01*
X028961Y006250D01*
X028961Y006403D01*
X029037Y006480D01*
X029114Y006480D01*
X029191Y006403D01*
X029037Y006019D02*
X028961Y005943D01*
X028961Y005789D01*
X029037Y005712D01*
X029344Y005712D01*
X030031Y003860D02*
X030184Y003706D01*
X030338Y003860D01*
X030338Y003399D01*
X030491Y003476D02*
X030568Y003399D01*
X030721Y003399D01*
X030798Y003476D01*
X030798Y003783D01*
X030721Y003860D01*
X030568Y003860D01*
X030491Y003783D01*
X030491Y003476D01*
X030031Y003399D02*
X030031Y003860D01*
X030951Y003860D02*
X031258Y003860D01*
X031105Y003860D02*
X031105Y003399D01*
X031412Y003476D02*
X031412Y003783D01*
X031489Y003860D01*
X031642Y003860D01*
X031719Y003783D01*
X031719Y003476D01*
X031642Y003399D01*
X031489Y003399D01*
X031412Y003476D01*
X031872Y003553D02*
X032102Y003553D01*
X032179Y003629D01*
X032179Y003783D01*
X032102Y003860D01*
X031872Y003860D01*
X031872Y003399D01*
X032026Y003553D02*
X032179Y003399D01*
X032333Y003476D02*
X032409Y003399D01*
X032563Y003399D01*
X032640Y003476D01*
X032640Y003553D01*
X032563Y003629D01*
X032333Y003629D01*
X032333Y003476D01*
X032333Y003629D02*
X032486Y003783D01*
X032640Y003860D01*
X029039Y007559D02*
X028732Y007559D01*
X028656Y007636D01*
X028656Y007790D01*
X028732Y007866D01*
X028809Y008020D02*
X028656Y008173D01*
X029116Y008173D01*
X029116Y008020D02*
X029116Y008327D01*
X029039Y008480D02*
X029116Y008557D01*
X029116Y008710D01*
X029039Y008787D01*
X028886Y008787D01*
X028809Y008710D01*
X028809Y008634D01*
X028886Y008480D01*
X028656Y008480D01*
X028656Y008787D01*
X029039Y007866D02*
X029116Y007790D01*
X029116Y007636D01*
X029039Y007559D01*
X024037Y007731D02*
X023960Y007654D01*
X023654Y007654D01*
X023577Y007731D01*
X023577Y007884D01*
X023654Y007961D01*
X023730Y008114D02*
X023577Y008268D01*
X024037Y008268D01*
X024037Y008421D02*
X024037Y008114D01*
X023960Y007961D02*
X024037Y007884D01*
X024037Y007731D01*
X023960Y008575D02*
X024037Y008651D01*
X024037Y008805D01*
X023960Y008882D01*
X023884Y008882D01*
X023807Y008805D01*
X023807Y008728D01*
X023807Y008805D02*
X023730Y008882D01*
X023654Y008882D01*
X023577Y008805D01*
X023577Y008651D01*
X023654Y008575D01*
X020553Y011857D02*
X020630Y011934D01*
X020630Y012087D01*
X020553Y012164D01*
X020630Y012318D02*
X020630Y012624D01*
X020630Y012471D02*
X020169Y012471D01*
X020323Y012318D01*
X020246Y012164D02*
X020169Y012087D01*
X020169Y011934D01*
X020246Y011857D01*
X020553Y011857D01*
X020400Y012778D02*
X020400Y013085D01*
X020630Y013008D02*
X020169Y013008D01*
X020400Y012778D01*
X026254Y016872D02*
X026331Y016796D01*
X026638Y016796D01*
X026714Y016872D01*
X026714Y017026D01*
X026638Y017103D01*
X026714Y017256D02*
X026714Y017563D01*
X026714Y017716D02*
X026407Y018023D01*
X026331Y018023D01*
X026254Y017947D01*
X026254Y017793D01*
X026331Y017716D01*
X026254Y017409D02*
X026714Y017409D01*
X026714Y017716D02*
X026714Y018023D01*
X026254Y017409D02*
X026407Y017256D01*
X026331Y017103D02*
X026254Y017026D01*
X026254Y016872D01*
X026584Y015277D02*
X026737Y015277D01*
X026660Y015277D02*
X026660Y014817D01*
X026584Y014817D02*
X026737Y014817D01*
X026890Y014893D02*
X026967Y014817D01*
X027121Y014817D01*
X027197Y014893D01*
X027351Y014817D02*
X027658Y014817D01*
X027504Y014817D02*
X027504Y015277D01*
X027351Y015124D01*
X027197Y015200D02*
X027121Y015277D01*
X026967Y015277D01*
X026890Y015200D01*
X026890Y014893D01*
X027811Y014893D02*
X027888Y014817D01*
X028041Y014817D01*
X028118Y014893D01*
X028118Y014970D01*
X028041Y015047D01*
X027965Y015047D01*
X028041Y015047D02*
X028118Y015124D01*
X028118Y015200D01*
X028041Y015277D01*
X027888Y015277D01*
X027811Y015200D01*
X028872Y015179D02*
X028949Y015103D01*
X029256Y015103D01*
X029333Y015179D01*
X029333Y015333D01*
X029256Y015410D01*
X029333Y015563D02*
X029333Y015870D01*
X029333Y015717D02*
X028872Y015717D01*
X029026Y015563D01*
X028949Y015410D02*
X028872Y015333D01*
X028872Y015179D01*
X029266Y014895D02*
X029266Y014588D01*
X029266Y014741D02*
X028805Y014741D01*
X028959Y014588D01*
X029266Y014434D02*
X029266Y014127D01*
X029266Y013974D02*
X029112Y013820D01*
X029112Y013897D02*
X029112Y013667D01*
X029266Y013667D02*
X028805Y013667D01*
X028805Y013897D01*
X028882Y013974D01*
X029035Y013974D01*
X029112Y013897D01*
X028959Y014127D02*
X028805Y014281D01*
X029266Y014281D01*
X030415Y014324D02*
X030876Y014324D01*
X030876Y014171D02*
X030876Y014478D01*
X030876Y014631D02*
X030569Y014938D01*
X030492Y014938D01*
X030415Y014861D01*
X030415Y014708D01*
X030492Y014631D01*
X030415Y014324D02*
X030569Y014171D01*
X030646Y014017D02*
X030722Y013940D01*
X030722Y013710D01*
X030722Y013864D02*
X030876Y014017D01*
X030646Y014017D02*
X030492Y014017D01*
X030415Y013940D01*
X030415Y013710D01*
X030876Y013710D01*
X030876Y014631D02*
X030876Y014938D01*
X030831Y015492D02*
X030524Y015492D01*
X030447Y015569D01*
X030447Y015722D01*
X030524Y015799D01*
X030600Y015952D02*
X030447Y016106D01*
X030907Y016106D01*
X030907Y016259D02*
X030907Y015952D01*
X030831Y015799D02*
X030907Y015722D01*
X030907Y015569D01*
X030831Y015492D01*
X030907Y016413D02*
X030907Y016719D01*
X030907Y016566D02*
X030447Y016566D01*
X030600Y016413D01*
X029333Y016254D02*
X029333Y016100D01*
X029256Y016024D01*
X028949Y016330D01*
X029256Y016330D01*
X029333Y016254D01*
X029256Y016024D02*
X028949Y016024D01*
X028872Y016100D01*
X028872Y016254D01*
X028949Y016330D01*
X028980Y017181D02*
X028673Y017181D01*
X028597Y017258D01*
X028597Y017411D01*
X028673Y017488D01*
X028673Y017642D02*
X028750Y017642D01*
X028827Y017718D01*
X028827Y017949D01*
X028980Y017949D02*
X028673Y017949D01*
X028597Y017872D01*
X028597Y017718D01*
X028673Y017642D01*
X028980Y017642D02*
X029057Y017718D01*
X029057Y017872D01*
X028980Y017949D01*
X028980Y017488D02*
X029057Y017411D01*
X029057Y017258D01*
X028980Y017181D01*
X034115Y022051D02*
X034192Y022127D01*
X034192Y022204D01*
X034115Y022281D01*
X033731Y022281D01*
X033731Y022204D02*
X033731Y022358D01*
X033885Y022511D02*
X033731Y022665D01*
X034192Y022665D01*
X034192Y022818D02*
X034192Y022511D01*
X025602Y025085D02*
X025142Y025085D01*
X025142Y025315D01*
X025219Y025392D01*
X025372Y025392D01*
X025449Y025315D01*
X025449Y025085D01*
X025525Y025546D02*
X025219Y025546D01*
X025142Y025622D01*
X025142Y025776D01*
X025219Y025852D01*
X025372Y025852D02*
X025372Y025699D01*
X025372Y025852D02*
X025525Y025852D01*
X025602Y025776D01*
X025602Y025622D01*
X025525Y025546D01*
X025602Y026006D02*
X025142Y026006D01*
X025142Y026313D01*
X025219Y026466D02*
X025525Y026466D01*
X025602Y026543D01*
X025602Y026697D01*
X025525Y026773D01*
X025679Y026927D02*
X025679Y027234D01*
X025525Y027387D02*
X025219Y027387D01*
X025142Y027464D01*
X025142Y027617D01*
X025219Y027694D01*
X025372Y027694D02*
X025372Y027541D01*
X025372Y027694D02*
X025525Y027694D01*
X025602Y027617D01*
X025602Y027464D01*
X025525Y027387D01*
X025449Y027847D02*
X025449Y028078D01*
X025372Y028154D01*
X025219Y028154D01*
X025142Y028078D01*
X025142Y027847D01*
X025602Y027847D01*
X025219Y026773D02*
X025142Y026697D01*
X025142Y026543D01*
X025219Y026466D01*
X025372Y026159D02*
X025372Y026006D01*
X025602Y026006D02*
X025602Y026313D01*
X025708Y029958D02*
X025708Y030419D01*
X025938Y030419D01*
X026015Y030342D01*
X026015Y030189D01*
X025938Y030112D01*
X025708Y030112D01*
X025862Y030112D02*
X026015Y029958D01*
X025555Y030035D02*
X025555Y030342D01*
X025478Y030419D01*
X025324Y030419D01*
X025248Y030342D01*
X025248Y030035D01*
X025324Y029958D01*
X025478Y029958D01*
X025555Y030035D01*
X025094Y030419D02*
X024787Y030419D01*
X024941Y030419D02*
X024941Y029958D01*
X024634Y029958D02*
X024634Y030265D01*
X024480Y030419D01*
X024327Y030265D01*
X024327Y029958D01*
X024173Y029958D02*
X024173Y030419D01*
X024020Y030265D01*
X023866Y030419D01*
X023866Y029958D01*
X023713Y029958D02*
X023713Y030265D01*
X023560Y030419D01*
X023406Y030265D01*
X023406Y029958D01*
X023253Y029958D02*
X023099Y030112D01*
X023176Y030112D02*
X022946Y030112D01*
X022946Y029958D02*
X022946Y030419D01*
X023176Y030419D01*
X023253Y030342D01*
X023253Y030189D01*
X023176Y030112D01*
X023406Y030189D02*
X023713Y030189D01*
X024327Y030189D02*
X024634Y030189D01*
X022792Y030189D02*
X022639Y030189D01*
X022792Y030189D02*
X022792Y030035D01*
X022715Y029958D01*
X022562Y029958D01*
X022485Y030035D01*
X022485Y030342D01*
X022562Y030419D01*
X022715Y030419D01*
X022792Y030342D01*
X022332Y030342D02*
X022332Y030035D01*
X022255Y029958D01*
X022102Y029958D01*
X022025Y030035D01*
X022025Y030342D01*
X022102Y030419D01*
X022255Y030419D01*
X022332Y030342D01*
X021871Y030342D02*
X021871Y030189D01*
X021795Y030112D01*
X021565Y030112D01*
X021718Y030112D02*
X021871Y029958D01*
X021565Y029958D02*
X021565Y030419D01*
X021795Y030419D01*
X021871Y030342D01*
X021411Y030342D02*
X021411Y030189D01*
X021334Y030112D01*
X021104Y030112D01*
X021104Y029958D02*
X021104Y030419D01*
X021334Y030419D01*
X021411Y030342D01*
X019161Y030497D02*
X019008Y030497D01*
X019084Y030497D02*
X019084Y030037D01*
X019008Y030037D02*
X019161Y030037D01*
X018854Y030267D02*
X018778Y030191D01*
X018547Y030191D01*
X018394Y030191D02*
X018394Y030114D01*
X018317Y030037D01*
X018164Y030037D01*
X018087Y030114D01*
X018164Y030267D02*
X018317Y030267D01*
X018394Y030191D01*
X018547Y030037D02*
X018547Y030497D01*
X018778Y030497D01*
X018854Y030421D01*
X018854Y030267D01*
X018394Y030421D02*
X018317Y030497D01*
X018164Y030497D01*
X018087Y030421D01*
X018087Y030344D01*
X018164Y030267D01*
X017933Y029960D02*
X017627Y029960D01*
X017473Y030114D02*
X017396Y030037D01*
X017243Y030037D01*
X017166Y030114D01*
X017166Y030421D01*
X017243Y030497D01*
X017396Y030497D01*
X017473Y030421D01*
X017013Y030421D02*
X016936Y030497D01*
X016783Y030497D01*
X016706Y030421D01*
X016552Y030497D02*
X016399Y030497D01*
X016476Y030497D02*
X016476Y030037D01*
X016552Y030037D02*
X016399Y030037D01*
X016706Y030037D02*
X017013Y030344D01*
X017013Y030421D01*
X017013Y030037D02*
X016706Y030037D01*
X013943Y028094D02*
X013943Y028017D01*
X013866Y027940D01*
X013713Y027940D01*
X013636Y028017D01*
X013636Y028094D01*
X013713Y028171D01*
X013866Y028171D01*
X013943Y028094D01*
X013866Y027940D02*
X013943Y027864D01*
X013943Y027787D01*
X013866Y027710D01*
X013713Y027710D01*
X013636Y027787D01*
X013636Y027864D01*
X013713Y027940D01*
X013483Y028171D02*
X013329Y028171D01*
X013406Y028171D02*
X013406Y027787D01*
X013329Y027710D01*
X013253Y027710D01*
X013176Y027787D01*
X013159Y025311D02*
X013159Y025004D01*
X012852Y025311D01*
X012776Y025311D01*
X012699Y025234D01*
X012699Y025081D01*
X012776Y025004D01*
X012776Y024850D02*
X012699Y024774D01*
X012699Y024620D01*
X012776Y024543D01*
X013083Y024543D01*
X013159Y024620D01*
X013159Y024774D01*
X013083Y024850D01*
X016785Y024716D02*
X016785Y024409D01*
X016862Y024256D02*
X016785Y024179D01*
X016785Y024026D01*
X016862Y023949D01*
X017169Y023949D01*
X017246Y024026D01*
X017246Y024179D01*
X017169Y024256D01*
X017169Y024409D02*
X017246Y024409D01*
X017169Y024409D02*
X016862Y024716D01*
X016785Y024716D01*
X020142Y024725D02*
X020142Y024955D01*
X020219Y025032D01*
X020372Y025032D01*
X020449Y024955D01*
X020449Y024725D01*
X020602Y024725D02*
X020142Y024725D01*
X020219Y024571D02*
X020142Y024495D01*
X020142Y024264D01*
X020602Y024264D01*
X020449Y024264D02*
X020449Y024495D01*
X020372Y024571D01*
X020219Y024571D01*
X020449Y024878D02*
X020602Y025032D01*
X020525Y025185D02*
X020602Y025262D01*
X020602Y025415D01*
X020525Y025492D01*
X020219Y025492D01*
X020142Y025415D01*
X020142Y025262D01*
X020219Y025185D01*
X020525Y025185D01*
X020525Y025646D02*
X020602Y025722D01*
X020602Y025876D01*
X020525Y025952D01*
X020372Y025952D01*
X020372Y025799D01*
X020219Y025646D02*
X020525Y025646D01*
X020219Y025646D02*
X020142Y025722D01*
X020142Y025876D01*
X020219Y025952D01*
X020679Y026106D02*
X020679Y026413D01*
X020449Y026566D02*
X020602Y026720D01*
X020449Y026873D01*
X020142Y026873D01*
X020142Y027027D02*
X020142Y027257D01*
X020219Y027334D01*
X020525Y027334D01*
X020602Y027257D01*
X020602Y027027D01*
X020142Y027027D01*
X020142Y027487D02*
X020142Y027717D01*
X020219Y027794D01*
X020525Y027794D01*
X020602Y027717D01*
X020602Y027487D01*
X020142Y027487D01*
X020142Y026566D02*
X020449Y026566D01*
X020427Y020449D02*
X020504Y020449D01*
X020581Y020372D01*
X020581Y020218D01*
X020504Y020142D01*
X020504Y019988D02*
X020581Y019911D01*
X020581Y019758D01*
X020504Y019681D01*
X020197Y019681D01*
X020120Y019758D01*
X020120Y019911D01*
X020197Y019988D01*
X020197Y020142D02*
X020120Y020218D01*
X020120Y020372D01*
X020197Y020449D01*
X020274Y020449D01*
X020350Y020372D01*
X020427Y020449D01*
X020350Y020372D02*
X020350Y020295D01*
X011746Y017651D02*
X011746Y017344D01*
X011439Y017651D01*
X011362Y017651D01*
X011285Y017574D01*
X011285Y017421D01*
X011362Y017344D01*
X011362Y017190D02*
X011516Y017190D01*
X011592Y017114D01*
X011592Y016884D01*
X011592Y017037D02*
X011746Y017190D01*
X011746Y016884D02*
X011285Y016884D01*
X011285Y017114D01*
X011362Y017190D01*
X010329Y017214D02*
X010175Y017061D01*
X010175Y017137D02*
X010175Y016907D01*
X010329Y016907D02*
X009868Y016907D01*
X009868Y017137D01*
X009945Y017214D01*
X010098Y017214D01*
X010175Y017137D01*
X010022Y017368D02*
X009868Y017521D01*
X010329Y017521D01*
X010329Y017368D02*
X010329Y017674D01*
X011801Y015862D02*
X011801Y015555D01*
X011801Y015708D02*
X011341Y015708D01*
X011494Y015555D01*
X011417Y015402D02*
X011341Y015325D01*
X011341Y015171D01*
X011417Y015095D01*
X011724Y015095D01*
X011801Y015171D01*
X011801Y015325D01*
X011724Y015402D01*
X008783Y008980D02*
X008860Y008903D01*
X008860Y008750D01*
X008783Y008673D01*
X008707Y008673D01*
X008630Y008750D01*
X008630Y008903D01*
X008707Y008980D01*
X008783Y008980D01*
X008630Y008903D02*
X008553Y008980D01*
X008476Y008980D01*
X008400Y008903D01*
X008400Y008750D01*
X008476Y008673D01*
X008553Y008673D01*
X008630Y008750D01*
X008860Y008520D02*
X008860Y008213D01*
X008860Y008366D02*
X008400Y008366D01*
X008553Y008213D01*
X008476Y008059D02*
X008400Y007983D01*
X008400Y007829D01*
X008476Y007752D01*
X008783Y007752D01*
X008860Y007829D01*
X008860Y007983D01*
X008783Y008059D01*
X003978Y008165D02*
X003978Y008472D01*
X003978Y008319D02*
X003518Y008319D01*
X003671Y008165D01*
X003595Y008012D02*
X003518Y007935D01*
X003518Y007782D01*
X003595Y007705D01*
X003901Y007705D01*
X003978Y007782D01*
X003978Y007935D01*
X003901Y008012D01*
X003901Y008626D02*
X003978Y008703D01*
X003978Y008856D01*
X003901Y008933D01*
X003595Y008933D01*
X003518Y008856D01*
X003518Y008703D01*
X003595Y008626D01*
X003671Y008626D01*
X003748Y008703D01*
X003748Y008933D01*
X003815Y006677D02*
X003738Y006600D01*
X003738Y006523D01*
X003738Y006600D02*
X003661Y006677D01*
X003585Y006677D01*
X003508Y006600D01*
X003508Y006446D01*
X003585Y006370D01*
X003585Y006216D02*
X003508Y006139D01*
X003508Y005986D01*
X003585Y005909D01*
X003892Y005909D01*
X003968Y005986D01*
X003968Y006139D01*
X003892Y006216D01*
X003892Y006370D02*
X003968Y006446D01*
X003968Y006600D01*
X003892Y006677D01*
X003815Y006677D01*
X003968Y005756D02*
X003968Y005602D01*
X003968Y005679D02*
X003508Y005679D01*
X003508Y005602D02*
X003508Y005756D01*
X004615Y022393D02*
X004922Y022393D01*
X004999Y022470D01*
X004999Y022623D01*
X004922Y022700D01*
X004769Y022700D01*
X004769Y022547D01*
X004615Y022700D02*
X004538Y022623D01*
X004538Y022470D01*
X004615Y022393D01*
X004538Y022853D02*
X004999Y023160D01*
X004538Y023160D01*
X004538Y023314D02*
X004538Y023544D01*
X004615Y023621D01*
X004922Y023621D01*
X004999Y023544D01*
X004999Y023314D01*
X004538Y023314D01*
X004538Y022853D02*
X004999Y022853D01*
X004280Y027710D02*
X004357Y027787D01*
X004357Y028094D01*
X004280Y028171D01*
X004126Y028171D01*
X004050Y028094D01*
X004050Y028017D01*
X004126Y027940D01*
X004357Y027940D01*
X004280Y027710D02*
X004126Y027710D01*
X004050Y027787D01*
X003819Y027787D02*
X003819Y028171D01*
X003743Y028171D02*
X003896Y028171D01*
X003819Y027787D02*
X003743Y027710D01*
X003666Y027710D01*
X003589Y027787D01*
D12*
X004254Y028647D02*
X008754Y028647D01*
X009254Y029121D02*
X009254Y029596D01*
X004254Y029596D01*
X004254Y028647D01*
X009510Y028647D02*
X014010Y028647D01*
X014510Y029121D02*
X014510Y029596D01*
X009510Y029596D01*
X009510Y028647D01*
X015502Y028769D02*
X020002Y028769D01*
X020502Y029243D02*
X020502Y029718D01*
X015502Y029718D01*
X015502Y028769D01*
X020795Y027984D02*
X020795Y024944D01*
X021917Y024944D01*
X021917Y027464D01*
X021356Y027984D02*
X020795Y027984D01*
X020888Y028769D02*
X025388Y028769D01*
X025888Y029243D02*
X025888Y029718D01*
X020888Y029718D01*
X020888Y028769D01*
X023827Y027984D02*
X023827Y024944D01*
X024949Y024944D01*
X024949Y027464D01*
X024388Y027984D02*
X023827Y027984D01*
X026462Y015673D02*
X028392Y015673D01*
X028392Y014413D01*
X026462Y014413D01*
X026462Y015673D01*
X026329Y014275D02*
X026329Y013675D01*
X026691Y006633D02*
X022793Y006633D01*
X022793Y005373D01*
X026691Y005373D01*
X026691Y006633D01*
X027833Y006629D02*
X031730Y006629D01*
X031730Y005369D01*
X027833Y005369D01*
X027833Y006629D01*
X027766Y005232D02*
X027766Y004621D01*
X028667Y003316D02*
X024167Y003316D01*
X023667Y002842D02*
X023667Y002367D01*
X028667Y002367D01*
X028667Y003316D01*
X028923Y002842D02*
X028923Y002367D01*
X033923Y002367D01*
X033923Y003316D01*
X029423Y003316D01*
X023451Y003316D02*
X023451Y002367D01*
X018451Y002367D01*
X018451Y002842D01*
X018195Y003316D02*
X018195Y002367D01*
X013195Y002367D01*
X013195Y002842D01*
X012939Y003312D02*
X012939Y002364D01*
X007939Y002364D01*
X007939Y002838D01*
X007683Y002364D02*
X007683Y003312D01*
X003183Y003312D01*
X002683Y002838D02*
X002683Y002364D01*
X007683Y002364D01*
X008439Y003312D02*
X012939Y003312D01*
X013695Y003316D02*
X018195Y003316D01*
X018951Y003316D02*
X023451Y003316D01*
X022727Y004625D02*
X022727Y005236D01*
X021475Y005381D02*
X017577Y005381D01*
X017577Y006641D01*
X021475Y006641D01*
X021475Y005381D01*
X017510Y005243D02*
X017510Y004633D01*
X016585Y005362D02*
X012687Y005362D01*
X012687Y006621D01*
X016585Y006621D01*
X016585Y005362D01*
X012620Y005224D02*
X012620Y004614D01*
X011309Y005365D02*
X007412Y005365D01*
X007412Y006625D01*
X011309Y006625D01*
X011309Y005365D01*
X007345Y005228D02*
X007345Y004617D01*
X006671Y005369D02*
X002774Y005369D01*
X002774Y006629D01*
X006671Y006629D01*
X006671Y005369D01*
X002707Y005232D02*
X002707Y004621D01*
D13*
X012114Y019273D02*
X018914Y019273D01*
X018937Y019275D01*
X018960Y019280D01*
X018982Y019289D01*
X019002Y019302D01*
X019020Y019317D01*
X019035Y019335D01*
X019048Y019355D01*
X019057Y019377D01*
X019062Y019400D01*
X019064Y019423D01*
X019064Y022063D01*
X019062Y022086D01*
X019057Y022109D01*
X019048Y022131D01*
X019035Y022151D01*
X019020Y022169D01*
X019002Y022184D01*
X018982Y022197D01*
X018960Y022206D01*
X018937Y022211D01*
X018914Y022213D01*
X012114Y022213D01*
X012091Y022211D01*
X012068Y022206D01*
X012046Y022197D01*
X012026Y022184D01*
X012008Y022169D01*
X011993Y022151D01*
X011980Y022131D01*
X011971Y022109D01*
X011966Y022086D01*
X011964Y022063D01*
X011964Y021243D01*
X011964Y020243D01*
X011964Y019423D01*
X011966Y019400D01*
X011971Y019377D01*
X011980Y019355D01*
X011993Y019335D01*
X012008Y019317D01*
X012026Y019302D01*
X012046Y019289D01*
X012068Y019280D01*
X012091Y019275D01*
X012114Y019273D01*
X011964Y020243D02*
X012008Y020245D01*
X012051Y020251D01*
X012093Y020260D01*
X012135Y020273D01*
X012175Y020290D01*
X012214Y020310D01*
X012251Y020333D01*
X012285Y020360D01*
X012318Y020389D01*
X012347Y020422D01*
X012374Y020456D01*
X012397Y020493D01*
X012417Y020532D01*
X012434Y020572D01*
X012447Y020614D01*
X012456Y020656D01*
X012462Y020699D01*
X012464Y020743D01*
X012462Y020787D01*
X012456Y020830D01*
X012447Y020872D01*
X012434Y020914D01*
X012417Y020954D01*
X012397Y020993D01*
X012374Y021030D01*
X012347Y021064D01*
X012318Y021097D01*
X012285Y021126D01*
X012251Y021153D01*
X012214Y021176D01*
X012175Y021196D01*
X012135Y021213D01*
X012093Y021226D01*
X012051Y021235D01*
X012008Y021241D01*
X011964Y021243D01*
D14*
X011964Y019413D02*
X019064Y019413D01*
D15*
X018764Y019248D03*
X018264Y019248D03*
X017764Y019248D03*
X017264Y019248D03*
X016764Y019248D03*
X016264Y019248D03*
X015764Y019248D03*
X015264Y019248D03*
X014764Y019248D03*
X014264Y019248D03*
X013764Y019248D03*
X013264Y019248D03*
X012764Y019248D03*
X012264Y019248D03*
X012264Y022238D03*
X012764Y022238D03*
X013264Y022238D03*
X013764Y022238D03*
X014264Y022238D03*
X014764Y022238D03*
X015264Y022238D03*
X015764Y022238D03*
X016264Y022238D03*
X016764Y022238D03*
X017264Y022238D03*
X017764Y022238D03*
X018264Y022238D03*
X018764Y022238D03*
D16*
X011789Y020536D02*
X011789Y020236D01*
X011789Y020386D02*
X011339Y020386D01*
X011489Y020236D01*
X011414Y020076D02*
X011339Y020001D01*
X011339Y019850D01*
X011414Y019775D01*
X011714Y019775D01*
X011789Y019850D01*
X011789Y020001D01*
X011714Y020076D01*
X011789Y019619D02*
X011789Y019468D01*
X011789Y019543D02*
X011339Y019543D01*
X011339Y019468D02*
X011339Y019619D01*
X015644Y013149D02*
X015644Y011614D01*
X019541Y011614D02*
X019541Y013149D01*
D17*
X028745Y020090D02*
X028745Y024893D01*
X031895Y024893D01*
X030950Y025050D02*
X030950Y025050D01*
X030948Y025042D01*
X030944Y025036D01*
X030938Y025032D01*
X030930Y025030D01*
X030922Y025032D01*
X030916Y025036D01*
X030912Y025042D01*
X030910Y025050D01*
X030910Y025050D01*
X030912Y025058D01*
X030916Y025064D01*
X030922Y025068D01*
X030930Y025070D01*
X030938Y025068D01*
X030944Y025064D01*
X030948Y025058D01*
X030950Y025050D01*
X033666Y024893D02*
X035241Y024893D01*
X035241Y020090D01*
X033863Y020090D01*
X031895Y020090D02*
X028745Y020090D01*
D18*
X015610Y010637D03*
D19*
X015128Y011675D02*
X014329Y011675D01*
X014329Y012315D02*
X015128Y012315D01*
X015288Y012155D01*
X015288Y011835D01*
X015128Y011675D01*
X015288Y012631D02*
X015288Y013271D01*
X015288Y012951D02*
X014329Y012951D01*
X014649Y012631D01*
M02*
