G75*
%MOIN*%
%OFA0B0*%
%FSLAX24Y24*%
%IPPOS*%
%LPD*%
%AMOC8*
5,1,8,0,0,1.08239X$1,22.5*
%
%ADD10R,0.0562X0.0641*%
%ADD11C,0.2050*%
%ADD12R,0.0729X0.0729*%
%ADD13C,0.0729*%
%ADD14R,0.0306X0.0650*%
%ADD15R,0.0530X0.0930*%
%ADD16R,0.1467X0.0916*%
%ADD17C,0.0613*%
%ADD18C,0.1408*%
%ADD19C,0.0410*%
%ADD20R,0.0641X0.0562*%
%ADD21C,0.0250*%
%ADD22C,0.0288*%
D10*
X014947Y014936D03*
X015695Y014936D03*
X016573Y014925D03*
X017321Y014925D03*
X007809Y023980D03*
X007061Y023980D03*
X006175Y023980D03*
X005427Y023980D03*
X005478Y019031D03*
X006227Y019031D03*
X006234Y017653D03*
X005486Y017653D03*
D11*
X003175Y017472D02*
X003175Y019472D01*
X003112Y022106D02*
X003112Y024106D01*
D12*
X003183Y002838D03*
X008439Y002838D03*
X013695Y002842D03*
X018951Y002842D03*
X024167Y002842D03*
X029423Y002842D03*
X024388Y027464D03*
X025388Y029243D03*
X021356Y027464D03*
X020002Y029243D03*
X014010Y029121D03*
X008754Y029121D03*
D13*
X007754Y029121D03*
X006754Y029121D03*
X005754Y029121D03*
X004754Y029121D03*
X010010Y029121D03*
X011010Y029121D03*
X012010Y029121D03*
X013010Y029121D03*
X016002Y029243D03*
X017002Y029243D03*
X018002Y029243D03*
X019002Y029243D03*
X021388Y029243D03*
X022388Y029243D03*
X023388Y029243D03*
X024388Y029243D03*
X024388Y026464D03*
X024388Y025464D03*
X021356Y025464D03*
X021356Y026464D03*
X020951Y002842D03*
X021951Y002842D03*
X022951Y002842D03*
X025167Y002842D03*
X026167Y002842D03*
X027167Y002842D03*
X028167Y002842D03*
X030423Y002842D03*
X031423Y002842D03*
X032423Y002842D03*
X033423Y002842D03*
X019951Y002842D03*
X017695Y002842D03*
X016695Y002842D03*
X015695Y002842D03*
X014695Y002842D03*
X012439Y002838D03*
X011439Y002838D03*
X010439Y002838D03*
X009439Y002838D03*
X007183Y002838D03*
X006183Y002838D03*
X005183Y002838D03*
X004183Y002838D03*
D14*
X004315Y011299D03*
X004815Y011299D03*
X005315Y011299D03*
X005815Y011299D03*
X006315Y011299D03*
X006815Y011299D03*
X007315Y011299D03*
X007815Y011299D03*
X007815Y013435D03*
X007315Y013435D03*
X006815Y013435D03*
X006315Y013435D03*
X005815Y013435D03*
X005315Y013435D03*
X004815Y013435D03*
X004315Y013435D03*
X010873Y013446D03*
X011373Y013446D03*
X011873Y013446D03*
X012373Y013446D03*
X012873Y013446D03*
X013373Y013446D03*
X013873Y013446D03*
X014373Y013446D03*
X014373Y011310D03*
X013873Y011310D03*
X013373Y011310D03*
X012873Y011310D03*
X012373Y011310D03*
X011873Y011310D03*
X011373Y011310D03*
X010873Y011310D03*
X020717Y011298D03*
X021217Y011298D03*
X021717Y011298D03*
X022217Y011298D03*
X022717Y011298D03*
X023217Y011298D03*
X023717Y011298D03*
X024217Y011298D03*
X024217Y013433D03*
X023717Y013433D03*
X023217Y013433D03*
X022717Y013433D03*
X022217Y013433D03*
X021717Y013433D03*
X021217Y013433D03*
X020717Y013433D03*
X026870Y013441D03*
X027370Y013441D03*
X027870Y013441D03*
X028370Y013441D03*
X028870Y013441D03*
X029370Y013441D03*
X029870Y013441D03*
X030370Y013441D03*
X030370Y011306D03*
X029870Y011306D03*
X029370Y011306D03*
X028870Y011306D03*
X028370Y011306D03*
X027870Y011306D03*
X027370Y011306D03*
X026870Y011306D03*
D15*
X007558Y020476D03*
X006648Y020476D03*
X005738Y020476D03*
D16*
X006648Y022916D03*
D17*
X030985Y022983D03*
X031773Y022983D03*
X031773Y021999D03*
X030985Y021999D03*
D18*
X032839Y020121D03*
X032839Y024861D03*
D19*
X017120Y016731D02*
X017120Y016371D01*
X015120Y016371D02*
X015120Y016731D01*
D20*
X007585Y018314D03*
X007585Y019062D03*
X007758Y027275D03*
X007758Y028023D03*
X005734Y028023D03*
X005734Y027275D03*
X010022Y027291D03*
X010022Y028039D03*
X011990Y028031D03*
X011990Y027283D03*
X013998Y027275D03*
X013998Y028023D03*
X017010Y027999D03*
X017010Y027251D03*
X018014Y027236D03*
X018014Y027984D03*
D21*
X017818Y024637D03*
X016074Y023377D03*
X017334Y022117D03*
X018534Y021757D03*
X018654Y022117D03*
X018654Y018157D03*
X017373Y018039D03*
X015054Y017977D03*
X014694Y015457D03*
X014274Y015217D03*
X015054Y014437D03*
X016134Y015217D03*
X017694Y013957D03*
X017274Y012757D03*
X017814Y012600D03*
X016794Y012757D03*
X016374Y011977D03*
X015834Y012457D03*
X015354Y011377D03*
X014634Y012097D03*
X013974Y011857D03*
X014536Y010308D03*
X015294Y010057D03*
X015594Y010357D03*
X016074Y010537D03*
X015894Y009457D03*
X016614Y008476D03*
X017006Y008726D03*
X016974Y007837D03*
X016674Y007837D03*
X016364Y007832D03*
X015834Y007837D03*
X015534Y007837D03*
X015174Y007837D03*
X014754Y007537D03*
X014574Y007777D03*
X014235Y007858D03*
X013695Y007858D03*
X013414Y007858D03*
X012474Y007777D03*
X012114Y007777D03*
X011814Y007777D03*
X011514Y007777D03*
X011214Y007777D03*
X010914Y007777D03*
X010614Y007777D03*
X010314Y007777D03*
X010014Y007777D03*
X009714Y007777D03*
X009534Y007537D03*
X009440Y008653D03*
X010694Y008614D03*
X011394Y008793D03*
X011814Y008917D03*
X012294Y009397D03*
X014394Y008857D03*
X014540Y009314D03*
X014973Y008437D03*
X013914Y006457D03*
X013614Y006457D03*
X014394Y005737D03*
X014394Y005437D03*
X015954Y005437D03*
X016697Y006047D03*
X016974Y005677D03*
X017454Y005437D03*
X018474Y005437D03*
X018354Y005917D03*
X018834Y006397D03*
X019434Y006097D03*
X019674Y006577D03*
X019685Y007589D03*
X019845Y007833D03*
X019434Y007777D03*
X019134Y007717D03*
X018414Y007717D03*
X018414Y008017D03*
X017334Y007860D03*
X017454Y007357D03*
X016254Y006577D03*
X019554Y008377D03*
X021054Y007537D03*
X019914Y005497D03*
X023874Y005497D03*
X024474Y007657D03*
X023612Y007891D03*
X023603Y008520D03*
X024474Y009097D03*
X024474Y009397D03*
X024735Y009457D03*
X024534Y009937D03*
X025014Y010117D03*
X024534Y010357D03*
X024033Y010357D03*
X023754Y010597D03*
X023934Y011857D03*
X023694Y012037D03*
X023454Y012277D03*
X023214Y012817D03*
X022554Y012877D03*
X022014Y012637D03*
X022134Y011797D03*
X022701Y011797D03*
X020694Y010837D03*
X019993Y011807D03*
X019333Y012110D03*
X021414Y013957D03*
X023048Y015157D03*
X024142Y014184D03*
X023574Y013957D03*
X024894Y015397D03*
X027294Y014437D03*
X026874Y012427D03*
X027199Y012341D03*
X026274Y011737D03*
X025254Y010597D03*
X025494Y009517D03*
X025353Y009077D03*
X025461Y007716D03*
X027193Y007759D03*
X027654Y008317D03*
X028614Y007537D03*
X031494Y007537D03*
X027153Y010378D03*
X026814Y005077D03*
X026214Y004477D03*
X012354Y004597D03*
X009954Y006259D03*
X009714Y005698D03*
X008334Y005437D03*
X009592Y004457D03*
X012294Y007297D03*
X012594Y007297D03*
X008034Y007537D03*
X007410Y007877D03*
X006648Y008540D03*
X006114Y008917D03*
X007194Y009277D03*
X008154Y010537D03*
X006834Y011857D03*
X004854Y012877D03*
X004314Y012337D03*
X003594Y010768D03*
X004155Y010537D03*
X004194Y010177D03*
X003354Y010011D03*
X004614Y008917D03*
X004795Y008477D03*
X005874Y007537D03*
X005874Y006517D03*
X005874Y005437D03*
X004374Y005437D03*
X003534Y007537D03*
X011154Y011857D03*
X011394Y012937D03*
X011874Y012937D03*
X012414Y012937D03*
X011934Y014137D03*
X011829Y014823D03*
X010854Y012937D03*
X012534Y020137D03*
X008214Y026797D03*
D22*
X005388Y022909D03*
X009128Y018421D03*
X009699Y017515D03*
X008518Y014845D03*
X007888Y014480D03*
X010467Y014392D03*
X010414Y013747D03*
X014163Y014000D03*
X014657Y012672D03*
X015721Y014307D03*
X015669Y016183D03*
X016288Y016605D03*
X015840Y017158D03*
X018039Y010217D03*
X018647Y009829D03*
X019132Y009836D03*
X020068Y010193D03*
X017460Y006978D03*
X017467Y006334D03*
X016367Y005442D03*
X016749Y004515D03*
X016791Y003848D03*
X020858Y003698D03*
X021266Y004436D03*
X021826Y004906D03*
X022191Y005240D03*
X022731Y005747D03*
X023871Y005965D03*
X024497Y006089D03*
X025353Y005488D03*
X027008Y004462D03*
X027008Y003896D03*
X028257Y012119D03*
X028573Y012783D03*
X028390Y014606D03*
X027732Y015143D03*
X027284Y015485D03*
X028982Y018023D03*
X030668Y016872D03*
X031187Y017228D03*
X016718Y025508D03*
X013175Y025637D03*
X013417Y010086D03*
X013426Y009528D03*
X011507Y004594D03*
X011175Y004131D03*
X008281Y003896D03*
X006911Y004581D03*
M02*
