%
M48
M72
T01C0.0100
T02C0.0138
T03C0.0240
T04C0.0362
T05C0.0453
T06C0.0906
T07C0.1150
%
T01
X4374Y5437
X5874Y5437
X5874Y6517
X5874Y7537
X6648Y8540
X6114Y8917
X7194Y9277
X7410Y7877
X8034Y7537
X9534Y7537
X9714Y7777
X10014Y7777
X10314Y7777
X10614Y7777
X10914Y7777
X11214Y7777
X11514Y7777
X11814Y7777
X12114Y7777
X12474Y7777
X12594Y7297
X12294Y7297
X13414Y7858
X13695Y7858
X14235Y7858
X14574Y7777
X14754Y7537
X15174Y7837
X15534Y7837
X15834Y7837
X16364Y7832
X16674Y7837
X16974Y7837
X17334Y7860
X17454Y7357
X18414Y7717
X18414Y8017
X19134Y7717
X19434Y7777
X19685Y7589
X19845Y7833
X19554Y8377
X21054Y7537
X19674Y6577
X19434Y6097
X18834Y6397
X18354Y5917
X18474Y5437
X17454Y5437
X16974Y5677
X16697Y6047
X16254Y6577
X15954Y5437
X14394Y5437
X14394Y5737
X13914Y6457
X13614Y6457
X12354Y4597
X9954Y6259
X9714Y5698
X8334Y5437
X9592Y4457
X9440Y8653
X10694Y8614
X11394Y8793
X11814Y8917
X12294Y9397
X14394Y8857
X14540Y9314
X14973Y8437
X15894Y9457
X15294Y10057
X15594Y10357
X16074Y10537
X15354Y11377
X14634Y12097
X13974Y11857
X14536Y10308
X16374Y11977
X15834Y12457
X16794Y12757
X17274Y12757
X17814Y12600
X17694Y13957
X16134Y15217
X15054Y14437
X14274Y15217
X14694Y15457
X15054Y17977
X17373Y18039
X18654Y18157
X18534Y21757
X18654Y22117
X17334Y22117
X16074Y23377
X17818Y24637
X12534Y20137
X11829Y14823
X11934Y14137
X11874Y12937
X11394Y12937
X10854Y12937
X11154Y11857
X12414Y12937
X8154Y10537
X6834Y11857
X4854Y12877
X4314Y12337
X3594Y10768
X4155Y10537
X4194Y10177
X3354Y10011
X4614Y8917
X4795Y8477
X3534Y7537
X16614Y8476
X17006Y8726
X19993Y11807
X19333Y12110
X20694Y10837
X22134Y11797
X22701Y11797
X23454Y12277
X23694Y12037
X23934Y11857
X23214Y12817
X22554Y12877
X22014Y12637
X21414Y13957
X23048Y15157
X24142Y14184
X23574Y13957
X24894Y15397
X27294Y14437
X26874Y12427
X27199Y12341
X26274Y11737
X25254Y10597
X25014Y10117
X24534Y9937
X24735Y9457
X24474Y9397
X24474Y9097
X25353Y9077
X25494Y9517
X24534Y10357
X24033Y10357
X23754Y10597
X23603Y8520
X23612Y7891
X24474Y7657
X25461Y7716
X27193Y7759
X27654Y8317
X28614Y7537
X31494Y7537
X27153Y10378
X23874Y5497
X26214Y4477
X26814Y5077
X19914Y5497
X8214Y26797
T02
X5388Y22909
X9128Y18421
X9699Y17515
X8518Y14845
X7888Y14480
X10467Y14392
X10414Y13747
X14163Y14000
X14657Y12672
X15721Y14307
X15669Y16183
X16288Y16605
X15840Y17158
X18039Y10217
X18647Y9829
X19132Y9836
X20068Y10193
X17460Y6978
X17467Y6334
X16367Y5442
X16749Y4515
X16791Y3848
X20858Y3698
X21266Y4436
X21826Y4906
X22191Y5240
X22731Y5747
X23871Y5965
X24497Y6089
X25353Y5488
X27008Y4462
X27008Y3896
X28257Y12119
X28573Y12783
X28390Y14606
X27732Y15143
X27284Y15485
X28982Y18023
X30668Y16872
X31187Y17228
X16718Y25508
X13175Y25637
X13417Y10086
X13426Y9528
X11507Y4594
X11175Y4131
X8281Y3896
X6911Y4581
T03
X15120Y16551
X17120Y16551
T04
X30985Y21999
X31773Y21999
X31773Y22983
X30985Y22983
T05
X3183Y2838
X4183Y2838
X5183Y2838
X6183Y2838
X7183Y2838
X8439Y2838
X9439Y2838
X10439Y2838
X11439Y2838
X12439Y2838
X13695Y2842
X14695Y2842
X15695Y2842
X16695Y2842
X17695Y2842
X18951Y2842
X19951Y2842
X20951Y2842
X21951Y2842
X22951Y2842
X24167Y2842
X25167Y2842
X26167Y2842
X27167Y2842
X28167Y2842
X29423Y2842
X30423Y2842
X31423Y2842
X32423Y2842
X33423Y2842
X24388Y25464
X24388Y26464
X24388Y27464
X24388Y29243
X25388Y29243
X23388Y29243
X22388Y29243
X21388Y29243
X20002Y29243
X19002Y29243
X18002Y29243
X17002Y29243
X16002Y29243
X14010Y29121
X13010Y29121
X12010Y29121
X11010Y29121
X10010Y29121
X8754Y29121
X7754Y29121
X6754Y29121
X5754Y29121
X4754Y29121
X21356Y27464
X21356Y26464
X21356Y25464
T06
X32839Y24861
X32839Y20121
T07
X3175Y18472
X3112Y23106
M30
