G04 EAGLE Gerber RS-274X export*
G75*
%MOMM*%
%FSLAX34Y34*%
%LPD*%
%INTop Copper*%
%IPPOS*%
%AMOC8*
5,1,8,0,0,1.08239X$1,22.5*%
G01*
%ADD10R,1.500000X1.300000*%
%ADD11R,1.300000X1.500000*%
%ADD12C,5.080000*%
%ADD13R,1.725000X1.725000*%
%ADD14C,1.725000*%
%ADD15R,0.660400X2.032000*%
%ADD16R,0.435000X1.526000*%
%ADD17R,0.650000X1.550000*%
%ADD18C,1.431000*%
%ADD19C,3.450000*%
%ADD20C,1.117600*%
%ADD21C,0.147500*%

G36*
X959098Y10164D02*
X959098Y10164D01*
X959117Y10162D01*
X959219Y10184D01*
X959321Y10200D01*
X959338Y10210D01*
X959358Y10214D01*
X959447Y10267D01*
X959538Y10316D01*
X959552Y10330D01*
X959569Y10340D01*
X959636Y10419D01*
X959708Y10494D01*
X959716Y10512D01*
X959729Y10527D01*
X959768Y10623D01*
X959811Y10717D01*
X959813Y10737D01*
X959821Y10755D01*
X959839Y10922D01*
X959839Y789078D01*
X959836Y789098D01*
X959838Y789117D01*
X959816Y789219D01*
X959800Y789321D01*
X959790Y789338D01*
X959786Y789358D01*
X959733Y789447D01*
X959684Y789538D01*
X959670Y789552D01*
X959660Y789569D01*
X959581Y789636D01*
X959506Y789708D01*
X959488Y789716D01*
X959473Y789729D01*
X959377Y789768D01*
X959283Y789811D01*
X959263Y789813D01*
X959245Y789821D01*
X959078Y789839D01*
X10922Y789839D01*
X10902Y789836D01*
X10883Y789838D01*
X10781Y789816D01*
X10679Y789800D01*
X10662Y789790D01*
X10642Y789786D01*
X10553Y789733D01*
X10462Y789684D01*
X10448Y789670D01*
X10431Y789660D01*
X10364Y789581D01*
X10292Y789506D01*
X10284Y789488D01*
X10271Y789473D01*
X10232Y789377D01*
X10189Y789283D01*
X10187Y789263D01*
X10179Y789245D01*
X10161Y789078D01*
X10161Y10922D01*
X10164Y10902D01*
X10162Y10883D01*
X10184Y10781D01*
X10200Y10679D01*
X10210Y10662D01*
X10214Y10642D01*
X10267Y10553D01*
X10316Y10462D01*
X10330Y10448D01*
X10340Y10431D01*
X10419Y10364D01*
X10494Y10292D01*
X10512Y10284D01*
X10527Y10271D01*
X10623Y10232D01*
X10717Y10189D01*
X10737Y10187D01*
X10755Y10179D01*
X10922Y10161D01*
X959078Y10161D01*
X959098Y10164D01*
G37*
%LPC*%
G36*
X917655Y137875D02*
X917655Y137875D01*
X910807Y139710D01*
X904668Y143255D01*
X899655Y148268D01*
X896110Y154407D01*
X894275Y161255D01*
X894275Y219145D01*
X896110Y225993D01*
X899655Y232132D01*
X904668Y237145D01*
X910807Y240690D01*
X917655Y242525D01*
X924745Y242525D01*
X931593Y240690D01*
X937732Y237145D01*
X942745Y232132D01*
X946290Y225993D01*
X948125Y219145D01*
X948125Y161255D01*
X946290Y154407D01*
X942745Y148268D01*
X937732Y143255D01*
X931593Y139710D01*
X924745Y137875D01*
X917655Y137875D01*
G37*
%LPD*%
%LPC*%
G36*
X920323Y72023D02*
X920323Y72023D01*
X920323Y123841D01*
X920369Y123841D01*
X923488Y123489D01*
X926314Y122844D01*
X926547Y122791D01*
X929509Y121755D01*
X932337Y120393D01*
X934994Y118723D01*
X937448Y116767D01*
X939667Y114548D01*
X941623Y112094D01*
X943293Y109437D01*
X944655Y106609D01*
X945691Y103647D01*
X946389Y100588D01*
X946741Y97469D01*
X946741Y72023D01*
X920323Y72023D01*
G37*
%LPD*%
%LPC*%
G36*
X920323Y17159D02*
X920323Y17159D01*
X920323Y68977D01*
X946741Y68977D01*
X946741Y43531D01*
X946389Y40412D01*
X945691Y37353D01*
X944655Y34391D01*
X943293Y31563D01*
X941623Y28906D01*
X939667Y26452D01*
X937448Y24233D01*
X934994Y22277D01*
X932337Y20607D01*
X929509Y19245D01*
X926547Y18209D01*
X923488Y17511D01*
X920369Y17159D01*
X920323Y17159D01*
G37*
%LPD*%
%LPC*%
G36*
X890859Y72023D02*
X890859Y72023D01*
X890859Y97469D01*
X891211Y100588D01*
X891909Y103647D01*
X892945Y106609D01*
X894307Y109437D01*
X895977Y112094D01*
X897933Y114548D01*
X900152Y116767D01*
X902606Y118723D01*
X905263Y120393D01*
X908091Y121755D01*
X911053Y122791D01*
X914112Y123489D01*
X917231Y123841D01*
X917277Y123841D01*
X917277Y72023D01*
X890859Y72023D01*
G37*
%LPD*%
%LPC*%
G36*
X917231Y17159D02*
X917231Y17159D01*
X914112Y17511D01*
X913043Y17755D01*
X911053Y18209D01*
X908091Y19245D01*
X905263Y20607D01*
X902606Y22277D01*
X900152Y24233D01*
X897933Y26452D01*
X895977Y28906D01*
X894307Y31563D01*
X892945Y34391D01*
X891909Y37353D01*
X891211Y40412D01*
X890859Y43531D01*
X890859Y68977D01*
X917277Y68977D01*
X917277Y17159D01*
X917231Y17159D01*
G37*
%LPD*%
%LPC*%
G36*
X717707Y448649D02*
X717707Y448649D01*
X717707Y458494D01*
X717704Y458514D01*
X717706Y458534D01*
X717684Y458635D01*
X717667Y458737D01*
X717658Y458755D01*
X717653Y458774D01*
X717625Y458822D01*
X717635Y458847D01*
X717679Y458941D01*
X717681Y458960D01*
X717688Y458979D01*
X717707Y459146D01*
X717707Y468991D01*
X719129Y468991D01*
X719776Y468818D01*
X720355Y468483D01*
X720640Y468198D01*
X720714Y468145D01*
X720784Y468085D01*
X720814Y468073D01*
X720840Y468054D01*
X720927Y468027D01*
X721012Y467993D01*
X721053Y467989D01*
X721075Y467982D01*
X721107Y467983D01*
X721179Y467975D01*
X725905Y467975D01*
X725948Y467964D01*
X726047Y467934D01*
X726067Y467934D01*
X726086Y467929D01*
X726189Y467937D01*
X726292Y467940D01*
X726311Y467947D01*
X726331Y467948D01*
X726393Y467975D01*
X732216Y467975D01*
X732298Y467954D01*
X732397Y467924D01*
X732417Y467924D01*
X732436Y467919D01*
X732539Y467927D01*
X732642Y467930D01*
X732661Y467937D01*
X732681Y467938D01*
X732766Y467975D01*
X738605Y467975D01*
X738648Y467964D01*
X738747Y467934D01*
X738767Y467934D01*
X738786Y467929D01*
X738889Y467937D01*
X738992Y467940D01*
X739011Y467947D01*
X739031Y467948D01*
X739093Y467975D01*
X744827Y467975D01*
X745720Y467082D01*
X745720Y450558D01*
X744827Y449665D01*
X739095Y449665D01*
X739053Y449676D01*
X738954Y449706D01*
X738934Y449706D01*
X738914Y449711D01*
X738811Y449703D01*
X738708Y449700D01*
X738689Y449693D01*
X738669Y449692D01*
X738607Y449665D01*
X732784Y449665D01*
X732702Y449686D01*
X732604Y449716D01*
X732584Y449716D01*
X732564Y449721D01*
X732461Y449713D01*
X732358Y449710D01*
X732339Y449703D01*
X732319Y449702D01*
X732234Y449665D01*
X726395Y449665D01*
X726353Y449676D01*
X726254Y449706D01*
X726234Y449706D01*
X726214Y449711D01*
X726111Y449703D01*
X726008Y449700D01*
X725989Y449693D01*
X725969Y449692D01*
X725907Y449665D01*
X721179Y449665D01*
X721089Y449651D01*
X720998Y449643D01*
X720968Y449631D01*
X720936Y449626D01*
X720855Y449583D01*
X720771Y449547D01*
X720739Y449521D01*
X720719Y449510D01*
X720696Y449487D01*
X720640Y449442D01*
X720355Y449157D01*
X719776Y448822D01*
X719129Y448649D01*
X717707Y448649D01*
G37*
%LPD*%
%LPC*%
G36*
X720471Y394409D02*
X720471Y394409D01*
X719824Y394582D01*
X719245Y394917D01*
X718960Y395202D01*
X718886Y395255D01*
X718816Y395315D01*
X718786Y395327D01*
X718760Y395346D01*
X718673Y395373D01*
X718588Y395407D01*
X718547Y395411D01*
X718525Y395418D01*
X718493Y395417D01*
X718421Y395425D01*
X713695Y395425D01*
X713652Y395436D01*
X713553Y395466D01*
X713533Y395466D01*
X713514Y395471D01*
X713411Y395463D01*
X713308Y395460D01*
X713289Y395453D01*
X713269Y395452D01*
X713207Y395425D01*
X707384Y395425D01*
X707302Y395446D01*
X707203Y395476D01*
X707183Y395476D01*
X707164Y395481D01*
X707061Y395473D01*
X706958Y395470D01*
X706939Y395463D01*
X706919Y395462D01*
X706834Y395425D01*
X700995Y395425D01*
X700952Y395436D01*
X700853Y395466D01*
X700833Y395466D01*
X700814Y395471D01*
X700711Y395463D01*
X700608Y395460D01*
X700589Y395453D01*
X700569Y395452D01*
X700507Y395425D01*
X694773Y395425D01*
X693880Y396318D01*
X693880Y412842D01*
X694773Y413735D01*
X700505Y413735D01*
X700547Y413724D01*
X700646Y413694D01*
X700666Y413694D01*
X700686Y413689D01*
X700789Y413697D01*
X700892Y413700D01*
X700911Y413707D01*
X700931Y413708D01*
X700993Y413735D01*
X706816Y413735D01*
X706898Y413714D01*
X706996Y413684D01*
X707016Y413684D01*
X707036Y413679D01*
X707139Y413687D01*
X707242Y413690D01*
X707261Y413697D01*
X707281Y413698D01*
X707366Y413735D01*
X713205Y413735D01*
X713247Y413724D01*
X713346Y413694D01*
X713366Y413694D01*
X713386Y413689D01*
X713489Y413697D01*
X713592Y413700D01*
X713611Y413707D01*
X713631Y413708D01*
X713693Y413735D01*
X718421Y413735D01*
X718511Y413749D01*
X718602Y413757D01*
X718632Y413769D01*
X718664Y413774D01*
X718745Y413817D01*
X718829Y413853D01*
X718861Y413879D01*
X718881Y413890D01*
X718904Y413913D01*
X718960Y413958D01*
X719245Y414243D01*
X719824Y414578D01*
X720471Y414751D01*
X721893Y414751D01*
X721893Y404906D01*
X721896Y404886D01*
X721894Y404866D01*
X721916Y404765D01*
X721933Y404663D01*
X721942Y404645D01*
X721946Y404626D01*
X721975Y404578D01*
X721965Y404553D01*
X721921Y404459D01*
X721919Y404440D01*
X721912Y404421D01*
X721893Y404254D01*
X721893Y394409D01*
X720471Y394409D01*
G37*
%LPD*%
%LPC*%
G36*
X394743Y28050D02*
X394743Y28050D01*
X393850Y28943D01*
X393850Y47457D01*
X394743Y48350D01*
X413257Y48350D01*
X414150Y47457D01*
X414150Y28943D01*
X413257Y28050D01*
X394743Y28050D01*
G37*
%LPD*%
%LPC*%
G36*
X186943Y764250D02*
X186943Y764250D01*
X186050Y765143D01*
X186050Y783657D01*
X186943Y784550D01*
X205457Y784550D01*
X206350Y783657D01*
X206350Y765143D01*
X205457Y764250D01*
X186943Y764250D01*
G37*
%LPD*%
%LPC*%
G36*
X328743Y764250D02*
X328743Y764250D01*
X327850Y765143D01*
X327850Y783657D01*
X328743Y784550D01*
X347257Y784550D01*
X348150Y783657D01*
X348150Y765143D01*
X347257Y764250D01*
X328743Y764250D01*
G37*
%LPD*%
%LPC*%
G36*
X535243Y28050D02*
X535243Y28050D01*
X534350Y28943D01*
X534350Y47457D01*
X535243Y48350D01*
X553757Y48350D01*
X554650Y47457D01*
X554650Y28943D01*
X553757Y28050D01*
X535243Y28050D01*
G37*
%LPD*%
%LPC*%
G36*
X115743Y26150D02*
X115743Y26150D01*
X114850Y27043D01*
X114850Y45557D01*
X115743Y46450D01*
X134257Y46450D01*
X135150Y45557D01*
X135150Y27043D01*
X134257Y26150D01*
X115743Y26150D01*
G37*
%LPD*%
%LPC*%
G36*
X256243Y26150D02*
X256243Y26150D01*
X255350Y27043D01*
X255350Y45557D01*
X256243Y46450D01*
X274757Y46450D01*
X275650Y45557D01*
X275650Y27043D01*
X274757Y26150D01*
X256243Y26150D01*
G37*
%LPD*%
%LPC*%
G36*
X25143Y616650D02*
X25143Y616650D01*
X24250Y617543D01*
X24250Y636057D01*
X25143Y636950D01*
X43657Y636950D01*
X44550Y636057D01*
X44550Y617543D01*
X43657Y616650D01*
X25143Y616650D01*
G37*
%LPD*%
%LPC*%
G36*
X24443Y483850D02*
X24443Y483850D01*
X23550Y484743D01*
X23550Y503257D01*
X24443Y504150D01*
X42957Y504150D01*
X43850Y503257D01*
X43850Y484743D01*
X42957Y483850D01*
X24443Y483850D01*
G37*
%LPD*%
%LPC*%
G36*
X26343Y575050D02*
X26343Y575050D01*
X25450Y575943D01*
X25450Y594457D01*
X26343Y595350D01*
X44857Y595350D01*
X45750Y594457D01*
X45750Y575943D01*
X44857Y575050D01*
X26343Y575050D01*
G37*
%LPD*%
%LPC*%
G36*
X675743Y28050D02*
X675743Y28050D01*
X674850Y28943D01*
X674850Y47457D01*
X675743Y48350D01*
X694257Y48350D01*
X695150Y47457D01*
X695150Y28943D01*
X694257Y28050D01*
X675743Y28050D01*
G37*
%LPD*%
%LPC*%
G36*
X816243Y28050D02*
X816243Y28050D01*
X815350Y28943D01*
X815350Y47457D01*
X816243Y48350D01*
X834757Y48350D01*
X835650Y47457D01*
X835650Y28943D01*
X834757Y28050D01*
X816243Y28050D01*
G37*
%LPD*%
%LPC*%
G36*
X724067Y394409D02*
X724067Y394409D01*
X724067Y404254D01*
X724064Y404274D01*
X724066Y404294D01*
X724044Y404395D01*
X724027Y404497D01*
X724018Y404515D01*
X724013Y404534D01*
X723985Y404582D01*
X723995Y404607D01*
X724039Y404701D01*
X724041Y404720D01*
X724048Y404739D01*
X724067Y404906D01*
X724067Y414751D01*
X725489Y414751D01*
X726136Y414578D01*
X726715Y414243D01*
X727000Y413958D01*
X727074Y413905D01*
X727144Y413845D01*
X727174Y413833D01*
X727200Y413814D01*
X727287Y413787D01*
X727372Y413753D01*
X727413Y413749D01*
X727435Y413742D01*
X727467Y413743D01*
X727539Y413735D01*
X732216Y413735D01*
X732298Y413714D01*
X732396Y413684D01*
X732416Y413684D01*
X732436Y413679D01*
X732539Y413687D01*
X732642Y413690D01*
X732661Y413697D01*
X732681Y413698D01*
X732766Y413735D01*
X738605Y413735D01*
X738647Y413724D01*
X738746Y413694D01*
X738766Y413694D01*
X738786Y413689D01*
X738889Y413697D01*
X738992Y413700D01*
X739011Y413707D01*
X739031Y413708D01*
X739093Y413735D01*
X744827Y413735D01*
X745720Y412842D01*
X745720Y396318D01*
X744827Y395425D01*
X739095Y395425D01*
X739052Y395436D01*
X738953Y395466D01*
X738933Y395466D01*
X738914Y395471D01*
X738811Y395463D01*
X738708Y395460D01*
X738689Y395453D01*
X738669Y395452D01*
X738607Y395425D01*
X732784Y395425D01*
X732702Y395446D01*
X732603Y395476D01*
X732583Y395476D01*
X732564Y395481D01*
X732461Y395473D01*
X732358Y395470D01*
X732339Y395463D01*
X732319Y395462D01*
X732234Y395425D01*
X727539Y395425D01*
X727449Y395411D01*
X727358Y395403D01*
X727328Y395391D01*
X727296Y395386D01*
X727215Y395343D01*
X727131Y395307D01*
X727099Y395281D01*
X727079Y395270D01*
X727056Y395247D01*
X727000Y395202D01*
X726715Y394917D01*
X726136Y394582D01*
X725489Y394409D01*
X724067Y394409D01*
G37*
%LPD*%
%LPC*%
G36*
X714111Y448649D02*
X714111Y448649D01*
X713464Y448822D01*
X712885Y449157D01*
X712600Y449442D01*
X712526Y449495D01*
X712456Y449555D01*
X712426Y449567D01*
X712400Y449586D01*
X712313Y449613D01*
X712228Y449647D01*
X712187Y449651D01*
X712165Y449658D01*
X712133Y449657D01*
X712061Y449665D01*
X707384Y449665D01*
X707302Y449686D01*
X707204Y449716D01*
X707184Y449716D01*
X707164Y449721D01*
X707061Y449713D01*
X706958Y449710D01*
X706939Y449703D01*
X706919Y449702D01*
X706834Y449665D01*
X700995Y449665D01*
X700953Y449676D01*
X700854Y449706D01*
X700834Y449706D01*
X700814Y449711D01*
X700711Y449703D01*
X700608Y449700D01*
X700589Y449693D01*
X700569Y449692D01*
X700507Y449665D01*
X694773Y449665D01*
X693880Y450558D01*
X693880Y467082D01*
X694773Y467975D01*
X700505Y467975D01*
X700548Y467964D01*
X700647Y467934D01*
X700667Y467934D01*
X700686Y467929D01*
X700789Y467937D01*
X700892Y467940D01*
X700911Y467947D01*
X700931Y467948D01*
X700993Y467975D01*
X706816Y467975D01*
X706898Y467954D01*
X706997Y467924D01*
X707017Y467924D01*
X707036Y467919D01*
X707139Y467927D01*
X707242Y467930D01*
X707261Y467937D01*
X707281Y467938D01*
X707366Y467975D01*
X712061Y467975D01*
X712151Y467989D01*
X712242Y467997D01*
X712272Y468009D01*
X712304Y468014D01*
X712385Y468057D01*
X712469Y468093D01*
X712501Y468119D01*
X712521Y468130D01*
X712544Y468153D01*
X712600Y468198D01*
X712885Y468483D01*
X713464Y468818D01*
X714111Y468991D01*
X715533Y468991D01*
X715533Y459146D01*
X715536Y459126D01*
X715534Y459106D01*
X715556Y459005D01*
X715573Y458903D01*
X715582Y458885D01*
X715586Y458866D01*
X715615Y458818D01*
X715605Y458793D01*
X715561Y458699D01*
X715559Y458680D01*
X715552Y458661D01*
X715533Y458494D01*
X715533Y448649D01*
X714111Y448649D01*
G37*
%LPD*%
%LPC*%
G36*
X466281Y28050D02*
X466281Y28050D01*
X462551Y29595D01*
X459695Y32451D01*
X458150Y36181D01*
X458150Y40219D01*
X459695Y43949D01*
X462551Y46805D01*
X466281Y48350D01*
X470319Y48350D01*
X474049Y46805D01*
X476905Y43949D01*
X478450Y40219D01*
X478450Y36181D01*
X476905Y32451D01*
X474049Y29595D01*
X470319Y28050D01*
X466281Y28050D01*
G37*
%LPD*%
%LPC*%
G36*
X31681Y433050D02*
X31681Y433050D01*
X27951Y434595D01*
X25095Y437451D01*
X23550Y441181D01*
X23550Y445219D01*
X25095Y448949D01*
X27951Y451805D01*
X31681Y453350D01*
X35719Y453350D01*
X39449Y451805D01*
X42305Y448949D01*
X43850Y445219D01*
X43850Y441181D01*
X42305Y437451D01*
X39449Y434595D01*
X35719Y433050D01*
X31681Y433050D01*
G37*
%LPD*%
%LPC*%
G36*
X33581Y524250D02*
X33581Y524250D01*
X29851Y525795D01*
X26995Y528651D01*
X25450Y532381D01*
X25450Y536419D01*
X26995Y540149D01*
X29851Y543005D01*
X33581Y544550D01*
X37619Y544550D01*
X41349Y543005D01*
X44205Y540149D01*
X45750Y536419D01*
X45750Y532381D01*
X44205Y528651D01*
X41349Y525795D01*
X37619Y524250D01*
X33581Y524250D01*
G37*
%LPD*%
%LPC*%
G36*
X32381Y642050D02*
X32381Y642050D01*
X28651Y643595D01*
X25795Y646451D01*
X24250Y650181D01*
X24250Y654219D01*
X25795Y657949D01*
X28651Y660805D01*
X32381Y662350D01*
X36419Y662350D01*
X40149Y660805D01*
X43005Y657949D01*
X44550Y654219D01*
X44550Y650181D01*
X43005Y646451D01*
X40149Y643595D01*
X36419Y642050D01*
X32381Y642050D01*
G37*
%LPD*%
%LPC*%
G36*
X440881Y28050D02*
X440881Y28050D01*
X437151Y29595D01*
X434295Y32451D01*
X432750Y36181D01*
X432750Y40219D01*
X434295Y43949D01*
X437151Y46805D01*
X440881Y48350D01*
X444919Y48350D01*
X448649Y46805D01*
X451505Y43949D01*
X453050Y40219D01*
X453050Y36181D01*
X451505Y32451D01*
X448649Y29595D01*
X444919Y28050D01*
X440881Y28050D01*
G37*
%LPD*%
%LPC*%
G36*
X97581Y26150D02*
X97581Y26150D01*
X93851Y27695D01*
X90995Y30551D01*
X89450Y34281D01*
X89450Y38319D01*
X90995Y42049D01*
X93851Y44905D01*
X97581Y46450D01*
X101619Y46450D01*
X105349Y44905D01*
X108205Y42049D01*
X109750Y38319D01*
X109750Y34281D01*
X108205Y30551D01*
X105349Y27695D01*
X101619Y26150D01*
X97581Y26150D01*
G37*
%LPD*%
%LPC*%
G36*
X72181Y26150D02*
X72181Y26150D01*
X68451Y27695D01*
X65595Y30551D01*
X64050Y34281D01*
X64050Y38319D01*
X65595Y42049D01*
X68451Y44905D01*
X72181Y46450D01*
X76219Y46450D01*
X79949Y44905D01*
X82805Y42049D01*
X84350Y38319D01*
X84350Y34281D01*
X82805Y30551D01*
X79949Y27695D01*
X76219Y26150D01*
X72181Y26150D01*
G37*
%LPD*%
%LPC*%
G36*
X376581Y28050D02*
X376581Y28050D01*
X372851Y29595D01*
X369995Y32451D01*
X368450Y36181D01*
X368450Y40219D01*
X369995Y43949D01*
X372851Y46805D01*
X376581Y48350D01*
X380619Y48350D01*
X384349Y46805D01*
X387205Y43949D01*
X388750Y40219D01*
X388750Y36181D01*
X387205Y32451D01*
X384349Y29595D01*
X380619Y28050D01*
X376581Y28050D01*
G37*
%LPD*%
%LPC*%
G36*
X351181Y28050D02*
X351181Y28050D01*
X347451Y29595D01*
X344595Y32451D01*
X343050Y36181D01*
X343050Y40219D01*
X344595Y43949D01*
X347451Y46805D01*
X351181Y48350D01*
X355219Y48350D01*
X358949Y46805D01*
X361805Y43949D01*
X363350Y40219D01*
X363350Y36181D01*
X361805Y32451D01*
X358949Y29595D01*
X355219Y28050D01*
X351181Y28050D01*
G37*
%LPD*%
%LPC*%
G36*
X632181Y28050D02*
X632181Y28050D01*
X628451Y29595D01*
X625595Y32451D01*
X624050Y36181D01*
X624050Y40219D01*
X625595Y43949D01*
X628451Y46805D01*
X632181Y48350D01*
X636219Y48350D01*
X639949Y46805D01*
X642805Y43949D01*
X644350Y40219D01*
X644350Y36181D01*
X642805Y32451D01*
X639949Y29595D01*
X636219Y28050D01*
X632181Y28050D01*
G37*
%LPD*%
%LPC*%
G36*
X31681Y318950D02*
X31681Y318950D01*
X27951Y320495D01*
X25095Y323351D01*
X23550Y327081D01*
X23550Y331119D01*
X25095Y334849D01*
X27951Y337705D01*
X31681Y339250D01*
X35719Y339250D01*
X39449Y337705D01*
X42305Y334849D01*
X43850Y331119D01*
X43850Y327081D01*
X42305Y323351D01*
X39449Y320495D01*
X35719Y318950D01*
X31681Y318950D01*
G37*
%LPD*%
%LPC*%
G36*
X46781Y26150D02*
X46781Y26150D01*
X43051Y27695D01*
X40195Y30551D01*
X38650Y34281D01*
X38650Y38319D01*
X40195Y42049D01*
X43051Y44905D01*
X46781Y46450D01*
X50819Y46450D01*
X54549Y44905D01*
X57405Y42049D01*
X58950Y38319D01*
X58950Y34281D01*
X57405Y30551D01*
X54549Y27695D01*
X50819Y26150D01*
X46781Y26150D01*
G37*
%LPD*%
%LPC*%
G36*
X31681Y382250D02*
X31681Y382250D01*
X27951Y383795D01*
X25095Y386651D01*
X23550Y390381D01*
X23550Y394419D01*
X25095Y398149D01*
X27951Y401005D01*
X31681Y402550D01*
X35719Y402550D01*
X39449Y401005D01*
X42305Y398149D01*
X43850Y394419D01*
X43850Y390381D01*
X42305Y386651D01*
X39449Y383795D01*
X35719Y382250D01*
X31681Y382250D01*
G37*
%LPD*%
%LPC*%
G36*
X117981Y764250D02*
X117981Y764250D01*
X114251Y765795D01*
X111395Y768651D01*
X109850Y772381D01*
X109850Y776419D01*
X111395Y780149D01*
X114251Y783005D01*
X117981Y784550D01*
X122019Y784550D01*
X125749Y783005D01*
X128605Y780149D01*
X130150Y776419D01*
X130150Y772381D01*
X128605Y768651D01*
X125749Y765795D01*
X122019Y764250D01*
X117981Y764250D01*
G37*
%LPD*%
%LPC*%
G36*
X31681Y268150D02*
X31681Y268150D01*
X27951Y269695D01*
X25095Y272551D01*
X23550Y276281D01*
X23550Y280319D01*
X25095Y284049D01*
X27951Y286905D01*
X31681Y288450D01*
X35719Y288450D01*
X39449Y286905D01*
X42305Y284049D01*
X43850Y280319D01*
X43850Y276281D01*
X42305Y272551D01*
X39449Y269695D01*
X35719Y268150D01*
X31681Y268150D01*
G37*
%LPD*%
%LPC*%
G36*
X238081Y26150D02*
X238081Y26150D01*
X234351Y27695D01*
X231495Y30551D01*
X229950Y34281D01*
X229950Y38319D01*
X231495Y42049D01*
X234351Y44905D01*
X238081Y46450D01*
X242119Y46450D01*
X245849Y44905D01*
X248705Y42049D01*
X250250Y38319D01*
X250250Y34281D01*
X248705Y30551D01*
X245849Y27695D01*
X242119Y26150D01*
X238081Y26150D01*
G37*
%LPD*%
%LPC*%
G36*
X212681Y26150D02*
X212681Y26150D01*
X208951Y27695D01*
X206095Y30551D01*
X204550Y34281D01*
X204550Y38319D01*
X206095Y42049D01*
X208951Y44905D01*
X212681Y46450D01*
X216719Y46450D01*
X220449Y44905D01*
X223305Y42049D01*
X224850Y38319D01*
X224850Y34281D01*
X223305Y30551D01*
X220449Y27695D01*
X216719Y26150D01*
X212681Y26150D01*
G37*
%LPD*%
%LPC*%
G36*
X310581Y764250D02*
X310581Y764250D01*
X306851Y765795D01*
X303995Y768651D01*
X302450Y772381D01*
X302450Y776419D01*
X303995Y780149D01*
X306851Y783005D01*
X310581Y784550D01*
X314619Y784550D01*
X318349Y783005D01*
X321205Y780149D01*
X322750Y776419D01*
X322750Y772381D01*
X321205Y768651D01*
X318349Y765795D01*
X314619Y764250D01*
X310581Y764250D01*
G37*
%LPD*%
%LPC*%
G36*
X32381Y667450D02*
X32381Y667450D01*
X28651Y668995D01*
X25795Y671851D01*
X24250Y675581D01*
X24250Y679619D01*
X25795Y683349D01*
X28651Y686205D01*
X32381Y687750D01*
X36419Y687750D01*
X40149Y686205D01*
X43005Y683349D01*
X44550Y679619D01*
X44550Y675581D01*
X43005Y671851D01*
X40149Y668995D01*
X36419Y667450D01*
X32381Y667450D01*
G37*
%LPD*%
%LPC*%
G36*
X187281Y26150D02*
X187281Y26150D01*
X183551Y27695D01*
X180695Y30551D01*
X179150Y34281D01*
X179150Y38319D01*
X180695Y42049D01*
X183551Y44905D01*
X187281Y46450D01*
X191319Y46450D01*
X195049Y44905D01*
X197905Y42049D01*
X199450Y38319D01*
X199450Y34281D01*
X197905Y30551D01*
X195049Y27695D01*
X191319Y26150D01*
X187281Y26150D01*
G37*
%LPD*%
%LPC*%
G36*
X161881Y26150D02*
X161881Y26150D01*
X158151Y27695D01*
X155295Y30551D01*
X153750Y34281D01*
X153750Y38319D01*
X155295Y42049D01*
X158151Y44905D01*
X161881Y46450D01*
X165919Y46450D01*
X169649Y44905D01*
X172505Y42049D01*
X174050Y38319D01*
X174050Y34281D01*
X172505Y30551D01*
X169649Y27695D01*
X165919Y26150D01*
X161881Y26150D01*
G37*
%LPD*%
%LPC*%
G36*
X285181Y764250D02*
X285181Y764250D01*
X281451Y765795D01*
X278595Y768651D01*
X277050Y772381D01*
X277050Y776419D01*
X278595Y780149D01*
X281451Y783005D01*
X285181Y784550D01*
X289219Y784550D01*
X292949Y783005D01*
X295805Y780149D01*
X297350Y776419D01*
X297350Y772381D01*
X295805Y768651D01*
X292949Y765795D01*
X289219Y764250D01*
X285181Y764250D01*
G37*
%LPD*%
%LPC*%
G36*
X234381Y764250D02*
X234381Y764250D01*
X230651Y765795D01*
X227795Y768651D01*
X226250Y772381D01*
X226250Y776419D01*
X227795Y780149D01*
X230651Y783005D01*
X234381Y784550D01*
X238419Y784550D01*
X242149Y783005D01*
X245005Y780149D01*
X246550Y776419D01*
X246550Y772381D01*
X245005Y768651D01*
X242149Y765795D01*
X238419Y764250D01*
X234381Y764250D01*
G37*
%LPD*%
%LPC*%
G36*
X33581Y549650D02*
X33581Y549650D01*
X29851Y551195D01*
X26995Y554051D01*
X25450Y557781D01*
X25450Y561819D01*
X26995Y565549D01*
X29851Y568405D01*
X33581Y569950D01*
X37619Y569950D01*
X41349Y568405D01*
X44205Y565549D01*
X45750Y561819D01*
X45750Y557781D01*
X44205Y554051D01*
X41349Y551195D01*
X37619Y549650D01*
X33581Y549650D01*
G37*
%LPD*%
%LPC*%
G36*
X581381Y28050D02*
X581381Y28050D01*
X577651Y29595D01*
X574795Y32451D01*
X573250Y36181D01*
X573250Y40219D01*
X574795Y43949D01*
X577651Y46805D01*
X581381Y48350D01*
X585419Y48350D01*
X589149Y46805D01*
X592005Y43949D01*
X593550Y40219D01*
X593550Y36181D01*
X592005Y32451D01*
X589149Y29595D01*
X585419Y28050D01*
X581381Y28050D01*
G37*
%LPD*%
%LPC*%
G36*
X606781Y28050D02*
X606781Y28050D01*
X603051Y29595D01*
X600195Y32451D01*
X598650Y36181D01*
X598650Y40219D01*
X600195Y43949D01*
X603051Y46805D01*
X606781Y48350D01*
X610819Y48350D01*
X614549Y46805D01*
X617405Y43949D01*
X618950Y40219D01*
X618950Y36181D01*
X617405Y32451D01*
X614549Y29595D01*
X610819Y28050D01*
X606781Y28050D01*
G37*
%LPD*%
%LPC*%
G36*
X657581Y28050D02*
X657581Y28050D01*
X653851Y29595D01*
X650995Y32451D01*
X649450Y36181D01*
X649450Y40219D01*
X650995Y43949D01*
X653851Y46805D01*
X657581Y48350D01*
X661619Y48350D01*
X665349Y46805D01*
X668205Y43949D01*
X669750Y40219D01*
X669750Y36181D01*
X668205Y32451D01*
X665349Y29595D01*
X661619Y28050D01*
X657581Y28050D01*
G37*
%LPD*%
%LPC*%
G36*
X168781Y764250D02*
X168781Y764250D01*
X165051Y765795D01*
X162195Y768651D01*
X160650Y772381D01*
X160650Y776419D01*
X162195Y780149D01*
X165051Y783005D01*
X168781Y784550D01*
X172819Y784550D01*
X176549Y783005D01*
X179405Y780149D01*
X180950Y776419D01*
X180950Y772381D01*
X179405Y768651D01*
X176549Y765795D01*
X172819Y764250D01*
X168781Y764250D01*
G37*
%LPD*%
%LPC*%
G36*
X721881Y28050D02*
X721881Y28050D01*
X718151Y29595D01*
X715295Y32451D01*
X713750Y36181D01*
X713750Y40219D01*
X715295Y43949D01*
X718151Y46805D01*
X721881Y48350D01*
X725919Y48350D01*
X729649Y46805D01*
X732505Y43949D01*
X734050Y40219D01*
X734050Y36181D01*
X732505Y32451D01*
X729649Y29595D01*
X725919Y28050D01*
X721881Y28050D01*
G37*
%LPD*%
%LPC*%
G36*
X747281Y28050D02*
X747281Y28050D01*
X743551Y29595D01*
X740695Y32451D01*
X739150Y36181D01*
X739150Y40219D01*
X740695Y43949D01*
X743551Y46805D01*
X747281Y48350D01*
X751319Y48350D01*
X755049Y46805D01*
X757905Y43949D01*
X759450Y40219D01*
X759450Y36181D01*
X757905Y32451D01*
X755049Y29595D01*
X751319Y28050D01*
X747281Y28050D01*
G37*
%LPD*%
%LPC*%
G36*
X772681Y28050D02*
X772681Y28050D01*
X768951Y29595D01*
X766095Y32451D01*
X764550Y36181D01*
X764550Y40219D01*
X766095Y43949D01*
X768951Y46805D01*
X772681Y48350D01*
X776719Y48350D01*
X780449Y46805D01*
X783305Y43949D01*
X784850Y40219D01*
X784850Y36181D01*
X783305Y32451D01*
X780449Y29595D01*
X776719Y28050D01*
X772681Y28050D01*
G37*
%LPD*%
%LPC*%
G36*
X798081Y28050D02*
X798081Y28050D01*
X794351Y29595D01*
X791495Y32451D01*
X789950Y36181D01*
X789950Y40219D01*
X791495Y43949D01*
X794351Y46805D01*
X798081Y48350D01*
X802119Y48350D01*
X805849Y46805D01*
X808705Y43949D01*
X810250Y40219D01*
X810250Y36181D01*
X808705Y32451D01*
X805849Y29595D01*
X802119Y28050D01*
X798081Y28050D01*
G37*
%LPD*%
%LPC*%
G36*
X143381Y764250D02*
X143381Y764250D01*
X139651Y765795D01*
X136795Y768651D01*
X135250Y772381D01*
X135250Y776419D01*
X136795Y780149D01*
X139651Y783005D01*
X143381Y784550D01*
X147419Y784550D01*
X151149Y783005D01*
X154005Y780149D01*
X155550Y776419D01*
X155550Y772381D01*
X154005Y768651D01*
X151149Y765795D01*
X147419Y764250D01*
X143381Y764250D01*
G37*
%LPD*%
%LPC*%
G36*
X300381Y28050D02*
X300381Y28050D01*
X296651Y29595D01*
X293795Y32451D01*
X292250Y36181D01*
X292250Y40219D01*
X293795Y43949D01*
X296651Y46805D01*
X300381Y48350D01*
X304419Y48350D01*
X308149Y46805D01*
X311005Y43949D01*
X312550Y40219D01*
X312550Y36181D01*
X311005Y32451D01*
X308149Y29595D01*
X304419Y28050D01*
X300381Y28050D01*
G37*
%LPD*%
%LPC*%
G36*
X325781Y28050D02*
X325781Y28050D01*
X322051Y29595D01*
X319195Y32451D01*
X317650Y36181D01*
X317650Y40219D01*
X319195Y43949D01*
X322051Y46805D01*
X325781Y48350D01*
X329819Y48350D01*
X333549Y46805D01*
X336405Y43949D01*
X337950Y40219D01*
X337950Y36181D01*
X336405Y32451D01*
X333549Y29595D01*
X329819Y28050D01*
X325781Y28050D01*
G37*
%LPD*%
%LPC*%
G36*
X517081Y28050D02*
X517081Y28050D01*
X513351Y29595D01*
X510495Y32451D01*
X508950Y36181D01*
X508950Y40219D01*
X510495Y43949D01*
X513351Y46805D01*
X517081Y48350D01*
X521119Y48350D01*
X524849Y46805D01*
X527705Y43949D01*
X529250Y40219D01*
X529250Y36181D01*
X527705Y32451D01*
X524849Y29595D01*
X521119Y28050D01*
X517081Y28050D01*
G37*
%LPD*%
%LPC*%
G36*
X491681Y28050D02*
X491681Y28050D01*
X487951Y29595D01*
X485095Y32451D01*
X483550Y36181D01*
X483550Y40219D01*
X485095Y43949D01*
X487951Y46805D01*
X491681Y48350D01*
X495719Y48350D01*
X499449Y46805D01*
X502305Y43949D01*
X503850Y40219D01*
X503850Y36181D01*
X502305Y32451D01*
X499449Y29595D01*
X495719Y28050D01*
X491681Y28050D01*
G37*
%LPD*%
%LPC*%
G36*
X21381Y26150D02*
X21381Y26150D01*
X17651Y27695D01*
X14795Y30551D01*
X13250Y34281D01*
X13250Y38319D01*
X14795Y42049D01*
X17651Y44905D01*
X21381Y46450D01*
X25419Y46450D01*
X29149Y44905D01*
X32005Y42049D01*
X33550Y38319D01*
X33550Y34281D01*
X32005Y30551D01*
X29149Y27695D01*
X25419Y26150D01*
X21381Y26150D01*
G37*
%LPD*%
%LPC*%
G36*
X432785Y265299D02*
X432785Y265299D01*
X430171Y266382D01*
X428170Y268383D01*
X427087Y270997D01*
X427087Y285003D01*
X428170Y287617D01*
X430171Y289618D01*
X432785Y290701D01*
X435615Y290701D01*
X438229Y289618D01*
X440230Y287617D01*
X441313Y285003D01*
X441313Y270997D01*
X440230Y268383D01*
X438229Y266382D01*
X435615Y265299D01*
X432785Y265299D01*
G37*
%LPD*%
%LPC*%
G36*
X483585Y265299D02*
X483585Y265299D01*
X480971Y266382D01*
X478970Y268383D01*
X477887Y270997D01*
X477887Y285003D01*
X478970Y287617D01*
X480971Y289618D01*
X483585Y290701D01*
X486415Y290701D01*
X489029Y289618D01*
X491030Y287617D01*
X492113Y285003D01*
X492113Y270997D01*
X491030Y268383D01*
X489029Y266382D01*
X486415Y265299D01*
X483585Y265299D01*
G37*
%LPD*%
%LPC*%
G36*
X249268Y645775D02*
X249268Y645775D01*
X248375Y646668D01*
X248375Y662932D01*
X249268Y663825D01*
X263532Y663825D01*
X264425Y662932D01*
X264425Y646668D01*
X263532Y645775D01*
X249268Y645775D01*
G37*
%LPD*%
%LPC*%
G36*
X148268Y610775D02*
X148268Y610775D01*
X147375Y611668D01*
X147375Y627932D01*
X148268Y628825D01*
X162532Y628825D01*
X163425Y627932D01*
X163425Y611668D01*
X162532Y610775D01*
X148268Y610775D01*
G37*
%LPD*%
%LPC*%
G36*
X167268Y610775D02*
X167268Y610775D01*
X166375Y611668D01*
X166375Y627932D01*
X167268Y628825D01*
X181532Y628825D01*
X182425Y627932D01*
X182425Y611668D01*
X181532Y610775D01*
X167268Y610775D01*
G37*
%LPD*%
%LPC*%
G36*
X438168Y602575D02*
X438168Y602575D01*
X437275Y603468D01*
X437275Y617732D01*
X438168Y618625D01*
X454432Y618625D01*
X455325Y617732D01*
X455325Y603468D01*
X454432Y602575D01*
X438168Y602575D01*
G37*
%LPD*%
%LPC*%
G36*
X103468Y599675D02*
X103468Y599675D01*
X102575Y600568D01*
X102575Y616832D01*
X103468Y617725D01*
X117732Y617725D01*
X118625Y616832D01*
X118625Y600568D01*
X117732Y599675D01*
X103468Y599675D01*
G37*
%LPD*%
%LPC*%
G36*
X84468Y599675D02*
X84468Y599675D01*
X83575Y600568D01*
X83575Y616832D01*
X84468Y617725D01*
X98732Y617725D01*
X99625Y616832D01*
X99625Y600568D01*
X98732Y599675D01*
X84468Y599675D01*
G37*
%LPD*%
%LPC*%
G36*
X238468Y595775D02*
X238468Y595775D01*
X237575Y596668D01*
X237575Y612932D01*
X238468Y613825D01*
X252732Y613825D01*
X253625Y612932D01*
X253625Y596668D01*
X252732Y595775D01*
X238468Y595775D01*
G37*
%LPD*%
%LPC*%
G36*
X219468Y595775D02*
X219468Y595775D01*
X218575Y596668D01*
X218575Y612932D01*
X219468Y613825D01*
X233732Y613825D01*
X234625Y612932D01*
X234625Y596668D01*
X233732Y595775D01*
X219468Y595775D01*
G37*
%LPD*%
%LPC*%
G36*
X146668Y550775D02*
X146668Y550775D01*
X145775Y551668D01*
X145775Y567932D01*
X146668Y568825D01*
X160932Y568825D01*
X161825Y567932D01*
X161825Y551668D01*
X160932Y550775D01*
X146668Y550775D01*
G37*
%LPD*%
%LPC*%
G36*
X257668Y550775D02*
X257668Y550775D01*
X256775Y551668D01*
X256775Y567932D01*
X257668Y568825D01*
X271932Y568825D01*
X272825Y567932D01*
X272825Y551668D01*
X271932Y550775D01*
X257668Y550775D01*
G37*
%LPD*%
%LPC*%
G36*
X238668Y550775D02*
X238668Y550775D01*
X237775Y551668D01*
X237775Y567932D01*
X238668Y568825D01*
X252932Y568825D01*
X253825Y567932D01*
X253825Y551668D01*
X252932Y550775D01*
X238668Y550775D01*
G37*
%LPD*%
%LPC*%
G36*
X165668Y550775D02*
X165668Y550775D01*
X164775Y551668D01*
X164775Y567932D01*
X165668Y568825D01*
X179932Y568825D01*
X180825Y567932D01*
X180825Y551668D01*
X179932Y550775D01*
X165668Y550775D01*
G37*
%LPD*%
%LPC*%
G36*
X97468Y527275D02*
X97468Y527275D01*
X96575Y528168D01*
X96575Y544432D01*
X97468Y545325D01*
X111732Y545325D01*
X112625Y544432D01*
X112625Y528168D01*
X111732Y527275D01*
X97468Y527275D01*
G37*
%LPD*%
%LPC*%
G36*
X116468Y527275D02*
X116468Y527275D01*
X115575Y528168D01*
X115575Y544432D01*
X116468Y545325D01*
X130732Y545325D01*
X131625Y544432D01*
X131625Y528168D01*
X130732Y527275D01*
X116468Y527275D01*
G37*
%LPD*%
%LPC*%
G36*
X171468Y495775D02*
X171468Y495775D01*
X170575Y496668D01*
X170575Y512932D01*
X171468Y513825D01*
X185732Y513825D01*
X186625Y512932D01*
X186625Y496668D01*
X185732Y495775D01*
X171468Y495775D01*
G37*
%LPD*%
%LPC*%
G36*
X152468Y495775D02*
X152468Y495775D01*
X151575Y496668D01*
X151575Y512932D01*
X152468Y513825D01*
X166732Y513825D01*
X167625Y512932D01*
X167625Y496668D01*
X166732Y495775D01*
X152468Y495775D01*
G37*
%LPD*%
%LPC*%
G36*
X431668Y716375D02*
X431668Y716375D01*
X430775Y717268D01*
X430775Y731532D01*
X431668Y732425D01*
X447932Y732425D01*
X448825Y731532D01*
X448825Y717268D01*
X447932Y716375D01*
X431668Y716375D01*
G37*
%LPD*%
%LPC*%
G36*
X110668Y467275D02*
X110668Y467275D01*
X109775Y468168D01*
X109775Y484432D01*
X110668Y485325D01*
X124932Y485325D01*
X125825Y484432D01*
X125825Y468168D01*
X124932Y467275D01*
X110668Y467275D01*
G37*
%LPD*%
%LPC*%
G36*
X91668Y467275D02*
X91668Y467275D01*
X90775Y468168D01*
X90775Y484432D01*
X91668Y485325D01*
X105932Y485325D01*
X106825Y484432D01*
X106825Y468168D01*
X105932Y467275D01*
X91668Y467275D01*
G37*
%LPD*%
%LPC*%
G36*
X299668Y462275D02*
X299668Y462275D01*
X298775Y463168D01*
X298775Y479432D01*
X299668Y480325D01*
X313932Y480325D01*
X314825Y479432D01*
X314825Y463168D01*
X313932Y462275D01*
X299668Y462275D01*
G37*
%LPD*%
%LPC*%
G36*
X280668Y462275D02*
X280668Y462275D01*
X279775Y463168D01*
X279775Y479432D01*
X280668Y480325D01*
X294932Y480325D01*
X295825Y479432D01*
X295825Y463168D01*
X294932Y462275D01*
X280668Y462275D01*
G37*
%LPD*%
%LPC*%
G36*
X228268Y427275D02*
X228268Y427275D01*
X227375Y428168D01*
X227375Y444432D01*
X228268Y445325D01*
X242532Y445325D01*
X243425Y444432D01*
X243425Y428168D01*
X242532Y427275D01*
X228268Y427275D01*
G37*
%LPD*%
%LPC*%
G36*
X247268Y427275D02*
X247268Y427275D01*
X246375Y428168D01*
X246375Y444432D01*
X247268Y445325D01*
X261532Y445325D01*
X262425Y444432D01*
X262425Y428168D01*
X261532Y427275D01*
X247268Y427275D01*
G37*
%LPD*%
%LPC*%
G36*
X629768Y392275D02*
X629768Y392275D01*
X628875Y393168D01*
X628875Y409432D01*
X629768Y410325D01*
X644032Y410325D01*
X644925Y409432D01*
X644925Y393168D01*
X644032Y392275D01*
X629768Y392275D01*
G37*
%LPD*%
%LPC*%
G36*
X610768Y392275D02*
X610768Y392275D01*
X609875Y393168D01*
X609875Y409432D01*
X610768Y410325D01*
X625032Y410325D01*
X625925Y409432D01*
X625925Y393168D01*
X625032Y392275D01*
X610768Y392275D01*
G37*
%LPD*%
%LPC*%
G36*
X94268Y712275D02*
X94268Y712275D01*
X93375Y713168D01*
X93375Y729432D01*
X94268Y730325D01*
X108532Y730325D01*
X109425Y729432D01*
X109425Y713168D01*
X108532Y712275D01*
X94268Y712275D01*
G37*
%LPD*%
%LPC*%
G36*
X113268Y712275D02*
X113268Y712275D01*
X112375Y713168D01*
X112375Y729432D01*
X113268Y730325D01*
X127532Y730325D01*
X128425Y729432D01*
X128425Y713168D01*
X127532Y712275D01*
X113268Y712275D01*
G37*
%LPD*%
%LPC*%
G36*
X224868Y326275D02*
X224868Y326275D01*
X223975Y327168D01*
X223975Y341432D01*
X224868Y342325D01*
X241132Y342325D01*
X242025Y341432D01*
X242025Y327168D01*
X241132Y326275D01*
X224868Y326275D01*
G37*
%LPD*%
%LPC*%
G36*
X684068Y360775D02*
X684068Y360775D01*
X683175Y361668D01*
X683175Y377932D01*
X684068Y378825D01*
X698332Y378825D01*
X699225Y377932D01*
X699225Y361668D01*
X698332Y360775D01*
X684068Y360775D01*
G37*
%LPD*%
%LPC*%
G36*
X64668Y711175D02*
X64668Y711175D01*
X63775Y712068D01*
X63775Y728332D01*
X64668Y729225D01*
X78932Y729225D01*
X79825Y728332D01*
X79825Y712068D01*
X78932Y711175D01*
X64668Y711175D01*
G37*
%LPD*%
%LPC*%
G36*
X45668Y711175D02*
X45668Y711175D01*
X44775Y712068D01*
X44775Y728332D01*
X45668Y729225D01*
X59932Y729225D01*
X60825Y728332D01*
X60825Y712068D01*
X59932Y711175D01*
X45668Y711175D01*
G37*
%LPD*%
%LPC*%
G36*
X191668Y700775D02*
X191668Y700775D01*
X190775Y701668D01*
X190775Y717932D01*
X191668Y718825D01*
X205932Y718825D01*
X206825Y717932D01*
X206825Y701668D01*
X205932Y700775D01*
X191668Y700775D01*
G37*
%LPD*%
%LPC*%
G36*
X431668Y697375D02*
X431668Y697375D01*
X430775Y698268D01*
X430775Y712532D01*
X431668Y713425D01*
X447932Y713425D01*
X448825Y712532D01*
X448825Y698268D01*
X447932Y697375D01*
X431668Y697375D01*
G37*
%LPD*%
%LPC*%
G36*
X765568Y314375D02*
X765568Y314375D01*
X764675Y315268D01*
X764675Y329532D01*
X765568Y330425D01*
X781832Y330425D01*
X782725Y329532D01*
X782725Y315268D01*
X781832Y314375D01*
X765568Y314375D01*
G37*
%LPD*%
%LPC*%
G36*
X740468Y347275D02*
X740468Y347275D01*
X739575Y348168D01*
X739575Y364432D01*
X740468Y365325D01*
X754732Y365325D01*
X755625Y364432D01*
X755625Y348168D01*
X754732Y347275D01*
X740468Y347275D01*
G37*
%LPD*%
%LPC*%
G36*
X721468Y347275D02*
X721468Y347275D01*
X720575Y348168D01*
X720575Y364432D01*
X721468Y365325D01*
X735732Y365325D01*
X736625Y364432D01*
X736625Y348168D01*
X735732Y347275D01*
X721468Y347275D01*
G37*
%LPD*%
%LPC*%
G36*
X114168Y682975D02*
X114168Y682975D01*
X113275Y683868D01*
X113275Y700132D01*
X114168Y701025D01*
X128432Y701025D01*
X129325Y700132D01*
X129325Y683868D01*
X128432Y682975D01*
X114168Y682975D01*
G37*
%LPD*%
%LPC*%
G36*
X347068Y673975D02*
X347068Y673975D01*
X346175Y674868D01*
X346175Y691132D01*
X347068Y692025D01*
X361332Y692025D01*
X362225Y691132D01*
X362225Y674868D01*
X361332Y673975D01*
X347068Y673975D01*
G37*
%LPD*%
%LPC*%
G36*
X328068Y673975D02*
X328068Y673975D01*
X327175Y674868D01*
X327175Y691132D01*
X328068Y692025D01*
X342332Y692025D01*
X343225Y691132D01*
X343225Y674868D01*
X342332Y673975D01*
X328068Y673975D01*
G37*
%LPD*%
%LPC*%
G36*
X695568Y310875D02*
X695568Y310875D01*
X694675Y311768D01*
X694675Y326032D01*
X695568Y326925D01*
X711832Y326925D01*
X712725Y326032D01*
X712725Y311768D01*
X711832Y310875D01*
X695568Y310875D01*
G37*
%LPD*%
%LPC*%
G36*
X437068Y672375D02*
X437068Y672375D01*
X436175Y673268D01*
X436175Y687532D01*
X437068Y688425D01*
X453332Y688425D01*
X454225Y687532D01*
X454225Y673268D01*
X453332Y672375D01*
X437068Y672375D01*
G37*
%LPD*%
%LPC*%
G36*
X94868Y651175D02*
X94868Y651175D01*
X93975Y652068D01*
X93975Y668332D01*
X94868Y669225D01*
X109132Y669225D01*
X110025Y668332D01*
X110025Y652068D01*
X109132Y651175D01*
X94868Y651175D01*
G37*
%LPD*%
%LPC*%
G36*
X113868Y651175D02*
X113868Y651175D01*
X112975Y652068D01*
X112975Y668332D01*
X113868Y669225D01*
X128132Y669225D01*
X129025Y668332D01*
X129025Y652068D01*
X128132Y651175D01*
X113868Y651175D01*
G37*
%LPD*%
%LPC*%
G36*
X230268Y645775D02*
X230268Y645775D01*
X229375Y646668D01*
X229375Y662932D01*
X230268Y663825D01*
X244532Y663825D01*
X245425Y662932D01*
X245425Y646668D01*
X244532Y645775D01*
X230268Y645775D01*
G37*
%LPD*%
%LPC*%
G36*
X887823Y382523D02*
X887823Y382523D01*
X887823Y400761D01*
X890169Y400452D01*
X892675Y399781D01*
X895072Y398788D01*
X897319Y397491D01*
X899377Y395911D01*
X901211Y394077D01*
X902791Y392019D01*
X904088Y389772D01*
X905081Y387375D01*
X905752Y384869D01*
X906061Y382523D01*
X887823Y382523D01*
G37*
%LPD*%
%LPC*%
G36*
X887823Y502923D02*
X887823Y502923D01*
X887823Y521161D01*
X890169Y520852D01*
X892675Y520181D01*
X895072Y519188D01*
X897319Y517891D01*
X899377Y516311D01*
X901211Y514477D01*
X902791Y512419D01*
X904088Y510172D01*
X905081Y507775D01*
X905752Y505269D01*
X906061Y502923D01*
X887823Y502923D01*
G37*
%LPD*%
%LPC*%
G36*
X866539Y382523D02*
X866539Y382523D01*
X866848Y384869D01*
X867519Y387375D01*
X868512Y389772D01*
X869809Y392019D01*
X871389Y394077D01*
X873223Y395911D01*
X875281Y397491D01*
X877528Y398788D01*
X879925Y399781D01*
X882431Y400452D01*
X884777Y400761D01*
X884777Y382523D01*
X866539Y382523D01*
G37*
%LPD*%
%LPC*%
G36*
X887823Y379477D02*
X887823Y379477D01*
X906061Y379477D01*
X905752Y377131D01*
X905081Y374625D01*
X904088Y372228D01*
X902791Y369981D01*
X901211Y367923D01*
X899377Y366089D01*
X897319Y364509D01*
X895072Y363212D01*
X892675Y362219D01*
X890169Y361548D01*
X887823Y361239D01*
X887823Y379477D01*
G37*
%LPD*%
%LPC*%
G36*
X866539Y502923D02*
X866539Y502923D01*
X866848Y505269D01*
X867519Y507775D01*
X868512Y510172D01*
X869809Y512419D01*
X871389Y514477D01*
X873223Y516311D01*
X875281Y517891D01*
X877528Y519188D01*
X879925Y520181D01*
X882431Y520852D01*
X884777Y521161D01*
X884777Y502923D01*
X866539Y502923D01*
G37*
%LPD*%
%LPC*%
G36*
X887823Y499877D02*
X887823Y499877D01*
X906061Y499877D01*
X905752Y497531D01*
X905081Y495025D01*
X904088Y492628D01*
X902791Y490381D01*
X901211Y488323D01*
X899377Y486489D01*
X897319Y484909D01*
X895072Y483612D01*
X892675Y482619D01*
X890169Y481948D01*
X887823Y481639D01*
X887823Y499877D01*
G37*
%LPD*%
%LPC*%
G36*
X882431Y361548D02*
X882431Y361548D01*
X879925Y362219D01*
X877528Y363212D01*
X875281Y364509D01*
X873223Y366089D01*
X871389Y367923D01*
X869809Y369981D01*
X868512Y372228D01*
X867519Y374625D01*
X866848Y377131D01*
X866539Y379477D01*
X884777Y379477D01*
X884777Y361239D01*
X882431Y361548D01*
G37*
%LPD*%
%LPC*%
G36*
X882431Y481948D02*
X882431Y481948D01*
X879925Y482619D01*
X877528Y483612D01*
X875281Y484909D01*
X873223Y486489D01*
X871389Y488323D01*
X869809Y490381D01*
X868512Y492628D01*
X867519Y495025D01*
X866848Y497531D01*
X866539Y499877D01*
X884777Y499877D01*
X884777Y481639D01*
X882431Y481948D01*
G37*
%LPD*%
%LPC*%
G36*
X837473Y445020D02*
X837473Y445020D01*
X834283Y446342D01*
X831842Y448783D01*
X830520Y451973D01*
X830520Y455427D01*
X831842Y458617D01*
X834283Y461058D01*
X837473Y462380D01*
X840927Y462380D01*
X844117Y461058D01*
X846558Y458617D01*
X847880Y455427D01*
X847880Y451973D01*
X846558Y448783D01*
X844117Y446342D01*
X840927Y445020D01*
X837473Y445020D01*
G37*
%LPD*%
%LPC*%
G36*
X837473Y420020D02*
X837473Y420020D01*
X834283Y421342D01*
X831842Y423783D01*
X830520Y426973D01*
X830520Y430427D01*
X831842Y433617D01*
X834283Y436058D01*
X837473Y437380D01*
X840927Y437380D01*
X844117Y436058D01*
X846558Y433617D01*
X847880Y430427D01*
X847880Y426973D01*
X846558Y423783D01*
X844117Y421342D01*
X840927Y420020D01*
X837473Y420020D01*
G37*
%LPD*%
%LPC*%
G36*
X857473Y420020D02*
X857473Y420020D01*
X854283Y421342D01*
X851842Y423783D01*
X850520Y426973D01*
X850520Y430427D01*
X851842Y433617D01*
X854283Y436058D01*
X857473Y437380D01*
X860927Y437380D01*
X864117Y436058D01*
X866558Y433617D01*
X867880Y430427D01*
X867880Y426973D01*
X866558Y423783D01*
X864117Y421342D01*
X860927Y420020D01*
X857473Y420020D01*
G37*
%LPD*%
%LPC*%
G36*
X409216Y412107D02*
X409216Y412107D01*
X408323Y413000D01*
X408323Y434584D01*
X409216Y435477D01*
X417084Y435477D01*
X417977Y434584D01*
X417977Y413000D01*
X417084Y412107D01*
X409216Y412107D01*
G37*
%LPD*%
%LPC*%
G36*
X396516Y412107D02*
X396516Y412107D01*
X395623Y413000D01*
X395623Y434584D01*
X396516Y435477D01*
X404384Y435477D01*
X405277Y434584D01*
X405277Y413000D01*
X404384Y412107D01*
X396516Y412107D01*
G37*
%LPD*%
%LPC*%
G36*
X383816Y412107D02*
X383816Y412107D01*
X382923Y413000D01*
X382923Y434584D01*
X383816Y435477D01*
X391684Y435477D01*
X392577Y434584D01*
X392577Y413000D01*
X391684Y412107D01*
X383816Y412107D01*
G37*
%LPD*%
%LPC*%
G36*
X383816Y311523D02*
X383816Y311523D01*
X382923Y312416D01*
X382923Y334000D01*
X383816Y334893D01*
X391684Y334893D01*
X392577Y334000D01*
X392577Y312416D01*
X391684Y311523D01*
X383816Y311523D01*
G37*
%LPD*%
%LPC*%
G36*
X358416Y412107D02*
X358416Y412107D01*
X357523Y413000D01*
X357523Y434584D01*
X358416Y435477D01*
X366284Y435477D01*
X367177Y434584D01*
X367177Y413000D01*
X366284Y412107D01*
X358416Y412107D01*
G37*
%LPD*%
%LPC*%
G36*
X396516Y311523D02*
X396516Y311523D01*
X395623Y312416D01*
X395623Y334000D01*
X396516Y334893D01*
X404384Y334893D01*
X405277Y334000D01*
X405277Y312416D01*
X404384Y311523D01*
X396516Y311523D01*
G37*
%LPD*%
%LPC*%
G36*
X409216Y311523D02*
X409216Y311523D01*
X408323Y312416D01*
X408323Y334000D01*
X409216Y334893D01*
X417084Y334893D01*
X417977Y334000D01*
X417977Y312416D01*
X417084Y311523D01*
X409216Y311523D01*
G37*
%LPD*%
%LPC*%
G36*
X421916Y311523D02*
X421916Y311523D01*
X421023Y312416D01*
X421023Y334000D01*
X421916Y334893D01*
X429784Y334893D01*
X430677Y334000D01*
X430677Y312416D01*
X429784Y311523D01*
X421916Y311523D01*
G37*
%LPD*%
%LPC*%
G36*
X447316Y311523D02*
X447316Y311523D01*
X446423Y312416D01*
X446423Y334000D01*
X447316Y334893D01*
X455184Y334893D01*
X456077Y334000D01*
X456077Y312416D01*
X455184Y311523D01*
X447316Y311523D01*
G37*
%LPD*%
%LPC*%
G36*
X460016Y311523D02*
X460016Y311523D01*
X459123Y312416D01*
X459123Y334000D01*
X460016Y334893D01*
X467884Y334893D01*
X468777Y334000D01*
X468777Y312416D01*
X467884Y311523D01*
X460016Y311523D01*
G37*
%LPD*%
%LPC*%
G36*
X472716Y311523D02*
X472716Y311523D01*
X471823Y312416D01*
X471823Y334000D01*
X472716Y334893D01*
X480584Y334893D01*
X481477Y334000D01*
X481477Y312416D01*
X480584Y311523D01*
X472716Y311523D01*
G37*
%LPD*%
%LPC*%
G36*
X498116Y311523D02*
X498116Y311523D01*
X497223Y312416D01*
X497223Y334000D01*
X498116Y334893D01*
X505984Y334893D01*
X506877Y334000D01*
X506877Y312416D01*
X505984Y311523D01*
X498116Y311523D01*
G37*
%LPD*%
%LPC*%
G36*
X510816Y311523D02*
X510816Y311523D01*
X509923Y312416D01*
X509923Y334000D01*
X510816Y334893D01*
X518684Y334893D01*
X519577Y334000D01*
X519577Y312416D01*
X518684Y311523D01*
X510816Y311523D01*
G37*
%LPD*%
%LPC*%
G36*
X345716Y311523D02*
X345716Y311523D01*
X344823Y312416D01*
X344823Y334000D01*
X345716Y334893D01*
X353584Y334893D01*
X354477Y334000D01*
X354477Y312416D01*
X353584Y311523D01*
X345716Y311523D01*
G37*
%LPD*%
%LPC*%
G36*
X485416Y311523D02*
X485416Y311523D01*
X484523Y312416D01*
X484523Y334000D01*
X485416Y334893D01*
X493284Y334893D01*
X494177Y334000D01*
X494177Y312416D01*
X493284Y311523D01*
X485416Y311523D01*
G37*
%LPD*%
%LPC*%
G36*
X345716Y412107D02*
X345716Y412107D01*
X344823Y413000D01*
X344823Y434584D01*
X345716Y435477D01*
X353584Y435477D01*
X354477Y434584D01*
X354477Y413000D01*
X353584Y412107D01*
X345716Y412107D01*
G37*
%LPD*%
%LPC*%
G36*
X510816Y412107D02*
X510816Y412107D01*
X509923Y413000D01*
X509923Y434584D01*
X510816Y435477D01*
X518684Y435477D01*
X519577Y434584D01*
X519577Y413000D01*
X518684Y412107D01*
X510816Y412107D01*
G37*
%LPD*%
%LPC*%
G36*
X358416Y311523D02*
X358416Y311523D01*
X357523Y312416D01*
X357523Y334000D01*
X358416Y334893D01*
X366284Y334893D01*
X367177Y334000D01*
X367177Y312416D01*
X366284Y311523D01*
X358416Y311523D01*
G37*
%LPD*%
%LPC*%
G36*
X498116Y412107D02*
X498116Y412107D01*
X497223Y413000D01*
X497223Y434584D01*
X498116Y435477D01*
X505984Y435477D01*
X506877Y434584D01*
X506877Y413000D01*
X505984Y412107D01*
X498116Y412107D01*
G37*
%LPD*%
%LPC*%
G36*
X485416Y412107D02*
X485416Y412107D01*
X484523Y413000D01*
X484523Y434584D01*
X485416Y435477D01*
X493284Y435477D01*
X494177Y434584D01*
X494177Y413000D01*
X493284Y412107D01*
X485416Y412107D01*
G37*
%LPD*%
%LPC*%
G36*
X472716Y412107D02*
X472716Y412107D01*
X471823Y413000D01*
X471823Y434584D01*
X472716Y435477D01*
X480584Y435477D01*
X481477Y434584D01*
X481477Y413000D01*
X480584Y412107D01*
X472716Y412107D01*
G37*
%LPD*%
%LPC*%
G36*
X371116Y412107D02*
X371116Y412107D01*
X370223Y413000D01*
X370223Y434584D01*
X371116Y435477D01*
X378984Y435477D01*
X379877Y434584D01*
X379877Y413000D01*
X378984Y412107D01*
X371116Y412107D01*
G37*
%LPD*%
%LPC*%
G36*
X447316Y412107D02*
X447316Y412107D01*
X446423Y413000D01*
X446423Y434584D01*
X447316Y435477D01*
X455184Y435477D01*
X456077Y434584D01*
X456077Y413000D01*
X455184Y412107D01*
X447316Y412107D01*
G37*
%LPD*%
%LPC*%
G36*
X434616Y412107D02*
X434616Y412107D01*
X433723Y413000D01*
X433723Y434584D01*
X434616Y435477D01*
X442484Y435477D01*
X443377Y434584D01*
X443377Y413000D01*
X442484Y412107D01*
X434616Y412107D01*
G37*
%LPD*%
%LPC*%
G36*
X421916Y412107D02*
X421916Y412107D01*
X421023Y413000D01*
X421023Y434584D01*
X421916Y435477D01*
X429784Y435477D01*
X430677Y434584D01*
X430677Y413000D01*
X429784Y412107D01*
X421916Y412107D01*
G37*
%LPD*%
%LPC*%
G36*
X371116Y311523D02*
X371116Y311523D01*
X370223Y312416D01*
X370223Y334000D01*
X371116Y334893D01*
X378984Y334893D01*
X379877Y334000D01*
X379877Y312416D01*
X378984Y311523D01*
X371116Y311523D01*
G37*
%LPD*%
%LPC*%
G36*
X454600Y240625D02*
X454600Y240625D01*
X453275Y241950D01*
X453275Y261850D01*
X454600Y263175D01*
X460900Y263175D01*
X462225Y261850D01*
X462225Y241950D01*
X460900Y240625D01*
X454600Y240625D01*
G37*
%LPD*%
%LPC*%
G36*
X467300Y240625D02*
X467300Y240625D01*
X465975Y241950D01*
X465975Y261850D01*
X467300Y263175D01*
X473600Y263175D01*
X474925Y261850D01*
X474925Y241950D01*
X473600Y240625D01*
X467300Y240625D01*
G37*
%LPD*%
%LPC*%
G36*
X441900Y191025D02*
X441900Y191025D01*
X440575Y192350D01*
X440575Y212250D01*
X441900Y213575D01*
X448200Y213575D01*
X449525Y212250D01*
X449525Y192350D01*
X448200Y191025D01*
X441900Y191025D01*
G37*
%LPD*%
%LPC*%
G36*
X378400Y240625D02*
X378400Y240625D01*
X377075Y241950D01*
X377075Y261850D01*
X378400Y263175D01*
X384700Y263175D01*
X386025Y261850D01*
X386025Y241950D01*
X384700Y240625D01*
X378400Y240625D01*
G37*
%LPD*%
%LPC*%
G36*
X403800Y191025D02*
X403800Y191025D01*
X402475Y192350D01*
X402475Y212250D01*
X403800Y213575D01*
X410100Y213575D01*
X411425Y212250D01*
X411425Y192350D01*
X410100Y191025D01*
X403800Y191025D01*
G37*
%LPD*%
%LPC*%
G36*
X391100Y191025D02*
X391100Y191025D01*
X389775Y192350D01*
X389775Y212250D01*
X391100Y213575D01*
X397400Y213575D01*
X398725Y212250D01*
X398725Y192350D01*
X397400Y191025D01*
X391100Y191025D01*
G37*
%LPD*%
%LPC*%
G36*
X391100Y240625D02*
X391100Y240625D01*
X389775Y241950D01*
X389775Y261850D01*
X391100Y263175D01*
X397400Y263175D01*
X398725Y261850D01*
X398725Y241950D01*
X397400Y240625D01*
X391100Y240625D01*
G37*
%LPD*%
%LPC*%
G36*
X441900Y240625D02*
X441900Y240625D01*
X440575Y241950D01*
X440575Y261850D01*
X441900Y263175D01*
X448200Y263175D01*
X449525Y261850D01*
X449525Y241950D01*
X448200Y240625D01*
X441900Y240625D01*
G37*
%LPD*%
%LPC*%
G36*
X429200Y240625D02*
X429200Y240625D01*
X427875Y241950D01*
X427875Y261850D01*
X429200Y263175D01*
X435500Y263175D01*
X436825Y261850D01*
X436825Y241950D01*
X435500Y240625D01*
X429200Y240625D01*
G37*
%LPD*%
%LPC*%
G36*
X416500Y240625D02*
X416500Y240625D01*
X415175Y241950D01*
X415175Y261850D01*
X416500Y263175D01*
X422800Y263175D01*
X424125Y261850D01*
X424125Y241950D01*
X422800Y240625D01*
X416500Y240625D01*
G37*
%LPD*%
%LPC*%
G36*
X378400Y191025D02*
X378400Y191025D01*
X377075Y192350D01*
X377075Y212250D01*
X378400Y213575D01*
X384700Y213575D01*
X386025Y212250D01*
X386025Y192350D01*
X384700Y191025D01*
X378400Y191025D01*
G37*
%LPD*%
%LPC*%
G36*
X403800Y240625D02*
X403800Y240625D01*
X402475Y241950D01*
X402475Y261850D01*
X403800Y263175D01*
X410100Y263175D01*
X411425Y261850D01*
X411425Y241950D01*
X410100Y240625D01*
X403800Y240625D01*
G37*
%LPD*%
%LPC*%
G36*
X454600Y191025D02*
X454600Y191025D01*
X453275Y192350D01*
X453275Y212250D01*
X454600Y213575D01*
X460900Y213575D01*
X462225Y212250D01*
X462225Y192350D01*
X460900Y191025D01*
X454600Y191025D01*
G37*
%LPD*%
%LPC*%
G36*
X254768Y87375D02*
X254768Y87375D01*
X253875Y88268D01*
X253875Y105032D01*
X254768Y105925D01*
X262532Y105925D01*
X263425Y105032D01*
X263425Y88268D01*
X262532Y87375D01*
X254768Y87375D01*
G37*
%LPD*%
%LPC*%
G36*
X242068Y87375D02*
X242068Y87375D01*
X241175Y88268D01*
X241175Y105032D01*
X242068Y105925D01*
X249832Y105925D01*
X250725Y105032D01*
X250725Y88268D01*
X249832Y87375D01*
X242068Y87375D01*
G37*
%LPD*%
%LPC*%
G36*
X229368Y87375D02*
X229368Y87375D01*
X228475Y88268D01*
X228475Y105032D01*
X229368Y105925D01*
X237132Y105925D01*
X238025Y105032D01*
X238025Y88268D01*
X237132Y87375D01*
X229368Y87375D01*
G37*
%LPD*%
%LPC*%
G36*
X216668Y87375D02*
X216668Y87375D01*
X215775Y88268D01*
X215775Y105032D01*
X216668Y105925D01*
X224432Y105925D01*
X225325Y105032D01*
X225325Y88268D01*
X224432Y87375D01*
X216668Y87375D01*
G37*
%LPD*%
%LPC*%
G36*
X203968Y87375D02*
X203968Y87375D01*
X203075Y88268D01*
X203075Y105032D01*
X203968Y105925D01*
X211732Y105925D01*
X212625Y105032D01*
X212625Y88268D01*
X211732Y87375D01*
X203968Y87375D01*
G37*
%LPD*%
%LPC*%
G36*
X359368Y87275D02*
X359368Y87275D01*
X358475Y88168D01*
X358475Y104932D01*
X359368Y105825D01*
X367132Y105825D01*
X368025Y104932D01*
X368025Y88168D01*
X367132Y87275D01*
X359368Y87275D01*
G37*
%LPD*%
%LPC*%
G36*
X346668Y87275D02*
X346668Y87275D01*
X345775Y88168D01*
X345775Y104932D01*
X346668Y105825D01*
X354432Y105825D01*
X355325Y104932D01*
X355325Y88168D01*
X354432Y87275D01*
X346668Y87275D01*
G37*
%LPD*%
%LPC*%
G36*
X384768Y87275D02*
X384768Y87275D01*
X383875Y88168D01*
X383875Y104932D01*
X384768Y105825D01*
X392532Y105825D01*
X393425Y104932D01*
X393425Y88168D01*
X392532Y87275D01*
X384768Y87275D01*
G37*
%LPD*%
%LPC*%
G36*
X372068Y87275D02*
X372068Y87275D01*
X371175Y88168D01*
X371175Y104932D01*
X372068Y105825D01*
X379832Y105825D01*
X380725Y104932D01*
X380725Y88168D01*
X379832Y87275D01*
X372068Y87275D01*
G37*
%LPD*%
%LPC*%
G36*
X333968Y87275D02*
X333968Y87275D01*
X333075Y88168D01*
X333075Y104932D01*
X333968Y105825D01*
X341732Y105825D01*
X342625Y104932D01*
X342625Y88168D01*
X341732Y87275D01*
X333968Y87275D01*
G37*
%LPD*%
%LPC*%
G36*
X321268Y87275D02*
X321268Y87275D01*
X320375Y88168D01*
X320375Y104932D01*
X321268Y105825D01*
X329032Y105825D01*
X329925Y104932D01*
X329925Y88168D01*
X329032Y87275D01*
X321268Y87275D01*
G37*
%LPD*%
%LPC*%
G36*
X308568Y87275D02*
X308568Y87275D01*
X307675Y88168D01*
X307675Y104932D01*
X308568Y105825D01*
X316332Y105825D01*
X317225Y104932D01*
X317225Y88168D01*
X316332Y87275D01*
X308568Y87275D01*
G37*
%LPD*%
%LPC*%
G36*
X533668Y84775D02*
X533668Y84775D01*
X532775Y85668D01*
X532775Y102432D01*
X533668Y103325D01*
X541432Y103325D01*
X542325Y102432D01*
X542325Y85668D01*
X541432Y84775D01*
X533668Y84775D01*
G37*
%LPD*%
%LPC*%
G36*
X520968Y84775D02*
X520968Y84775D01*
X520075Y85668D01*
X520075Y102432D01*
X520968Y103325D01*
X528732Y103325D01*
X529625Y102432D01*
X529625Y85668D01*
X528732Y84775D01*
X520968Y84775D01*
G37*
%LPD*%
%LPC*%
G36*
X508268Y84775D02*
X508268Y84775D01*
X507375Y85668D01*
X507375Y102432D01*
X508268Y103325D01*
X516032Y103325D01*
X516925Y102432D01*
X516925Y85668D01*
X516032Y84775D01*
X508268Y84775D01*
G37*
%LPD*%
%LPC*%
G36*
X495568Y84775D02*
X495568Y84775D01*
X494675Y85668D01*
X494675Y102432D01*
X495568Y103325D01*
X503332Y103325D01*
X504225Y102432D01*
X504225Y85668D01*
X503332Y84775D01*
X495568Y84775D01*
G37*
%LPD*%
%LPC*%
G36*
X482868Y84775D02*
X482868Y84775D01*
X481975Y85668D01*
X481975Y102432D01*
X482868Y103325D01*
X490632Y103325D01*
X491525Y102432D01*
X491525Y85668D01*
X490632Y84775D01*
X482868Y84775D01*
G37*
%LPD*%
%LPC*%
G36*
X470168Y84775D02*
X470168Y84775D01*
X469275Y85668D01*
X469275Y102432D01*
X470168Y103325D01*
X477932Y103325D01*
X478825Y102432D01*
X478825Y85668D01*
X477932Y84775D01*
X470168Y84775D01*
G37*
%LPD*%
%LPC*%
G36*
X457468Y84775D02*
X457468Y84775D01*
X456575Y85668D01*
X456575Y102432D01*
X457468Y103325D01*
X465232Y103325D01*
X466125Y102432D01*
X466125Y85668D01*
X465232Y84775D01*
X457468Y84775D01*
G37*
%LPD*%
%LPC*%
G36*
X444768Y84775D02*
X444768Y84775D01*
X443875Y85668D01*
X443875Y102432D01*
X444768Y103325D01*
X452532Y103325D01*
X453425Y102432D01*
X453425Y85668D01*
X452532Y84775D01*
X444768Y84775D01*
G37*
%LPD*%
%LPC*%
G36*
X596968Y82575D02*
X596968Y82575D01*
X596075Y83468D01*
X596075Y100232D01*
X596968Y101125D01*
X604732Y101125D01*
X605625Y100232D01*
X605625Y83468D01*
X604732Y82575D01*
X596968Y82575D01*
G37*
%LPD*%
%LPC*%
G36*
X584268Y82575D02*
X584268Y82575D01*
X583375Y83468D01*
X583375Y100232D01*
X584268Y101125D01*
X592032Y101125D01*
X592925Y100232D01*
X592925Y83468D01*
X592032Y82575D01*
X584268Y82575D01*
G37*
%LPD*%
%LPC*%
G36*
X660468Y82575D02*
X660468Y82575D01*
X659575Y83468D01*
X659575Y100232D01*
X660468Y101125D01*
X668232Y101125D01*
X669125Y100232D01*
X669125Y83468D01*
X668232Y82575D01*
X660468Y82575D01*
G37*
%LPD*%
%LPC*%
G36*
X647768Y82575D02*
X647768Y82575D01*
X646875Y83468D01*
X646875Y100232D01*
X647768Y101125D01*
X655532Y101125D01*
X656425Y100232D01*
X656425Y83468D01*
X655532Y82575D01*
X647768Y82575D01*
G37*
%LPD*%
%LPC*%
G36*
X635068Y82575D02*
X635068Y82575D01*
X634175Y83468D01*
X634175Y100232D01*
X635068Y101125D01*
X642832Y101125D01*
X643725Y100232D01*
X643725Y83468D01*
X642832Y82575D01*
X635068Y82575D01*
G37*
%LPD*%
%LPC*%
G36*
X622368Y82575D02*
X622368Y82575D01*
X621475Y83468D01*
X621475Y100232D01*
X622368Y101125D01*
X630132Y101125D01*
X631025Y100232D01*
X631025Y83468D01*
X630132Y82575D01*
X622368Y82575D01*
G37*
%LPD*%
%LPC*%
G36*
X609668Y82575D02*
X609668Y82575D01*
X608775Y83468D01*
X608775Y100232D01*
X609668Y101125D01*
X617432Y101125D01*
X618325Y100232D01*
X618325Y83468D01*
X617432Y82575D01*
X609668Y82575D01*
G37*
%LPD*%
%LPC*%
G36*
X721968Y82475D02*
X721968Y82475D01*
X721075Y83368D01*
X721075Y100132D01*
X721968Y101025D01*
X729732Y101025D01*
X730625Y100132D01*
X730625Y83368D01*
X729732Y82475D01*
X721968Y82475D01*
G37*
%LPD*%
%LPC*%
G36*
X709268Y82475D02*
X709268Y82475D01*
X708375Y83368D01*
X708375Y100132D01*
X709268Y101025D01*
X717032Y101025D01*
X717925Y100132D01*
X717925Y83368D01*
X717032Y82475D01*
X709268Y82475D01*
G37*
%LPD*%
%LPC*%
G36*
X785468Y82475D02*
X785468Y82475D01*
X784575Y83368D01*
X784575Y100132D01*
X785468Y101025D01*
X793232Y101025D01*
X794125Y100132D01*
X794125Y83368D01*
X793232Y82475D01*
X785468Y82475D01*
G37*
%LPD*%
%LPC*%
G36*
X772768Y82475D02*
X772768Y82475D01*
X771875Y83368D01*
X771875Y100132D01*
X772768Y101025D01*
X780532Y101025D01*
X781425Y100132D01*
X781425Y83368D01*
X780532Y82475D01*
X772768Y82475D01*
G37*
%LPD*%
%LPC*%
G36*
X760068Y82475D02*
X760068Y82475D01*
X759175Y83368D01*
X759175Y100132D01*
X760068Y101025D01*
X767832Y101025D01*
X768725Y100132D01*
X768725Y83368D01*
X767832Y82475D01*
X760068Y82475D01*
G37*
%LPD*%
%LPC*%
G36*
X747368Y82475D02*
X747368Y82475D01*
X746475Y83368D01*
X746475Y100132D01*
X747368Y101025D01*
X755132Y101025D01*
X756025Y100132D01*
X756025Y83368D01*
X755132Y82475D01*
X747368Y82475D01*
G37*
%LPD*%
%LPC*%
G36*
X734668Y82475D02*
X734668Y82475D01*
X733775Y83368D01*
X733775Y100132D01*
X734668Y101025D01*
X742432Y101025D01*
X743325Y100132D01*
X743325Y83368D01*
X742432Y82475D01*
X734668Y82475D01*
G37*
%LPD*%
%LPC*%
G36*
X216668Y141875D02*
X216668Y141875D01*
X215775Y142768D01*
X215775Y159532D01*
X216668Y160425D01*
X224432Y160425D01*
X225325Y159532D01*
X225325Y142768D01*
X224432Y141875D01*
X216668Y141875D01*
G37*
%LPD*%
%LPC*%
G36*
X92868Y87475D02*
X92868Y87475D01*
X91975Y88368D01*
X91975Y105132D01*
X92868Y106025D01*
X100632Y106025D01*
X101525Y105132D01*
X101525Y88368D01*
X100632Y87475D01*
X92868Y87475D01*
G37*
%LPD*%
%LPC*%
G36*
X143668Y141975D02*
X143668Y141975D01*
X142775Y142868D01*
X142775Y159632D01*
X143668Y160525D01*
X151432Y160525D01*
X152325Y159632D01*
X152325Y142868D01*
X151432Y141975D01*
X143668Y141975D01*
G37*
%LPD*%
%LPC*%
G36*
X130968Y141975D02*
X130968Y141975D01*
X130075Y142868D01*
X130075Y159632D01*
X130968Y160525D01*
X138732Y160525D01*
X139625Y159632D01*
X139625Y142868D01*
X138732Y141975D01*
X130968Y141975D01*
G37*
%LPD*%
%LPC*%
G36*
X118268Y141975D02*
X118268Y141975D01*
X117375Y142868D01*
X117375Y159632D01*
X118268Y160525D01*
X126032Y160525D01*
X126925Y159632D01*
X126925Y142868D01*
X126032Y141975D01*
X118268Y141975D01*
G37*
%LPD*%
%LPC*%
G36*
X105568Y141975D02*
X105568Y141975D01*
X104675Y142868D01*
X104675Y159632D01*
X105568Y160525D01*
X113332Y160525D01*
X114225Y159632D01*
X114225Y142868D01*
X113332Y141975D01*
X105568Y141975D01*
G37*
%LPD*%
%LPC*%
G36*
X92868Y141975D02*
X92868Y141975D01*
X91975Y142868D01*
X91975Y159632D01*
X92868Y160525D01*
X100632Y160525D01*
X101525Y159632D01*
X101525Y142868D01*
X100632Y141975D01*
X92868Y141975D01*
G37*
%LPD*%
%LPC*%
G36*
X80168Y141975D02*
X80168Y141975D01*
X79275Y142868D01*
X79275Y159632D01*
X80168Y160525D01*
X87932Y160525D01*
X88825Y159632D01*
X88825Y142868D01*
X87932Y141975D01*
X80168Y141975D01*
G37*
%LPD*%
%LPC*%
G36*
X67468Y141975D02*
X67468Y141975D01*
X66575Y142868D01*
X66575Y159632D01*
X67468Y160525D01*
X75232Y160525D01*
X76125Y159632D01*
X76125Y142868D01*
X75232Y141975D01*
X67468Y141975D01*
G37*
%LPD*%
%LPC*%
G36*
X54768Y141975D02*
X54768Y141975D01*
X53875Y142868D01*
X53875Y159632D01*
X54768Y160525D01*
X62532Y160525D01*
X63425Y159632D01*
X63425Y142868D01*
X62532Y141975D01*
X54768Y141975D01*
G37*
%LPD*%
%LPC*%
G36*
X254768Y141875D02*
X254768Y141875D01*
X253875Y142768D01*
X253875Y159532D01*
X254768Y160425D01*
X262532Y160425D01*
X263425Y159532D01*
X263425Y142768D01*
X262532Y141875D01*
X254768Y141875D01*
G37*
%LPD*%
%LPC*%
G36*
X242068Y141875D02*
X242068Y141875D01*
X241175Y142768D01*
X241175Y159532D01*
X242068Y160425D01*
X249832Y160425D01*
X250725Y159532D01*
X250725Y142768D01*
X249832Y141875D01*
X242068Y141875D01*
G37*
%LPD*%
%LPC*%
G36*
X267468Y141875D02*
X267468Y141875D01*
X266575Y142768D01*
X266575Y159532D01*
X267468Y160425D01*
X275232Y160425D01*
X276125Y159532D01*
X276125Y142768D01*
X275232Y141875D01*
X267468Y141875D01*
G37*
%LPD*%
%LPC*%
G36*
X229368Y141875D02*
X229368Y141875D01*
X228475Y142768D01*
X228475Y159532D01*
X229368Y160425D01*
X237132Y160425D01*
X238025Y159532D01*
X238025Y142768D01*
X237132Y141875D01*
X229368Y141875D01*
G37*
%LPD*%
%LPC*%
G36*
X203968Y141875D02*
X203968Y141875D01*
X203075Y142768D01*
X203075Y159532D01*
X203968Y160425D01*
X211732Y160425D01*
X212625Y159532D01*
X212625Y142768D01*
X211732Y141875D01*
X203968Y141875D01*
G37*
%LPD*%
%LPC*%
G36*
X191268Y141875D02*
X191268Y141875D01*
X190375Y142768D01*
X190375Y159532D01*
X191268Y160425D01*
X199032Y160425D01*
X199925Y159532D01*
X199925Y142768D01*
X199032Y141875D01*
X191268Y141875D01*
G37*
%LPD*%
%LPC*%
G36*
X178568Y141875D02*
X178568Y141875D01*
X177675Y142768D01*
X177675Y159532D01*
X178568Y160425D01*
X186332Y160425D01*
X187225Y159532D01*
X187225Y142768D01*
X186332Y141875D01*
X178568Y141875D01*
G37*
%LPD*%
%LPC*%
G36*
X397468Y141775D02*
X397468Y141775D01*
X396575Y142668D01*
X396575Y159432D01*
X397468Y160325D01*
X405232Y160325D01*
X406125Y159432D01*
X406125Y142668D01*
X405232Y141775D01*
X397468Y141775D01*
G37*
%LPD*%
%LPC*%
G36*
X384768Y141775D02*
X384768Y141775D01*
X383875Y142668D01*
X383875Y159432D01*
X384768Y160325D01*
X392532Y160325D01*
X393425Y159432D01*
X393425Y142668D01*
X392532Y141775D01*
X384768Y141775D01*
G37*
%LPD*%
%LPC*%
G36*
X372068Y141775D02*
X372068Y141775D01*
X371175Y142668D01*
X371175Y159432D01*
X372068Y160325D01*
X379832Y160325D01*
X380725Y159432D01*
X380725Y142668D01*
X379832Y141775D01*
X372068Y141775D01*
G37*
%LPD*%
%LPC*%
G36*
X359368Y141775D02*
X359368Y141775D01*
X358475Y142668D01*
X358475Y159432D01*
X359368Y160325D01*
X367132Y160325D01*
X368025Y159432D01*
X368025Y142668D01*
X367132Y141775D01*
X359368Y141775D01*
G37*
%LPD*%
%LPC*%
G36*
X346668Y141775D02*
X346668Y141775D01*
X345775Y142668D01*
X345775Y159432D01*
X346668Y160325D01*
X354432Y160325D01*
X355325Y159432D01*
X355325Y142668D01*
X354432Y141775D01*
X346668Y141775D01*
G37*
%LPD*%
%LPC*%
G36*
X333968Y141775D02*
X333968Y141775D01*
X333075Y142668D01*
X333075Y159432D01*
X333968Y160325D01*
X341732Y160325D01*
X342625Y159432D01*
X342625Y142668D01*
X341732Y141775D01*
X333968Y141775D01*
G37*
%LPD*%
%LPC*%
G36*
X321268Y141775D02*
X321268Y141775D01*
X320375Y142668D01*
X320375Y159432D01*
X321268Y160325D01*
X329032Y160325D01*
X329925Y159432D01*
X329925Y142668D01*
X329032Y141775D01*
X321268Y141775D01*
G37*
%LPD*%
%LPC*%
G36*
X308568Y141775D02*
X308568Y141775D01*
X307675Y142668D01*
X307675Y159432D01*
X308568Y160325D01*
X316332Y160325D01*
X317225Y159432D01*
X317225Y142668D01*
X316332Y141775D01*
X308568Y141775D01*
G37*
%LPD*%
%LPC*%
G36*
X470168Y139275D02*
X470168Y139275D01*
X469275Y140168D01*
X469275Y156932D01*
X470168Y157825D01*
X477932Y157825D01*
X478825Y156932D01*
X478825Y140168D01*
X477932Y139275D01*
X470168Y139275D01*
G37*
%LPD*%
%LPC*%
G36*
X457468Y139275D02*
X457468Y139275D01*
X456575Y140168D01*
X456575Y156932D01*
X457468Y157825D01*
X465232Y157825D01*
X466125Y156932D01*
X466125Y140168D01*
X465232Y139275D01*
X457468Y139275D01*
G37*
%LPD*%
%LPC*%
G36*
X533668Y139275D02*
X533668Y139275D01*
X532775Y140168D01*
X532775Y156932D01*
X533668Y157825D01*
X541432Y157825D01*
X542325Y156932D01*
X542325Y140168D01*
X541432Y139275D01*
X533668Y139275D01*
G37*
%LPD*%
%LPC*%
G36*
X520968Y139275D02*
X520968Y139275D01*
X520075Y140168D01*
X520075Y156932D01*
X520968Y157825D01*
X528732Y157825D01*
X529625Y156932D01*
X529625Y140168D01*
X528732Y139275D01*
X520968Y139275D01*
G37*
%LPD*%
%LPC*%
G36*
X508268Y139275D02*
X508268Y139275D01*
X507375Y140168D01*
X507375Y156932D01*
X508268Y157825D01*
X516032Y157825D01*
X516925Y156932D01*
X516925Y140168D01*
X516032Y139275D01*
X508268Y139275D01*
G37*
%LPD*%
%LPC*%
G36*
X495568Y139275D02*
X495568Y139275D01*
X494675Y140168D01*
X494675Y156932D01*
X495568Y157825D01*
X503332Y157825D01*
X504225Y156932D01*
X504225Y140168D01*
X503332Y139275D01*
X495568Y139275D01*
G37*
%LPD*%
%LPC*%
G36*
X482868Y139275D02*
X482868Y139275D01*
X481975Y140168D01*
X481975Y156932D01*
X482868Y157825D01*
X490632Y157825D01*
X491525Y156932D01*
X491525Y140168D01*
X490632Y139275D01*
X482868Y139275D01*
G37*
%LPD*%
%LPC*%
G36*
X673168Y137075D02*
X673168Y137075D01*
X672275Y137968D01*
X672275Y154732D01*
X673168Y155625D01*
X680932Y155625D01*
X681825Y154732D01*
X681825Y137968D01*
X680932Y137075D01*
X673168Y137075D01*
G37*
%LPD*%
%LPC*%
G36*
X660468Y137075D02*
X660468Y137075D01*
X659575Y137968D01*
X659575Y154732D01*
X660468Y155625D01*
X668232Y155625D01*
X669125Y154732D01*
X669125Y137968D01*
X668232Y137075D01*
X660468Y137075D01*
G37*
%LPD*%
%LPC*%
G36*
X647768Y137075D02*
X647768Y137075D01*
X646875Y137968D01*
X646875Y154732D01*
X647768Y155625D01*
X655532Y155625D01*
X656425Y154732D01*
X656425Y137968D01*
X655532Y137075D01*
X647768Y137075D01*
G37*
%LPD*%
%LPC*%
G36*
X635068Y137075D02*
X635068Y137075D01*
X634175Y137968D01*
X634175Y154732D01*
X635068Y155625D01*
X642832Y155625D01*
X643725Y154732D01*
X643725Y137968D01*
X642832Y137075D01*
X635068Y137075D01*
G37*
%LPD*%
%LPC*%
G36*
X622368Y137075D02*
X622368Y137075D01*
X621475Y137968D01*
X621475Y154732D01*
X622368Y155625D01*
X630132Y155625D01*
X631025Y154732D01*
X631025Y137968D01*
X630132Y137075D01*
X622368Y137075D01*
G37*
%LPD*%
%LPC*%
G36*
X609668Y137075D02*
X609668Y137075D01*
X608775Y137968D01*
X608775Y154732D01*
X609668Y155625D01*
X617432Y155625D01*
X618325Y154732D01*
X618325Y137968D01*
X617432Y137075D01*
X609668Y137075D01*
G37*
%LPD*%
%LPC*%
G36*
X596968Y137075D02*
X596968Y137075D01*
X596075Y137968D01*
X596075Y154732D01*
X596968Y155625D01*
X604732Y155625D01*
X605625Y154732D01*
X605625Y137968D01*
X604732Y137075D01*
X596968Y137075D01*
G37*
%LPD*%
%LPC*%
G36*
X584268Y137075D02*
X584268Y137075D01*
X583375Y137968D01*
X583375Y154732D01*
X584268Y155625D01*
X592032Y155625D01*
X592925Y154732D01*
X592925Y137968D01*
X592032Y137075D01*
X584268Y137075D01*
G37*
%LPD*%
%LPC*%
G36*
X721968Y136975D02*
X721968Y136975D01*
X721075Y137868D01*
X721075Y154632D01*
X721968Y155525D01*
X729732Y155525D01*
X730625Y154632D01*
X730625Y137868D01*
X729732Y136975D01*
X721968Y136975D01*
G37*
%LPD*%
%LPC*%
G36*
X709268Y136975D02*
X709268Y136975D01*
X708375Y137868D01*
X708375Y154632D01*
X709268Y155525D01*
X717032Y155525D01*
X717925Y154632D01*
X717925Y137868D01*
X717032Y136975D01*
X709268Y136975D01*
G37*
%LPD*%
%LPC*%
G36*
X798168Y136975D02*
X798168Y136975D01*
X797275Y137868D01*
X797275Y154632D01*
X798168Y155525D01*
X805932Y155525D01*
X806825Y154632D01*
X806825Y137868D01*
X805932Y136975D01*
X798168Y136975D01*
G37*
%LPD*%
%LPC*%
G36*
X785468Y136975D02*
X785468Y136975D01*
X784575Y137868D01*
X784575Y154632D01*
X785468Y155525D01*
X793232Y155525D01*
X794125Y154632D01*
X794125Y137868D01*
X793232Y136975D01*
X785468Y136975D01*
G37*
%LPD*%
%LPC*%
G36*
X772768Y136975D02*
X772768Y136975D01*
X771875Y137868D01*
X771875Y154632D01*
X772768Y155525D01*
X780532Y155525D01*
X781425Y154632D01*
X781425Y137868D01*
X780532Y136975D01*
X772768Y136975D01*
G37*
%LPD*%
%LPC*%
G36*
X760068Y136975D02*
X760068Y136975D01*
X759175Y137868D01*
X759175Y154632D01*
X760068Y155525D01*
X767832Y155525D01*
X768725Y154632D01*
X768725Y137868D01*
X767832Y136975D01*
X760068Y136975D01*
G37*
%LPD*%
%LPC*%
G36*
X747368Y136975D02*
X747368Y136975D01*
X746475Y137868D01*
X746475Y154632D01*
X747368Y155525D01*
X755132Y155525D01*
X756025Y154632D01*
X756025Y137868D01*
X755132Y136975D01*
X747368Y136975D01*
G37*
%LPD*%
%LPC*%
G36*
X734668Y136975D02*
X734668Y136975D01*
X733775Y137868D01*
X733775Y154632D01*
X734668Y155525D01*
X742432Y155525D01*
X743325Y154632D01*
X743325Y137868D01*
X742432Y136975D01*
X734668Y136975D01*
G37*
%LPD*%
%LPC*%
G36*
X80168Y87475D02*
X80168Y87475D01*
X79275Y88368D01*
X79275Y105132D01*
X80168Y106025D01*
X87932Y106025D01*
X88825Y105132D01*
X88825Y88368D01*
X87932Y87475D01*
X80168Y87475D01*
G37*
%LPD*%
%LPC*%
G36*
X130968Y87475D02*
X130968Y87475D01*
X130075Y88368D01*
X130075Y105132D01*
X130968Y106025D01*
X138732Y106025D01*
X139625Y105132D01*
X139625Y88368D01*
X138732Y87475D01*
X130968Y87475D01*
G37*
%LPD*%
%LPC*%
G36*
X118268Y87475D02*
X118268Y87475D01*
X117375Y88368D01*
X117375Y105132D01*
X118268Y106025D01*
X126032Y106025D01*
X126925Y105132D01*
X126925Y88368D01*
X126032Y87475D01*
X118268Y87475D01*
G37*
%LPD*%
%LPC*%
G36*
X105568Y87475D02*
X105568Y87475D01*
X104675Y88368D01*
X104675Y105132D01*
X105568Y106025D01*
X113332Y106025D01*
X114225Y105132D01*
X114225Y88368D01*
X113332Y87475D01*
X105568Y87475D01*
G37*
%LPD*%
%LPC*%
G36*
X67468Y87475D02*
X67468Y87475D01*
X66575Y88368D01*
X66575Y105132D01*
X67468Y106025D01*
X75232Y106025D01*
X76125Y105132D01*
X76125Y88368D01*
X75232Y87475D01*
X67468Y87475D01*
G37*
%LPD*%
%LPC*%
G36*
X54768Y87475D02*
X54768Y87475D01*
X53875Y88368D01*
X53875Y105132D01*
X54768Y106025D01*
X62532Y106025D01*
X63425Y105132D01*
X63425Y88368D01*
X62532Y87475D01*
X54768Y87475D01*
G37*
%LPD*%
%LPC*%
G36*
X191268Y87375D02*
X191268Y87375D01*
X190375Y88268D01*
X190375Y105032D01*
X191268Y105925D01*
X199032Y105925D01*
X199925Y105032D01*
X199925Y88268D01*
X199032Y87375D01*
X191268Y87375D01*
G37*
%LPD*%
%LPC*%
G36*
X178568Y87375D02*
X178568Y87375D01*
X177675Y88268D01*
X177675Y105032D01*
X178568Y105925D01*
X186332Y105925D01*
X187225Y105032D01*
X187225Y88268D01*
X186332Y87375D01*
X178568Y87375D01*
G37*
%LPD*%
%LPC*%
G36*
X35223Y356023D02*
X35223Y356023D01*
X35223Y365666D01*
X42659Y365666D01*
X43306Y365493D01*
X43885Y365158D01*
X44358Y364685D01*
X44693Y364106D01*
X44866Y363459D01*
X44866Y356023D01*
X35223Y356023D01*
G37*
%LPD*%
%LPC*%
G36*
X22534Y356023D02*
X22534Y356023D01*
X22534Y363459D01*
X22707Y364106D01*
X23042Y364685D01*
X23515Y365158D01*
X24094Y365493D01*
X24741Y365666D01*
X32177Y365666D01*
X32177Y356023D01*
X22534Y356023D01*
G37*
%LPD*%
%LPC*%
G36*
X35223Y343334D02*
X35223Y343334D01*
X35223Y352977D01*
X44866Y352977D01*
X44866Y345541D01*
X44693Y344894D01*
X44358Y344315D01*
X43885Y343842D01*
X43306Y343507D01*
X42659Y343334D01*
X35223Y343334D01*
G37*
%LPD*%
%LPC*%
G36*
X24741Y343334D02*
X24741Y343334D01*
X24094Y343507D01*
X23515Y343842D01*
X23042Y344315D01*
X22707Y344894D01*
X22534Y345541D01*
X22534Y352977D01*
X32177Y352977D01*
X32177Y343334D01*
X24741Y343334D01*
G37*
%LPD*%
%LPC*%
G36*
X35223Y470123D02*
X35223Y470123D01*
X35223Y479664D01*
X36315Y479491D01*
X37986Y478948D01*
X39552Y478150D01*
X40974Y477117D01*
X42217Y475874D01*
X43250Y474452D01*
X44048Y472886D01*
X44591Y471215D01*
X44764Y470123D01*
X35223Y470123D01*
G37*
%LPD*%
%LPC*%
G36*
X263323Y775923D02*
X263323Y775923D01*
X263323Y785464D01*
X264415Y785291D01*
X266086Y784748D01*
X267652Y783950D01*
X269074Y782917D01*
X270317Y781674D01*
X271350Y780252D01*
X272148Y778686D01*
X272691Y777015D01*
X272864Y775923D01*
X263323Y775923D01*
G37*
%LPD*%
%LPC*%
G36*
X96123Y775923D02*
X96123Y775923D01*
X96123Y785464D01*
X97215Y785291D01*
X98886Y784748D01*
X100452Y783950D01*
X101874Y782917D01*
X103117Y781674D01*
X104150Y780252D01*
X104948Y778686D01*
X105491Y777015D01*
X105664Y775923D01*
X96123Y775923D01*
G37*
%LPD*%
%LPC*%
G36*
X35223Y305223D02*
X35223Y305223D01*
X35223Y314764D01*
X36315Y314591D01*
X37986Y314048D01*
X39552Y313250D01*
X40974Y312217D01*
X42217Y310974D01*
X43250Y309552D01*
X44048Y307986D01*
X44591Y306315D01*
X44764Y305223D01*
X35223Y305223D01*
G37*
%LPD*%
%LPC*%
G36*
X35223Y419323D02*
X35223Y419323D01*
X35223Y428864D01*
X36315Y428691D01*
X37986Y428148D01*
X39552Y427350D01*
X40974Y426317D01*
X42217Y425074D01*
X43250Y423652D01*
X44048Y422086D01*
X44591Y420415D01*
X44764Y419323D01*
X35223Y419323D01*
G37*
%LPD*%
%LPC*%
G36*
X35223Y254423D02*
X35223Y254423D01*
X35223Y263964D01*
X36315Y263791D01*
X37986Y263248D01*
X39552Y262450D01*
X40974Y261417D01*
X42217Y260174D01*
X43250Y258752D01*
X44048Y257186D01*
X44591Y255515D01*
X44764Y254423D01*
X35223Y254423D01*
G37*
%LPD*%
%LPC*%
G36*
X250736Y775923D02*
X250736Y775923D01*
X250909Y777015D01*
X251452Y778686D01*
X252250Y780252D01*
X253283Y781674D01*
X254526Y782917D01*
X255948Y783950D01*
X257514Y784748D01*
X259185Y785291D01*
X260277Y785464D01*
X260277Y775923D01*
X250736Y775923D01*
G37*
%LPD*%
%LPC*%
G36*
X35223Y416277D02*
X35223Y416277D01*
X44764Y416277D01*
X44591Y415185D01*
X44048Y413514D01*
X43250Y411948D01*
X42217Y410526D01*
X40974Y409283D01*
X39552Y408250D01*
X37986Y407452D01*
X36315Y406909D01*
X35223Y406736D01*
X35223Y416277D01*
G37*
%LPD*%
%LPC*%
G36*
X263323Y772877D02*
X263323Y772877D01*
X272864Y772877D01*
X272691Y771785D01*
X272148Y770114D01*
X271350Y768548D01*
X270317Y767126D01*
X269074Y765883D01*
X267652Y764850D01*
X266086Y764052D01*
X264415Y763509D01*
X263323Y763336D01*
X263323Y772877D01*
G37*
%LPD*%
%LPC*%
G36*
X96123Y772877D02*
X96123Y772877D01*
X105664Y772877D01*
X105491Y771785D01*
X104948Y770114D01*
X104150Y768548D01*
X103117Y767126D01*
X101874Y765883D01*
X100452Y764850D01*
X98886Y764052D01*
X97215Y763509D01*
X96123Y763336D01*
X96123Y772877D01*
G37*
%LPD*%
%LPC*%
G36*
X35223Y251377D02*
X35223Y251377D01*
X44764Y251377D01*
X44591Y250285D01*
X44048Y248614D01*
X43250Y247048D01*
X42217Y245626D01*
X40974Y244383D01*
X39552Y243350D01*
X37986Y242552D01*
X36315Y242009D01*
X35223Y241836D01*
X35223Y251377D01*
G37*
%LPD*%
%LPC*%
G36*
X35223Y302177D02*
X35223Y302177D01*
X44764Y302177D01*
X44591Y301085D01*
X44048Y299414D01*
X43250Y297848D01*
X42217Y296426D01*
X40974Y295183D01*
X39552Y294150D01*
X37986Y293352D01*
X36315Y292809D01*
X35223Y292636D01*
X35223Y302177D01*
G37*
%LPD*%
%LPC*%
G36*
X22636Y470123D02*
X22636Y470123D01*
X22809Y471215D01*
X23352Y472886D01*
X24150Y474452D01*
X25183Y475874D01*
X26426Y477117D01*
X27848Y478150D01*
X29414Y478948D01*
X31085Y479491D01*
X32177Y479664D01*
X32177Y470123D01*
X22636Y470123D01*
G37*
%LPD*%
%LPC*%
G36*
X22636Y419323D02*
X22636Y419323D01*
X22809Y420415D01*
X23352Y422086D01*
X24150Y423652D01*
X25183Y425074D01*
X26426Y426317D01*
X27848Y427350D01*
X29414Y428148D01*
X31085Y428691D01*
X32177Y428864D01*
X32177Y419323D01*
X22636Y419323D01*
G37*
%LPD*%
%LPC*%
G36*
X83536Y775923D02*
X83536Y775923D01*
X83709Y777015D01*
X84252Y778686D01*
X85050Y780252D01*
X86083Y781674D01*
X87326Y782917D01*
X88748Y783950D01*
X90314Y784748D01*
X91985Y785291D01*
X93077Y785464D01*
X93077Y775923D01*
X83536Y775923D01*
G37*
%LPD*%
%LPC*%
G36*
X22636Y254423D02*
X22636Y254423D01*
X22809Y255515D01*
X23352Y257186D01*
X24150Y258752D01*
X25183Y260174D01*
X26426Y261417D01*
X27848Y262450D01*
X29414Y263248D01*
X31085Y263791D01*
X32177Y263964D01*
X32177Y254423D01*
X22636Y254423D01*
G37*
%LPD*%
%LPC*%
G36*
X35223Y467077D02*
X35223Y467077D01*
X44764Y467077D01*
X44591Y465985D01*
X44048Y464314D01*
X43250Y462748D01*
X42217Y461326D01*
X40974Y460083D01*
X39552Y459050D01*
X37986Y458252D01*
X36315Y457709D01*
X35223Y457536D01*
X35223Y467077D01*
G37*
%LPD*%
%LPC*%
G36*
X22636Y305223D02*
X22636Y305223D01*
X22809Y306315D01*
X23352Y307986D01*
X24150Y309552D01*
X25183Y310974D01*
X26426Y312217D01*
X27848Y313250D01*
X29414Y314048D01*
X31085Y314591D01*
X32177Y314764D01*
X32177Y305223D01*
X22636Y305223D01*
G37*
%LPD*%
%LPC*%
G36*
X259185Y763509D02*
X259185Y763509D01*
X257514Y764052D01*
X255948Y764850D01*
X254526Y765883D01*
X253283Y767126D01*
X252250Y768548D01*
X251452Y770114D01*
X250909Y771785D01*
X250736Y772877D01*
X260277Y772877D01*
X260277Y763336D01*
X259185Y763509D01*
G37*
%LPD*%
%LPC*%
G36*
X91985Y763509D02*
X91985Y763509D01*
X90314Y764052D01*
X88748Y764850D01*
X87326Y765883D01*
X86083Y767126D01*
X85050Y768548D01*
X84252Y770114D01*
X83709Y771785D01*
X83536Y772877D01*
X93077Y772877D01*
X93077Y763336D01*
X91985Y763509D01*
G37*
%LPD*%
%LPC*%
G36*
X31085Y242009D02*
X31085Y242009D01*
X29414Y242552D01*
X27848Y243350D01*
X26426Y244383D01*
X25183Y245626D01*
X24150Y247048D01*
X23352Y248614D01*
X22809Y250285D01*
X22636Y251377D01*
X32177Y251377D01*
X32177Y241836D01*
X31085Y242009D01*
G37*
%LPD*%
%LPC*%
G36*
X31085Y457709D02*
X31085Y457709D01*
X29414Y458252D01*
X27848Y459050D01*
X26426Y460083D01*
X25183Y461326D01*
X24150Y462748D01*
X23352Y464314D01*
X22809Y465985D01*
X22636Y467077D01*
X32177Y467077D01*
X32177Y457536D01*
X31085Y457709D01*
G37*
%LPD*%
%LPC*%
G36*
X31085Y292809D02*
X31085Y292809D01*
X29414Y293352D01*
X27848Y294150D01*
X26426Y295183D01*
X25183Y296426D01*
X24150Y297848D01*
X23352Y299414D01*
X22809Y301085D01*
X22636Y302177D01*
X32177Y302177D01*
X32177Y292636D01*
X31085Y292809D01*
G37*
%LPD*%
%LPC*%
G36*
X31085Y406909D02*
X31085Y406909D01*
X29414Y407452D01*
X27848Y408250D01*
X26426Y409283D01*
X25183Y410526D01*
X24150Y411948D01*
X23352Y413514D01*
X22809Y415185D01*
X22636Y416277D01*
X32177Y416277D01*
X32177Y406736D01*
X31085Y406909D01*
G37*
%LPD*%
%LPC*%
G36*
X181323Y711323D02*
X181323Y711323D01*
X181323Y719841D01*
X186634Y719841D01*
X187281Y719668D01*
X187860Y719333D01*
X188333Y718860D01*
X188668Y718281D01*
X188841Y717634D01*
X188841Y711323D01*
X181323Y711323D01*
G37*
%LPD*%
%LPC*%
G36*
X446723Y662923D02*
X446723Y662923D01*
X446723Y670441D01*
X453034Y670441D01*
X453681Y670268D01*
X454260Y669933D01*
X454733Y669460D01*
X455068Y668881D01*
X455241Y668234D01*
X455241Y662923D01*
X446723Y662923D01*
G37*
%LPD*%
%LPC*%
G36*
X775223Y304923D02*
X775223Y304923D01*
X775223Y312441D01*
X781534Y312441D01*
X782181Y312268D01*
X782760Y311933D01*
X783233Y311460D01*
X783568Y310881D01*
X783741Y310234D01*
X783741Y304923D01*
X775223Y304923D01*
G37*
%LPD*%
%LPC*%
G36*
X234523Y354823D02*
X234523Y354823D01*
X234523Y362341D01*
X240834Y362341D01*
X241481Y362168D01*
X242060Y361833D01*
X242533Y361360D01*
X242868Y360781D01*
X243041Y360134D01*
X243041Y354823D01*
X234523Y354823D01*
G37*
%LPD*%
%LPC*%
G36*
X103823Y693523D02*
X103823Y693523D01*
X103823Y702041D01*
X109134Y702041D01*
X109781Y701868D01*
X110360Y701533D01*
X110833Y701060D01*
X111168Y700481D01*
X111341Y699834D01*
X111341Y693523D01*
X103823Y693523D01*
G37*
%LPD*%
%LPC*%
G36*
X673723Y371323D02*
X673723Y371323D01*
X673723Y379841D01*
X679034Y379841D01*
X679681Y379668D01*
X680260Y379333D01*
X680733Y378860D01*
X681068Y378281D01*
X681241Y377634D01*
X681241Y371323D01*
X673723Y371323D01*
G37*
%LPD*%
%LPC*%
G36*
X705223Y301423D02*
X705223Y301423D01*
X705223Y308941D01*
X711534Y308941D01*
X712181Y308768D01*
X712760Y308433D01*
X713233Y307960D01*
X713568Y307381D01*
X713741Y306734D01*
X713741Y301423D01*
X705223Y301423D01*
G37*
%LPD*%
%LPC*%
G36*
X447823Y631123D02*
X447823Y631123D01*
X447823Y638641D01*
X454134Y638641D01*
X454781Y638468D01*
X455360Y638133D01*
X455833Y637660D01*
X456168Y637081D01*
X456341Y636434D01*
X456341Y631123D01*
X447823Y631123D01*
G37*
%LPD*%
%LPC*%
G36*
X435159Y662923D02*
X435159Y662923D01*
X435159Y668234D01*
X435332Y668881D01*
X435667Y669460D01*
X436140Y669933D01*
X436719Y670268D01*
X437366Y670441D01*
X443677Y670441D01*
X443677Y662923D01*
X435159Y662923D01*
G37*
%LPD*%
%LPC*%
G36*
X181323Y699759D02*
X181323Y699759D01*
X181323Y708277D01*
X188841Y708277D01*
X188841Y701966D01*
X188668Y701319D01*
X188333Y700740D01*
X187860Y700267D01*
X187281Y699932D01*
X186634Y699759D01*
X181323Y699759D01*
G37*
%LPD*%
%LPC*%
G36*
X103823Y681959D02*
X103823Y681959D01*
X103823Y690477D01*
X111341Y690477D01*
X111341Y684166D01*
X111168Y683519D01*
X110833Y682940D01*
X110360Y682467D01*
X109781Y682132D01*
X109134Y681959D01*
X103823Y681959D01*
G37*
%LPD*%
%LPC*%
G36*
X436259Y631123D02*
X436259Y631123D01*
X436259Y636434D01*
X436432Y637081D01*
X436767Y637660D01*
X437240Y638133D01*
X437819Y638468D01*
X438466Y638641D01*
X444777Y638641D01*
X444777Y631123D01*
X436259Y631123D01*
G37*
%LPD*%
%LPC*%
G36*
X693659Y301423D02*
X693659Y301423D01*
X693659Y306734D01*
X693832Y307381D01*
X694167Y307960D01*
X694640Y308433D01*
X695219Y308768D01*
X695866Y308941D01*
X702177Y308941D01*
X702177Y301423D01*
X693659Y301423D01*
G37*
%LPD*%
%LPC*%
G36*
X673723Y359759D02*
X673723Y359759D01*
X673723Y368277D01*
X681241Y368277D01*
X681241Y361966D01*
X681068Y361319D01*
X680733Y360740D01*
X680260Y360267D01*
X679681Y359932D01*
X679034Y359759D01*
X673723Y359759D01*
G37*
%LPD*%
%LPC*%
G36*
X222959Y354823D02*
X222959Y354823D01*
X222959Y360134D01*
X223132Y360781D01*
X223467Y361360D01*
X223940Y361833D01*
X224519Y362168D01*
X225166Y362341D01*
X231477Y362341D01*
X231477Y354823D01*
X222959Y354823D01*
G37*
%LPD*%
%LPC*%
G36*
X763659Y304923D02*
X763659Y304923D01*
X763659Y310234D01*
X763832Y310881D01*
X764167Y311460D01*
X764640Y311933D01*
X765219Y312268D01*
X765866Y312441D01*
X772177Y312441D01*
X772177Y304923D01*
X763659Y304923D01*
G37*
%LPD*%
%LPC*%
G36*
X170759Y711323D02*
X170759Y711323D01*
X170759Y717634D01*
X170932Y718281D01*
X171267Y718860D01*
X171740Y719333D01*
X172319Y719668D01*
X172966Y719841D01*
X178277Y719841D01*
X178277Y711323D01*
X170759Y711323D01*
G37*
%LPD*%
%LPC*%
G36*
X446723Y652359D02*
X446723Y652359D01*
X446723Y659877D01*
X455241Y659877D01*
X455241Y654566D01*
X455068Y653919D01*
X454733Y653340D01*
X454260Y652867D01*
X453681Y652532D01*
X453034Y652359D01*
X446723Y652359D01*
G37*
%LPD*%
%LPC*%
G36*
X234523Y344259D02*
X234523Y344259D01*
X234523Y351777D01*
X243041Y351777D01*
X243041Y346466D01*
X242868Y345819D01*
X242533Y345240D01*
X242060Y344767D01*
X241481Y344432D01*
X240834Y344259D01*
X234523Y344259D01*
G37*
%LPD*%
%LPC*%
G36*
X663159Y371323D02*
X663159Y371323D01*
X663159Y377634D01*
X663332Y378281D01*
X663667Y378860D01*
X664140Y379333D01*
X664719Y379668D01*
X665366Y379841D01*
X670677Y379841D01*
X670677Y371323D01*
X663159Y371323D01*
G37*
%LPD*%
%LPC*%
G36*
X775223Y294359D02*
X775223Y294359D01*
X775223Y301877D01*
X783741Y301877D01*
X783741Y296566D01*
X783568Y295919D01*
X783233Y295340D01*
X782760Y294867D01*
X782181Y294532D01*
X781534Y294359D01*
X775223Y294359D01*
G37*
%LPD*%
%LPC*%
G36*
X705223Y290859D02*
X705223Y290859D01*
X705223Y298377D01*
X713741Y298377D01*
X713741Y293066D01*
X713568Y292419D01*
X713233Y291840D01*
X712760Y291367D01*
X712181Y291032D01*
X711534Y290859D01*
X705223Y290859D01*
G37*
%LPD*%
%LPC*%
G36*
X93259Y693523D02*
X93259Y693523D01*
X93259Y699834D01*
X93432Y700481D01*
X93767Y701060D01*
X94240Y701533D01*
X94819Y701868D01*
X95466Y702041D01*
X100777Y702041D01*
X100777Y693523D01*
X93259Y693523D01*
G37*
%LPD*%
%LPC*%
G36*
X447823Y620559D02*
X447823Y620559D01*
X447823Y628077D01*
X456341Y628077D01*
X456341Y622766D01*
X456168Y622119D01*
X455833Y621540D01*
X455360Y621067D01*
X454781Y620732D01*
X454134Y620559D01*
X447823Y620559D01*
G37*
%LPD*%
%LPC*%
G36*
X172966Y699759D02*
X172966Y699759D01*
X172319Y699932D01*
X171740Y700267D01*
X171267Y700740D01*
X170932Y701319D01*
X170759Y701966D01*
X170759Y708277D01*
X178277Y708277D01*
X178277Y699759D01*
X172966Y699759D01*
G37*
%LPD*%
%LPC*%
G36*
X95466Y681959D02*
X95466Y681959D01*
X94819Y682132D01*
X94240Y682467D01*
X93767Y682940D01*
X93432Y683519D01*
X93259Y684166D01*
X93259Y690477D01*
X100777Y690477D01*
X100777Y681959D01*
X95466Y681959D01*
G37*
%LPD*%
%LPC*%
G36*
X438466Y620559D02*
X438466Y620559D01*
X437819Y620732D01*
X437240Y621067D01*
X436767Y621540D01*
X436432Y622119D01*
X436259Y622766D01*
X436259Y628077D01*
X444777Y628077D01*
X444777Y620559D01*
X438466Y620559D01*
G37*
%LPD*%
%LPC*%
G36*
X437366Y652359D02*
X437366Y652359D01*
X436719Y652532D01*
X436140Y652867D01*
X435667Y653340D01*
X435332Y653919D01*
X435159Y654566D01*
X435159Y659877D01*
X443677Y659877D01*
X443677Y652359D01*
X437366Y652359D01*
G37*
%LPD*%
%LPC*%
G36*
X665366Y359759D02*
X665366Y359759D01*
X664719Y359932D01*
X664140Y360267D01*
X663667Y360740D01*
X663332Y361319D01*
X663159Y361966D01*
X663159Y368277D01*
X670677Y368277D01*
X670677Y359759D01*
X665366Y359759D01*
G37*
%LPD*%
%LPC*%
G36*
X225166Y344259D02*
X225166Y344259D01*
X224519Y344432D01*
X223940Y344767D01*
X223467Y345240D01*
X223132Y345819D01*
X222959Y346466D01*
X222959Y351777D01*
X231477Y351777D01*
X231477Y344259D01*
X225166Y344259D01*
G37*
%LPD*%
%LPC*%
G36*
X765866Y294359D02*
X765866Y294359D01*
X765219Y294532D01*
X764640Y294867D01*
X764167Y295340D01*
X763832Y295919D01*
X763659Y296566D01*
X763659Y301877D01*
X772177Y301877D01*
X772177Y294359D01*
X765866Y294359D01*
G37*
%LPD*%
%LPC*%
G36*
X695866Y290859D02*
X695866Y290859D01*
X695219Y291032D01*
X694640Y291367D01*
X694167Y291840D01*
X693832Y292419D01*
X693659Y293066D01*
X693659Y298377D01*
X702177Y298377D01*
X702177Y290859D01*
X695866Y290859D01*
G37*
%LPD*%
%LPC*%
G36*
X440073Y324731D02*
X440073Y324731D01*
X440073Y335909D01*
X442186Y335909D01*
X442833Y335736D01*
X443412Y335401D01*
X443885Y334928D01*
X444220Y334349D01*
X444393Y333702D01*
X444393Y324731D01*
X440073Y324731D01*
G37*
%LPD*%
%LPC*%
G36*
X465473Y425315D02*
X465473Y425315D01*
X465473Y436493D01*
X467586Y436493D01*
X468233Y436320D01*
X468812Y435985D01*
X469285Y435512D01*
X469620Y434933D01*
X469793Y434286D01*
X469793Y425315D01*
X465473Y425315D01*
G37*
%LPD*%
%LPC*%
G36*
X465473Y411091D02*
X465473Y411091D01*
X465473Y422269D01*
X469793Y422269D01*
X469793Y413298D01*
X469620Y412651D01*
X469285Y412072D01*
X468812Y411599D01*
X468233Y411264D01*
X467586Y411091D01*
X465473Y411091D01*
G37*
%LPD*%
%LPC*%
G36*
X440073Y310507D02*
X440073Y310507D01*
X440073Y321685D01*
X444393Y321685D01*
X444393Y312714D01*
X444220Y312067D01*
X443885Y311488D01*
X443412Y311015D01*
X442833Y310680D01*
X442186Y310507D01*
X440073Y310507D01*
G37*
%LPD*%
%LPC*%
G36*
X432707Y324731D02*
X432707Y324731D01*
X432707Y333702D01*
X432880Y334349D01*
X433215Y334928D01*
X433688Y335401D01*
X434267Y335736D01*
X434914Y335909D01*
X437027Y335909D01*
X437027Y324731D01*
X432707Y324731D01*
G37*
%LPD*%
%LPC*%
G36*
X458107Y425315D02*
X458107Y425315D01*
X458107Y434286D01*
X458280Y434933D01*
X458615Y435512D01*
X459088Y435985D01*
X459667Y436320D01*
X460314Y436493D01*
X462427Y436493D01*
X462427Y425315D01*
X458107Y425315D01*
G37*
%LPD*%
%LPC*%
G36*
X460314Y411091D02*
X460314Y411091D01*
X459667Y411264D01*
X459088Y411599D01*
X458615Y412072D01*
X458280Y412651D01*
X458107Y413298D01*
X458107Y422269D01*
X462427Y422269D01*
X462427Y411091D01*
X460314Y411091D01*
G37*
%LPD*%
%LPC*%
G36*
X434914Y310507D02*
X434914Y310507D01*
X434267Y310680D01*
X433688Y311015D01*
X433215Y311488D01*
X432880Y312067D01*
X432707Y312714D01*
X432707Y321685D01*
X437027Y321685D01*
X437027Y310507D01*
X434914Y310507D01*
G37*
%LPD*%
%LPC*%
G36*
X860723Y455223D02*
X860723Y455223D01*
X860723Y463275D01*
X861470Y463157D01*
X862922Y462685D01*
X864282Y461993D01*
X865516Y461095D01*
X866595Y460016D01*
X867493Y458782D01*
X868185Y457422D01*
X868657Y455970D01*
X868775Y455223D01*
X860723Y455223D01*
G37*
%LPD*%
%LPC*%
G36*
X860723Y452177D02*
X860723Y452177D01*
X868775Y452177D01*
X868657Y451430D01*
X868185Y449978D01*
X867493Y448618D01*
X866595Y447384D01*
X865516Y446305D01*
X864282Y445407D01*
X862922Y444715D01*
X861470Y444243D01*
X860723Y444125D01*
X860723Y452177D01*
G37*
%LPD*%
%LPC*%
G36*
X849625Y455223D02*
X849625Y455223D01*
X849743Y455970D01*
X850215Y457422D01*
X850907Y458782D01*
X851805Y460016D01*
X852884Y461095D01*
X854118Y461993D01*
X855478Y462685D01*
X856930Y463157D01*
X857677Y463275D01*
X857677Y455223D01*
X849625Y455223D01*
G37*
%LPD*%
%LPC*%
G36*
X856930Y444243D02*
X856930Y444243D01*
X855478Y444715D01*
X854118Y445407D01*
X852884Y446305D01*
X851805Y447384D01*
X850907Y448618D01*
X850215Y449978D01*
X849743Y451430D01*
X849625Y452177D01*
X857677Y452177D01*
X857677Y444125D01*
X856930Y444243D01*
G37*
%LPD*%
%LPC*%
G36*
X471924Y203774D02*
X471924Y203774D01*
X471924Y214591D01*
X473094Y214591D01*
X473928Y214367D01*
X474675Y213936D01*
X475286Y213325D01*
X475717Y212578D01*
X475941Y211744D01*
X475941Y203774D01*
X471924Y203774D01*
G37*
%LPD*%
%LPC*%
G36*
X421124Y203774D02*
X421124Y203774D01*
X421124Y214591D01*
X422294Y214591D01*
X423128Y214367D01*
X423875Y213936D01*
X424486Y213325D01*
X424917Y212578D01*
X425141Y211744D01*
X425141Y203774D01*
X421124Y203774D01*
G37*
%LPD*%
%LPC*%
G36*
X433824Y203774D02*
X433824Y203774D01*
X433824Y214591D01*
X434994Y214591D01*
X435828Y214367D01*
X436575Y213936D01*
X437186Y213325D01*
X437617Y212578D01*
X437841Y211744D01*
X437841Y203774D01*
X433824Y203774D01*
G37*
%LPD*%
%LPC*%
G36*
X433824Y190009D02*
X433824Y190009D01*
X433824Y200826D01*
X437841Y200826D01*
X437841Y192856D01*
X437617Y192022D01*
X437186Y191275D01*
X436575Y190664D01*
X435828Y190233D01*
X434994Y190009D01*
X433824Y190009D01*
G37*
%LPD*%
%LPC*%
G36*
X421124Y190009D02*
X421124Y190009D01*
X421124Y200826D01*
X425141Y200826D01*
X425141Y192856D01*
X424917Y192022D01*
X424486Y191275D01*
X423875Y190664D01*
X423128Y190233D01*
X422294Y190009D01*
X421124Y190009D01*
G37*
%LPD*%
%LPC*%
G36*
X471924Y190009D02*
X471924Y190009D01*
X471924Y200826D01*
X475941Y200826D01*
X475941Y192856D01*
X475717Y192022D01*
X475286Y191275D01*
X474675Y190664D01*
X473928Y190233D01*
X473094Y190009D01*
X471924Y190009D01*
G37*
%LPD*%
%LPC*%
G36*
X464959Y203774D02*
X464959Y203774D01*
X464959Y211744D01*
X465183Y212578D01*
X465614Y213325D01*
X466225Y213936D01*
X466972Y214367D01*
X467806Y214591D01*
X468976Y214591D01*
X468976Y203774D01*
X464959Y203774D01*
G37*
%LPD*%
%LPC*%
G36*
X414159Y203774D02*
X414159Y203774D01*
X414159Y211744D01*
X414383Y212578D01*
X414814Y213325D01*
X415425Y213936D01*
X416172Y214367D01*
X417006Y214591D01*
X418176Y214591D01*
X418176Y203774D01*
X414159Y203774D01*
G37*
%LPD*%
%LPC*%
G36*
X426859Y203774D02*
X426859Y203774D01*
X426859Y211744D01*
X427083Y212578D01*
X427514Y213325D01*
X428125Y213936D01*
X428872Y214367D01*
X429706Y214591D01*
X430876Y214591D01*
X430876Y203774D01*
X426859Y203774D01*
G37*
%LPD*%
%LPC*%
G36*
X467806Y190009D02*
X467806Y190009D01*
X466972Y190233D01*
X466225Y190664D01*
X465614Y191275D01*
X465183Y192022D01*
X464959Y192856D01*
X464959Y200826D01*
X468976Y200826D01*
X468976Y190009D01*
X467806Y190009D01*
G37*
%LPD*%
%LPC*%
G36*
X417006Y190009D02*
X417006Y190009D01*
X416172Y190233D01*
X415425Y190664D01*
X414814Y191275D01*
X414383Y192022D01*
X414159Y192856D01*
X414159Y200826D01*
X418176Y200826D01*
X418176Y190009D01*
X417006Y190009D01*
G37*
%LPD*%
%LPC*%
G36*
X429706Y190009D02*
X429706Y190009D01*
X428872Y190233D01*
X428125Y190664D01*
X427514Y191275D01*
X427083Y192022D01*
X426859Y192856D01*
X426859Y200826D01*
X430876Y200826D01*
X430876Y190009D01*
X429706Y190009D01*
G37*
%LPD*%
%LPC*%
G36*
X803573Y93273D02*
X803573Y93273D01*
X803573Y102041D01*
X805635Y102041D01*
X806281Y101868D01*
X806860Y101533D01*
X807333Y101060D01*
X807668Y100481D01*
X807841Y99834D01*
X807841Y93273D01*
X803573Y93273D01*
G37*
%LPD*%
%LPC*%
G36*
X402873Y98073D02*
X402873Y98073D01*
X402873Y106841D01*
X404935Y106841D01*
X405581Y106668D01*
X406160Y106333D01*
X406633Y105860D01*
X406968Y105281D01*
X407141Y104634D01*
X407141Y98073D01*
X402873Y98073D01*
G37*
%LPD*%
%LPC*%
G36*
X450173Y150073D02*
X450173Y150073D01*
X450173Y158841D01*
X452235Y158841D01*
X452881Y158668D01*
X453460Y158333D01*
X453933Y157860D01*
X454268Y157281D01*
X454441Y156634D01*
X454441Y150073D01*
X450173Y150073D01*
G37*
%LPD*%
%LPC*%
G36*
X678573Y93373D02*
X678573Y93373D01*
X678573Y102141D01*
X680635Y102141D01*
X681281Y101968D01*
X681860Y101633D01*
X682333Y101160D01*
X682668Y100581D01*
X682841Y99934D01*
X682841Y93373D01*
X678573Y93373D01*
G37*
%LPD*%
%LPC*%
G36*
X149073Y98273D02*
X149073Y98273D01*
X149073Y107041D01*
X151135Y107041D01*
X151781Y106868D01*
X152360Y106533D01*
X152833Y106060D01*
X153168Y105481D01*
X153341Y104834D01*
X153341Y98273D01*
X149073Y98273D01*
G37*
%LPD*%
%LPC*%
G36*
X272873Y98173D02*
X272873Y98173D01*
X272873Y106941D01*
X274935Y106941D01*
X275581Y106768D01*
X276160Y106433D01*
X276633Y105960D01*
X276968Y105381D01*
X277141Y104734D01*
X277141Y98173D01*
X272873Y98173D01*
G37*
%LPD*%
%LPC*%
G36*
X803573Y81459D02*
X803573Y81459D01*
X803573Y90227D01*
X807841Y90227D01*
X807841Y83666D01*
X807668Y83019D01*
X807333Y82440D01*
X806860Y81967D01*
X806281Y81632D01*
X805634Y81459D01*
X803573Y81459D01*
G37*
%LPD*%
%LPC*%
G36*
X450173Y138259D02*
X450173Y138259D01*
X450173Y147027D01*
X454441Y147027D01*
X454441Y140466D01*
X454268Y139819D01*
X453933Y139240D01*
X453460Y138767D01*
X452881Y138432D01*
X452234Y138259D01*
X450173Y138259D01*
G37*
%LPD*%
%LPC*%
G36*
X149073Y86459D02*
X149073Y86459D01*
X149073Y95227D01*
X153341Y95227D01*
X153341Y88666D01*
X153168Y88019D01*
X152833Y87440D01*
X152360Y86967D01*
X151781Y86632D01*
X151134Y86459D01*
X149073Y86459D01*
G37*
%LPD*%
%LPC*%
G36*
X272873Y86359D02*
X272873Y86359D01*
X272873Y95127D01*
X277141Y95127D01*
X277141Y88566D01*
X276968Y87919D01*
X276633Y87340D01*
X276160Y86867D01*
X275581Y86532D01*
X274934Y86359D01*
X272873Y86359D01*
G37*
%LPD*%
%LPC*%
G36*
X402873Y86259D02*
X402873Y86259D01*
X402873Y95027D01*
X407141Y95027D01*
X407141Y88466D01*
X406968Y87819D01*
X406633Y87240D01*
X406160Y86767D01*
X405581Y86432D01*
X404934Y86259D01*
X402873Y86259D01*
G37*
%LPD*%
%LPC*%
G36*
X678573Y81559D02*
X678573Y81559D01*
X678573Y90327D01*
X682841Y90327D01*
X682841Y83766D01*
X682668Y83119D01*
X682333Y82540D01*
X681860Y82067D01*
X681281Y81732D01*
X680634Y81559D01*
X678573Y81559D01*
G37*
%LPD*%
%LPC*%
G36*
X796259Y93273D02*
X796259Y93273D01*
X796259Y99834D01*
X796432Y100481D01*
X796767Y101060D01*
X797240Y101533D01*
X797819Y101868D01*
X798466Y102041D01*
X800527Y102041D01*
X800527Y93273D01*
X796259Y93273D01*
G37*
%LPD*%
%LPC*%
G36*
X395559Y98073D02*
X395559Y98073D01*
X395559Y104634D01*
X395732Y105281D01*
X396067Y105860D01*
X396540Y106333D01*
X397119Y106668D01*
X397766Y106841D01*
X399827Y106841D01*
X399827Y98073D01*
X395559Y98073D01*
G37*
%LPD*%
%LPC*%
G36*
X265559Y98173D02*
X265559Y98173D01*
X265559Y104734D01*
X265732Y105381D01*
X266067Y105960D01*
X266540Y106433D01*
X267119Y106768D01*
X267766Y106941D01*
X269827Y106941D01*
X269827Y98173D01*
X265559Y98173D01*
G37*
%LPD*%
%LPC*%
G36*
X141759Y98273D02*
X141759Y98273D01*
X141759Y104834D01*
X141932Y105481D01*
X142267Y106060D01*
X142740Y106533D01*
X143319Y106868D01*
X143966Y107041D01*
X146027Y107041D01*
X146027Y98273D01*
X141759Y98273D01*
G37*
%LPD*%
%LPC*%
G36*
X671259Y93373D02*
X671259Y93373D01*
X671259Y99934D01*
X671432Y100581D01*
X671767Y101160D01*
X672240Y101633D01*
X672819Y101968D01*
X673466Y102141D01*
X675527Y102141D01*
X675527Y93373D01*
X671259Y93373D01*
G37*
%LPD*%
%LPC*%
G36*
X442859Y150073D02*
X442859Y150073D01*
X442859Y156634D01*
X443032Y157281D01*
X443367Y157860D01*
X443840Y158333D01*
X444419Y158668D01*
X445066Y158841D01*
X447127Y158841D01*
X447127Y150073D01*
X442859Y150073D01*
G37*
%LPD*%
%LPC*%
G36*
X673466Y81559D02*
X673466Y81559D01*
X672819Y81732D01*
X672240Y82067D01*
X671767Y82540D01*
X671432Y83119D01*
X671259Y83766D01*
X671259Y90327D01*
X675527Y90327D01*
X675527Y81559D01*
X673466Y81559D01*
G37*
%LPD*%
%LPC*%
G36*
X798466Y81459D02*
X798466Y81459D01*
X797819Y81632D01*
X797240Y81967D01*
X796767Y82440D01*
X796432Y83019D01*
X796259Y83666D01*
X796259Y90227D01*
X800527Y90227D01*
X800527Y81459D01*
X798466Y81459D01*
G37*
%LPD*%
%LPC*%
G36*
X445066Y138259D02*
X445066Y138259D01*
X444419Y138432D01*
X443840Y138767D01*
X443367Y139240D01*
X443032Y139819D01*
X442859Y140466D01*
X442859Y147027D01*
X447127Y147027D01*
X447127Y138259D01*
X445066Y138259D01*
G37*
%LPD*%
%LPC*%
G36*
X143966Y86459D02*
X143966Y86459D01*
X143319Y86632D01*
X142740Y86967D01*
X142267Y87440D01*
X141932Y88019D01*
X141759Y88666D01*
X141759Y95227D01*
X146027Y95227D01*
X146027Y86459D01*
X143966Y86459D01*
G37*
%LPD*%
%LPC*%
G36*
X267766Y86359D02*
X267766Y86359D01*
X267119Y86532D01*
X266540Y86867D01*
X266067Y87340D01*
X265732Y87919D01*
X265559Y88566D01*
X265559Y95127D01*
X269827Y95127D01*
X269827Y86359D01*
X267766Y86359D01*
G37*
%LPD*%
%LPC*%
G36*
X397766Y86259D02*
X397766Y86259D01*
X397119Y86432D01*
X396540Y86767D01*
X396067Y87240D01*
X395732Y87819D01*
X395559Y88466D01*
X395559Y95027D01*
X399827Y95027D01*
X399827Y86259D01*
X397766Y86259D01*
G37*
%LPD*%
%LPC*%
G36*
X33699Y468599D02*
X33699Y468599D01*
X33699Y468601D01*
X33701Y468601D01*
X33701Y468599D01*
X33699Y468599D01*
G37*
%LPD*%
%LPC*%
G36*
X886299Y501399D02*
X886299Y501399D01*
X886299Y501401D01*
X886301Y501401D01*
X886301Y501399D01*
X886299Y501399D01*
G37*
%LPD*%
%LPC*%
G36*
X33699Y252899D02*
X33699Y252899D01*
X33699Y252901D01*
X33701Y252901D01*
X33701Y252899D01*
X33699Y252899D01*
G37*
%LPD*%
%LPC*%
G36*
X261799Y774399D02*
X261799Y774399D01*
X261799Y774401D01*
X261801Y774401D01*
X261801Y774399D01*
X261799Y774399D01*
G37*
%LPD*%
%LPC*%
G36*
X33699Y303699D02*
X33699Y303699D01*
X33699Y303701D01*
X33701Y303701D01*
X33701Y303699D01*
X33699Y303699D01*
G37*
%LPD*%
%LPC*%
G36*
X33699Y354499D02*
X33699Y354499D01*
X33699Y354501D01*
X33701Y354501D01*
X33701Y354499D01*
X33699Y354499D01*
G37*
%LPD*%
%LPC*%
G36*
X886299Y380999D02*
X886299Y380999D01*
X886299Y381001D01*
X886301Y381001D01*
X886301Y380999D01*
X886299Y380999D01*
G37*
%LPD*%
%LPC*%
G36*
X918799Y70499D02*
X918799Y70499D01*
X918799Y70501D01*
X918801Y70501D01*
X918801Y70499D01*
X918799Y70499D01*
G37*
%LPD*%
%LPC*%
G36*
X33699Y417799D02*
X33699Y417799D01*
X33699Y417801D01*
X33701Y417801D01*
X33701Y417799D01*
X33699Y417799D01*
G37*
%LPD*%
%LPC*%
G36*
X94599Y774399D02*
X94599Y774399D01*
X94599Y774401D01*
X94601Y774401D01*
X94601Y774399D01*
X94599Y774399D01*
G37*
%LPD*%
%LPC*%
G36*
X859199Y453699D02*
X859199Y453699D01*
X859199Y453701D01*
X859201Y453701D01*
X859201Y453699D01*
X859199Y453699D01*
G37*
%LPD*%
%LPC*%
G36*
X232999Y353299D02*
X232999Y353299D01*
X232999Y353301D01*
X233001Y353301D01*
X233001Y353299D01*
X232999Y353299D01*
G37*
%LPD*%
%LPC*%
G36*
X773699Y303399D02*
X773699Y303399D01*
X773699Y303401D01*
X773701Y303401D01*
X773701Y303399D01*
X773699Y303399D01*
G37*
%LPD*%
%LPC*%
G36*
X102299Y691999D02*
X102299Y691999D01*
X102299Y692001D01*
X102301Y692001D01*
X102301Y691999D01*
X102299Y691999D01*
G37*
%LPD*%
%LPC*%
G36*
X463949Y423791D02*
X463949Y423791D01*
X463949Y423793D01*
X463951Y423793D01*
X463951Y423791D01*
X463949Y423791D01*
G37*
%LPD*%
%LPC*%
G36*
X179799Y709799D02*
X179799Y709799D01*
X179799Y709801D01*
X179801Y709801D01*
X179801Y709799D01*
X179799Y709799D01*
G37*
%LPD*%
%LPC*%
G36*
X446299Y629599D02*
X446299Y629599D01*
X446299Y629601D01*
X446301Y629601D01*
X446301Y629599D01*
X446299Y629599D01*
G37*
%LPD*%
%LPC*%
G36*
X271349Y96649D02*
X271349Y96649D01*
X271349Y96651D01*
X271351Y96651D01*
X271351Y96649D01*
X271349Y96649D01*
G37*
%LPD*%
%LPC*%
G36*
X401349Y96549D02*
X401349Y96549D01*
X401349Y96551D01*
X401351Y96551D01*
X401351Y96549D01*
X401349Y96549D01*
G37*
%LPD*%
%LPC*%
G36*
X438549Y323207D02*
X438549Y323207D01*
X438549Y323209D01*
X438551Y323209D01*
X438551Y323207D01*
X438549Y323207D01*
G37*
%LPD*%
%LPC*%
G36*
X672199Y369799D02*
X672199Y369799D01*
X672199Y369801D01*
X672201Y369801D01*
X672201Y369799D01*
X672199Y369799D01*
G37*
%LPD*%
%LPC*%
G36*
X445199Y661399D02*
X445199Y661399D01*
X445199Y661401D01*
X445201Y661401D01*
X445201Y661399D01*
X445199Y661399D01*
G37*
%LPD*%
%LPC*%
G36*
X448649Y148549D02*
X448649Y148549D01*
X448649Y148551D01*
X448651Y148551D01*
X448651Y148549D01*
X448649Y148549D01*
G37*
%LPD*%
%LPC*%
G36*
X677049Y91849D02*
X677049Y91849D01*
X677049Y91851D01*
X677051Y91851D01*
X677051Y91849D01*
X677049Y91849D01*
G37*
%LPD*%
%LPC*%
G36*
X703699Y299899D02*
X703699Y299899D01*
X703699Y299901D01*
X703701Y299901D01*
X703701Y299899D01*
X703699Y299899D01*
G37*
%LPD*%
%LPC*%
G36*
X802049Y91749D02*
X802049Y91749D01*
X802049Y91751D01*
X802051Y91751D01*
X802051Y91749D01*
X802049Y91749D01*
G37*
%LPD*%
%LPC*%
G36*
X147549Y96749D02*
X147549Y96749D01*
X147549Y96751D01*
X147551Y96751D01*
X147551Y96749D01*
X147549Y96749D01*
G37*
%LPD*%
D10*
X233000Y334300D03*
X233000Y353300D03*
X773700Y303400D03*
X773700Y322400D03*
X703700Y299900D03*
X703700Y318900D03*
X445200Y661400D03*
X445200Y680400D03*
X439800Y724400D03*
X439800Y705400D03*
D11*
X179800Y709800D03*
X198800Y709800D03*
X121000Y660200D03*
X102000Y660200D03*
X71800Y720200D03*
X52800Y720200D03*
X237400Y654800D03*
X256400Y654800D03*
X226600Y604800D03*
X245600Y604800D03*
X245800Y559800D03*
X264800Y559800D03*
X354200Y683000D03*
X335200Y683000D03*
X102300Y692000D03*
X121300Y692000D03*
D10*
X446300Y629600D03*
X446300Y610600D03*
D11*
X672200Y369800D03*
X691200Y369800D03*
D12*
X918800Y95900D02*
X918800Y45100D01*
D13*
X196200Y774400D03*
D14*
X170800Y774400D03*
X145400Y774400D03*
X120000Y774400D03*
X94600Y774400D03*
D15*
X349650Y323208D03*
X362350Y323208D03*
X375050Y323208D03*
X387750Y323208D03*
X400450Y323208D03*
X413150Y323208D03*
X425850Y323208D03*
X438550Y323208D03*
X438550Y423792D03*
X425850Y423792D03*
X413150Y423792D03*
X400450Y423792D03*
X387750Y423792D03*
X375050Y423792D03*
X362350Y423792D03*
X349650Y423792D03*
X451250Y323208D03*
X463950Y323208D03*
X476650Y323208D03*
X489350Y323208D03*
X502050Y323208D03*
X514750Y323208D03*
X451250Y423792D03*
X463950Y423792D03*
X476650Y423792D03*
X489350Y423792D03*
X502050Y423792D03*
X514750Y423792D03*
D16*
X742020Y458820D03*
X735680Y458820D03*
X729320Y458820D03*
X722980Y458820D03*
X716620Y458820D03*
X710280Y458820D03*
X703920Y458820D03*
X697580Y458820D03*
X697580Y404580D03*
X703920Y404580D03*
X710280Y404580D03*
X716620Y404580D03*
X722980Y404580D03*
X729320Y404580D03*
X735680Y404580D03*
X742020Y404580D03*
D17*
X58650Y96750D03*
X71350Y96750D03*
X84050Y96750D03*
X96750Y96750D03*
X109450Y96750D03*
X122150Y96750D03*
X134850Y96750D03*
X147550Y96750D03*
X147550Y151250D03*
X134850Y151250D03*
X122150Y151250D03*
X109450Y151250D03*
X96750Y151250D03*
X84050Y151250D03*
X71350Y151250D03*
X58650Y151250D03*
X182450Y96650D03*
X195150Y96650D03*
X207850Y96650D03*
X220550Y96650D03*
X233250Y96650D03*
X245950Y96650D03*
X258650Y96650D03*
X271350Y96650D03*
X271350Y151150D03*
X258650Y151150D03*
X245950Y151150D03*
X233250Y151150D03*
X220550Y151150D03*
X207850Y151150D03*
X195150Y151150D03*
X182450Y151150D03*
X312450Y96550D03*
X325150Y96550D03*
X337850Y96550D03*
X350550Y96550D03*
X363250Y96550D03*
X375950Y96550D03*
X388650Y96550D03*
X401350Y96550D03*
X401350Y151050D03*
X388650Y151050D03*
X375950Y151050D03*
X363250Y151050D03*
X350550Y151050D03*
X337850Y151050D03*
X325150Y151050D03*
X312450Y151050D03*
X537550Y148550D03*
X524850Y148550D03*
X512150Y148550D03*
X499450Y148550D03*
X486750Y148550D03*
X474050Y148550D03*
X461350Y148550D03*
X448650Y148550D03*
X448650Y94050D03*
X461350Y94050D03*
X474050Y94050D03*
X486750Y94050D03*
X499450Y94050D03*
X512150Y94050D03*
X524850Y94050D03*
X537550Y94050D03*
X588150Y91850D03*
X600850Y91850D03*
X613550Y91850D03*
X626250Y91850D03*
X638950Y91850D03*
X651650Y91850D03*
X664350Y91850D03*
X677050Y91850D03*
X677050Y146350D03*
X664350Y146350D03*
X651650Y146350D03*
X638950Y146350D03*
X626250Y146350D03*
X613550Y146350D03*
X600850Y146350D03*
X588150Y146350D03*
X713150Y91750D03*
X725850Y91750D03*
X738550Y91750D03*
X751250Y91750D03*
X763950Y91750D03*
X776650Y91750D03*
X789350Y91750D03*
X802050Y91750D03*
X802050Y146250D03*
X789350Y146250D03*
X776650Y146250D03*
X763950Y146250D03*
X751250Y146250D03*
X738550Y146250D03*
X725850Y146250D03*
X713150Y146250D03*
D18*
X839200Y453700D03*
X839200Y428700D03*
X859200Y428700D03*
X859200Y453700D03*
D19*
X886300Y381000D03*
X886300Y501400D03*
D13*
X33700Y494000D03*
D14*
X33700Y468600D03*
X33700Y443200D03*
X33700Y417800D03*
X33700Y392400D03*
D13*
X33700Y354500D03*
D14*
X33700Y329100D03*
X33700Y303700D03*
X33700Y278300D03*
X33700Y252900D03*
D13*
X125000Y36300D03*
D14*
X99600Y36300D03*
X74200Y36300D03*
X48800Y36300D03*
X23400Y36300D03*
D13*
X265500Y36300D03*
D14*
X240100Y36300D03*
X214700Y36300D03*
X189300Y36300D03*
X163900Y36300D03*
D13*
X404000Y38200D03*
D14*
X378600Y38200D03*
X353200Y38200D03*
X327800Y38200D03*
X302400Y38200D03*
D13*
X544500Y38200D03*
D14*
X519100Y38200D03*
X493700Y38200D03*
X468300Y38200D03*
X442900Y38200D03*
D13*
X685000Y38200D03*
D14*
X659600Y38200D03*
X634200Y38200D03*
X608800Y38200D03*
X583400Y38200D03*
D13*
X825500Y38200D03*
D14*
X800100Y38200D03*
X774700Y38200D03*
X749300Y38200D03*
X723900Y38200D03*
D13*
X35600Y585200D03*
D14*
X35600Y559800D03*
X35600Y534400D03*
D13*
X338000Y774400D03*
D14*
X312600Y774400D03*
X287200Y774400D03*
X261800Y774400D03*
X236400Y774400D03*
D13*
X34400Y626800D03*
D14*
X34400Y652200D03*
X34400Y677600D03*
D20*
X434200Y283588D02*
X434200Y272412D01*
X485000Y272412D02*
X485000Y283588D01*
D11*
X235400Y436300D03*
X254400Y436300D03*
X101400Y721300D03*
X120400Y721300D03*
X728600Y356300D03*
X747600Y356300D03*
X617900Y401300D03*
X636900Y401300D03*
X110600Y608700D03*
X91600Y608700D03*
X287800Y471300D03*
X306800Y471300D03*
X104600Y536300D03*
X123600Y536300D03*
X98800Y476300D03*
X117800Y476300D03*
X155400Y619800D03*
X174400Y619800D03*
X159600Y504800D03*
X178600Y504800D03*
X153800Y559800D03*
X172800Y559800D03*
D21*
X383763Y211313D02*
X383763Y193287D01*
X379337Y193287D01*
X379337Y211313D01*
X383763Y211313D01*
X383763Y194688D02*
X379337Y194688D01*
X379337Y196089D02*
X383763Y196089D01*
X383763Y197490D02*
X379337Y197490D01*
X379337Y198891D02*
X383763Y198891D01*
X383763Y200292D02*
X379337Y200292D01*
X379337Y201693D02*
X383763Y201693D01*
X383763Y203094D02*
X379337Y203094D01*
X379337Y204495D02*
X383763Y204495D01*
X383763Y205896D02*
X379337Y205896D01*
X379337Y207297D02*
X383763Y207297D01*
X383763Y208698D02*
X379337Y208698D01*
X379337Y210099D02*
X383763Y210099D01*
X396463Y211313D02*
X396463Y193287D01*
X392037Y193287D01*
X392037Y211313D01*
X396463Y211313D01*
X396463Y194688D02*
X392037Y194688D01*
X392037Y196089D02*
X396463Y196089D01*
X396463Y197490D02*
X392037Y197490D01*
X392037Y198891D02*
X396463Y198891D01*
X396463Y200292D02*
X392037Y200292D01*
X392037Y201693D02*
X396463Y201693D01*
X396463Y203094D02*
X392037Y203094D01*
X392037Y204495D02*
X396463Y204495D01*
X396463Y205896D02*
X392037Y205896D01*
X392037Y207297D02*
X396463Y207297D01*
X396463Y208698D02*
X392037Y208698D01*
X392037Y210099D02*
X396463Y210099D01*
X409163Y211313D02*
X409163Y193287D01*
X404737Y193287D01*
X404737Y211313D01*
X409163Y211313D01*
X409163Y194688D02*
X404737Y194688D01*
X404737Y196089D02*
X409163Y196089D01*
X409163Y197490D02*
X404737Y197490D01*
X404737Y198891D02*
X409163Y198891D01*
X409163Y200292D02*
X404737Y200292D01*
X404737Y201693D02*
X409163Y201693D01*
X409163Y203094D02*
X404737Y203094D01*
X404737Y204495D02*
X409163Y204495D01*
X409163Y205896D02*
X404737Y205896D01*
X404737Y207297D02*
X409163Y207297D01*
X409163Y208698D02*
X404737Y208698D01*
X404737Y210099D02*
X409163Y210099D01*
X421863Y211313D02*
X421863Y193287D01*
X417437Y193287D01*
X417437Y211313D01*
X421863Y211313D01*
X421863Y194688D02*
X417437Y194688D01*
X417437Y196089D02*
X421863Y196089D01*
X421863Y197490D02*
X417437Y197490D01*
X417437Y198891D02*
X421863Y198891D01*
X421863Y200292D02*
X417437Y200292D01*
X417437Y201693D02*
X421863Y201693D01*
X421863Y203094D02*
X417437Y203094D01*
X417437Y204495D02*
X421863Y204495D01*
X421863Y205896D02*
X417437Y205896D01*
X417437Y207297D02*
X421863Y207297D01*
X421863Y208698D02*
X417437Y208698D01*
X417437Y210099D02*
X421863Y210099D01*
X434563Y211313D02*
X434563Y193287D01*
X430137Y193287D01*
X430137Y211313D01*
X434563Y211313D01*
X434563Y194688D02*
X430137Y194688D01*
X430137Y196089D02*
X434563Y196089D01*
X434563Y197490D02*
X430137Y197490D01*
X430137Y198891D02*
X434563Y198891D01*
X434563Y200292D02*
X430137Y200292D01*
X430137Y201693D02*
X434563Y201693D01*
X434563Y203094D02*
X430137Y203094D01*
X430137Y204495D02*
X434563Y204495D01*
X434563Y205896D02*
X430137Y205896D01*
X430137Y207297D02*
X434563Y207297D01*
X434563Y208698D02*
X430137Y208698D01*
X430137Y210099D02*
X434563Y210099D01*
X447263Y211313D02*
X447263Y193287D01*
X442837Y193287D01*
X442837Y211313D01*
X447263Y211313D01*
X447263Y194688D02*
X442837Y194688D01*
X442837Y196089D02*
X447263Y196089D01*
X447263Y197490D02*
X442837Y197490D01*
X442837Y198891D02*
X447263Y198891D01*
X447263Y200292D02*
X442837Y200292D01*
X442837Y201693D02*
X447263Y201693D01*
X447263Y203094D02*
X442837Y203094D01*
X442837Y204495D02*
X447263Y204495D01*
X447263Y205896D02*
X442837Y205896D01*
X442837Y207297D02*
X447263Y207297D01*
X447263Y208698D02*
X442837Y208698D01*
X442837Y210099D02*
X447263Y210099D01*
X459963Y211313D02*
X459963Y193287D01*
X455537Y193287D01*
X455537Y211313D01*
X459963Y211313D01*
X459963Y194688D02*
X455537Y194688D01*
X455537Y196089D02*
X459963Y196089D01*
X459963Y197490D02*
X455537Y197490D01*
X455537Y198891D02*
X459963Y198891D01*
X459963Y200292D02*
X455537Y200292D01*
X455537Y201693D02*
X459963Y201693D01*
X459963Y203094D02*
X455537Y203094D01*
X455537Y204495D02*
X459963Y204495D01*
X459963Y205896D02*
X455537Y205896D01*
X455537Y207297D02*
X459963Y207297D01*
X459963Y208698D02*
X455537Y208698D01*
X455537Y210099D02*
X459963Y210099D01*
X472663Y211313D02*
X472663Y193287D01*
X468237Y193287D01*
X468237Y211313D01*
X472663Y211313D01*
X472663Y194688D02*
X468237Y194688D01*
X468237Y196089D02*
X472663Y196089D01*
X472663Y197490D02*
X468237Y197490D01*
X468237Y198891D02*
X472663Y198891D01*
X472663Y200292D02*
X468237Y200292D01*
X468237Y201693D02*
X472663Y201693D01*
X472663Y203094D02*
X468237Y203094D01*
X468237Y204495D02*
X472663Y204495D01*
X472663Y205896D02*
X468237Y205896D01*
X468237Y207297D02*
X472663Y207297D01*
X472663Y208698D02*
X468237Y208698D01*
X468237Y210099D02*
X472663Y210099D01*
X472663Y242887D02*
X472663Y260913D01*
X472663Y242887D02*
X468237Y242887D01*
X468237Y260913D01*
X472663Y260913D01*
X472663Y244288D02*
X468237Y244288D01*
X468237Y245689D02*
X472663Y245689D01*
X472663Y247090D02*
X468237Y247090D01*
X468237Y248491D02*
X472663Y248491D01*
X472663Y249892D02*
X468237Y249892D01*
X468237Y251293D02*
X472663Y251293D01*
X472663Y252694D02*
X468237Y252694D01*
X468237Y254095D02*
X472663Y254095D01*
X472663Y255496D02*
X468237Y255496D01*
X468237Y256897D02*
X472663Y256897D01*
X472663Y258298D02*
X468237Y258298D01*
X468237Y259699D02*
X472663Y259699D01*
X459963Y260913D02*
X459963Y242887D01*
X455537Y242887D01*
X455537Y260913D01*
X459963Y260913D01*
X459963Y244288D02*
X455537Y244288D01*
X455537Y245689D02*
X459963Y245689D01*
X459963Y247090D02*
X455537Y247090D01*
X455537Y248491D02*
X459963Y248491D01*
X459963Y249892D02*
X455537Y249892D01*
X455537Y251293D02*
X459963Y251293D01*
X459963Y252694D02*
X455537Y252694D01*
X455537Y254095D02*
X459963Y254095D01*
X459963Y255496D02*
X455537Y255496D01*
X455537Y256897D02*
X459963Y256897D01*
X459963Y258298D02*
X455537Y258298D01*
X455537Y259699D02*
X459963Y259699D01*
X447263Y260913D02*
X447263Y242887D01*
X442837Y242887D01*
X442837Y260913D01*
X447263Y260913D01*
X447263Y244288D02*
X442837Y244288D01*
X442837Y245689D02*
X447263Y245689D01*
X447263Y247090D02*
X442837Y247090D01*
X442837Y248491D02*
X447263Y248491D01*
X447263Y249892D02*
X442837Y249892D01*
X442837Y251293D02*
X447263Y251293D01*
X447263Y252694D02*
X442837Y252694D01*
X442837Y254095D02*
X447263Y254095D01*
X447263Y255496D02*
X442837Y255496D01*
X442837Y256897D02*
X447263Y256897D01*
X447263Y258298D02*
X442837Y258298D01*
X442837Y259699D02*
X447263Y259699D01*
X434563Y260913D02*
X434563Y242887D01*
X430137Y242887D01*
X430137Y260913D01*
X434563Y260913D01*
X434563Y244288D02*
X430137Y244288D01*
X430137Y245689D02*
X434563Y245689D01*
X434563Y247090D02*
X430137Y247090D01*
X430137Y248491D02*
X434563Y248491D01*
X434563Y249892D02*
X430137Y249892D01*
X430137Y251293D02*
X434563Y251293D01*
X434563Y252694D02*
X430137Y252694D01*
X430137Y254095D02*
X434563Y254095D01*
X434563Y255496D02*
X430137Y255496D01*
X430137Y256897D02*
X434563Y256897D01*
X434563Y258298D02*
X430137Y258298D01*
X430137Y259699D02*
X434563Y259699D01*
X421863Y260913D02*
X421863Y242887D01*
X417437Y242887D01*
X417437Y260913D01*
X421863Y260913D01*
X421863Y244288D02*
X417437Y244288D01*
X417437Y245689D02*
X421863Y245689D01*
X421863Y247090D02*
X417437Y247090D01*
X417437Y248491D02*
X421863Y248491D01*
X421863Y249892D02*
X417437Y249892D01*
X417437Y251293D02*
X421863Y251293D01*
X421863Y252694D02*
X417437Y252694D01*
X417437Y254095D02*
X421863Y254095D01*
X421863Y255496D02*
X417437Y255496D01*
X417437Y256897D02*
X421863Y256897D01*
X421863Y258298D02*
X417437Y258298D01*
X417437Y259699D02*
X421863Y259699D01*
X409163Y260913D02*
X409163Y242887D01*
X404737Y242887D01*
X404737Y260913D01*
X409163Y260913D01*
X409163Y244288D02*
X404737Y244288D01*
X404737Y245689D02*
X409163Y245689D01*
X409163Y247090D02*
X404737Y247090D01*
X404737Y248491D02*
X409163Y248491D01*
X409163Y249892D02*
X404737Y249892D01*
X404737Y251293D02*
X409163Y251293D01*
X409163Y252694D02*
X404737Y252694D01*
X404737Y254095D02*
X409163Y254095D01*
X409163Y255496D02*
X404737Y255496D01*
X404737Y256897D02*
X409163Y256897D01*
X409163Y258298D02*
X404737Y258298D01*
X404737Y259699D02*
X409163Y259699D01*
X396463Y260913D02*
X396463Y242887D01*
X392037Y242887D01*
X392037Y260913D01*
X396463Y260913D01*
X396463Y244288D02*
X392037Y244288D01*
X392037Y245689D02*
X396463Y245689D01*
X396463Y247090D02*
X392037Y247090D01*
X392037Y248491D02*
X396463Y248491D01*
X396463Y249892D02*
X392037Y249892D01*
X392037Y251293D02*
X396463Y251293D01*
X396463Y252694D02*
X392037Y252694D01*
X392037Y254095D02*
X396463Y254095D01*
X396463Y255496D02*
X392037Y255496D01*
X392037Y256897D02*
X396463Y256897D01*
X396463Y258298D02*
X392037Y258298D01*
X392037Y259699D02*
X396463Y259699D01*
X383763Y260913D02*
X383763Y242887D01*
X379337Y242887D01*
X379337Y260913D01*
X383763Y260913D01*
X383763Y244288D02*
X379337Y244288D01*
X379337Y245689D02*
X383763Y245689D01*
X383763Y247090D02*
X379337Y247090D01*
X379337Y248491D02*
X383763Y248491D01*
X383763Y249892D02*
X379337Y249892D01*
X379337Y251293D02*
X383763Y251293D01*
X383763Y252694D02*
X379337Y252694D01*
X379337Y254095D02*
X383763Y254095D01*
X383763Y255496D02*
X379337Y255496D01*
X379337Y256897D02*
X383763Y256897D01*
X383763Y258298D02*
X379337Y258298D01*
X379337Y259699D02*
X383763Y259699D01*
D12*
X921200Y215600D02*
X921200Y164800D01*
M02*
