G04 EAGLE Gerber RS-274X export*
G75*
%MOMM*%
%FSLAX34Y34*%
%LPD*%
%INBottom Copper*%
%IPPOS*%
%AMOC8*
5,1,8,0,0,1.08239X$1,22.5*%
G01*
%ADD10R,1.500000X1.300000*%
%ADD11R,1.300000X1.500000*%
%ADD12C,5.080000*%
%ADD13R,1.725000X1.725000*%
%ADD14C,1.725000*%
%ADD15R,0.650000X1.525000*%
%ADD16R,2.235200X1.219200*%
%ADD17R,2.200000X3.600000*%
%ADD18C,1.431000*%
%ADD19C,3.450000*%
%ADD20C,1.117600*%

G36*
X959098Y10164D02*
X959098Y10164D01*
X959117Y10162D01*
X959219Y10184D01*
X959321Y10200D01*
X959338Y10210D01*
X959358Y10214D01*
X959447Y10267D01*
X959538Y10316D01*
X959552Y10330D01*
X959569Y10340D01*
X959636Y10419D01*
X959708Y10494D01*
X959716Y10512D01*
X959729Y10527D01*
X959768Y10623D01*
X959811Y10717D01*
X959813Y10737D01*
X959821Y10755D01*
X959839Y10922D01*
X959839Y789078D01*
X959836Y789098D01*
X959838Y789117D01*
X959816Y789219D01*
X959800Y789321D01*
X959790Y789338D01*
X959786Y789358D01*
X959733Y789447D01*
X959684Y789538D01*
X959670Y789552D01*
X959660Y789569D01*
X959581Y789636D01*
X959506Y789708D01*
X959488Y789716D01*
X959473Y789729D01*
X959377Y789768D01*
X959283Y789811D01*
X959263Y789813D01*
X959245Y789821D01*
X959078Y789839D01*
X10922Y789839D01*
X10902Y789836D01*
X10883Y789838D01*
X10781Y789816D01*
X10679Y789800D01*
X10662Y789790D01*
X10642Y789786D01*
X10553Y789733D01*
X10462Y789684D01*
X10448Y789670D01*
X10431Y789660D01*
X10364Y789581D01*
X10292Y789506D01*
X10284Y789488D01*
X10271Y789473D01*
X10232Y789377D01*
X10189Y789283D01*
X10187Y789263D01*
X10179Y789245D01*
X10161Y789078D01*
X10161Y10922D01*
X10164Y10902D01*
X10162Y10883D01*
X10184Y10781D01*
X10200Y10679D01*
X10210Y10662D01*
X10214Y10642D01*
X10267Y10553D01*
X10316Y10462D01*
X10330Y10448D01*
X10340Y10431D01*
X10419Y10364D01*
X10494Y10292D01*
X10512Y10284D01*
X10527Y10271D01*
X10623Y10232D01*
X10717Y10189D01*
X10737Y10187D01*
X10755Y10179D01*
X10922Y10161D01*
X959078Y10161D01*
X959098Y10164D01*
G37*
%LPC*%
G36*
X917655Y137875D02*
X917655Y137875D01*
X910807Y139710D01*
X904668Y143255D01*
X899655Y148268D01*
X896110Y154407D01*
X894275Y161255D01*
X894275Y219145D01*
X896110Y225993D01*
X899655Y232132D01*
X904668Y237145D01*
X910807Y240690D01*
X917655Y242525D01*
X924745Y242525D01*
X931593Y240690D01*
X937732Y237145D01*
X942745Y232132D01*
X946290Y225993D01*
X948125Y219145D01*
X948125Y161255D01*
X946290Y154407D01*
X942745Y148268D01*
X937732Y143255D01*
X931593Y139710D01*
X924745Y137875D01*
X917655Y137875D01*
G37*
%LPD*%
%LPC*%
G36*
X920323Y72023D02*
X920323Y72023D01*
X920323Y123841D01*
X920369Y123841D01*
X923488Y123489D01*
X926314Y122844D01*
X926547Y122791D01*
X929509Y121755D01*
X932337Y120393D01*
X934994Y118723D01*
X937448Y116767D01*
X939667Y114548D01*
X941623Y112094D01*
X943293Y109437D01*
X944655Y106609D01*
X945691Y103647D01*
X946389Y100588D01*
X946741Y97469D01*
X946741Y72023D01*
X920323Y72023D01*
G37*
%LPD*%
%LPC*%
G36*
X920323Y17159D02*
X920323Y17159D01*
X920323Y68977D01*
X946741Y68977D01*
X946741Y43531D01*
X946389Y40412D01*
X945691Y37353D01*
X944655Y34391D01*
X943293Y31563D01*
X941623Y28906D01*
X939667Y26452D01*
X937448Y24233D01*
X934994Y22277D01*
X932337Y20607D01*
X929509Y19245D01*
X926547Y18209D01*
X923488Y17511D01*
X920369Y17159D01*
X920323Y17159D01*
G37*
%LPD*%
%LPC*%
G36*
X890859Y72023D02*
X890859Y72023D01*
X890859Y97469D01*
X891211Y100588D01*
X891909Y103647D01*
X892945Y106609D01*
X894307Y109437D01*
X895977Y112094D01*
X897933Y114548D01*
X900152Y116767D01*
X902606Y118723D01*
X905263Y120393D01*
X908091Y121755D01*
X911053Y122791D01*
X914112Y123489D01*
X917231Y123841D01*
X917277Y123841D01*
X917277Y72023D01*
X890859Y72023D01*
G37*
%LPD*%
%LPC*%
G36*
X917231Y17159D02*
X917231Y17159D01*
X914112Y17511D01*
X913043Y17755D01*
X911053Y18209D01*
X908091Y19245D01*
X905263Y20607D01*
X902606Y22277D01*
X900152Y24233D01*
X897933Y26452D01*
X895977Y28906D01*
X894307Y31563D01*
X892945Y34391D01*
X891909Y37353D01*
X891211Y40412D01*
X890859Y43531D01*
X890859Y68977D01*
X917277Y68977D01*
X917277Y17159D01*
X917231Y17159D01*
G37*
%LPD*%
%LPC*%
G36*
X782678Y192475D02*
X782678Y192475D01*
X781785Y193368D01*
X781785Y230632D01*
X782678Y231525D01*
X805942Y231525D01*
X806835Y230632D01*
X806835Y193368D01*
X805942Y192475D01*
X782678Y192475D01*
G37*
%LPD*%
%LPC*%
G36*
X25143Y616650D02*
X25143Y616650D01*
X24250Y617543D01*
X24250Y636057D01*
X25143Y636950D01*
X43657Y636950D01*
X44550Y636057D01*
X44550Y617543D01*
X43657Y616650D01*
X25143Y616650D01*
G37*
%LPD*%
%LPC*%
G36*
X816243Y28050D02*
X816243Y28050D01*
X815350Y28943D01*
X815350Y47457D01*
X816243Y48350D01*
X834757Y48350D01*
X835650Y47457D01*
X835650Y28943D01*
X834757Y28050D01*
X816243Y28050D01*
G37*
%LPD*%
%LPC*%
G36*
X26343Y575050D02*
X26343Y575050D01*
X25450Y575943D01*
X25450Y594457D01*
X26343Y595350D01*
X44857Y595350D01*
X45750Y594457D01*
X45750Y575943D01*
X44857Y575050D01*
X26343Y575050D01*
G37*
%LPD*%
%LPC*%
G36*
X328743Y764250D02*
X328743Y764250D01*
X327850Y765143D01*
X327850Y783657D01*
X328743Y784550D01*
X347257Y784550D01*
X348150Y783657D01*
X348150Y765143D01*
X347257Y764250D01*
X328743Y764250D01*
G37*
%LPD*%
%LPC*%
G36*
X394743Y28050D02*
X394743Y28050D01*
X393850Y28943D01*
X393850Y47457D01*
X394743Y48350D01*
X413257Y48350D01*
X414150Y47457D01*
X414150Y28943D01*
X413257Y28050D01*
X394743Y28050D01*
G37*
%LPD*%
%LPC*%
G36*
X675743Y28050D02*
X675743Y28050D01*
X674850Y28943D01*
X674850Y47457D01*
X675743Y48350D01*
X694257Y48350D01*
X695150Y47457D01*
X695150Y28943D01*
X694257Y28050D01*
X675743Y28050D01*
G37*
%LPD*%
%LPC*%
G36*
X24443Y483850D02*
X24443Y483850D01*
X23550Y484743D01*
X23550Y503257D01*
X24443Y504150D01*
X42957Y504150D01*
X43850Y503257D01*
X43850Y484743D01*
X42957Y483850D01*
X24443Y483850D01*
G37*
%LPD*%
%LPC*%
G36*
X186943Y764250D02*
X186943Y764250D01*
X186050Y765143D01*
X186050Y783657D01*
X186943Y784550D01*
X205457Y784550D01*
X206350Y783657D01*
X206350Y765143D01*
X205457Y764250D01*
X186943Y764250D01*
G37*
%LPD*%
%LPC*%
G36*
X535243Y28050D02*
X535243Y28050D01*
X534350Y28943D01*
X534350Y47457D01*
X535243Y48350D01*
X553757Y48350D01*
X554650Y47457D01*
X554650Y28943D01*
X553757Y28050D01*
X535243Y28050D01*
G37*
%LPD*%
%LPC*%
G36*
X115743Y26150D02*
X115743Y26150D01*
X114850Y27043D01*
X114850Y45557D01*
X115743Y46450D01*
X134257Y46450D01*
X135150Y45557D01*
X135150Y27043D01*
X134257Y26150D01*
X115743Y26150D01*
G37*
%LPD*%
%LPC*%
G36*
X256243Y26150D02*
X256243Y26150D01*
X255350Y27043D01*
X255350Y45557D01*
X256243Y46450D01*
X274757Y46450D01*
X275650Y45557D01*
X275650Y27043D01*
X274757Y26150D01*
X256243Y26150D01*
G37*
%LPD*%
%LPC*%
G36*
X844480Y227493D02*
X844480Y227493D01*
X843587Y228386D01*
X843587Y241842D01*
X844480Y242735D01*
X868096Y242735D01*
X868989Y241842D01*
X868989Y228386D01*
X868096Y227493D01*
X844480Y227493D01*
G37*
%LPD*%
%LPC*%
G36*
X844480Y181265D02*
X844480Y181265D01*
X843587Y182158D01*
X843587Y195614D01*
X844480Y196507D01*
X868096Y196507D01*
X868989Y195614D01*
X868989Y182158D01*
X868096Y181265D01*
X844480Y181265D01*
G37*
%LPD*%
%LPC*%
G36*
X844480Y204379D02*
X844480Y204379D01*
X843587Y205272D01*
X843587Y218728D01*
X844480Y219621D01*
X868096Y219621D01*
X868989Y218728D01*
X868989Y205272D01*
X868096Y204379D01*
X844480Y204379D01*
G37*
%LPD*%
%LPC*%
G36*
X798081Y28050D02*
X798081Y28050D01*
X794351Y29595D01*
X791495Y32451D01*
X789950Y36181D01*
X789950Y40219D01*
X791495Y43949D01*
X794351Y46805D01*
X798081Y48350D01*
X802119Y48350D01*
X805849Y46805D01*
X808705Y43949D01*
X810250Y40219D01*
X810250Y36181D01*
X808705Y32451D01*
X805849Y29595D01*
X802119Y28050D01*
X798081Y28050D01*
G37*
%LPD*%
%LPC*%
G36*
X325781Y28050D02*
X325781Y28050D01*
X322051Y29595D01*
X319195Y32451D01*
X317650Y36181D01*
X317650Y40219D01*
X319195Y43949D01*
X322051Y46805D01*
X325781Y48350D01*
X329819Y48350D01*
X333549Y46805D01*
X336405Y43949D01*
X337950Y40219D01*
X337950Y36181D01*
X336405Y32451D01*
X333549Y29595D01*
X329819Y28050D01*
X325781Y28050D01*
G37*
%LPD*%
%LPC*%
G36*
X168781Y764250D02*
X168781Y764250D01*
X165051Y765795D01*
X162195Y768651D01*
X160650Y772381D01*
X160650Y776419D01*
X162195Y780149D01*
X165051Y783005D01*
X168781Y784550D01*
X172819Y784550D01*
X176549Y783005D01*
X179405Y780149D01*
X180950Y776419D01*
X180950Y772381D01*
X179405Y768651D01*
X176549Y765795D01*
X172819Y764250D01*
X168781Y764250D01*
G37*
%LPD*%
%LPC*%
G36*
X143381Y764250D02*
X143381Y764250D01*
X139651Y765795D01*
X136795Y768651D01*
X135250Y772381D01*
X135250Y776419D01*
X136795Y780149D01*
X139651Y783005D01*
X143381Y784550D01*
X147419Y784550D01*
X151149Y783005D01*
X154005Y780149D01*
X155550Y776419D01*
X155550Y772381D01*
X154005Y768651D01*
X151149Y765795D01*
X147419Y764250D01*
X143381Y764250D01*
G37*
%LPD*%
%LPC*%
G36*
X310581Y764250D02*
X310581Y764250D01*
X306851Y765795D01*
X303995Y768651D01*
X302450Y772381D01*
X302450Y776419D01*
X303995Y780149D01*
X306851Y783005D01*
X310581Y784550D01*
X314619Y784550D01*
X318349Y783005D01*
X321205Y780149D01*
X322750Y776419D01*
X322750Y772381D01*
X321205Y768651D01*
X318349Y765795D01*
X314619Y764250D01*
X310581Y764250D01*
G37*
%LPD*%
%LPC*%
G36*
X285181Y764250D02*
X285181Y764250D01*
X281451Y765795D01*
X278595Y768651D01*
X277050Y772381D01*
X277050Y776419D01*
X278595Y780149D01*
X281451Y783005D01*
X285181Y784550D01*
X289219Y784550D01*
X292949Y783005D01*
X295805Y780149D01*
X297350Y776419D01*
X297350Y772381D01*
X295805Y768651D01*
X292949Y765795D01*
X289219Y764250D01*
X285181Y764250D01*
G37*
%LPD*%
%LPC*%
G36*
X234381Y764250D02*
X234381Y764250D01*
X230651Y765795D01*
X227795Y768651D01*
X226250Y772381D01*
X226250Y776419D01*
X227795Y780149D01*
X230651Y783005D01*
X234381Y784550D01*
X238419Y784550D01*
X242149Y783005D01*
X245005Y780149D01*
X246550Y776419D01*
X246550Y772381D01*
X245005Y768651D01*
X242149Y765795D01*
X238419Y764250D01*
X234381Y764250D01*
G37*
%LPD*%
%LPC*%
G36*
X117981Y764250D02*
X117981Y764250D01*
X114251Y765795D01*
X111395Y768651D01*
X109850Y772381D01*
X109850Y776419D01*
X111395Y780149D01*
X114251Y783005D01*
X117981Y784550D01*
X122019Y784550D01*
X125749Y783005D01*
X128605Y780149D01*
X130150Y776419D01*
X130150Y772381D01*
X128605Y768651D01*
X125749Y765795D01*
X122019Y764250D01*
X117981Y764250D01*
G37*
%LPD*%
%LPC*%
G36*
X46781Y26150D02*
X46781Y26150D01*
X43051Y27695D01*
X40195Y30551D01*
X38650Y34281D01*
X38650Y38319D01*
X40195Y42049D01*
X43051Y44905D01*
X46781Y46450D01*
X50819Y46450D01*
X54549Y44905D01*
X57405Y42049D01*
X58950Y38319D01*
X58950Y34281D01*
X57405Y30551D01*
X54549Y27695D01*
X50819Y26150D01*
X46781Y26150D01*
G37*
%LPD*%
%LPC*%
G36*
X31681Y268150D02*
X31681Y268150D01*
X27951Y269695D01*
X25095Y272551D01*
X23550Y276281D01*
X23550Y280319D01*
X25095Y284049D01*
X27951Y286905D01*
X31681Y288450D01*
X35719Y288450D01*
X39449Y286905D01*
X42305Y284049D01*
X43850Y280319D01*
X43850Y276281D01*
X42305Y272551D01*
X39449Y269695D01*
X35719Y268150D01*
X31681Y268150D01*
G37*
%LPD*%
%LPC*%
G36*
X31681Y318950D02*
X31681Y318950D01*
X27951Y320495D01*
X25095Y323351D01*
X23550Y327081D01*
X23550Y331119D01*
X25095Y334849D01*
X27951Y337705D01*
X31681Y339250D01*
X35719Y339250D01*
X39449Y337705D01*
X42305Y334849D01*
X43850Y331119D01*
X43850Y327081D01*
X42305Y323351D01*
X39449Y320495D01*
X35719Y318950D01*
X31681Y318950D01*
G37*
%LPD*%
%LPC*%
G36*
X32381Y667450D02*
X32381Y667450D01*
X28651Y668995D01*
X25795Y671851D01*
X24250Y675581D01*
X24250Y679619D01*
X25795Y683349D01*
X28651Y686205D01*
X32381Y687750D01*
X36419Y687750D01*
X40149Y686205D01*
X43005Y683349D01*
X44550Y679619D01*
X44550Y675581D01*
X43005Y671851D01*
X40149Y668995D01*
X36419Y667450D01*
X32381Y667450D01*
G37*
%LPD*%
%LPC*%
G36*
X32381Y642050D02*
X32381Y642050D01*
X28651Y643595D01*
X25795Y646451D01*
X24250Y650181D01*
X24250Y654219D01*
X25795Y657949D01*
X28651Y660805D01*
X32381Y662350D01*
X36419Y662350D01*
X40149Y660805D01*
X43005Y657949D01*
X44550Y654219D01*
X44550Y650181D01*
X43005Y646451D01*
X40149Y643595D01*
X36419Y642050D01*
X32381Y642050D01*
G37*
%LPD*%
%LPC*%
G36*
X33581Y549650D02*
X33581Y549650D01*
X29851Y551195D01*
X26995Y554051D01*
X25450Y557781D01*
X25450Y561819D01*
X26995Y565549D01*
X29851Y568405D01*
X33581Y569950D01*
X37619Y569950D01*
X41349Y568405D01*
X44205Y565549D01*
X45750Y561819D01*
X45750Y557781D01*
X44205Y554051D01*
X41349Y551195D01*
X37619Y549650D01*
X33581Y549650D01*
G37*
%LPD*%
%LPC*%
G36*
X33581Y524250D02*
X33581Y524250D01*
X29851Y525795D01*
X26995Y528651D01*
X25450Y532381D01*
X25450Y536419D01*
X26995Y540149D01*
X29851Y543005D01*
X33581Y544550D01*
X37619Y544550D01*
X41349Y543005D01*
X44205Y540149D01*
X45750Y536419D01*
X45750Y532381D01*
X44205Y528651D01*
X41349Y525795D01*
X37619Y524250D01*
X33581Y524250D01*
G37*
%LPD*%
%LPC*%
G36*
X21381Y26150D02*
X21381Y26150D01*
X17651Y27695D01*
X14795Y30551D01*
X13250Y34281D01*
X13250Y38319D01*
X14795Y42049D01*
X17651Y44905D01*
X21381Y46450D01*
X25419Y46450D01*
X29149Y44905D01*
X32005Y42049D01*
X33550Y38319D01*
X33550Y34281D01*
X32005Y30551D01*
X29149Y27695D01*
X25419Y26150D01*
X21381Y26150D01*
G37*
%LPD*%
%LPC*%
G36*
X300381Y28050D02*
X300381Y28050D01*
X296651Y29595D01*
X293795Y32451D01*
X292250Y36181D01*
X292250Y40219D01*
X293795Y43949D01*
X296651Y46805D01*
X300381Y48350D01*
X304419Y48350D01*
X308149Y46805D01*
X311005Y43949D01*
X312550Y40219D01*
X312550Y36181D01*
X311005Y32451D01*
X308149Y29595D01*
X304419Y28050D01*
X300381Y28050D01*
G37*
%LPD*%
%LPC*%
G36*
X31681Y382250D02*
X31681Y382250D01*
X27951Y383795D01*
X25095Y386651D01*
X23550Y390381D01*
X23550Y394419D01*
X25095Y398149D01*
X27951Y401005D01*
X31681Y402550D01*
X35719Y402550D01*
X39449Y401005D01*
X42305Y398149D01*
X43850Y394419D01*
X43850Y390381D01*
X42305Y386651D01*
X39449Y383795D01*
X35719Y382250D01*
X31681Y382250D01*
G37*
%LPD*%
%LPC*%
G36*
X351181Y28050D02*
X351181Y28050D01*
X347451Y29595D01*
X344595Y32451D01*
X343050Y36181D01*
X343050Y40219D01*
X344595Y43949D01*
X347451Y46805D01*
X351181Y48350D01*
X355219Y48350D01*
X358949Y46805D01*
X361805Y43949D01*
X363350Y40219D01*
X363350Y36181D01*
X361805Y32451D01*
X358949Y29595D01*
X355219Y28050D01*
X351181Y28050D01*
G37*
%LPD*%
%LPC*%
G36*
X31681Y433050D02*
X31681Y433050D01*
X27951Y434595D01*
X25095Y437451D01*
X23550Y441181D01*
X23550Y445219D01*
X25095Y448949D01*
X27951Y451805D01*
X31681Y453350D01*
X35719Y453350D01*
X39449Y451805D01*
X42305Y448949D01*
X43850Y445219D01*
X43850Y441181D01*
X42305Y437451D01*
X39449Y434595D01*
X35719Y433050D01*
X31681Y433050D01*
G37*
%LPD*%
%LPC*%
G36*
X772681Y28050D02*
X772681Y28050D01*
X768951Y29595D01*
X766095Y32451D01*
X764550Y36181D01*
X764550Y40219D01*
X766095Y43949D01*
X768951Y46805D01*
X772681Y48350D01*
X776719Y48350D01*
X780449Y46805D01*
X783305Y43949D01*
X784850Y40219D01*
X784850Y36181D01*
X783305Y32451D01*
X780449Y29595D01*
X776719Y28050D01*
X772681Y28050D01*
G37*
%LPD*%
%LPC*%
G36*
X747281Y28050D02*
X747281Y28050D01*
X743551Y29595D01*
X740695Y32451D01*
X739150Y36181D01*
X739150Y40219D01*
X740695Y43949D01*
X743551Y46805D01*
X747281Y48350D01*
X751319Y48350D01*
X755049Y46805D01*
X757905Y43949D01*
X759450Y40219D01*
X759450Y36181D01*
X757905Y32451D01*
X755049Y29595D01*
X751319Y28050D01*
X747281Y28050D01*
G37*
%LPD*%
%LPC*%
G36*
X721881Y28050D02*
X721881Y28050D01*
X718151Y29595D01*
X715295Y32451D01*
X713750Y36181D01*
X713750Y40219D01*
X715295Y43949D01*
X718151Y46805D01*
X721881Y48350D01*
X725919Y48350D01*
X729649Y46805D01*
X732505Y43949D01*
X734050Y40219D01*
X734050Y36181D01*
X732505Y32451D01*
X729649Y29595D01*
X725919Y28050D01*
X721881Y28050D01*
G37*
%LPD*%
%LPC*%
G36*
X657581Y28050D02*
X657581Y28050D01*
X653851Y29595D01*
X650995Y32451D01*
X649450Y36181D01*
X649450Y40219D01*
X650995Y43949D01*
X653851Y46805D01*
X657581Y48350D01*
X661619Y48350D01*
X665349Y46805D01*
X668205Y43949D01*
X669750Y40219D01*
X669750Y36181D01*
X668205Y32451D01*
X665349Y29595D01*
X661619Y28050D01*
X657581Y28050D01*
G37*
%LPD*%
%LPC*%
G36*
X632181Y28050D02*
X632181Y28050D01*
X628451Y29595D01*
X625595Y32451D01*
X624050Y36181D01*
X624050Y40219D01*
X625595Y43949D01*
X628451Y46805D01*
X632181Y48350D01*
X636219Y48350D01*
X639949Y46805D01*
X642805Y43949D01*
X644350Y40219D01*
X644350Y36181D01*
X642805Y32451D01*
X639949Y29595D01*
X636219Y28050D01*
X632181Y28050D01*
G37*
%LPD*%
%LPC*%
G36*
X606781Y28050D02*
X606781Y28050D01*
X603051Y29595D01*
X600195Y32451D01*
X598650Y36181D01*
X598650Y40219D01*
X600195Y43949D01*
X603051Y46805D01*
X606781Y48350D01*
X610819Y48350D01*
X614549Y46805D01*
X617405Y43949D01*
X618950Y40219D01*
X618950Y36181D01*
X617405Y32451D01*
X614549Y29595D01*
X610819Y28050D01*
X606781Y28050D01*
G37*
%LPD*%
%LPC*%
G36*
X581381Y28050D02*
X581381Y28050D01*
X577651Y29595D01*
X574795Y32451D01*
X573250Y36181D01*
X573250Y40219D01*
X574795Y43949D01*
X577651Y46805D01*
X581381Y48350D01*
X585419Y48350D01*
X589149Y46805D01*
X592005Y43949D01*
X593550Y40219D01*
X593550Y36181D01*
X592005Y32451D01*
X589149Y29595D01*
X585419Y28050D01*
X581381Y28050D01*
G37*
%LPD*%
%LPC*%
G36*
X517081Y28050D02*
X517081Y28050D01*
X513351Y29595D01*
X510495Y32451D01*
X508950Y36181D01*
X508950Y40219D01*
X510495Y43949D01*
X513351Y46805D01*
X517081Y48350D01*
X521119Y48350D01*
X524849Y46805D01*
X527705Y43949D01*
X529250Y40219D01*
X529250Y36181D01*
X527705Y32451D01*
X524849Y29595D01*
X521119Y28050D01*
X517081Y28050D01*
G37*
%LPD*%
%LPC*%
G36*
X491681Y28050D02*
X491681Y28050D01*
X487951Y29595D01*
X485095Y32451D01*
X483550Y36181D01*
X483550Y40219D01*
X485095Y43949D01*
X487951Y46805D01*
X491681Y48350D01*
X495719Y48350D01*
X499449Y46805D01*
X502305Y43949D01*
X503850Y40219D01*
X503850Y36181D01*
X502305Y32451D01*
X499449Y29595D01*
X495719Y28050D01*
X491681Y28050D01*
G37*
%LPD*%
%LPC*%
G36*
X466281Y28050D02*
X466281Y28050D01*
X462551Y29595D01*
X459695Y32451D01*
X458150Y36181D01*
X458150Y40219D01*
X459695Y43949D01*
X462551Y46805D01*
X466281Y48350D01*
X470319Y48350D01*
X474049Y46805D01*
X476905Y43949D01*
X478450Y40219D01*
X478450Y36181D01*
X476905Y32451D01*
X474049Y29595D01*
X470319Y28050D01*
X466281Y28050D01*
G37*
%LPD*%
%LPC*%
G36*
X440881Y28050D02*
X440881Y28050D01*
X437151Y29595D01*
X434295Y32451D01*
X432750Y36181D01*
X432750Y40219D01*
X434295Y43949D01*
X437151Y46805D01*
X440881Y48350D01*
X444919Y48350D01*
X448649Y46805D01*
X451505Y43949D01*
X453050Y40219D01*
X453050Y36181D01*
X451505Y32451D01*
X448649Y29595D01*
X444919Y28050D01*
X440881Y28050D01*
G37*
%LPD*%
%LPC*%
G36*
X376581Y28050D02*
X376581Y28050D01*
X372851Y29595D01*
X369995Y32451D01*
X368450Y36181D01*
X368450Y40219D01*
X369995Y43949D01*
X372851Y46805D01*
X376581Y48350D01*
X380619Y48350D01*
X384349Y46805D01*
X387205Y43949D01*
X388750Y40219D01*
X388750Y36181D01*
X387205Y32451D01*
X384349Y29595D01*
X380619Y28050D01*
X376581Y28050D01*
G37*
%LPD*%
%LPC*%
G36*
X238081Y26150D02*
X238081Y26150D01*
X234351Y27695D01*
X231495Y30551D01*
X229950Y34281D01*
X229950Y38319D01*
X231495Y42049D01*
X234351Y44905D01*
X238081Y46450D01*
X242119Y46450D01*
X245849Y44905D01*
X248705Y42049D01*
X250250Y38319D01*
X250250Y34281D01*
X248705Y30551D01*
X245849Y27695D01*
X242119Y26150D01*
X238081Y26150D01*
G37*
%LPD*%
%LPC*%
G36*
X212681Y26150D02*
X212681Y26150D01*
X208951Y27695D01*
X206095Y30551D01*
X204550Y34281D01*
X204550Y38319D01*
X206095Y42049D01*
X208951Y44905D01*
X212681Y46450D01*
X216719Y46450D01*
X220449Y44905D01*
X223305Y42049D01*
X224850Y38319D01*
X224850Y34281D01*
X223305Y30551D01*
X220449Y27695D01*
X216719Y26150D01*
X212681Y26150D01*
G37*
%LPD*%
%LPC*%
G36*
X187281Y26150D02*
X187281Y26150D01*
X183551Y27695D01*
X180695Y30551D01*
X179150Y34281D01*
X179150Y38319D01*
X180695Y42049D01*
X183551Y44905D01*
X187281Y46450D01*
X191319Y46450D01*
X195049Y44905D01*
X197905Y42049D01*
X199450Y38319D01*
X199450Y34281D01*
X197905Y30551D01*
X195049Y27695D01*
X191319Y26150D01*
X187281Y26150D01*
G37*
%LPD*%
%LPC*%
G36*
X161881Y26150D02*
X161881Y26150D01*
X158151Y27695D01*
X155295Y30551D01*
X153750Y34281D01*
X153750Y38319D01*
X155295Y42049D01*
X158151Y44905D01*
X161881Y46450D01*
X165919Y46450D01*
X169649Y44905D01*
X172505Y42049D01*
X174050Y38319D01*
X174050Y34281D01*
X172505Y30551D01*
X169649Y27695D01*
X165919Y26150D01*
X161881Y26150D01*
G37*
%LPD*%
%LPC*%
G36*
X97581Y26150D02*
X97581Y26150D01*
X93851Y27695D01*
X90995Y30551D01*
X89450Y34281D01*
X89450Y38319D01*
X90995Y42049D01*
X93851Y44905D01*
X97581Y46450D01*
X101619Y46450D01*
X105349Y44905D01*
X108205Y42049D01*
X109750Y38319D01*
X109750Y34281D01*
X108205Y30551D01*
X105349Y27695D01*
X101619Y26150D01*
X97581Y26150D01*
G37*
%LPD*%
%LPC*%
G36*
X72181Y26150D02*
X72181Y26150D01*
X68451Y27695D01*
X65595Y30551D01*
X64050Y34281D01*
X64050Y38319D01*
X65595Y42049D01*
X68451Y44905D01*
X72181Y46450D01*
X76219Y46450D01*
X79949Y44905D01*
X82805Y42049D01*
X84350Y38319D01*
X84350Y34281D01*
X82805Y30551D01*
X79949Y27695D01*
X76219Y26150D01*
X72181Y26150D01*
G37*
%LPD*%
%LPC*%
G36*
X483585Y265299D02*
X483585Y265299D01*
X480971Y266382D01*
X478970Y268383D01*
X477887Y270997D01*
X477887Y285003D01*
X478970Y287617D01*
X480971Y289618D01*
X483585Y290701D01*
X486415Y290701D01*
X489029Y289618D01*
X491030Y287617D01*
X492113Y285003D01*
X492113Y270997D01*
X491030Y268383D01*
X489029Y266382D01*
X486415Y265299D01*
X483585Y265299D01*
G37*
%LPD*%
%LPC*%
G36*
X432785Y265299D02*
X432785Y265299D01*
X430171Y266382D01*
X428170Y268383D01*
X427087Y270997D01*
X427087Y285003D01*
X428170Y287617D01*
X430171Y289618D01*
X432785Y290701D01*
X435615Y290701D01*
X438229Y289618D01*
X440230Y287617D01*
X441313Y285003D01*
X441313Y270997D01*
X440230Y268383D01*
X438229Y266382D01*
X435615Y265299D01*
X432785Y265299D01*
G37*
%LPD*%
%LPC*%
G36*
X832068Y69975D02*
X832068Y69975D01*
X831175Y70868D01*
X831175Y85132D01*
X832068Y86025D01*
X848332Y86025D01*
X849225Y85132D01*
X849225Y70868D01*
X848332Y69975D01*
X832068Y69975D01*
G37*
%LPD*%
%LPC*%
G36*
X793168Y125975D02*
X793168Y125975D01*
X792275Y126868D01*
X792275Y141132D01*
X793168Y142025D01*
X809432Y142025D01*
X810325Y141132D01*
X810325Y126868D01*
X809432Y125975D01*
X793168Y125975D01*
G37*
%LPD*%
%LPC*%
G36*
X832068Y126975D02*
X832068Y126975D01*
X831175Y127868D01*
X831175Y142132D01*
X832068Y143025D01*
X848332Y143025D01*
X849225Y142132D01*
X849225Y127868D01*
X848332Y126975D01*
X832068Y126975D01*
G37*
%LPD*%
%LPC*%
G36*
X421668Y217975D02*
X421668Y217975D01*
X420775Y218868D01*
X420775Y235132D01*
X421668Y236025D01*
X435932Y236025D01*
X436825Y235132D01*
X436825Y218868D01*
X435932Y217975D01*
X421668Y217975D01*
G37*
%LPD*%
%LPC*%
G36*
X480968Y219675D02*
X480968Y219675D01*
X480075Y220568D01*
X480075Y236832D01*
X480968Y237725D01*
X495232Y237725D01*
X496125Y236832D01*
X496125Y220568D01*
X495232Y219675D01*
X480968Y219675D01*
G37*
%LPD*%
%LPC*%
G36*
X793168Y144975D02*
X793168Y144975D01*
X792275Y145868D01*
X792275Y160132D01*
X793168Y161025D01*
X809432Y161025D01*
X810325Y160132D01*
X810325Y145868D01*
X809432Y144975D01*
X793168Y144975D01*
G37*
%LPD*%
%LPC*%
G36*
X795568Y92175D02*
X795568Y92175D01*
X794675Y93068D01*
X794675Y107332D01*
X795568Y108225D01*
X811832Y108225D01*
X812725Y107332D01*
X812725Y93068D01*
X811832Y92175D01*
X795568Y92175D01*
G37*
%LPD*%
%LPC*%
G36*
X887823Y382523D02*
X887823Y382523D01*
X887823Y400761D01*
X890169Y400452D01*
X892675Y399781D01*
X895072Y398788D01*
X897319Y397491D01*
X899377Y395911D01*
X901211Y394077D01*
X902791Y392019D01*
X904088Y389772D01*
X905081Y387375D01*
X905752Y384869D01*
X906061Y382523D01*
X887823Y382523D01*
G37*
%LPD*%
%LPC*%
G36*
X887823Y502923D02*
X887823Y502923D01*
X887823Y521161D01*
X890169Y520852D01*
X892675Y520181D01*
X895072Y519188D01*
X897319Y517891D01*
X899377Y516311D01*
X901211Y514477D01*
X902791Y512419D01*
X904088Y510172D01*
X905081Y507775D01*
X905752Y505269D01*
X906061Y502923D01*
X887823Y502923D01*
G37*
%LPD*%
%LPC*%
G36*
X887823Y379477D02*
X887823Y379477D01*
X906061Y379477D01*
X905752Y377131D01*
X905081Y374625D01*
X904088Y372228D01*
X902791Y369981D01*
X901211Y367923D01*
X899377Y366089D01*
X897319Y364509D01*
X895072Y363212D01*
X892675Y362219D01*
X890169Y361548D01*
X887823Y361239D01*
X887823Y379477D01*
G37*
%LPD*%
%LPC*%
G36*
X866539Y502923D02*
X866539Y502923D01*
X866848Y505269D01*
X867519Y507775D01*
X868512Y510172D01*
X869809Y512419D01*
X871389Y514477D01*
X873223Y516311D01*
X875281Y517891D01*
X877528Y519188D01*
X879925Y520181D01*
X882431Y520852D01*
X884777Y521161D01*
X884777Y502923D01*
X866539Y502923D01*
G37*
%LPD*%
%LPC*%
G36*
X887823Y499877D02*
X887823Y499877D01*
X906061Y499877D01*
X905752Y497531D01*
X905081Y495025D01*
X904088Y492628D01*
X902791Y490381D01*
X901211Y488323D01*
X899377Y486489D01*
X897319Y484909D01*
X895072Y483612D01*
X892675Y482619D01*
X890169Y481948D01*
X887823Y481639D01*
X887823Y499877D01*
G37*
%LPD*%
%LPC*%
G36*
X866539Y382523D02*
X866539Y382523D01*
X866848Y384869D01*
X867519Y387375D01*
X868512Y389772D01*
X869809Y392019D01*
X871389Y394077D01*
X873223Y395911D01*
X875281Y397491D01*
X877528Y398788D01*
X879925Y399781D01*
X882431Y400452D01*
X884777Y400761D01*
X884777Y382523D01*
X866539Y382523D01*
G37*
%LPD*%
%LPC*%
G36*
X882431Y361548D02*
X882431Y361548D01*
X879925Y362219D01*
X877528Y363212D01*
X875281Y364509D01*
X873223Y366089D01*
X871389Y367923D01*
X869809Y369981D01*
X868512Y372228D01*
X867519Y374625D01*
X866848Y377131D01*
X866539Y379477D01*
X884777Y379477D01*
X884777Y361239D01*
X882431Y361548D01*
G37*
%LPD*%
%LPC*%
G36*
X882431Y481948D02*
X882431Y481948D01*
X879925Y482619D01*
X877528Y483612D01*
X875281Y484909D01*
X873223Y486489D01*
X871389Y488323D01*
X869809Y490381D01*
X868512Y492628D01*
X867519Y495025D01*
X866848Y497531D01*
X866539Y499877D01*
X884777Y499877D01*
X884777Y481639D01*
X882431Y481948D01*
G37*
%LPD*%
%LPC*%
G36*
X837473Y420020D02*
X837473Y420020D01*
X834283Y421342D01*
X831842Y423783D01*
X830520Y426973D01*
X830520Y430427D01*
X831842Y433617D01*
X834283Y436058D01*
X837473Y437380D01*
X840927Y437380D01*
X844117Y436058D01*
X846558Y433617D01*
X847880Y430427D01*
X847880Y426973D01*
X846558Y423783D01*
X844117Y421342D01*
X840927Y420020D01*
X837473Y420020D01*
G37*
%LPD*%
%LPC*%
G36*
X857473Y420020D02*
X857473Y420020D01*
X854283Y421342D01*
X851842Y423783D01*
X850520Y426973D01*
X850520Y430427D01*
X851842Y433617D01*
X854283Y436058D01*
X857473Y437380D01*
X860927Y437380D01*
X864117Y436058D01*
X866558Y433617D01*
X867880Y430427D01*
X867880Y426973D01*
X866558Y423783D01*
X864117Y421342D01*
X860927Y420020D01*
X857473Y420020D01*
G37*
%LPD*%
%LPC*%
G36*
X837473Y445020D02*
X837473Y445020D01*
X834283Y446342D01*
X831842Y448783D01*
X830520Y451973D01*
X830520Y455427D01*
X831842Y458617D01*
X834283Y461058D01*
X837473Y462380D01*
X840927Y462380D01*
X844117Y461058D01*
X846558Y458617D01*
X847880Y455427D01*
X847880Y451973D01*
X846558Y448783D01*
X844117Y446342D01*
X840927Y445020D01*
X837473Y445020D01*
G37*
%LPD*%
%LPC*%
G36*
X650168Y84630D02*
X650168Y84630D01*
X649275Y85523D01*
X649275Y102037D01*
X650168Y102930D01*
X657932Y102930D01*
X658825Y102037D01*
X658825Y85523D01*
X657932Y84630D01*
X650168Y84630D01*
G37*
%LPD*%
%LPC*%
G36*
X445468Y137670D02*
X445468Y137670D01*
X444575Y138563D01*
X444575Y155077D01*
X445468Y155970D01*
X453232Y155970D01*
X454125Y155077D01*
X454125Y138563D01*
X453232Y137670D01*
X445468Y137670D01*
G37*
%LPD*%
%LPC*%
G36*
X458168Y137670D02*
X458168Y137670D01*
X457275Y138563D01*
X457275Y155077D01*
X458168Y155970D01*
X465932Y155970D01*
X466825Y155077D01*
X466825Y138563D01*
X465932Y137670D01*
X458168Y137670D01*
G37*
%LPD*%
%LPC*%
G36*
X662868Y84630D02*
X662868Y84630D01*
X661975Y85523D01*
X661975Y102037D01*
X662868Y102930D01*
X670632Y102930D01*
X671525Y102037D01*
X671525Y85523D01*
X670632Y84630D01*
X662868Y84630D01*
G37*
%LPD*%
%LPC*%
G36*
X675568Y84630D02*
X675568Y84630D01*
X674675Y85523D01*
X674675Y102037D01*
X675568Y102930D01*
X683332Y102930D01*
X684225Y102037D01*
X684225Y85523D01*
X683332Y84630D01*
X675568Y84630D01*
G37*
%LPD*%
%LPC*%
G36*
X496268Y137670D02*
X496268Y137670D01*
X495375Y138563D01*
X495375Y155077D01*
X496268Y155970D01*
X504032Y155970D01*
X504925Y155077D01*
X504925Y138563D01*
X504032Y137670D01*
X496268Y137670D01*
G37*
%LPD*%
%LPC*%
G36*
X306546Y138993D02*
X306546Y138993D01*
X305653Y139887D01*
X305653Y156400D01*
X306546Y157293D01*
X314310Y157293D01*
X315203Y156400D01*
X315203Y139887D01*
X314310Y138993D01*
X306546Y138993D01*
G37*
%LPD*%
%LPC*%
G36*
X508968Y137670D02*
X508968Y137670D01*
X508075Y138563D01*
X508075Y155077D01*
X508968Y155970D01*
X516732Y155970D01*
X517625Y155077D01*
X517625Y138563D01*
X516732Y137670D01*
X508968Y137670D01*
G37*
%LPD*%
%LPC*%
G36*
X521668Y137670D02*
X521668Y137670D01*
X520775Y138563D01*
X520775Y155077D01*
X521668Y155970D01*
X529432Y155970D01*
X530325Y155077D01*
X530325Y138563D01*
X529432Y137670D01*
X521668Y137670D01*
G37*
%LPD*%
%LPC*%
G36*
X470868Y137670D02*
X470868Y137670D01*
X469975Y138563D01*
X469975Y155077D01*
X470868Y155970D01*
X478632Y155970D01*
X479525Y155077D01*
X479525Y138563D01*
X478632Y137670D01*
X470868Y137670D01*
G37*
%LPD*%
%LPC*%
G36*
X483568Y137670D02*
X483568Y137670D01*
X482675Y138563D01*
X482675Y155077D01*
X483568Y155970D01*
X491332Y155970D01*
X492225Y155077D01*
X492225Y138563D01*
X491332Y137670D01*
X483568Y137670D01*
G37*
%LPD*%
%LPC*%
G36*
X688268Y84630D02*
X688268Y84630D01*
X687375Y85523D01*
X687375Y102037D01*
X688268Y102930D01*
X696032Y102930D01*
X696925Y102037D01*
X696925Y85523D01*
X696032Y84630D01*
X688268Y84630D01*
G37*
%LPD*%
%LPC*%
G36*
X700968Y84630D02*
X700968Y84630D01*
X700075Y85523D01*
X700075Y102037D01*
X700968Y102930D01*
X708732Y102930D01*
X709625Y102037D01*
X709625Y85523D01*
X708732Y84630D01*
X700968Y84630D01*
G37*
%LPD*%
%LPC*%
G36*
X624768Y138870D02*
X624768Y138870D01*
X623875Y139763D01*
X623875Y156277D01*
X624768Y157170D01*
X632532Y157170D01*
X633425Y156277D01*
X633425Y139763D01*
X632532Y138870D01*
X624768Y138870D01*
G37*
%LPD*%
%LPC*%
G36*
X662868Y138870D02*
X662868Y138870D01*
X661975Y139763D01*
X661975Y156277D01*
X662868Y157170D01*
X670632Y157170D01*
X671525Y156277D01*
X671525Y139763D01*
X670632Y138870D01*
X662868Y138870D01*
G37*
%LPD*%
%LPC*%
G36*
X713668Y84630D02*
X713668Y84630D01*
X712775Y85523D01*
X712775Y102037D01*
X713668Y102930D01*
X721432Y102930D01*
X722325Y102037D01*
X722325Y85523D01*
X721432Y84630D01*
X713668Y84630D01*
G37*
%LPD*%
%LPC*%
G36*
X675568Y138870D02*
X675568Y138870D01*
X674675Y139763D01*
X674675Y156277D01*
X675568Y157170D01*
X683332Y157170D01*
X684225Y156277D01*
X684225Y139763D01*
X683332Y138870D01*
X675568Y138870D01*
G37*
%LPD*%
%LPC*%
G36*
X688268Y138870D02*
X688268Y138870D01*
X687375Y139763D01*
X687375Y156277D01*
X688268Y157170D01*
X696032Y157170D01*
X696925Y156277D01*
X696925Y139763D01*
X696032Y138870D01*
X688268Y138870D01*
G37*
%LPD*%
%LPC*%
G36*
X700968Y138870D02*
X700968Y138870D01*
X700075Y139763D01*
X700075Y156277D01*
X700968Y157170D01*
X708732Y157170D01*
X709625Y156277D01*
X709625Y139763D01*
X708732Y138870D01*
X700968Y138870D01*
G37*
%LPD*%
%LPC*%
G36*
X637468Y138870D02*
X637468Y138870D01*
X636575Y139763D01*
X636575Y156277D01*
X637468Y157170D01*
X645232Y157170D01*
X646125Y156277D01*
X646125Y139763D01*
X645232Y138870D01*
X637468Y138870D01*
G37*
%LPD*%
%LPC*%
G36*
X650168Y138870D02*
X650168Y138870D01*
X649275Y139763D01*
X649275Y156277D01*
X650168Y157170D01*
X657932Y157170D01*
X658825Y156277D01*
X658825Y139763D01*
X657932Y138870D01*
X650168Y138870D01*
G37*
%LPD*%
%LPC*%
G36*
X293846Y138993D02*
X293846Y138993D01*
X292953Y139887D01*
X292953Y156400D01*
X293846Y157293D01*
X301610Y157293D01*
X302503Y156400D01*
X302503Y139887D01*
X301610Y138993D01*
X293846Y138993D01*
G37*
%LPD*%
%LPC*%
G36*
X111576Y139712D02*
X111576Y139712D01*
X110683Y140605D01*
X110683Y157118D01*
X111576Y158012D01*
X119339Y158012D01*
X120232Y157118D01*
X120232Y140605D01*
X119339Y139712D01*
X111576Y139712D01*
G37*
%LPD*%
%LPC*%
G36*
X98876Y139712D02*
X98876Y139712D01*
X97983Y140605D01*
X97983Y157118D01*
X98876Y158012D01*
X106639Y158012D01*
X107532Y157118D01*
X107532Y140605D01*
X106639Y139712D01*
X98876Y139712D01*
G37*
%LPD*%
%LPC*%
G36*
X175076Y139712D02*
X175076Y139712D01*
X174183Y140605D01*
X174183Y157118D01*
X175076Y158012D01*
X182839Y158012D01*
X183732Y157118D01*
X183732Y140605D01*
X182839Y139712D01*
X175076Y139712D01*
G37*
%LPD*%
%LPC*%
G36*
X637468Y84630D02*
X637468Y84630D01*
X636575Y85523D01*
X636575Y102037D01*
X637468Y102930D01*
X645232Y102930D01*
X646125Y102037D01*
X646125Y85523D01*
X645232Y84630D01*
X637468Y84630D01*
G37*
%LPD*%
%LPC*%
G36*
X149676Y139712D02*
X149676Y139712D01*
X148783Y140605D01*
X148783Y157118D01*
X149676Y158012D01*
X157439Y158012D01*
X158332Y157118D01*
X158332Y140605D01*
X157439Y139712D01*
X149676Y139712D01*
G37*
%LPD*%
%LPC*%
G36*
X136976Y139712D02*
X136976Y139712D01*
X136083Y140605D01*
X136083Y157118D01*
X136976Y158012D01*
X144739Y158012D01*
X145632Y157118D01*
X145632Y140605D01*
X144739Y139712D01*
X136976Y139712D01*
G37*
%LPD*%
%LPC*%
G36*
X124276Y139712D02*
X124276Y139712D01*
X123383Y140605D01*
X123383Y157118D01*
X124276Y158012D01*
X132039Y158012D01*
X132932Y157118D01*
X132932Y140605D01*
X132039Y139712D01*
X124276Y139712D01*
G37*
%LPD*%
%LPC*%
G36*
X281146Y138993D02*
X281146Y138993D01*
X280253Y139887D01*
X280253Y156400D01*
X281146Y157293D01*
X288910Y157293D01*
X289803Y156400D01*
X289803Y139887D01*
X288910Y138993D01*
X281146Y138993D01*
G37*
%LPD*%
%LPC*%
G36*
X268446Y138993D02*
X268446Y138993D01*
X267553Y139887D01*
X267553Y156400D01*
X268446Y157293D01*
X276210Y157293D01*
X277103Y156400D01*
X277103Y139887D01*
X276210Y138993D01*
X268446Y138993D01*
G37*
%LPD*%
%LPC*%
G36*
X344646Y138993D02*
X344646Y138993D01*
X343753Y139887D01*
X343753Y156400D01*
X344646Y157293D01*
X352410Y157293D01*
X353303Y156400D01*
X353303Y139887D01*
X352410Y138993D01*
X344646Y138993D01*
G37*
%LPD*%
%LPC*%
G36*
X331946Y138993D02*
X331946Y138993D01*
X331053Y139887D01*
X331053Y156400D01*
X331946Y157293D01*
X339710Y157293D01*
X340603Y156400D01*
X340603Y139887D01*
X339710Y138993D01*
X331946Y138993D01*
G37*
%LPD*%
%LPC*%
G36*
X319246Y138993D02*
X319246Y138993D01*
X318353Y139887D01*
X318353Y156400D01*
X319246Y157293D01*
X327010Y157293D01*
X327903Y156400D01*
X327903Y139887D01*
X327010Y138993D01*
X319246Y138993D01*
G37*
%LPD*%
%LPC*%
G36*
X293846Y84753D02*
X293846Y84753D01*
X292953Y85647D01*
X292953Y102160D01*
X293846Y103053D01*
X301610Y103053D01*
X302503Y102160D01*
X302503Y85647D01*
X301610Y84753D01*
X293846Y84753D01*
G37*
%LPD*%
%LPC*%
G36*
X306546Y84753D02*
X306546Y84753D01*
X305653Y85647D01*
X305653Y102160D01*
X306546Y103053D01*
X314310Y103053D01*
X315203Y102160D01*
X315203Y85647D01*
X314310Y84753D01*
X306546Y84753D01*
G37*
%LPD*%
%LPC*%
G36*
X319246Y84753D02*
X319246Y84753D01*
X318353Y85647D01*
X318353Y102160D01*
X319246Y103053D01*
X327010Y103053D01*
X327903Y102160D01*
X327903Y85647D01*
X327010Y84753D01*
X319246Y84753D01*
G37*
%LPD*%
%LPC*%
G36*
X331946Y84753D02*
X331946Y84753D01*
X331053Y85647D01*
X331053Y102160D01*
X331946Y103053D01*
X339710Y103053D01*
X340603Y102160D01*
X340603Y85647D01*
X339710Y84753D01*
X331946Y84753D01*
G37*
%LPD*%
%LPC*%
G36*
X344646Y84753D02*
X344646Y84753D01*
X343753Y85647D01*
X343753Y102160D01*
X344646Y103053D01*
X352410Y103053D01*
X353303Y102160D01*
X353303Y85647D01*
X352410Y84753D01*
X344646Y84753D01*
G37*
%LPD*%
%LPC*%
G36*
X357346Y84753D02*
X357346Y84753D01*
X356453Y85647D01*
X356453Y102160D01*
X357346Y103053D01*
X365110Y103053D01*
X366003Y102160D01*
X366003Y85647D01*
X365110Y84753D01*
X357346Y84753D01*
G37*
%LPD*%
%LPC*%
G36*
X268446Y84753D02*
X268446Y84753D01*
X267553Y85647D01*
X267553Y102160D01*
X268446Y103053D01*
X276210Y103053D01*
X277103Y102160D01*
X277103Y85647D01*
X276210Y84753D01*
X268446Y84753D01*
G37*
%LPD*%
%LPC*%
G36*
X281146Y84753D02*
X281146Y84753D01*
X280253Y85647D01*
X280253Y102160D01*
X281146Y103053D01*
X288910Y103053D01*
X289803Y102160D01*
X289803Y85647D01*
X288910Y84753D01*
X281146Y84753D01*
G37*
%LPD*%
%LPC*%
G36*
X162376Y139712D02*
X162376Y139712D01*
X161483Y140605D01*
X161483Y157118D01*
X162376Y158012D01*
X170139Y158012D01*
X171032Y157118D01*
X171032Y140605D01*
X170139Y139712D01*
X162376Y139712D01*
G37*
%LPD*%
%LPC*%
G36*
X98876Y85472D02*
X98876Y85472D01*
X97983Y86365D01*
X97983Y102878D01*
X98876Y103772D01*
X106639Y103772D01*
X107532Y102878D01*
X107532Y86365D01*
X106639Y85472D01*
X98876Y85472D01*
G37*
%LPD*%
%LPC*%
G36*
X111576Y85472D02*
X111576Y85472D01*
X110683Y86365D01*
X110683Y102878D01*
X111576Y103772D01*
X119339Y103772D01*
X120232Y102878D01*
X120232Y86365D01*
X119339Y85472D01*
X111576Y85472D01*
G37*
%LPD*%
%LPC*%
G36*
X124276Y85472D02*
X124276Y85472D01*
X123383Y86365D01*
X123383Y102878D01*
X124276Y103772D01*
X132039Y103772D01*
X132932Y102878D01*
X132932Y86365D01*
X132039Y85472D01*
X124276Y85472D01*
G37*
%LPD*%
%LPC*%
G36*
X136976Y85472D02*
X136976Y85472D01*
X136083Y86365D01*
X136083Y102878D01*
X136976Y103772D01*
X144739Y103772D01*
X145632Y102878D01*
X145632Y86365D01*
X144739Y85472D01*
X136976Y85472D01*
G37*
%LPD*%
%LPC*%
G36*
X149676Y85472D02*
X149676Y85472D01*
X148783Y86365D01*
X148783Y102878D01*
X149676Y103772D01*
X157439Y103772D01*
X158332Y102878D01*
X158332Y86365D01*
X157439Y85472D01*
X149676Y85472D01*
G37*
%LPD*%
%LPC*%
G36*
X162376Y85472D02*
X162376Y85472D01*
X161483Y86365D01*
X161483Y102878D01*
X162376Y103772D01*
X170139Y103772D01*
X171032Y102878D01*
X171032Y86365D01*
X170139Y85472D01*
X162376Y85472D01*
G37*
%LPD*%
%LPC*%
G36*
X496268Y83430D02*
X496268Y83430D01*
X495375Y84323D01*
X495375Y100837D01*
X496268Y101730D01*
X504032Y101730D01*
X504925Y100837D01*
X504925Y84323D01*
X504032Y83430D01*
X496268Y83430D01*
G37*
%LPD*%
%LPC*%
G36*
X175076Y85472D02*
X175076Y85472D01*
X174183Y86365D01*
X174183Y102878D01*
X175076Y103772D01*
X182839Y103772D01*
X183732Y102878D01*
X183732Y86365D01*
X182839Y85472D01*
X175076Y85472D01*
G37*
%LPD*%
%LPC*%
G36*
X187776Y85472D02*
X187776Y85472D01*
X186883Y86365D01*
X186883Y102878D01*
X187776Y103772D01*
X195539Y103772D01*
X196432Y102878D01*
X196432Y86365D01*
X195539Y85472D01*
X187776Y85472D01*
G37*
%LPD*%
%LPC*%
G36*
X445468Y83430D02*
X445468Y83430D01*
X444575Y84323D01*
X444575Y100837D01*
X445468Y101730D01*
X453232Y101730D01*
X454125Y100837D01*
X454125Y84323D01*
X453232Y83430D01*
X445468Y83430D01*
G37*
%LPD*%
%LPC*%
G36*
X458168Y83430D02*
X458168Y83430D01*
X457275Y84323D01*
X457275Y100837D01*
X458168Y101730D01*
X465932Y101730D01*
X466825Y100837D01*
X466825Y84323D01*
X465932Y83430D01*
X458168Y83430D01*
G37*
%LPD*%
%LPC*%
G36*
X508968Y83430D02*
X508968Y83430D01*
X508075Y84323D01*
X508075Y100837D01*
X508968Y101730D01*
X516732Y101730D01*
X517625Y100837D01*
X517625Y84323D01*
X516732Y83430D01*
X508968Y83430D01*
G37*
%LPD*%
%LPC*%
G36*
X521668Y83430D02*
X521668Y83430D01*
X520775Y84323D01*
X520775Y100837D01*
X521668Y101730D01*
X529432Y101730D01*
X530325Y100837D01*
X530325Y84323D01*
X529432Y83430D01*
X521668Y83430D01*
G37*
%LPD*%
%LPC*%
G36*
X534368Y83430D02*
X534368Y83430D01*
X533475Y84323D01*
X533475Y100837D01*
X534368Y101730D01*
X542132Y101730D01*
X543025Y100837D01*
X543025Y84323D01*
X542132Y83430D01*
X534368Y83430D01*
G37*
%LPD*%
%LPC*%
G36*
X470868Y83430D02*
X470868Y83430D01*
X469975Y84323D01*
X469975Y100837D01*
X470868Y101730D01*
X478632Y101730D01*
X479525Y100837D01*
X479525Y84323D01*
X478632Y83430D01*
X470868Y83430D01*
G37*
%LPD*%
%LPC*%
G36*
X483568Y83430D02*
X483568Y83430D01*
X482675Y84323D01*
X482675Y100837D01*
X483568Y101730D01*
X491332Y101730D01*
X492225Y100837D01*
X492225Y84323D01*
X491332Y83430D01*
X483568Y83430D01*
G37*
%LPD*%
%LPC*%
G36*
X624768Y84630D02*
X624768Y84630D01*
X623875Y85523D01*
X623875Y102037D01*
X624768Y102930D01*
X632532Y102930D01*
X633425Y102037D01*
X633425Y85523D01*
X632532Y84630D01*
X624768Y84630D01*
G37*
%LPD*%
%LPC*%
G36*
X35223Y356023D02*
X35223Y356023D01*
X35223Y365666D01*
X42659Y365666D01*
X43306Y365493D01*
X43885Y365158D01*
X44358Y364685D01*
X44693Y364106D01*
X44866Y363459D01*
X44866Y356023D01*
X35223Y356023D01*
G37*
%LPD*%
%LPC*%
G36*
X22534Y356023D02*
X22534Y356023D01*
X22534Y363459D01*
X22707Y364106D01*
X23042Y364685D01*
X23515Y365158D01*
X24094Y365493D01*
X24741Y365666D01*
X32177Y365666D01*
X32177Y356023D01*
X22534Y356023D01*
G37*
%LPD*%
%LPC*%
G36*
X35223Y343334D02*
X35223Y343334D01*
X35223Y352977D01*
X44866Y352977D01*
X44866Y345541D01*
X44693Y344894D01*
X44358Y344315D01*
X43885Y343842D01*
X43306Y343507D01*
X42659Y343334D01*
X35223Y343334D01*
G37*
%LPD*%
%LPC*%
G36*
X24741Y343334D02*
X24741Y343334D01*
X24094Y343507D01*
X23515Y343842D01*
X23042Y344315D01*
X22707Y344894D01*
X22534Y345541D01*
X22534Y352977D01*
X32177Y352977D01*
X32177Y343334D01*
X24741Y343334D01*
G37*
%LPD*%
%LPC*%
G36*
X35223Y419323D02*
X35223Y419323D01*
X35223Y428864D01*
X36315Y428691D01*
X37986Y428148D01*
X39552Y427350D01*
X40974Y426317D01*
X42217Y425074D01*
X43250Y423652D01*
X44048Y422086D01*
X44591Y420415D01*
X44764Y419323D01*
X35223Y419323D01*
G37*
%LPD*%
%LPC*%
G36*
X263323Y775923D02*
X263323Y775923D01*
X263323Y785464D01*
X264415Y785291D01*
X266086Y784748D01*
X267652Y783950D01*
X269074Y782917D01*
X270317Y781674D01*
X271350Y780252D01*
X272148Y778686D01*
X272691Y777015D01*
X272864Y775923D01*
X263323Y775923D01*
G37*
%LPD*%
%LPC*%
G36*
X35223Y254423D02*
X35223Y254423D01*
X35223Y263964D01*
X36315Y263791D01*
X37986Y263248D01*
X39552Y262450D01*
X40974Y261417D01*
X42217Y260174D01*
X43250Y258752D01*
X44048Y257186D01*
X44591Y255515D01*
X44764Y254423D01*
X35223Y254423D01*
G37*
%LPD*%
%LPC*%
G36*
X96123Y775923D02*
X96123Y775923D01*
X96123Y785464D01*
X97215Y785291D01*
X98886Y784748D01*
X100452Y783950D01*
X101874Y782917D01*
X103117Y781674D01*
X104150Y780252D01*
X104948Y778686D01*
X105491Y777015D01*
X105664Y775923D01*
X96123Y775923D01*
G37*
%LPD*%
%LPC*%
G36*
X35223Y305223D02*
X35223Y305223D01*
X35223Y314764D01*
X36315Y314591D01*
X37986Y314048D01*
X39552Y313250D01*
X40974Y312217D01*
X42217Y310974D01*
X43250Y309552D01*
X44048Y307986D01*
X44591Y306315D01*
X44764Y305223D01*
X35223Y305223D01*
G37*
%LPD*%
%LPC*%
G36*
X35223Y470123D02*
X35223Y470123D01*
X35223Y479664D01*
X36315Y479491D01*
X37986Y478948D01*
X39552Y478150D01*
X40974Y477117D01*
X42217Y475874D01*
X43250Y474452D01*
X44048Y472886D01*
X44591Y471215D01*
X44764Y470123D01*
X35223Y470123D01*
G37*
%LPD*%
%LPC*%
G36*
X250736Y775923D02*
X250736Y775923D01*
X250909Y777015D01*
X251452Y778686D01*
X252250Y780252D01*
X253283Y781674D01*
X254526Y782917D01*
X255948Y783950D01*
X257514Y784748D01*
X259185Y785291D01*
X260277Y785464D01*
X260277Y775923D01*
X250736Y775923D01*
G37*
%LPD*%
%LPC*%
G36*
X96123Y772877D02*
X96123Y772877D01*
X105664Y772877D01*
X105491Y771785D01*
X104948Y770114D01*
X104150Y768548D01*
X103117Y767126D01*
X101874Y765883D01*
X100452Y764850D01*
X98886Y764052D01*
X97215Y763509D01*
X96123Y763336D01*
X96123Y772877D01*
G37*
%LPD*%
%LPC*%
G36*
X35223Y416277D02*
X35223Y416277D01*
X44764Y416277D01*
X44591Y415185D01*
X44048Y413514D01*
X43250Y411948D01*
X42217Y410526D01*
X40974Y409283D01*
X39552Y408250D01*
X37986Y407452D01*
X36315Y406909D01*
X35223Y406736D01*
X35223Y416277D01*
G37*
%LPD*%
%LPC*%
G36*
X35223Y251377D02*
X35223Y251377D01*
X44764Y251377D01*
X44591Y250285D01*
X44048Y248614D01*
X43250Y247048D01*
X42217Y245626D01*
X40974Y244383D01*
X39552Y243350D01*
X37986Y242552D01*
X36315Y242009D01*
X35223Y241836D01*
X35223Y251377D01*
G37*
%LPD*%
%LPC*%
G36*
X22636Y254423D02*
X22636Y254423D01*
X22809Y255515D01*
X23352Y257186D01*
X24150Y258752D01*
X25183Y260174D01*
X26426Y261417D01*
X27848Y262450D01*
X29414Y263248D01*
X31085Y263791D01*
X32177Y263964D01*
X32177Y254423D01*
X22636Y254423D01*
G37*
%LPD*%
%LPC*%
G36*
X35223Y302177D02*
X35223Y302177D01*
X44764Y302177D01*
X44591Y301085D01*
X44048Y299414D01*
X43250Y297848D01*
X42217Y296426D01*
X40974Y295183D01*
X39552Y294150D01*
X37986Y293352D01*
X36315Y292809D01*
X35223Y292636D01*
X35223Y302177D01*
G37*
%LPD*%
%LPC*%
G36*
X22636Y305223D02*
X22636Y305223D01*
X22809Y306315D01*
X23352Y307986D01*
X24150Y309552D01*
X25183Y310974D01*
X26426Y312217D01*
X27848Y313250D01*
X29414Y314048D01*
X31085Y314591D01*
X32177Y314764D01*
X32177Y305223D01*
X22636Y305223D01*
G37*
%LPD*%
%LPC*%
G36*
X22636Y419323D02*
X22636Y419323D01*
X22809Y420415D01*
X23352Y422086D01*
X24150Y423652D01*
X25183Y425074D01*
X26426Y426317D01*
X27848Y427350D01*
X29414Y428148D01*
X31085Y428691D01*
X32177Y428864D01*
X32177Y419323D01*
X22636Y419323D01*
G37*
%LPD*%
%LPC*%
G36*
X35223Y467077D02*
X35223Y467077D01*
X44764Y467077D01*
X44591Y465985D01*
X44048Y464314D01*
X43250Y462748D01*
X42217Y461326D01*
X40974Y460083D01*
X39552Y459050D01*
X37986Y458252D01*
X36315Y457709D01*
X35223Y457536D01*
X35223Y467077D01*
G37*
%LPD*%
%LPC*%
G36*
X263323Y772877D02*
X263323Y772877D01*
X272864Y772877D01*
X272691Y771785D01*
X272148Y770114D01*
X271350Y768548D01*
X270317Y767126D01*
X269074Y765883D01*
X267652Y764850D01*
X266086Y764052D01*
X264415Y763509D01*
X263323Y763336D01*
X263323Y772877D01*
G37*
%LPD*%
%LPC*%
G36*
X22636Y470123D02*
X22636Y470123D01*
X22809Y471215D01*
X23352Y472886D01*
X24150Y474452D01*
X25183Y475874D01*
X26426Y477117D01*
X27848Y478150D01*
X29414Y478948D01*
X31085Y479491D01*
X32177Y479664D01*
X32177Y470123D01*
X22636Y470123D01*
G37*
%LPD*%
%LPC*%
G36*
X83536Y775923D02*
X83536Y775923D01*
X83709Y777015D01*
X84252Y778686D01*
X85050Y780252D01*
X86083Y781674D01*
X87326Y782917D01*
X88748Y783950D01*
X90314Y784748D01*
X91985Y785291D01*
X93077Y785464D01*
X93077Y775923D01*
X83536Y775923D01*
G37*
%LPD*%
%LPC*%
G36*
X91985Y763509D02*
X91985Y763509D01*
X90314Y764052D01*
X88748Y764850D01*
X87326Y765883D01*
X86083Y767126D01*
X85050Y768548D01*
X84252Y770114D01*
X83709Y771785D01*
X83536Y772877D01*
X93077Y772877D01*
X93077Y763336D01*
X91985Y763509D01*
G37*
%LPD*%
%LPC*%
G36*
X31085Y242009D02*
X31085Y242009D01*
X29414Y242552D01*
X27848Y243350D01*
X26426Y244383D01*
X25183Y245626D01*
X24150Y247048D01*
X23352Y248614D01*
X22809Y250285D01*
X22636Y251377D01*
X32177Y251377D01*
X32177Y241836D01*
X31085Y242009D01*
G37*
%LPD*%
%LPC*%
G36*
X31085Y457709D02*
X31085Y457709D01*
X29414Y458252D01*
X27848Y459050D01*
X26426Y460083D01*
X25183Y461326D01*
X24150Y462748D01*
X23352Y464314D01*
X22809Y465985D01*
X22636Y467077D01*
X32177Y467077D01*
X32177Y457536D01*
X31085Y457709D01*
G37*
%LPD*%
%LPC*%
G36*
X259185Y763509D02*
X259185Y763509D01*
X257514Y764052D01*
X255948Y764850D01*
X254526Y765883D01*
X253283Y767126D01*
X252250Y768548D01*
X251452Y770114D01*
X250909Y771785D01*
X250736Y772877D01*
X260277Y772877D01*
X260277Y763336D01*
X259185Y763509D01*
G37*
%LPD*%
%LPC*%
G36*
X31085Y292809D02*
X31085Y292809D01*
X29414Y293352D01*
X27848Y294150D01*
X26426Y295183D01*
X25183Y296426D01*
X24150Y297848D01*
X23352Y299414D01*
X22809Y301085D01*
X22636Y302177D01*
X32177Y302177D01*
X32177Y292636D01*
X31085Y292809D01*
G37*
%LPD*%
%LPC*%
G36*
X31085Y406909D02*
X31085Y406909D01*
X29414Y407452D01*
X27848Y408250D01*
X26426Y409283D01*
X25183Y410526D01*
X24150Y411948D01*
X23352Y413514D01*
X22809Y415185D01*
X22636Y416277D01*
X32177Y416277D01*
X32177Y406736D01*
X31085Y406909D01*
G37*
%LPD*%
%LPC*%
G36*
X470623Y230223D02*
X470623Y230223D01*
X470623Y238741D01*
X475934Y238741D01*
X476581Y238568D01*
X477160Y238233D01*
X477633Y237760D01*
X477968Y237181D01*
X478141Y236534D01*
X478141Y230223D01*
X470623Y230223D01*
G37*
%LPD*%
%LPC*%
G36*
X841723Y98523D02*
X841723Y98523D01*
X841723Y106041D01*
X848034Y106041D01*
X848681Y105868D01*
X849260Y105533D01*
X849733Y105060D01*
X850068Y104481D01*
X850241Y103834D01*
X850241Y98523D01*
X841723Y98523D01*
G37*
%LPD*%
%LPC*%
G36*
X805223Y82723D02*
X805223Y82723D01*
X805223Y90241D01*
X811534Y90241D01*
X812181Y90068D01*
X812760Y89733D01*
X813233Y89260D01*
X813568Y88681D01*
X813741Y88034D01*
X813741Y82723D01*
X805223Y82723D01*
G37*
%LPD*%
%LPC*%
G36*
X841723Y155523D02*
X841723Y155523D01*
X841723Y163041D01*
X848034Y163041D01*
X848681Y162868D01*
X849260Y162533D01*
X849733Y162060D01*
X850068Y161481D01*
X850241Y160834D01*
X850241Y155523D01*
X841723Y155523D01*
G37*
%LPD*%
%LPC*%
G36*
X449323Y228523D02*
X449323Y228523D01*
X449323Y237041D01*
X454634Y237041D01*
X455281Y236868D01*
X455860Y236533D01*
X456333Y236060D01*
X456668Y235481D01*
X456841Y234834D01*
X456841Y228523D01*
X449323Y228523D01*
G37*
%LPD*%
%LPC*%
G36*
X793659Y82723D02*
X793659Y82723D01*
X793659Y88034D01*
X793832Y88681D01*
X794167Y89260D01*
X794640Y89733D01*
X795219Y90068D01*
X795866Y90241D01*
X802177Y90241D01*
X802177Y82723D01*
X793659Y82723D01*
G37*
%LPD*%
%LPC*%
G36*
X830159Y155523D02*
X830159Y155523D01*
X830159Y160834D01*
X830332Y161481D01*
X830667Y162060D01*
X831140Y162533D01*
X831719Y162868D01*
X832366Y163041D01*
X838677Y163041D01*
X838677Y155523D01*
X830159Y155523D01*
G37*
%LPD*%
%LPC*%
G36*
X830159Y98523D02*
X830159Y98523D01*
X830159Y103834D01*
X830332Y104481D01*
X830667Y105060D01*
X831140Y105533D01*
X831719Y105868D01*
X832366Y106041D01*
X838677Y106041D01*
X838677Y98523D01*
X830159Y98523D01*
G37*
%LPD*%
%LPC*%
G36*
X449323Y216959D02*
X449323Y216959D01*
X449323Y225477D01*
X456841Y225477D01*
X456841Y219166D01*
X456668Y218519D01*
X456333Y217940D01*
X455860Y217467D01*
X455281Y217132D01*
X454634Y216959D01*
X449323Y216959D01*
G37*
%LPD*%
%LPC*%
G36*
X470623Y218659D02*
X470623Y218659D01*
X470623Y227177D01*
X478141Y227177D01*
X478141Y220866D01*
X477968Y220219D01*
X477633Y219640D01*
X477160Y219167D01*
X476581Y218832D01*
X475934Y218659D01*
X470623Y218659D01*
G37*
%LPD*%
%LPC*%
G36*
X841723Y87959D02*
X841723Y87959D01*
X841723Y95477D01*
X850241Y95477D01*
X850241Y90166D01*
X850068Y89519D01*
X849733Y88940D01*
X849260Y88467D01*
X848681Y88132D01*
X848034Y87959D01*
X841723Y87959D01*
G37*
%LPD*%
%LPC*%
G36*
X805223Y72159D02*
X805223Y72159D01*
X805223Y79677D01*
X813741Y79677D01*
X813741Y74366D01*
X813568Y73719D01*
X813233Y73140D01*
X812760Y72667D01*
X812181Y72332D01*
X811534Y72159D01*
X805223Y72159D01*
G37*
%LPD*%
%LPC*%
G36*
X438759Y228523D02*
X438759Y228523D01*
X438759Y234834D01*
X438932Y235481D01*
X439267Y236060D01*
X439740Y236533D01*
X440319Y236868D01*
X440966Y237041D01*
X446277Y237041D01*
X446277Y228523D01*
X438759Y228523D01*
G37*
%LPD*%
%LPC*%
G36*
X460059Y230223D02*
X460059Y230223D01*
X460059Y236534D01*
X460232Y237181D01*
X460567Y237760D01*
X461040Y238233D01*
X461619Y238568D01*
X462266Y238741D01*
X467577Y238741D01*
X467577Y230223D01*
X460059Y230223D01*
G37*
%LPD*%
%LPC*%
G36*
X841723Y144959D02*
X841723Y144959D01*
X841723Y152477D01*
X850241Y152477D01*
X850241Y147166D01*
X850068Y146519D01*
X849733Y145940D01*
X849260Y145467D01*
X848681Y145132D01*
X848034Y144959D01*
X841723Y144959D01*
G37*
%LPD*%
%LPC*%
G36*
X832366Y87959D02*
X832366Y87959D01*
X831719Y88132D01*
X831140Y88467D01*
X830667Y88940D01*
X830332Y89519D01*
X830159Y90166D01*
X830159Y95477D01*
X838677Y95477D01*
X838677Y87959D01*
X832366Y87959D01*
G37*
%LPD*%
%LPC*%
G36*
X832366Y144959D02*
X832366Y144959D01*
X831719Y145132D01*
X831140Y145467D01*
X830667Y145940D01*
X830332Y146519D01*
X830159Y147166D01*
X830159Y152477D01*
X838677Y152477D01*
X838677Y144959D01*
X832366Y144959D01*
G37*
%LPD*%
%LPC*%
G36*
X440966Y216959D02*
X440966Y216959D01*
X440319Y217132D01*
X439740Y217467D01*
X439267Y217940D01*
X438932Y218519D01*
X438759Y219166D01*
X438759Y225477D01*
X446277Y225477D01*
X446277Y216959D01*
X440966Y216959D01*
G37*
%LPD*%
%LPC*%
G36*
X462266Y218659D02*
X462266Y218659D01*
X461619Y218832D01*
X461040Y219167D01*
X460567Y219640D01*
X460232Y220219D01*
X460059Y220866D01*
X460059Y227177D01*
X467577Y227177D01*
X467577Y218659D01*
X462266Y218659D01*
G37*
%LPD*%
%LPC*%
G36*
X795866Y72159D02*
X795866Y72159D01*
X795219Y72332D01*
X794640Y72667D01*
X794167Y73140D01*
X793832Y73719D01*
X793659Y74366D01*
X793659Y79677D01*
X802177Y79677D01*
X802177Y72159D01*
X795866Y72159D01*
G37*
%LPD*%
%LPC*%
G36*
X860723Y455223D02*
X860723Y455223D01*
X860723Y463275D01*
X861470Y463157D01*
X862922Y462685D01*
X864282Y461993D01*
X865516Y461095D01*
X866595Y460016D01*
X867493Y458782D01*
X868185Y457422D01*
X868657Y455970D01*
X868775Y455223D01*
X860723Y455223D01*
G37*
%LPD*%
%LPC*%
G36*
X860723Y452177D02*
X860723Y452177D01*
X868775Y452177D01*
X868657Y451430D01*
X868185Y449978D01*
X867493Y448618D01*
X866595Y447384D01*
X865516Y446305D01*
X864282Y445407D01*
X862922Y444715D01*
X861470Y444243D01*
X860723Y444125D01*
X860723Y452177D01*
G37*
%LPD*%
%LPC*%
G36*
X849625Y455223D02*
X849625Y455223D01*
X849743Y455970D01*
X850215Y457422D01*
X850907Y458782D01*
X851805Y460016D01*
X852884Y461095D01*
X854118Y461993D01*
X855478Y462685D01*
X856930Y463157D01*
X857677Y463275D01*
X857677Y455223D01*
X849625Y455223D01*
G37*
%LPD*%
%LPC*%
G36*
X856930Y444243D02*
X856930Y444243D01*
X855478Y444715D01*
X854118Y445407D01*
X852884Y446305D01*
X851805Y447384D01*
X850907Y448618D01*
X850215Y449978D01*
X849743Y451430D01*
X849625Y452177D01*
X857677Y452177D01*
X857677Y444125D01*
X856930Y444243D01*
G37*
%LPD*%
%LPC*%
G36*
X362751Y149666D02*
X362751Y149666D01*
X362751Y158309D01*
X364812Y158309D01*
X365459Y158136D01*
X366038Y157801D01*
X366511Y157328D01*
X366846Y156749D01*
X367019Y156103D01*
X367019Y149666D01*
X362751Y149666D01*
G37*
%LPD*%
%LPC*%
G36*
X193180Y150385D02*
X193180Y150385D01*
X193180Y159027D01*
X195242Y159028D01*
X195888Y158854D01*
X196467Y158520D01*
X196940Y158047D01*
X197275Y157468D01*
X197448Y156821D01*
X197448Y150385D01*
X193180Y150385D01*
G37*
%LPD*%
%LPC*%
G36*
X719073Y149543D02*
X719073Y149543D01*
X719073Y158186D01*
X721135Y158186D01*
X721781Y158013D01*
X722360Y157678D01*
X722833Y157205D01*
X723168Y156626D01*
X723341Y155979D01*
X723341Y149543D01*
X719073Y149543D01*
G37*
%LPD*%
%LPC*%
G36*
X539773Y148343D02*
X539773Y148343D01*
X539773Y156986D01*
X541835Y156986D01*
X542481Y156813D01*
X543060Y156478D01*
X543533Y156005D01*
X543868Y155426D01*
X544041Y154779D01*
X544041Y148343D01*
X539773Y148343D01*
G37*
%LPD*%
%LPC*%
G36*
X362751Y137977D02*
X362751Y137977D01*
X362751Y146620D01*
X367019Y146620D01*
X367019Y140184D01*
X366846Y139537D01*
X366511Y138958D01*
X366038Y138485D01*
X365459Y138151D01*
X364812Y137977D01*
X362751Y137977D01*
G37*
%LPD*%
%LPC*%
G36*
X719073Y137854D02*
X719073Y137854D01*
X719073Y146497D01*
X723341Y146497D01*
X723341Y140061D01*
X723168Y139414D01*
X722833Y138835D01*
X722360Y138362D01*
X721781Y138027D01*
X721134Y137854D01*
X719073Y137854D01*
G37*
%LPD*%
%LPC*%
G36*
X539773Y136654D02*
X539773Y136654D01*
X539773Y145297D01*
X544041Y145297D01*
X544041Y138861D01*
X543868Y138214D01*
X543533Y137635D01*
X543060Y137162D01*
X542481Y136827D01*
X541834Y136654D01*
X539773Y136654D01*
G37*
%LPD*%
%LPC*%
G36*
X193180Y138696D02*
X193180Y138696D01*
X193180Y147339D01*
X197448Y147339D01*
X197448Y140902D01*
X197275Y140256D01*
X196940Y139677D01*
X196467Y139204D01*
X195888Y138869D01*
X195242Y138696D01*
X193180Y138696D01*
G37*
%LPD*%
%LPC*%
G36*
X711759Y149543D02*
X711759Y149543D01*
X711759Y155979D01*
X711932Y156626D01*
X712267Y157205D01*
X712740Y157678D01*
X713319Y158013D01*
X713966Y158186D01*
X716027Y158186D01*
X716027Y149543D01*
X711759Y149543D01*
G37*
%LPD*%
%LPC*%
G36*
X355437Y149666D02*
X355437Y149666D01*
X355437Y156103D01*
X355610Y156749D01*
X355945Y157328D01*
X356418Y157801D01*
X356997Y158136D01*
X357643Y158309D01*
X359705Y158309D01*
X359705Y149666D01*
X355437Y149666D01*
G37*
%LPD*%
%LPC*%
G36*
X532459Y148343D02*
X532459Y148343D01*
X532459Y154779D01*
X532632Y155426D01*
X532967Y156005D01*
X533440Y156478D01*
X534019Y156813D01*
X534666Y156986D01*
X536727Y156986D01*
X536727Y148343D01*
X532459Y148343D01*
G37*
%LPD*%
%LPC*%
G36*
X185867Y150385D02*
X185867Y150385D01*
X185867Y156821D01*
X186040Y157468D01*
X186374Y158047D01*
X186847Y158520D01*
X187427Y158854D01*
X188073Y159028D01*
X190134Y159028D01*
X190134Y150385D01*
X185867Y150385D01*
G37*
%LPD*%
%LPC*%
G36*
X357643Y137977D02*
X357643Y137977D01*
X356997Y138151D01*
X356418Y138485D01*
X355945Y138958D01*
X355610Y139537D01*
X355437Y140184D01*
X355437Y146620D01*
X359705Y146620D01*
X359705Y137977D01*
X357643Y137977D01*
G37*
%LPD*%
%LPC*%
G36*
X534666Y136654D02*
X534666Y136654D01*
X534019Y136827D01*
X533440Y137162D01*
X532967Y137635D01*
X532632Y138214D01*
X532459Y138861D01*
X532459Y145297D01*
X536727Y145297D01*
X536727Y136654D01*
X534666Y136654D01*
G37*
%LPD*%
%LPC*%
G36*
X713966Y137854D02*
X713966Y137854D01*
X713319Y138027D01*
X712740Y138362D01*
X712267Y138835D01*
X711932Y139414D01*
X711759Y140061D01*
X711759Y146497D01*
X716027Y146497D01*
X716027Y137854D01*
X713966Y137854D01*
G37*
%LPD*%
%LPC*%
G36*
X188073Y138696D02*
X188073Y138696D01*
X187427Y138869D01*
X186847Y139204D01*
X186374Y139677D01*
X186040Y140256D01*
X185867Y140902D01*
X185867Y147339D01*
X190134Y147339D01*
X190134Y138696D01*
X188073Y138696D01*
G37*
%LPD*%
%LPC*%
G36*
X33699Y468599D02*
X33699Y468599D01*
X33699Y468601D01*
X33701Y468601D01*
X33701Y468599D01*
X33699Y468599D01*
G37*
%LPD*%
%LPC*%
G36*
X33699Y417799D02*
X33699Y417799D01*
X33699Y417801D01*
X33701Y417801D01*
X33701Y417799D01*
X33699Y417799D01*
G37*
%LPD*%
%LPC*%
G36*
X886299Y380999D02*
X886299Y380999D01*
X886299Y381001D01*
X886301Y381001D01*
X886301Y380999D01*
X886299Y380999D01*
G37*
%LPD*%
%LPC*%
G36*
X886299Y501399D02*
X886299Y501399D01*
X886299Y501401D01*
X886301Y501401D01*
X886301Y501399D01*
X886299Y501399D01*
G37*
%LPD*%
%LPC*%
G36*
X33699Y354499D02*
X33699Y354499D01*
X33699Y354501D01*
X33701Y354501D01*
X33701Y354499D01*
X33699Y354499D01*
G37*
%LPD*%
%LPC*%
G36*
X94599Y774399D02*
X94599Y774399D01*
X94599Y774401D01*
X94601Y774401D01*
X94601Y774399D01*
X94599Y774399D01*
G37*
%LPD*%
%LPC*%
G36*
X33699Y252899D02*
X33699Y252899D01*
X33699Y252901D01*
X33701Y252901D01*
X33701Y252899D01*
X33699Y252899D01*
G37*
%LPD*%
%LPC*%
G36*
X859199Y453699D02*
X859199Y453699D01*
X859199Y453701D01*
X859201Y453701D01*
X859201Y453699D01*
X859199Y453699D01*
G37*
%LPD*%
%LPC*%
G36*
X918799Y70499D02*
X918799Y70499D01*
X918799Y70501D01*
X918801Y70501D01*
X918801Y70499D01*
X918799Y70499D01*
G37*
%LPD*%
%LPC*%
G36*
X261799Y774399D02*
X261799Y774399D01*
X261799Y774401D01*
X261801Y774401D01*
X261801Y774399D01*
X261799Y774399D01*
G37*
%LPD*%
%LPC*%
G36*
X33699Y303699D02*
X33699Y303699D01*
X33699Y303701D01*
X33701Y303701D01*
X33701Y303699D01*
X33699Y303699D01*
G37*
%LPD*%
%LPC*%
G36*
X840199Y96999D02*
X840199Y96999D01*
X840199Y97001D01*
X840201Y97001D01*
X840201Y96999D01*
X840199Y96999D01*
G37*
%LPD*%
%LPC*%
G36*
X803699Y81199D02*
X803699Y81199D01*
X803699Y81201D01*
X803701Y81201D01*
X803701Y81199D01*
X803699Y81199D01*
G37*
%LPD*%
%LPC*%
G36*
X447799Y226999D02*
X447799Y226999D01*
X447799Y227001D01*
X447801Y227001D01*
X447801Y226999D01*
X447799Y226999D01*
G37*
%LPD*%
%LPC*%
G36*
X469099Y228699D02*
X469099Y228699D01*
X469099Y228701D01*
X469101Y228701D01*
X469101Y228699D01*
X469099Y228699D01*
G37*
%LPD*%
%LPC*%
G36*
X840199Y153999D02*
X840199Y153999D01*
X840199Y154001D01*
X840201Y154001D01*
X840201Y153999D01*
X840199Y153999D01*
G37*
%LPD*%
%LPC*%
G36*
X191656Y148861D02*
X191656Y148861D01*
X191656Y148863D01*
X191658Y148863D01*
X191658Y148861D01*
X191656Y148861D01*
G37*
%LPD*%
%LPC*%
G36*
X361227Y148142D02*
X361227Y148142D01*
X361227Y148144D01*
X361229Y148144D01*
X361229Y148142D01*
X361227Y148142D01*
G37*
%LPD*%
%LPC*%
G36*
X717549Y148019D02*
X717549Y148019D01*
X717549Y148021D01*
X717551Y148021D01*
X717551Y148019D01*
X717549Y148019D01*
G37*
%LPD*%
%LPC*%
G36*
X538249Y146819D02*
X538249Y146819D01*
X538249Y146821D01*
X538251Y146821D01*
X538251Y146819D01*
X538249Y146819D01*
G37*
%LPD*%
D10*
X840200Y154000D03*
X840200Y135000D03*
X840200Y97000D03*
X840200Y78000D03*
D11*
X447800Y227000D03*
X428800Y227000D03*
X469100Y228700D03*
X488100Y228700D03*
D12*
X918800Y95900D02*
X918800Y45100D01*
D13*
X196200Y774400D03*
D14*
X170800Y774400D03*
X145400Y774400D03*
X120000Y774400D03*
X94600Y774400D03*
D15*
X272328Y148143D03*
X285028Y148143D03*
X297728Y148143D03*
X310428Y148143D03*
X323128Y148143D03*
X335828Y148143D03*
X348528Y148143D03*
X361228Y148143D03*
X361228Y93903D03*
X348528Y93903D03*
X335828Y93903D03*
X323128Y93903D03*
X310428Y93903D03*
X297728Y93903D03*
X285028Y93903D03*
X272328Y93903D03*
X449350Y146820D03*
X462050Y146820D03*
X474750Y146820D03*
X487450Y146820D03*
X500150Y146820D03*
X512850Y146820D03*
X525550Y146820D03*
X538250Y146820D03*
X538250Y92580D03*
X525550Y92580D03*
X512850Y92580D03*
X500150Y92580D03*
X487450Y92580D03*
X474750Y92580D03*
X462050Y92580D03*
X449350Y92580D03*
X628650Y148020D03*
X641350Y148020D03*
X654050Y148020D03*
X666750Y148020D03*
X679450Y148020D03*
X692150Y148020D03*
X704850Y148020D03*
X717550Y148020D03*
X717550Y93780D03*
X704850Y93780D03*
X692150Y93780D03*
X679450Y93780D03*
X666750Y93780D03*
X654050Y93780D03*
X641350Y93780D03*
X628650Y93780D03*
D16*
X856288Y235114D03*
X856288Y212000D03*
X856288Y188886D03*
D17*
X794310Y212000D03*
D15*
X102757Y148862D03*
X115457Y148862D03*
X128157Y148862D03*
X140857Y148862D03*
X153557Y148862D03*
X166257Y148862D03*
X178957Y148862D03*
X191657Y148862D03*
X191657Y94622D03*
X178957Y94622D03*
X166257Y94622D03*
X153557Y94622D03*
X140857Y94622D03*
X128157Y94622D03*
X115457Y94622D03*
X102757Y94622D03*
D18*
X839200Y453700D03*
X839200Y428700D03*
X859200Y428700D03*
X859200Y453700D03*
D19*
X886300Y381000D03*
X886300Y501400D03*
D13*
X33700Y494000D03*
D14*
X33700Y468600D03*
X33700Y443200D03*
X33700Y417800D03*
X33700Y392400D03*
D13*
X33700Y354500D03*
D14*
X33700Y329100D03*
X33700Y303700D03*
X33700Y278300D03*
X33700Y252900D03*
D13*
X125000Y36300D03*
D14*
X99600Y36300D03*
X74200Y36300D03*
X48800Y36300D03*
X23400Y36300D03*
D13*
X265500Y36300D03*
D14*
X240100Y36300D03*
X214700Y36300D03*
X189300Y36300D03*
X163900Y36300D03*
D13*
X404000Y38200D03*
D14*
X378600Y38200D03*
X353200Y38200D03*
X327800Y38200D03*
X302400Y38200D03*
D13*
X544500Y38200D03*
D14*
X519100Y38200D03*
X493700Y38200D03*
X468300Y38200D03*
X442900Y38200D03*
D13*
X685000Y38200D03*
D14*
X659600Y38200D03*
X634200Y38200D03*
X608800Y38200D03*
X583400Y38200D03*
D13*
X825500Y38200D03*
D14*
X800100Y38200D03*
X774700Y38200D03*
X749300Y38200D03*
X723900Y38200D03*
D13*
X35600Y585200D03*
D14*
X35600Y559800D03*
X35600Y534400D03*
D13*
X338000Y774400D03*
D14*
X312600Y774400D03*
X287200Y774400D03*
X261800Y774400D03*
X236400Y774400D03*
D13*
X34400Y626800D03*
D14*
X34400Y652200D03*
X34400Y677600D03*
D20*
X434200Y283588D02*
X434200Y272412D01*
X485000Y272412D02*
X485000Y283588D01*
D10*
X801300Y134000D03*
X801300Y153000D03*
X803700Y81200D03*
X803700Y100200D03*
D12*
X921200Y164800D02*
X921200Y215600D01*
M02*
