G04 EAGLE Gerber RS-274X export*
G75*
%MOMM*%
%FSLAX34Y34*%
%LPD*%
%INSilkscreen Bottom*%
%IPPOS*%
%AMOC8*
5,1,8,0,0,1.08239X$1,22.5*%
G01*
%ADD10C,0.101600*%
%ADD11C,0.200000*%
%ADD12C,0.203200*%
%ADD13C,0.152400*%
%ADD14C,0.050800*%
%ADD15C,0.127000*%


D10*
X850308Y145836D02*
X850308Y143239D01*
X850310Y143140D01*
X850316Y143040D01*
X850325Y142941D01*
X850338Y142843D01*
X850355Y142745D01*
X850376Y142647D01*
X850401Y142551D01*
X850429Y142456D01*
X850461Y142362D01*
X850496Y142269D01*
X850535Y142177D01*
X850578Y142087D01*
X850623Y141999D01*
X850673Y141912D01*
X850725Y141828D01*
X850781Y141745D01*
X850839Y141665D01*
X850901Y141587D01*
X850966Y141512D01*
X851034Y141439D01*
X851104Y141369D01*
X851177Y141301D01*
X851252Y141236D01*
X851330Y141174D01*
X851410Y141116D01*
X851493Y141060D01*
X851577Y141008D01*
X851664Y140958D01*
X851752Y140913D01*
X851842Y140870D01*
X851934Y140831D01*
X852027Y140796D01*
X852121Y140764D01*
X852216Y140736D01*
X852312Y140711D01*
X852410Y140690D01*
X852508Y140673D01*
X852606Y140660D01*
X852705Y140651D01*
X852805Y140645D01*
X852904Y140643D01*
X859396Y140643D01*
X859495Y140645D01*
X859595Y140651D01*
X859694Y140660D01*
X859792Y140673D01*
X859890Y140690D01*
X859988Y140711D01*
X860084Y140736D01*
X860179Y140764D01*
X860273Y140796D01*
X860366Y140831D01*
X860458Y140870D01*
X860548Y140913D01*
X860636Y140958D01*
X860723Y141008D01*
X860807Y141060D01*
X860890Y141116D01*
X860970Y141174D01*
X861048Y141236D01*
X861123Y141301D01*
X861196Y141369D01*
X861266Y141439D01*
X861334Y141512D01*
X861399Y141587D01*
X861461Y141665D01*
X861519Y141745D01*
X861575Y141828D01*
X861627Y141912D01*
X861677Y141999D01*
X861722Y142087D01*
X861765Y142177D01*
X861804Y142269D01*
X861839Y142361D01*
X861871Y142456D01*
X861899Y142551D01*
X861924Y142647D01*
X861945Y142745D01*
X861962Y142843D01*
X861975Y142941D01*
X861984Y143040D01*
X861990Y143140D01*
X861992Y143239D01*
X861992Y145836D01*
X861992Y152797D02*
X852904Y150201D01*
X852904Y156692D01*
X855501Y154745D02*
X850308Y154745D01*
X848008Y80501D02*
X848008Y77904D01*
X848010Y77805D01*
X848016Y77705D01*
X848025Y77606D01*
X848038Y77508D01*
X848055Y77410D01*
X848076Y77312D01*
X848101Y77216D01*
X848129Y77121D01*
X848161Y77027D01*
X848196Y76934D01*
X848235Y76842D01*
X848278Y76752D01*
X848323Y76664D01*
X848373Y76577D01*
X848425Y76493D01*
X848481Y76410D01*
X848539Y76330D01*
X848601Y76252D01*
X848666Y76177D01*
X848734Y76104D01*
X848804Y76034D01*
X848877Y75966D01*
X848952Y75901D01*
X849030Y75839D01*
X849110Y75781D01*
X849193Y75725D01*
X849277Y75673D01*
X849364Y75623D01*
X849452Y75578D01*
X849542Y75535D01*
X849634Y75496D01*
X849727Y75461D01*
X849821Y75429D01*
X849916Y75401D01*
X850012Y75376D01*
X850110Y75355D01*
X850208Y75338D01*
X850306Y75325D01*
X850405Y75316D01*
X850505Y75310D01*
X850604Y75308D01*
X857096Y75308D01*
X857195Y75310D01*
X857295Y75316D01*
X857394Y75325D01*
X857492Y75338D01*
X857590Y75355D01*
X857688Y75376D01*
X857784Y75401D01*
X857879Y75429D01*
X857973Y75461D01*
X858066Y75496D01*
X858158Y75535D01*
X858248Y75578D01*
X858336Y75623D01*
X858423Y75673D01*
X858507Y75725D01*
X858590Y75781D01*
X858670Y75839D01*
X858748Y75901D01*
X858823Y75966D01*
X858896Y76034D01*
X858966Y76104D01*
X859034Y76177D01*
X859099Y76252D01*
X859161Y76330D01*
X859219Y76410D01*
X859275Y76493D01*
X859327Y76577D01*
X859377Y76664D01*
X859422Y76752D01*
X859465Y76842D01*
X859504Y76934D01*
X859539Y77026D01*
X859571Y77121D01*
X859599Y77216D01*
X859624Y77312D01*
X859645Y77410D01*
X859662Y77508D01*
X859675Y77606D01*
X859684Y77705D01*
X859690Y77805D01*
X859692Y77904D01*
X859692Y80501D01*
X848008Y84866D02*
X848008Y88761D01*
X848010Y88860D01*
X848016Y88960D01*
X848025Y89059D01*
X848038Y89157D01*
X848055Y89255D01*
X848076Y89353D01*
X848101Y89449D01*
X848129Y89544D01*
X848161Y89638D01*
X848196Y89731D01*
X848235Y89823D01*
X848278Y89913D01*
X848323Y90001D01*
X848373Y90088D01*
X848425Y90172D01*
X848481Y90255D01*
X848539Y90335D01*
X848601Y90413D01*
X848666Y90488D01*
X848734Y90561D01*
X848804Y90631D01*
X848877Y90699D01*
X848952Y90764D01*
X849030Y90826D01*
X849110Y90884D01*
X849193Y90940D01*
X849277Y90992D01*
X849364Y91042D01*
X849452Y91087D01*
X849542Y91130D01*
X849634Y91169D01*
X849727Y91204D01*
X849821Y91236D01*
X849916Y91264D01*
X850012Y91289D01*
X850110Y91310D01*
X850208Y91327D01*
X850306Y91340D01*
X850405Y91349D01*
X850505Y91355D01*
X850604Y91357D01*
X851903Y91357D01*
X852002Y91355D01*
X852102Y91349D01*
X852201Y91340D01*
X852299Y91327D01*
X852397Y91310D01*
X852495Y91289D01*
X852591Y91264D01*
X852686Y91236D01*
X852780Y91204D01*
X852873Y91169D01*
X852965Y91130D01*
X853055Y91087D01*
X853143Y91042D01*
X853230Y90992D01*
X853314Y90940D01*
X853397Y90884D01*
X853477Y90826D01*
X853555Y90764D01*
X853630Y90699D01*
X853703Y90631D01*
X853773Y90561D01*
X853841Y90488D01*
X853906Y90413D01*
X853968Y90335D01*
X854026Y90255D01*
X854082Y90172D01*
X854134Y90088D01*
X854184Y90001D01*
X854229Y89913D01*
X854272Y89823D01*
X854311Y89731D01*
X854346Y89638D01*
X854378Y89544D01*
X854406Y89449D01*
X854431Y89353D01*
X854452Y89255D01*
X854469Y89157D01*
X854482Y89059D01*
X854491Y88960D01*
X854497Y88860D01*
X854499Y88761D01*
X854499Y84866D01*
X859692Y84866D01*
X859692Y91357D01*
X447896Y240208D02*
X445299Y240208D01*
X447896Y240208D02*
X447995Y240210D01*
X448095Y240216D01*
X448194Y240225D01*
X448292Y240238D01*
X448390Y240255D01*
X448488Y240276D01*
X448584Y240301D01*
X448679Y240329D01*
X448773Y240361D01*
X448866Y240396D01*
X448958Y240435D01*
X449048Y240478D01*
X449136Y240523D01*
X449223Y240573D01*
X449307Y240625D01*
X449390Y240681D01*
X449470Y240739D01*
X449548Y240801D01*
X449623Y240866D01*
X449696Y240934D01*
X449766Y241004D01*
X449834Y241077D01*
X449899Y241152D01*
X449961Y241230D01*
X450019Y241310D01*
X450075Y241393D01*
X450127Y241477D01*
X450177Y241564D01*
X450222Y241652D01*
X450265Y241742D01*
X450304Y241834D01*
X450339Y241927D01*
X450371Y242021D01*
X450399Y242116D01*
X450424Y242212D01*
X450445Y242310D01*
X450462Y242408D01*
X450475Y242506D01*
X450484Y242605D01*
X450490Y242705D01*
X450492Y242804D01*
X450492Y249296D01*
X450490Y249395D01*
X450484Y249495D01*
X450475Y249594D01*
X450462Y249692D01*
X450445Y249790D01*
X450424Y249888D01*
X450399Y249984D01*
X450371Y250079D01*
X450339Y250173D01*
X450304Y250266D01*
X450265Y250358D01*
X450222Y250448D01*
X450177Y250536D01*
X450127Y250623D01*
X450075Y250707D01*
X450019Y250790D01*
X449961Y250870D01*
X449899Y250948D01*
X449834Y251023D01*
X449766Y251096D01*
X449696Y251166D01*
X449623Y251234D01*
X449548Y251299D01*
X449470Y251361D01*
X449390Y251419D01*
X449307Y251475D01*
X449223Y251527D01*
X449136Y251577D01*
X449048Y251622D01*
X448958Y251665D01*
X448866Y251704D01*
X448773Y251739D01*
X448679Y251771D01*
X448584Y251799D01*
X448488Y251824D01*
X448390Y251845D01*
X448292Y251862D01*
X448194Y251875D01*
X448095Y251884D01*
X447995Y251890D01*
X447896Y251892D01*
X445299Y251892D01*
X440934Y246699D02*
X437039Y246699D01*
X436940Y246697D01*
X436840Y246691D01*
X436741Y246682D01*
X436643Y246669D01*
X436545Y246652D01*
X436447Y246631D01*
X436351Y246606D01*
X436256Y246578D01*
X436162Y246546D01*
X436069Y246511D01*
X435977Y246472D01*
X435887Y246429D01*
X435799Y246384D01*
X435712Y246334D01*
X435628Y246282D01*
X435545Y246226D01*
X435465Y246168D01*
X435387Y246106D01*
X435312Y246041D01*
X435239Y245973D01*
X435169Y245903D01*
X435101Y245830D01*
X435036Y245755D01*
X434974Y245677D01*
X434916Y245597D01*
X434860Y245514D01*
X434808Y245430D01*
X434758Y245343D01*
X434713Y245255D01*
X434670Y245165D01*
X434631Y245073D01*
X434596Y244980D01*
X434564Y244886D01*
X434536Y244791D01*
X434511Y244695D01*
X434490Y244597D01*
X434473Y244499D01*
X434460Y244401D01*
X434451Y244302D01*
X434445Y244202D01*
X434443Y244103D01*
X434443Y243454D01*
X434442Y243454D02*
X434444Y243341D01*
X434450Y243228D01*
X434460Y243115D01*
X434474Y243002D01*
X434491Y242890D01*
X434513Y242779D01*
X434538Y242669D01*
X434568Y242559D01*
X434601Y242451D01*
X434638Y242344D01*
X434678Y242238D01*
X434723Y242134D01*
X434771Y242031D01*
X434822Y241930D01*
X434877Y241831D01*
X434935Y241734D01*
X434997Y241639D01*
X435062Y241546D01*
X435130Y241456D01*
X435201Y241368D01*
X435276Y241282D01*
X435353Y241199D01*
X435433Y241119D01*
X435516Y241042D01*
X435602Y240967D01*
X435690Y240896D01*
X435780Y240828D01*
X435873Y240763D01*
X435968Y240701D01*
X436065Y240643D01*
X436164Y240588D01*
X436265Y240537D01*
X436368Y240489D01*
X436472Y240444D01*
X436578Y240404D01*
X436685Y240367D01*
X436793Y240334D01*
X436903Y240304D01*
X437013Y240279D01*
X437124Y240257D01*
X437236Y240240D01*
X437349Y240226D01*
X437462Y240216D01*
X437575Y240210D01*
X437688Y240208D01*
X437801Y240210D01*
X437914Y240216D01*
X438027Y240226D01*
X438140Y240240D01*
X438252Y240257D01*
X438363Y240279D01*
X438473Y240304D01*
X438583Y240334D01*
X438691Y240367D01*
X438798Y240404D01*
X438904Y240444D01*
X439008Y240489D01*
X439111Y240537D01*
X439212Y240588D01*
X439311Y240643D01*
X439408Y240701D01*
X439503Y240763D01*
X439596Y240828D01*
X439686Y240896D01*
X439774Y240967D01*
X439860Y241042D01*
X439943Y241119D01*
X440023Y241199D01*
X440100Y241282D01*
X440175Y241368D01*
X440246Y241456D01*
X440314Y241546D01*
X440379Y241639D01*
X440441Y241734D01*
X440499Y241831D01*
X440554Y241930D01*
X440605Y242031D01*
X440653Y242134D01*
X440698Y242238D01*
X440738Y242344D01*
X440775Y242451D01*
X440808Y242559D01*
X440838Y242669D01*
X440863Y242779D01*
X440885Y242890D01*
X440902Y243002D01*
X440916Y243115D01*
X440926Y243228D01*
X440932Y243341D01*
X440934Y243454D01*
X440934Y246699D01*
X440932Y246842D01*
X440926Y246985D01*
X440916Y247128D01*
X440902Y247270D01*
X440885Y247412D01*
X440863Y247554D01*
X440838Y247695D01*
X440808Y247835D01*
X440775Y247974D01*
X440738Y248112D01*
X440697Y248249D01*
X440653Y248385D01*
X440604Y248520D01*
X440552Y248653D01*
X440497Y248785D01*
X440437Y248915D01*
X440374Y249044D01*
X440308Y249171D01*
X440238Y249296D01*
X440165Y249418D01*
X440088Y249539D01*
X440008Y249658D01*
X439925Y249774D01*
X439839Y249889D01*
X439750Y250000D01*
X439657Y250110D01*
X439562Y250216D01*
X439463Y250320D01*
X439362Y250421D01*
X439258Y250520D01*
X439152Y250615D01*
X439042Y250708D01*
X438931Y250797D01*
X438816Y250883D01*
X438700Y250966D01*
X438581Y251046D01*
X438460Y251123D01*
X438338Y251196D01*
X438213Y251266D01*
X438086Y251332D01*
X437957Y251395D01*
X437827Y251455D01*
X437695Y251510D01*
X437562Y251562D01*
X437427Y251611D01*
X437291Y251655D01*
X437154Y251696D01*
X437016Y251733D01*
X436877Y251766D01*
X436737Y251796D01*
X436596Y251821D01*
X436454Y251843D01*
X436312Y251860D01*
X436170Y251874D01*
X436027Y251884D01*
X435884Y251890D01*
X435741Y251892D01*
X477264Y203808D02*
X479861Y203808D01*
X479960Y203810D01*
X480060Y203816D01*
X480159Y203825D01*
X480257Y203838D01*
X480355Y203855D01*
X480453Y203876D01*
X480549Y203901D01*
X480644Y203929D01*
X480738Y203961D01*
X480831Y203996D01*
X480923Y204035D01*
X481013Y204078D01*
X481101Y204123D01*
X481188Y204173D01*
X481272Y204225D01*
X481355Y204281D01*
X481435Y204339D01*
X481513Y204401D01*
X481588Y204466D01*
X481661Y204534D01*
X481731Y204604D01*
X481799Y204677D01*
X481864Y204752D01*
X481926Y204830D01*
X481984Y204910D01*
X482040Y204993D01*
X482092Y205077D01*
X482142Y205164D01*
X482187Y205252D01*
X482230Y205342D01*
X482269Y205434D01*
X482304Y205527D01*
X482336Y205621D01*
X482364Y205716D01*
X482389Y205812D01*
X482410Y205910D01*
X482427Y206008D01*
X482440Y206106D01*
X482449Y206205D01*
X482455Y206305D01*
X482457Y206404D01*
X482457Y212896D01*
X482455Y212995D01*
X482449Y213095D01*
X482440Y213194D01*
X482427Y213292D01*
X482410Y213390D01*
X482389Y213488D01*
X482364Y213584D01*
X482336Y213679D01*
X482304Y213773D01*
X482269Y213866D01*
X482230Y213958D01*
X482187Y214048D01*
X482142Y214136D01*
X482092Y214223D01*
X482040Y214307D01*
X481984Y214390D01*
X481926Y214470D01*
X481864Y214548D01*
X481799Y214623D01*
X481731Y214696D01*
X481661Y214766D01*
X481588Y214834D01*
X481513Y214899D01*
X481435Y214961D01*
X481355Y215019D01*
X481272Y215075D01*
X481188Y215127D01*
X481101Y215177D01*
X481013Y215222D01*
X480923Y215265D01*
X480831Y215304D01*
X480738Y215339D01*
X480644Y215371D01*
X480549Y215399D01*
X480453Y215424D01*
X480355Y215445D01*
X480257Y215462D01*
X480159Y215475D01*
X480060Y215484D01*
X479960Y215490D01*
X479861Y215492D01*
X477264Y215492D01*
X472900Y207054D02*
X472898Y207167D01*
X472892Y207280D01*
X472882Y207393D01*
X472868Y207506D01*
X472851Y207618D01*
X472829Y207729D01*
X472804Y207839D01*
X472774Y207949D01*
X472741Y208057D01*
X472704Y208164D01*
X472664Y208270D01*
X472619Y208374D01*
X472571Y208477D01*
X472520Y208578D01*
X472465Y208677D01*
X472407Y208774D01*
X472345Y208869D01*
X472280Y208962D01*
X472212Y209052D01*
X472141Y209140D01*
X472066Y209226D01*
X471989Y209309D01*
X471909Y209389D01*
X471826Y209466D01*
X471740Y209541D01*
X471652Y209612D01*
X471562Y209680D01*
X471469Y209745D01*
X471374Y209807D01*
X471277Y209865D01*
X471178Y209920D01*
X471077Y209971D01*
X470974Y210019D01*
X470870Y210064D01*
X470764Y210104D01*
X470657Y210141D01*
X470549Y210174D01*
X470439Y210204D01*
X470329Y210229D01*
X470218Y210251D01*
X470106Y210268D01*
X469993Y210282D01*
X469880Y210292D01*
X469767Y210298D01*
X469654Y210300D01*
X469541Y210298D01*
X469428Y210292D01*
X469315Y210282D01*
X469202Y210268D01*
X469090Y210251D01*
X468979Y210229D01*
X468869Y210204D01*
X468759Y210174D01*
X468651Y210141D01*
X468544Y210104D01*
X468438Y210064D01*
X468334Y210019D01*
X468231Y209971D01*
X468130Y209920D01*
X468031Y209865D01*
X467934Y209807D01*
X467839Y209745D01*
X467746Y209680D01*
X467656Y209612D01*
X467568Y209541D01*
X467482Y209466D01*
X467399Y209389D01*
X467319Y209309D01*
X467242Y209226D01*
X467167Y209140D01*
X467096Y209052D01*
X467028Y208962D01*
X466963Y208869D01*
X466901Y208774D01*
X466843Y208677D01*
X466788Y208578D01*
X466737Y208477D01*
X466689Y208374D01*
X466644Y208270D01*
X466604Y208164D01*
X466567Y208057D01*
X466534Y207949D01*
X466504Y207839D01*
X466479Y207729D01*
X466457Y207618D01*
X466440Y207506D01*
X466426Y207393D01*
X466416Y207280D01*
X466410Y207167D01*
X466408Y207054D01*
X466410Y206941D01*
X466416Y206828D01*
X466426Y206715D01*
X466440Y206602D01*
X466457Y206490D01*
X466479Y206379D01*
X466504Y206269D01*
X466534Y206159D01*
X466567Y206051D01*
X466604Y205944D01*
X466644Y205838D01*
X466689Y205734D01*
X466737Y205631D01*
X466788Y205530D01*
X466843Y205431D01*
X466901Y205334D01*
X466963Y205239D01*
X467028Y205146D01*
X467096Y205056D01*
X467167Y204968D01*
X467242Y204882D01*
X467319Y204799D01*
X467399Y204719D01*
X467482Y204642D01*
X467568Y204567D01*
X467656Y204496D01*
X467746Y204428D01*
X467839Y204363D01*
X467934Y204301D01*
X468031Y204243D01*
X468130Y204188D01*
X468231Y204137D01*
X468334Y204089D01*
X468438Y204044D01*
X468544Y204004D01*
X468651Y203967D01*
X468759Y203934D01*
X468869Y203904D01*
X468979Y203879D01*
X469090Y203857D01*
X469202Y203840D01*
X469315Y203826D01*
X469428Y203816D01*
X469541Y203810D01*
X469654Y203808D01*
X469767Y203810D01*
X469880Y203816D01*
X469993Y203826D01*
X470106Y203840D01*
X470218Y203857D01*
X470329Y203879D01*
X470439Y203904D01*
X470549Y203934D01*
X470657Y203967D01*
X470764Y204004D01*
X470870Y204044D01*
X470974Y204089D01*
X471077Y204137D01*
X471178Y204188D01*
X471277Y204243D01*
X471374Y204301D01*
X471469Y204363D01*
X471562Y204428D01*
X471652Y204496D01*
X471740Y204567D01*
X471826Y204642D01*
X471909Y204719D01*
X471989Y204799D01*
X472066Y204882D01*
X472141Y204968D01*
X472212Y205056D01*
X472280Y205146D01*
X472345Y205239D01*
X472407Y205334D01*
X472465Y205431D01*
X472520Y205530D01*
X472571Y205631D01*
X472619Y205734D01*
X472664Y205838D01*
X472704Y205944D01*
X472741Y206051D01*
X472774Y206159D01*
X472804Y206269D01*
X472829Y206379D01*
X472851Y206490D01*
X472868Y206602D01*
X472882Y206715D01*
X472892Y206828D01*
X472898Y206941D01*
X472900Y207054D01*
X472250Y212896D02*
X472248Y212997D01*
X472242Y213097D01*
X472232Y213197D01*
X472219Y213297D01*
X472201Y213396D01*
X472180Y213495D01*
X472155Y213592D01*
X472126Y213689D01*
X472093Y213784D01*
X472057Y213878D01*
X472017Y213970D01*
X471974Y214061D01*
X471927Y214150D01*
X471877Y214237D01*
X471823Y214323D01*
X471766Y214406D01*
X471706Y214486D01*
X471643Y214565D01*
X471576Y214641D01*
X471507Y214714D01*
X471435Y214784D01*
X471361Y214852D01*
X471284Y214917D01*
X471204Y214978D01*
X471122Y215037D01*
X471038Y215092D01*
X470952Y215144D01*
X470864Y215193D01*
X470774Y215238D01*
X470682Y215280D01*
X470589Y215318D01*
X470494Y215352D01*
X470399Y215383D01*
X470302Y215410D01*
X470204Y215433D01*
X470105Y215453D01*
X470005Y215468D01*
X469905Y215480D01*
X469805Y215488D01*
X469704Y215492D01*
X469604Y215492D01*
X469503Y215488D01*
X469403Y215480D01*
X469303Y215468D01*
X469203Y215453D01*
X469104Y215433D01*
X469006Y215410D01*
X468909Y215383D01*
X468814Y215352D01*
X468719Y215318D01*
X468626Y215280D01*
X468534Y215238D01*
X468444Y215193D01*
X468356Y215144D01*
X468270Y215092D01*
X468186Y215037D01*
X468104Y214978D01*
X468024Y214917D01*
X467947Y214852D01*
X467873Y214784D01*
X467801Y214714D01*
X467732Y214641D01*
X467665Y214565D01*
X467602Y214486D01*
X467542Y214406D01*
X467485Y214323D01*
X467431Y214237D01*
X467381Y214150D01*
X467334Y214061D01*
X467291Y213970D01*
X467251Y213878D01*
X467215Y213784D01*
X467182Y213689D01*
X467153Y213592D01*
X467128Y213495D01*
X467107Y213396D01*
X467089Y213297D01*
X467076Y213197D01*
X467066Y213097D01*
X467060Y212997D01*
X467058Y212896D01*
X467060Y212795D01*
X467066Y212695D01*
X467076Y212595D01*
X467089Y212495D01*
X467107Y212396D01*
X467128Y212297D01*
X467153Y212200D01*
X467182Y212103D01*
X467215Y212008D01*
X467251Y211914D01*
X467291Y211822D01*
X467334Y211731D01*
X467381Y211642D01*
X467431Y211555D01*
X467485Y211469D01*
X467542Y211386D01*
X467602Y211306D01*
X467665Y211227D01*
X467732Y211151D01*
X467801Y211078D01*
X467873Y211008D01*
X467947Y210940D01*
X468024Y210875D01*
X468104Y210814D01*
X468186Y210755D01*
X468270Y210700D01*
X468356Y210648D01*
X468444Y210599D01*
X468534Y210554D01*
X468626Y210512D01*
X468719Y210474D01*
X468814Y210440D01*
X468909Y210409D01*
X469006Y210382D01*
X469104Y210359D01*
X469203Y210339D01*
X469303Y210324D01*
X469403Y210312D01*
X469503Y210304D01*
X469604Y210300D01*
X469704Y210300D01*
X469805Y210304D01*
X469905Y210312D01*
X470005Y210324D01*
X470105Y210339D01*
X470204Y210359D01*
X470302Y210382D01*
X470399Y210409D01*
X470494Y210440D01*
X470589Y210474D01*
X470682Y210512D01*
X470774Y210554D01*
X470864Y210599D01*
X470952Y210648D01*
X471038Y210700D01*
X471122Y210755D01*
X471204Y210814D01*
X471284Y210875D01*
X471361Y210940D01*
X471435Y211008D01*
X471507Y211078D01*
X471576Y211151D01*
X471643Y211227D01*
X471706Y211306D01*
X471766Y211386D01*
X471823Y211469D01*
X471877Y211555D01*
X471927Y211642D01*
X471974Y211731D01*
X472017Y211822D01*
X472057Y211914D01*
X472093Y212008D01*
X472126Y212103D01*
X472155Y212200D01*
X472180Y212297D01*
X472201Y212396D01*
X472219Y212495D01*
X472232Y212595D01*
X472242Y212695D01*
X472248Y212795D01*
X472250Y212896D01*
D11*
X267278Y137023D02*
X267278Y105023D01*
X366278Y105023D01*
X366278Y137023D01*
X267278Y137023D01*
X265578Y140523D02*
X265578Y155773D01*
D10*
X300936Y105000D02*
X312620Y105000D01*
X300936Y103702D02*
X300936Y106298D01*
X312620Y106298D02*
X312620Y103702D01*
X300936Y113462D02*
X300936Y116058D01*
X300936Y113462D02*
X300938Y113363D01*
X300944Y113263D01*
X300953Y113164D01*
X300966Y113066D01*
X300983Y112968D01*
X301004Y112870D01*
X301029Y112774D01*
X301057Y112679D01*
X301089Y112585D01*
X301124Y112492D01*
X301163Y112400D01*
X301206Y112310D01*
X301251Y112222D01*
X301301Y112135D01*
X301353Y112051D01*
X301409Y111968D01*
X301467Y111888D01*
X301529Y111810D01*
X301594Y111735D01*
X301662Y111662D01*
X301732Y111592D01*
X301805Y111524D01*
X301880Y111459D01*
X301958Y111397D01*
X302038Y111339D01*
X302121Y111283D01*
X302205Y111231D01*
X302292Y111181D01*
X302380Y111136D01*
X302470Y111093D01*
X302562Y111054D01*
X302655Y111019D01*
X302749Y110987D01*
X302844Y110959D01*
X302940Y110934D01*
X303038Y110913D01*
X303136Y110896D01*
X303234Y110883D01*
X303333Y110874D01*
X303433Y110868D01*
X303532Y110866D01*
X303532Y110865D02*
X310024Y110865D01*
X310024Y110866D02*
X310123Y110868D01*
X310223Y110874D01*
X310322Y110883D01*
X310420Y110896D01*
X310518Y110913D01*
X310616Y110934D01*
X310712Y110959D01*
X310807Y110987D01*
X310901Y111019D01*
X310994Y111054D01*
X311086Y111093D01*
X311176Y111136D01*
X311264Y111181D01*
X311351Y111231D01*
X311435Y111283D01*
X311518Y111339D01*
X311598Y111397D01*
X311676Y111459D01*
X311751Y111524D01*
X311824Y111592D01*
X311894Y111662D01*
X311962Y111735D01*
X312027Y111810D01*
X312089Y111888D01*
X312147Y111968D01*
X312203Y112051D01*
X312255Y112135D01*
X312305Y112222D01*
X312350Y112310D01*
X312393Y112400D01*
X312432Y112492D01*
X312467Y112584D01*
X312499Y112679D01*
X312527Y112774D01*
X312552Y112870D01*
X312573Y112968D01*
X312590Y113066D01*
X312603Y113164D01*
X312612Y113263D01*
X312618Y113363D01*
X312620Y113462D01*
X312620Y116058D01*
X310024Y120423D02*
X312620Y123669D01*
X300936Y123669D01*
X300936Y120423D02*
X300936Y126915D01*
X306778Y131854D02*
X307008Y131857D01*
X307238Y131865D01*
X307467Y131879D01*
X307696Y131898D01*
X307925Y131923D01*
X308152Y131953D01*
X308380Y131988D01*
X308606Y132029D01*
X308831Y132075D01*
X309055Y132127D01*
X309277Y132184D01*
X309499Y132246D01*
X309718Y132314D01*
X309936Y132387D01*
X310153Y132465D01*
X310367Y132548D01*
X310579Y132636D01*
X310789Y132729D01*
X310997Y132828D01*
X310997Y132827D02*
X311087Y132860D01*
X311176Y132896D01*
X311264Y132936D01*
X311349Y132980D01*
X311433Y133027D01*
X311515Y133077D01*
X311595Y133131D01*
X311672Y133187D01*
X311748Y133247D01*
X311821Y133310D01*
X311891Y133375D01*
X311959Y133444D01*
X312023Y133515D01*
X312085Y133588D01*
X312144Y133664D01*
X312200Y133742D01*
X312253Y133823D01*
X312302Y133905D01*
X312348Y133989D01*
X312391Y134076D01*
X312430Y134163D01*
X312466Y134253D01*
X312498Y134343D01*
X312526Y134435D01*
X312551Y134528D01*
X312572Y134622D01*
X312589Y134716D01*
X312603Y134811D01*
X312612Y134907D01*
X312618Y135003D01*
X312620Y135099D01*
X312618Y135195D01*
X312612Y135291D01*
X312603Y135387D01*
X312589Y135482D01*
X312572Y135576D01*
X312551Y135670D01*
X312526Y135763D01*
X312498Y135855D01*
X312466Y135945D01*
X312430Y136035D01*
X312391Y136122D01*
X312348Y136209D01*
X312302Y136293D01*
X312253Y136375D01*
X312200Y136456D01*
X312144Y136534D01*
X312085Y136610D01*
X312023Y136683D01*
X311959Y136754D01*
X311891Y136823D01*
X311821Y136888D01*
X311748Y136951D01*
X311672Y137011D01*
X311595Y137067D01*
X311515Y137121D01*
X311433Y137171D01*
X311349Y137218D01*
X311264Y137262D01*
X311176Y137302D01*
X311087Y137338D01*
X310997Y137371D01*
X310790Y137470D01*
X310580Y137563D01*
X310367Y137651D01*
X310153Y137734D01*
X309937Y137812D01*
X309719Y137885D01*
X309499Y137953D01*
X309278Y138015D01*
X309055Y138072D01*
X308831Y138124D01*
X308606Y138170D01*
X308380Y138211D01*
X308153Y138246D01*
X307925Y138276D01*
X307696Y138301D01*
X307467Y138320D01*
X307238Y138334D01*
X307008Y138342D01*
X306778Y138345D01*
X306778Y131853D02*
X306548Y131856D01*
X306318Y131864D01*
X306089Y131878D01*
X305860Y131897D01*
X305631Y131922D01*
X305403Y131952D01*
X305176Y131987D01*
X304950Y132028D01*
X304725Y132074D01*
X304501Y132126D01*
X304278Y132183D01*
X304057Y132245D01*
X303837Y132313D01*
X303619Y132386D01*
X303403Y132464D01*
X303189Y132547D01*
X302977Y132635D01*
X302766Y132728D01*
X302559Y132827D01*
X302469Y132860D01*
X302380Y132896D01*
X302292Y132937D01*
X302207Y132980D01*
X302123Y133027D01*
X302041Y133077D01*
X301961Y133131D01*
X301884Y133187D01*
X301808Y133247D01*
X301735Y133310D01*
X301665Y133375D01*
X301597Y133444D01*
X301533Y133515D01*
X301471Y133588D01*
X301412Y133664D01*
X301356Y133742D01*
X301303Y133823D01*
X301254Y133905D01*
X301208Y133989D01*
X301165Y134076D01*
X301126Y134163D01*
X301090Y134253D01*
X301058Y134343D01*
X301030Y134435D01*
X301005Y134528D01*
X300984Y134622D01*
X300967Y134716D01*
X300953Y134811D01*
X300944Y134907D01*
X300938Y135003D01*
X300936Y135099D01*
X302559Y137371D02*
X302766Y137470D01*
X302977Y137563D01*
X303189Y137651D01*
X303403Y137734D01*
X303619Y137812D01*
X303837Y137885D01*
X304057Y137953D01*
X304278Y138015D01*
X304501Y138072D01*
X304725Y138124D01*
X304950Y138170D01*
X305176Y138211D01*
X305403Y138246D01*
X305631Y138276D01*
X305860Y138301D01*
X306089Y138320D01*
X306318Y138334D01*
X306548Y138342D01*
X306778Y138345D01*
X302559Y137371D02*
X302469Y137338D01*
X302380Y137302D01*
X302292Y137262D01*
X302207Y137218D01*
X302123Y137171D01*
X302041Y137121D01*
X301961Y137067D01*
X301884Y137011D01*
X301808Y136951D01*
X301735Y136888D01*
X301665Y136823D01*
X301597Y136754D01*
X301533Y136683D01*
X301471Y136610D01*
X301412Y136534D01*
X301356Y136456D01*
X301303Y136375D01*
X301254Y136293D01*
X301208Y136209D01*
X301165Y136122D01*
X301126Y136035D01*
X301090Y135945D01*
X301058Y135855D01*
X301030Y135763D01*
X301005Y135670D01*
X300984Y135576D01*
X300967Y135482D01*
X300953Y135387D01*
X300944Y135291D01*
X300938Y135195D01*
X300936Y135099D01*
X303532Y132502D02*
X310024Y137695D01*
D11*
X444300Y135700D02*
X444300Y103700D01*
X543300Y103700D01*
X543300Y135700D01*
X444300Y135700D01*
X442600Y139200D02*
X442600Y154450D01*
D10*
X512958Y103677D02*
X524642Y103677D01*
X512958Y102379D02*
X512958Y104975D01*
X524642Y104975D02*
X524642Y102379D01*
X512958Y112139D02*
X512958Y114735D01*
X512958Y112139D02*
X512960Y112040D01*
X512966Y111940D01*
X512975Y111841D01*
X512988Y111743D01*
X513005Y111645D01*
X513026Y111547D01*
X513051Y111451D01*
X513079Y111356D01*
X513111Y111262D01*
X513146Y111169D01*
X513185Y111077D01*
X513228Y110987D01*
X513273Y110899D01*
X513323Y110812D01*
X513375Y110728D01*
X513431Y110645D01*
X513489Y110565D01*
X513551Y110487D01*
X513616Y110412D01*
X513684Y110339D01*
X513754Y110269D01*
X513827Y110201D01*
X513902Y110136D01*
X513980Y110074D01*
X514060Y110016D01*
X514143Y109960D01*
X514227Y109908D01*
X514314Y109858D01*
X514402Y109813D01*
X514492Y109770D01*
X514584Y109731D01*
X514677Y109696D01*
X514771Y109664D01*
X514866Y109636D01*
X514962Y109611D01*
X515060Y109590D01*
X515158Y109573D01*
X515256Y109560D01*
X515355Y109551D01*
X515455Y109545D01*
X515554Y109543D01*
X515554Y109542D02*
X522046Y109542D01*
X522046Y109543D02*
X522145Y109545D01*
X522245Y109551D01*
X522344Y109560D01*
X522442Y109573D01*
X522540Y109590D01*
X522638Y109611D01*
X522734Y109636D01*
X522829Y109664D01*
X522923Y109696D01*
X523016Y109731D01*
X523108Y109770D01*
X523198Y109813D01*
X523286Y109858D01*
X523373Y109908D01*
X523457Y109960D01*
X523540Y110016D01*
X523620Y110074D01*
X523698Y110136D01*
X523773Y110201D01*
X523846Y110269D01*
X523916Y110339D01*
X523984Y110412D01*
X524049Y110487D01*
X524111Y110565D01*
X524169Y110645D01*
X524225Y110728D01*
X524277Y110812D01*
X524327Y110899D01*
X524372Y110987D01*
X524415Y111077D01*
X524454Y111169D01*
X524489Y111261D01*
X524521Y111356D01*
X524549Y111451D01*
X524574Y111547D01*
X524595Y111645D01*
X524612Y111743D01*
X524625Y111841D01*
X524634Y111940D01*
X524640Y112040D01*
X524642Y112139D01*
X524642Y114735D01*
X522046Y119100D02*
X524642Y122346D01*
X512958Y122346D01*
X512958Y125591D02*
X512958Y119100D01*
X522046Y130530D02*
X524642Y133776D01*
X512958Y133776D01*
X512958Y137021D02*
X512958Y130530D01*
D11*
X623600Y136900D02*
X623600Y104900D01*
X722600Y104900D01*
X722600Y136900D01*
X623600Y136900D01*
X621900Y140400D02*
X621900Y155650D01*
D10*
X692258Y104877D02*
X703942Y104877D01*
X692258Y103579D02*
X692258Y106175D01*
X703942Y106175D02*
X703942Y103579D01*
X692258Y113339D02*
X692258Y115935D01*
X692258Y113339D02*
X692260Y113240D01*
X692266Y113140D01*
X692275Y113041D01*
X692288Y112943D01*
X692305Y112845D01*
X692326Y112747D01*
X692351Y112651D01*
X692379Y112556D01*
X692411Y112462D01*
X692446Y112369D01*
X692485Y112277D01*
X692528Y112187D01*
X692573Y112099D01*
X692623Y112012D01*
X692675Y111928D01*
X692731Y111845D01*
X692789Y111765D01*
X692851Y111687D01*
X692916Y111612D01*
X692984Y111539D01*
X693054Y111469D01*
X693127Y111401D01*
X693202Y111336D01*
X693280Y111274D01*
X693360Y111216D01*
X693443Y111160D01*
X693527Y111108D01*
X693614Y111058D01*
X693702Y111013D01*
X693792Y110970D01*
X693884Y110931D01*
X693977Y110896D01*
X694071Y110864D01*
X694166Y110836D01*
X694262Y110811D01*
X694360Y110790D01*
X694458Y110773D01*
X694556Y110760D01*
X694655Y110751D01*
X694755Y110745D01*
X694854Y110743D01*
X694854Y110742D02*
X701346Y110742D01*
X701346Y110743D02*
X701445Y110745D01*
X701545Y110751D01*
X701644Y110760D01*
X701742Y110773D01*
X701840Y110790D01*
X701938Y110811D01*
X702034Y110836D01*
X702129Y110864D01*
X702223Y110896D01*
X702316Y110931D01*
X702408Y110970D01*
X702498Y111013D01*
X702586Y111058D01*
X702673Y111108D01*
X702757Y111160D01*
X702840Y111216D01*
X702920Y111274D01*
X702998Y111336D01*
X703073Y111401D01*
X703146Y111469D01*
X703216Y111539D01*
X703284Y111612D01*
X703349Y111687D01*
X703411Y111765D01*
X703469Y111845D01*
X703525Y111928D01*
X703577Y112012D01*
X703627Y112099D01*
X703672Y112187D01*
X703715Y112277D01*
X703754Y112369D01*
X703789Y112461D01*
X703821Y112556D01*
X703849Y112651D01*
X703874Y112747D01*
X703895Y112845D01*
X703912Y112943D01*
X703925Y113041D01*
X703934Y113140D01*
X703940Y113240D01*
X703942Y113339D01*
X703942Y115935D01*
X701346Y120300D02*
X703942Y123546D01*
X692258Y123546D01*
X692258Y126791D02*
X692258Y120300D01*
X703942Y135300D02*
X703940Y135407D01*
X703934Y135513D01*
X703924Y135619D01*
X703911Y135725D01*
X703893Y135831D01*
X703872Y135935D01*
X703847Y136039D01*
X703818Y136142D01*
X703786Y136243D01*
X703749Y136343D01*
X703709Y136442D01*
X703666Y136540D01*
X703619Y136636D01*
X703568Y136730D01*
X703514Y136822D01*
X703457Y136912D01*
X703397Y137000D01*
X703333Y137085D01*
X703266Y137168D01*
X703196Y137249D01*
X703124Y137327D01*
X703048Y137403D01*
X702970Y137475D01*
X702889Y137545D01*
X702806Y137612D01*
X702721Y137676D01*
X702633Y137736D01*
X702543Y137793D01*
X702451Y137847D01*
X702357Y137898D01*
X702261Y137945D01*
X702163Y137988D01*
X702064Y138028D01*
X701964Y138065D01*
X701863Y138097D01*
X701760Y138126D01*
X701656Y138151D01*
X701552Y138172D01*
X701446Y138190D01*
X701340Y138203D01*
X701234Y138213D01*
X701128Y138219D01*
X701021Y138221D01*
X703942Y135300D02*
X703940Y135179D01*
X703934Y135058D01*
X703924Y134938D01*
X703911Y134817D01*
X703893Y134698D01*
X703872Y134578D01*
X703847Y134460D01*
X703818Y134343D01*
X703785Y134226D01*
X703749Y134111D01*
X703708Y133997D01*
X703665Y133884D01*
X703617Y133772D01*
X703566Y133663D01*
X703511Y133555D01*
X703453Y133448D01*
X703392Y133344D01*
X703327Y133242D01*
X703259Y133142D01*
X703188Y133044D01*
X703114Y132948D01*
X703037Y132855D01*
X702956Y132765D01*
X702873Y132677D01*
X702787Y132592D01*
X702698Y132509D01*
X702607Y132430D01*
X702513Y132353D01*
X702417Y132280D01*
X702319Y132210D01*
X702218Y132143D01*
X702115Y132079D01*
X702010Y132019D01*
X701903Y131962D01*
X701795Y131908D01*
X701685Y131858D01*
X701573Y131812D01*
X701460Y131769D01*
X701345Y131730D01*
X698749Y137248D02*
X698826Y137327D01*
X698907Y137403D01*
X698990Y137476D01*
X699075Y137546D01*
X699163Y137613D01*
X699253Y137677D01*
X699345Y137737D01*
X699440Y137794D01*
X699536Y137848D01*
X699634Y137899D01*
X699734Y137946D01*
X699836Y137990D01*
X699939Y138030D01*
X700043Y138066D01*
X700149Y138098D01*
X700255Y138127D01*
X700363Y138152D01*
X700471Y138174D01*
X700581Y138191D01*
X700690Y138205D01*
X700800Y138214D01*
X700911Y138220D01*
X701021Y138222D01*
X698749Y137248D02*
X692258Y131730D01*
X692258Y138221D01*
D12*
X807520Y179234D02*
X843080Y179234D01*
X843080Y244766D01*
X807520Y244766D01*
X807520Y179234D01*
D10*
X860860Y197333D02*
X860860Y199308D01*
X860862Y199395D01*
X860868Y199483D01*
X860877Y199570D01*
X860891Y199656D01*
X860908Y199742D01*
X860929Y199826D01*
X860954Y199910D01*
X860983Y199993D01*
X861015Y200074D01*
X861050Y200154D01*
X861089Y200232D01*
X861132Y200309D01*
X861178Y200383D01*
X861227Y200455D01*
X861279Y200525D01*
X861335Y200593D01*
X861393Y200658D01*
X861454Y200721D01*
X861518Y200780D01*
X861585Y200837D01*
X861653Y200891D01*
X861725Y200942D01*
X861798Y200989D01*
X861873Y201034D01*
X861951Y201075D01*
X862030Y201112D01*
X862110Y201146D01*
X862192Y201176D01*
X862275Y201203D01*
X862360Y201226D01*
X862445Y201245D01*
X862531Y201260D01*
X862618Y201272D01*
X862705Y201280D01*
X862792Y201284D01*
X862880Y201284D01*
X862967Y201280D01*
X863054Y201272D01*
X863141Y201260D01*
X863227Y201245D01*
X863312Y201226D01*
X863397Y201203D01*
X863480Y201176D01*
X863562Y201146D01*
X863642Y201112D01*
X863721Y201075D01*
X863799Y201034D01*
X863874Y200989D01*
X863947Y200942D01*
X864019Y200891D01*
X864087Y200837D01*
X864154Y200780D01*
X864218Y200721D01*
X864279Y200658D01*
X864337Y200593D01*
X864393Y200525D01*
X864445Y200455D01*
X864494Y200383D01*
X864540Y200309D01*
X864583Y200232D01*
X864622Y200154D01*
X864657Y200074D01*
X864689Y199993D01*
X864718Y199910D01*
X864743Y199826D01*
X864764Y199742D01*
X864781Y199656D01*
X864795Y199570D01*
X864804Y199483D01*
X864810Y199395D01*
X864812Y199308D01*
X867972Y199704D02*
X867972Y197333D01*
X867972Y199704D02*
X867970Y199783D01*
X867964Y199861D01*
X867954Y199939D01*
X867941Y200017D01*
X867923Y200094D01*
X867902Y200170D01*
X867877Y200244D01*
X867848Y200318D01*
X867816Y200390D01*
X867780Y200460D01*
X867740Y200528D01*
X867697Y200594D01*
X867651Y200658D01*
X867602Y200720D01*
X867550Y200779D01*
X867495Y200835D01*
X867437Y200889D01*
X867377Y200939D01*
X867314Y200987D01*
X867249Y201031D01*
X867182Y201072D01*
X867113Y201110D01*
X867042Y201144D01*
X866969Y201175D01*
X866895Y201202D01*
X866820Y201225D01*
X866744Y201244D01*
X866666Y201260D01*
X866588Y201272D01*
X866510Y201280D01*
X866431Y201284D01*
X866353Y201284D01*
X866274Y201280D01*
X866196Y201272D01*
X866118Y201260D01*
X866040Y201244D01*
X865964Y201225D01*
X865889Y201202D01*
X865815Y201175D01*
X865742Y201144D01*
X865671Y201110D01*
X865602Y201072D01*
X865535Y201031D01*
X865470Y200987D01*
X865407Y200939D01*
X865347Y200889D01*
X865289Y200835D01*
X865234Y200779D01*
X865182Y200720D01*
X865133Y200658D01*
X865087Y200594D01*
X865044Y200528D01*
X865004Y200460D01*
X864968Y200390D01*
X864936Y200318D01*
X864907Y200244D01*
X864882Y200170D01*
X864861Y200094D01*
X864843Y200017D01*
X864830Y199939D01*
X864820Y199861D01*
X864814Y199783D01*
X864812Y199704D01*
X864811Y199704D02*
X864811Y198123D01*
X799392Y190071D02*
X793860Y188491D01*
X793860Y192442D01*
X795441Y191257D02*
X792280Y191257D01*
X866392Y242067D02*
X867972Y244042D01*
X860860Y244042D01*
X860860Y242067D02*
X860860Y246018D01*
X866288Y224398D02*
X866370Y224396D01*
X866452Y224390D01*
X866534Y224381D01*
X866615Y224368D01*
X866695Y224351D01*
X866775Y224330D01*
X866853Y224306D01*
X866930Y224278D01*
X867006Y224247D01*
X867081Y224212D01*
X867153Y224173D01*
X867224Y224132D01*
X867293Y224087D01*
X867359Y224039D01*
X867424Y223988D01*
X867486Y223934D01*
X867545Y223877D01*
X867602Y223818D01*
X867656Y223756D01*
X867707Y223691D01*
X867755Y223625D01*
X867800Y223556D01*
X867841Y223485D01*
X867880Y223413D01*
X867915Y223338D01*
X867946Y223262D01*
X867974Y223185D01*
X867998Y223107D01*
X868019Y223027D01*
X868036Y222947D01*
X868049Y222866D01*
X868058Y222784D01*
X868064Y222702D01*
X868066Y222620D01*
X868064Y222527D01*
X868058Y222435D01*
X868049Y222343D01*
X868036Y222251D01*
X868019Y222160D01*
X867999Y222070D01*
X867975Y221980D01*
X867947Y221892D01*
X867915Y221804D01*
X867881Y221719D01*
X867842Y221634D01*
X867801Y221552D01*
X867756Y221471D01*
X867707Y221391D01*
X867656Y221314D01*
X867602Y221239D01*
X867544Y221167D01*
X867484Y221097D01*
X867420Y221029D01*
X867355Y220964D01*
X867286Y220901D01*
X867215Y220842D01*
X867142Y220785D01*
X867066Y220731D01*
X866989Y220681D01*
X866909Y220633D01*
X866828Y220589D01*
X866744Y220549D01*
X866660Y220511D01*
X866573Y220477D01*
X866486Y220447D01*
X864905Y223805D02*
X864966Y223866D01*
X865029Y223924D01*
X865095Y223979D01*
X865163Y224032D01*
X865234Y224081D01*
X865306Y224126D01*
X865381Y224169D01*
X865457Y224208D01*
X865536Y224244D01*
X865615Y224276D01*
X865696Y224304D01*
X865779Y224329D01*
X865862Y224350D01*
X865946Y224367D01*
X866031Y224381D01*
X866116Y224390D01*
X866202Y224396D01*
X866288Y224398D01*
X864905Y223805D02*
X860954Y220447D01*
X860954Y224398D01*
X824284Y214977D02*
X812600Y214977D01*
X812600Y213679D02*
X812600Y216276D01*
X824284Y216276D02*
X824284Y213679D01*
X812600Y223439D02*
X812600Y226036D01*
X812600Y223439D02*
X812602Y223340D01*
X812608Y223240D01*
X812617Y223141D01*
X812630Y223043D01*
X812647Y222945D01*
X812668Y222847D01*
X812693Y222751D01*
X812721Y222656D01*
X812753Y222562D01*
X812788Y222469D01*
X812827Y222377D01*
X812870Y222287D01*
X812915Y222199D01*
X812965Y222112D01*
X813017Y222028D01*
X813073Y221945D01*
X813131Y221865D01*
X813193Y221787D01*
X813258Y221712D01*
X813326Y221639D01*
X813396Y221569D01*
X813469Y221501D01*
X813544Y221436D01*
X813622Y221374D01*
X813702Y221316D01*
X813785Y221260D01*
X813869Y221208D01*
X813956Y221158D01*
X814044Y221113D01*
X814134Y221070D01*
X814226Y221031D01*
X814319Y220996D01*
X814413Y220964D01*
X814508Y220936D01*
X814604Y220911D01*
X814702Y220890D01*
X814800Y220873D01*
X814898Y220860D01*
X814997Y220851D01*
X815097Y220845D01*
X815196Y220843D01*
X821688Y220843D01*
X821787Y220845D01*
X821887Y220851D01*
X821986Y220860D01*
X822084Y220873D01*
X822182Y220890D01*
X822280Y220911D01*
X822376Y220936D01*
X822471Y220964D01*
X822565Y220996D01*
X822658Y221031D01*
X822750Y221070D01*
X822840Y221113D01*
X822928Y221158D01*
X823015Y221208D01*
X823099Y221260D01*
X823182Y221316D01*
X823262Y221374D01*
X823340Y221436D01*
X823415Y221501D01*
X823488Y221569D01*
X823558Y221639D01*
X823626Y221712D01*
X823691Y221787D01*
X823753Y221865D01*
X823811Y221945D01*
X823867Y222028D01*
X823919Y222112D01*
X823969Y222199D01*
X824014Y222287D01*
X824057Y222377D01*
X824096Y222469D01*
X824131Y222561D01*
X824163Y222656D01*
X824191Y222751D01*
X824216Y222847D01*
X824237Y222945D01*
X824254Y223043D01*
X824267Y223141D01*
X824276Y223240D01*
X824282Y223340D01*
X824284Y223439D01*
X824284Y226036D01*
X824284Y233971D02*
X824282Y234078D01*
X824276Y234184D01*
X824266Y234290D01*
X824253Y234396D01*
X824235Y234502D01*
X824214Y234606D01*
X824189Y234710D01*
X824160Y234813D01*
X824128Y234914D01*
X824091Y235014D01*
X824051Y235113D01*
X824008Y235211D01*
X823961Y235307D01*
X823910Y235401D01*
X823856Y235493D01*
X823799Y235583D01*
X823739Y235671D01*
X823675Y235756D01*
X823608Y235839D01*
X823538Y235920D01*
X823466Y235998D01*
X823390Y236074D01*
X823312Y236146D01*
X823231Y236216D01*
X823148Y236283D01*
X823063Y236347D01*
X822975Y236407D01*
X822885Y236464D01*
X822793Y236518D01*
X822699Y236569D01*
X822603Y236616D01*
X822505Y236659D01*
X822406Y236699D01*
X822306Y236736D01*
X822205Y236768D01*
X822102Y236797D01*
X821998Y236822D01*
X821894Y236843D01*
X821788Y236861D01*
X821682Y236874D01*
X821576Y236884D01*
X821470Y236890D01*
X821363Y236892D01*
X824284Y233971D02*
X824282Y233850D01*
X824276Y233729D01*
X824266Y233609D01*
X824253Y233488D01*
X824235Y233369D01*
X824214Y233249D01*
X824189Y233131D01*
X824160Y233014D01*
X824127Y232897D01*
X824091Y232782D01*
X824050Y232668D01*
X824007Y232555D01*
X823959Y232443D01*
X823908Y232334D01*
X823853Y232226D01*
X823795Y232119D01*
X823734Y232015D01*
X823669Y231913D01*
X823601Y231813D01*
X823530Y231715D01*
X823456Y231619D01*
X823379Y231526D01*
X823298Y231436D01*
X823215Y231348D01*
X823129Y231263D01*
X823040Y231180D01*
X822949Y231101D01*
X822855Y231024D01*
X822759Y230951D01*
X822661Y230881D01*
X822560Y230814D01*
X822457Y230750D01*
X822352Y230690D01*
X822245Y230633D01*
X822137Y230579D01*
X822027Y230529D01*
X821915Y230483D01*
X821802Y230440D01*
X821687Y230401D01*
X819091Y235919D02*
X819168Y235998D01*
X819249Y236074D01*
X819332Y236147D01*
X819417Y236217D01*
X819505Y236284D01*
X819595Y236348D01*
X819687Y236408D01*
X819782Y236465D01*
X819878Y236519D01*
X819976Y236570D01*
X820076Y236617D01*
X820178Y236661D01*
X820281Y236701D01*
X820385Y236737D01*
X820491Y236769D01*
X820597Y236798D01*
X820705Y236823D01*
X820813Y236845D01*
X820923Y236862D01*
X821032Y236876D01*
X821142Y236885D01*
X821253Y236891D01*
X821363Y236893D01*
X819091Y235918D02*
X812600Y230401D01*
X812600Y236892D01*
D11*
X97707Y137742D02*
X97707Y105742D01*
X196707Y105742D01*
X196707Y137742D01*
X97707Y137742D01*
X96007Y141242D02*
X96007Y156492D01*
D10*
X171365Y111434D02*
X183049Y111434D01*
X171365Y110135D02*
X171365Y112732D01*
X183049Y112732D02*
X183049Y110135D01*
X171365Y119895D02*
X171365Y122492D01*
X171366Y119895D02*
X171368Y119796D01*
X171374Y119696D01*
X171383Y119597D01*
X171396Y119499D01*
X171413Y119401D01*
X171434Y119303D01*
X171459Y119207D01*
X171487Y119112D01*
X171519Y119018D01*
X171554Y118925D01*
X171593Y118833D01*
X171636Y118743D01*
X171681Y118655D01*
X171731Y118568D01*
X171783Y118484D01*
X171839Y118401D01*
X171897Y118321D01*
X171959Y118243D01*
X172024Y118168D01*
X172092Y118095D01*
X172162Y118025D01*
X172235Y117957D01*
X172310Y117892D01*
X172388Y117830D01*
X172468Y117772D01*
X172551Y117716D01*
X172635Y117664D01*
X172722Y117614D01*
X172810Y117569D01*
X172900Y117526D01*
X172992Y117487D01*
X173085Y117452D01*
X173179Y117420D01*
X173274Y117392D01*
X173370Y117367D01*
X173468Y117346D01*
X173566Y117329D01*
X173664Y117316D01*
X173763Y117307D01*
X173863Y117301D01*
X173962Y117299D01*
X180453Y117299D01*
X180552Y117301D01*
X180652Y117307D01*
X180751Y117316D01*
X180849Y117329D01*
X180947Y117346D01*
X181045Y117367D01*
X181141Y117392D01*
X181236Y117420D01*
X181330Y117452D01*
X181423Y117487D01*
X181515Y117526D01*
X181605Y117569D01*
X181693Y117614D01*
X181780Y117664D01*
X181864Y117716D01*
X181947Y117772D01*
X182027Y117830D01*
X182105Y117892D01*
X182180Y117957D01*
X182253Y118025D01*
X182323Y118095D01*
X182391Y118168D01*
X182456Y118243D01*
X182518Y118321D01*
X182576Y118401D01*
X182632Y118484D01*
X182684Y118568D01*
X182734Y118655D01*
X182779Y118743D01*
X182822Y118833D01*
X182861Y118925D01*
X182896Y119017D01*
X182928Y119112D01*
X182956Y119207D01*
X182981Y119303D01*
X183002Y119401D01*
X183019Y119499D01*
X183032Y119597D01*
X183041Y119696D01*
X183047Y119796D01*
X183049Y119895D01*
X183049Y122492D01*
X176558Y129454D02*
X176558Y133348D01*
X176559Y129454D02*
X176561Y129355D01*
X176567Y129255D01*
X176576Y129156D01*
X176589Y129058D01*
X176606Y128960D01*
X176627Y128862D01*
X176652Y128766D01*
X176680Y128671D01*
X176712Y128577D01*
X176747Y128484D01*
X176786Y128392D01*
X176829Y128302D01*
X176874Y128214D01*
X176924Y128127D01*
X176976Y128043D01*
X177032Y127960D01*
X177090Y127880D01*
X177152Y127802D01*
X177217Y127727D01*
X177285Y127654D01*
X177355Y127584D01*
X177428Y127516D01*
X177503Y127451D01*
X177581Y127389D01*
X177661Y127331D01*
X177744Y127275D01*
X177828Y127223D01*
X177915Y127173D01*
X178003Y127128D01*
X178093Y127085D01*
X178185Y127046D01*
X178278Y127011D01*
X178372Y126979D01*
X178467Y126951D01*
X178563Y126926D01*
X178661Y126905D01*
X178759Y126888D01*
X178857Y126875D01*
X178956Y126866D01*
X179056Y126860D01*
X179155Y126858D01*
X179155Y126857D02*
X179804Y126857D01*
X179917Y126859D01*
X180030Y126865D01*
X180143Y126875D01*
X180256Y126889D01*
X180368Y126906D01*
X180479Y126928D01*
X180589Y126953D01*
X180699Y126983D01*
X180807Y127016D01*
X180914Y127053D01*
X181020Y127093D01*
X181124Y127138D01*
X181227Y127186D01*
X181328Y127237D01*
X181427Y127292D01*
X181524Y127350D01*
X181619Y127412D01*
X181712Y127477D01*
X181802Y127545D01*
X181890Y127616D01*
X181976Y127691D01*
X182059Y127768D01*
X182139Y127848D01*
X182216Y127931D01*
X182291Y128017D01*
X182362Y128105D01*
X182430Y128195D01*
X182495Y128288D01*
X182557Y128383D01*
X182615Y128480D01*
X182670Y128579D01*
X182721Y128680D01*
X182769Y128783D01*
X182814Y128887D01*
X182854Y128993D01*
X182891Y129100D01*
X182924Y129208D01*
X182954Y129318D01*
X182979Y129428D01*
X183001Y129539D01*
X183018Y129651D01*
X183032Y129764D01*
X183042Y129877D01*
X183048Y129990D01*
X183050Y130103D01*
X183048Y130216D01*
X183042Y130329D01*
X183032Y130442D01*
X183018Y130555D01*
X183001Y130667D01*
X182979Y130778D01*
X182954Y130888D01*
X182924Y130998D01*
X182891Y131106D01*
X182854Y131213D01*
X182814Y131319D01*
X182769Y131423D01*
X182721Y131526D01*
X182670Y131627D01*
X182615Y131726D01*
X182557Y131823D01*
X182495Y131918D01*
X182430Y132011D01*
X182362Y132101D01*
X182291Y132189D01*
X182216Y132275D01*
X182139Y132358D01*
X182059Y132438D01*
X181976Y132515D01*
X181890Y132590D01*
X181802Y132661D01*
X181712Y132729D01*
X181619Y132794D01*
X181524Y132856D01*
X181427Y132914D01*
X181328Y132969D01*
X181227Y133020D01*
X181124Y133068D01*
X181020Y133113D01*
X180914Y133153D01*
X180807Y133190D01*
X180699Y133223D01*
X180589Y133253D01*
X180479Y133278D01*
X180368Y133300D01*
X180256Y133317D01*
X180143Y133331D01*
X180030Y133341D01*
X179917Y133347D01*
X179804Y133349D01*
X179804Y133348D02*
X176558Y133348D01*
X176415Y133346D01*
X176272Y133340D01*
X176129Y133330D01*
X175987Y133316D01*
X175845Y133299D01*
X175703Y133277D01*
X175562Y133252D01*
X175422Y133222D01*
X175283Y133189D01*
X175145Y133152D01*
X175008Y133111D01*
X174872Y133067D01*
X174737Y133018D01*
X174604Y132966D01*
X174472Y132911D01*
X174342Y132851D01*
X174213Y132788D01*
X174086Y132722D01*
X173962Y132652D01*
X173839Y132579D01*
X173718Y132502D01*
X173599Y132422D01*
X173483Y132339D01*
X173368Y132253D01*
X173257Y132164D01*
X173147Y132071D01*
X173041Y131976D01*
X172937Y131877D01*
X172836Y131776D01*
X172737Y131672D01*
X172642Y131566D01*
X172549Y131456D01*
X172460Y131345D01*
X172374Y131230D01*
X172291Y131114D01*
X172211Y130995D01*
X172134Y130874D01*
X172061Y130752D01*
X171991Y130627D01*
X171925Y130500D01*
X171862Y130371D01*
X171802Y130241D01*
X171747Y130109D01*
X171695Y129976D01*
X171646Y129841D01*
X171602Y129705D01*
X171561Y129568D01*
X171524Y129430D01*
X171491Y129291D01*
X171461Y129151D01*
X171436Y129010D01*
X171414Y128868D01*
X171397Y128726D01*
X171383Y128584D01*
X171373Y128441D01*
X171367Y128298D01*
X171365Y128155D01*
D13*
X425310Y300860D02*
X493890Y300860D01*
X493890Y255140D02*
X425310Y255140D01*
D14*
X425310Y295780D02*
X493890Y295780D01*
X493890Y260220D02*
X425310Y260220D01*
X493890Y260220D02*
X494323Y260225D01*
X494756Y260241D01*
X495188Y260267D01*
X495619Y260304D01*
X496050Y260352D01*
X496479Y260409D01*
X496906Y260478D01*
X497332Y260556D01*
X497756Y260645D01*
X498177Y260745D01*
X498596Y260854D01*
X499012Y260974D01*
X499425Y261104D01*
X499835Y261243D01*
X500242Y261393D01*
X500644Y261553D01*
X501043Y261722D01*
X501437Y261901D01*
X501827Y262090D01*
X502212Y262288D01*
X502592Y262495D01*
X502967Y262711D01*
X503336Y262937D01*
X503700Y263172D01*
X504059Y263415D01*
X504411Y263667D01*
X504757Y263927D01*
X505096Y264196D01*
X505429Y264473D01*
X505755Y264758D01*
X506074Y265051D01*
X506386Y265351D01*
X506690Y265659D01*
X506987Y265975D01*
X507276Y266297D01*
X507557Y266627D01*
X507829Y266963D01*
X508094Y267305D01*
X508350Y267655D01*
X508598Y268010D01*
X508837Y268371D01*
X509067Y268738D01*
X509288Y269110D01*
X509500Y269488D01*
X509703Y269870D01*
X509896Y270258D01*
X510080Y270650D01*
X510254Y271046D01*
X510418Y271447D01*
X510573Y271851D01*
X510718Y272259D01*
X510853Y272671D01*
X510977Y273085D01*
X511092Y273503D01*
X511196Y273923D01*
X511290Y274346D01*
X511374Y274770D01*
X511448Y275197D01*
X511511Y275626D01*
X511563Y276055D01*
X511605Y276486D01*
X511637Y276918D01*
X511658Y277351D01*
X511669Y277784D01*
X511669Y278216D01*
X511658Y278649D01*
X511637Y279082D01*
X511605Y279514D01*
X511563Y279945D01*
X511511Y280374D01*
X511448Y280803D01*
X511374Y281230D01*
X511290Y281654D01*
X511196Y282077D01*
X511092Y282497D01*
X510977Y282915D01*
X510853Y283329D01*
X510718Y283741D01*
X510573Y284149D01*
X510418Y284553D01*
X510254Y284954D01*
X510080Y285350D01*
X509896Y285742D01*
X509703Y286130D01*
X509500Y286512D01*
X509288Y286890D01*
X509067Y287262D01*
X508837Y287629D01*
X508598Y287990D01*
X508350Y288345D01*
X508094Y288695D01*
X507829Y289037D01*
X507557Y289373D01*
X507276Y289703D01*
X506987Y290025D01*
X506690Y290341D01*
X506386Y290649D01*
X506074Y290949D01*
X505755Y291242D01*
X505429Y291527D01*
X505096Y291804D01*
X504757Y292073D01*
X504411Y292333D01*
X504059Y292585D01*
X503700Y292828D01*
X503336Y293063D01*
X502967Y293289D01*
X502592Y293505D01*
X502212Y293712D01*
X501827Y293910D01*
X501437Y294099D01*
X501043Y294278D01*
X500644Y294447D01*
X500242Y294607D01*
X499835Y294757D01*
X499425Y294896D01*
X499012Y295026D01*
X498596Y295146D01*
X498177Y295255D01*
X497756Y295355D01*
X497332Y295444D01*
X496906Y295522D01*
X496479Y295591D01*
X496050Y295648D01*
X495619Y295696D01*
X495188Y295733D01*
X494756Y295759D01*
X494323Y295775D01*
X493890Y295780D01*
D13*
X493890Y300860D02*
X494447Y300853D01*
X495003Y300833D01*
X495559Y300799D01*
X496113Y300752D01*
X496667Y300691D01*
X497218Y300616D01*
X497768Y300529D01*
X498316Y300428D01*
X498860Y300313D01*
X499402Y300185D01*
X499941Y300045D01*
X500476Y299891D01*
X501007Y299724D01*
X501534Y299544D01*
X502056Y299352D01*
X502574Y299146D01*
X503086Y298929D01*
X503593Y298699D01*
X504094Y298456D01*
X504589Y298202D01*
X505078Y297935D01*
X505560Y297657D01*
X506035Y297367D01*
X506503Y297065D01*
X506964Y296752D01*
X507417Y296428D01*
X507861Y296094D01*
X508298Y295748D01*
X508726Y295392D01*
X509145Y295025D01*
X509555Y294649D01*
X509956Y294263D01*
X510347Y293867D01*
X510728Y293461D01*
X511100Y293046D01*
X511461Y292623D01*
X511812Y292191D01*
X512152Y291750D01*
X512482Y291301D01*
X512800Y290845D01*
X513107Y290380D01*
X513403Y289909D01*
X513687Y289430D01*
X513960Y288945D01*
X514220Y288453D01*
X514469Y287954D01*
X514705Y287450D01*
X514929Y286941D01*
X515141Y286426D01*
X515339Y285906D01*
X515526Y285381D01*
X515699Y284852D01*
X515859Y284319D01*
X516007Y283782D01*
X516141Y283242D01*
X516262Y282698D01*
X516370Y282152D01*
X516464Y281604D01*
X516545Y281053D01*
X516613Y280500D01*
X516667Y279946D01*
X516708Y279391D01*
X516735Y278835D01*
X516748Y278278D01*
X516748Y277722D01*
X516735Y277165D01*
X516708Y276609D01*
X516667Y276054D01*
X516613Y275500D01*
X516545Y274947D01*
X516464Y274396D01*
X516370Y273848D01*
X516262Y273302D01*
X516141Y272758D01*
X516007Y272218D01*
X515859Y271681D01*
X515699Y271148D01*
X515526Y270619D01*
X515339Y270094D01*
X515141Y269574D01*
X514929Y269059D01*
X514705Y268550D01*
X514469Y268046D01*
X514220Y267547D01*
X513960Y267055D01*
X513687Y266570D01*
X513403Y266091D01*
X513107Y265620D01*
X512800Y265155D01*
X512482Y264699D01*
X512152Y264250D01*
X511812Y263809D01*
X511461Y263377D01*
X511100Y262954D01*
X510728Y262539D01*
X510347Y262133D01*
X509956Y261737D01*
X509555Y261351D01*
X509145Y260975D01*
X508726Y260608D01*
X508298Y260252D01*
X507861Y259906D01*
X507417Y259572D01*
X506964Y259248D01*
X506503Y258935D01*
X506035Y258633D01*
X505560Y258343D01*
X505078Y258065D01*
X504589Y257798D01*
X504094Y257544D01*
X503593Y257301D01*
X503086Y257071D01*
X502574Y256854D01*
X502056Y256648D01*
X501534Y256456D01*
X501007Y256276D01*
X500476Y256109D01*
X499941Y255955D01*
X499402Y255815D01*
X498860Y255687D01*
X498316Y255572D01*
X497768Y255471D01*
X497218Y255384D01*
X496667Y255309D01*
X496113Y255248D01*
X495559Y255201D01*
X495003Y255167D01*
X494447Y255147D01*
X493890Y255140D01*
X425310Y255140D02*
X424753Y255147D01*
X424197Y255167D01*
X423641Y255201D01*
X423087Y255248D01*
X422533Y255309D01*
X421982Y255384D01*
X421432Y255471D01*
X420884Y255572D01*
X420340Y255687D01*
X419798Y255815D01*
X419259Y255955D01*
X418724Y256109D01*
X418193Y256276D01*
X417666Y256456D01*
X417144Y256648D01*
X416626Y256854D01*
X416114Y257071D01*
X415607Y257301D01*
X415106Y257544D01*
X414611Y257798D01*
X414122Y258065D01*
X413640Y258343D01*
X413165Y258633D01*
X412697Y258935D01*
X412236Y259248D01*
X411783Y259572D01*
X411339Y259906D01*
X410902Y260252D01*
X410474Y260608D01*
X410055Y260975D01*
X409645Y261351D01*
X409244Y261737D01*
X408853Y262133D01*
X408472Y262539D01*
X408100Y262954D01*
X407739Y263377D01*
X407388Y263809D01*
X407048Y264250D01*
X406718Y264699D01*
X406400Y265155D01*
X406093Y265620D01*
X405797Y266091D01*
X405513Y266570D01*
X405240Y267055D01*
X404980Y267547D01*
X404731Y268046D01*
X404495Y268550D01*
X404271Y269059D01*
X404059Y269574D01*
X403861Y270094D01*
X403674Y270619D01*
X403501Y271148D01*
X403341Y271681D01*
X403193Y272218D01*
X403059Y272758D01*
X402938Y273302D01*
X402830Y273848D01*
X402736Y274396D01*
X402655Y274947D01*
X402587Y275500D01*
X402533Y276054D01*
X402492Y276609D01*
X402465Y277165D01*
X402452Y277722D01*
X402452Y278278D01*
X402465Y278835D01*
X402492Y279391D01*
X402533Y279946D01*
X402587Y280500D01*
X402655Y281053D01*
X402736Y281604D01*
X402830Y282152D01*
X402938Y282698D01*
X403059Y283242D01*
X403193Y283782D01*
X403341Y284319D01*
X403501Y284852D01*
X403674Y285381D01*
X403861Y285906D01*
X404059Y286426D01*
X404271Y286941D01*
X404495Y287450D01*
X404731Y287954D01*
X404980Y288453D01*
X405240Y288945D01*
X405513Y289430D01*
X405797Y289909D01*
X406093Y290380D01*
X406400Y290845D01*
X406718Y291301D01*
X407048Y291750D01*
X407388Y292191D01*
X407739Y292623D01*
X408100Y293046D01*
X408472Y293461D01*
X408853Y293867D01*
X409244Y294263D01*
X409645Y294649D01*
X410055Y295025D01*
X410474Y295392D01*
X410902Y295748D01*
X411339Y296094D01*
X411783Y296428D01*
X412236Y296752D01*
X412697Y297065D01*
X413165Y297367D01*
X413640Y297657D01*
X414122Y297935D01*
X414611Y298202D01*
X415106Y298456D01*
X415607Y298699D01*
X416114Y298929D01*
X416626Y299146D01*
X417144Y299352D01*
X417666Y299544D01*
X418193Y299724D01*
X418724Y299891D01*
X419259Y300045D01*
X419798Y300185D01*
X420340Y300313D01*
X420884Y300428D01*
X421432Y300529D01*
X421982Y300616D01*
X422533Y300691D01*
X423087Y300752D01*
X423641Y300799D01*
X424197Y300833D01*
X424753Y300853D01*
X425310Y300860D01*
D14*
X425310Y295780D02*
X424877Y295775D01*
X424444Y295759D01*
X424012Y295733D01*
X423581Y295696D01*
X423150Y295648D01*
X422721Y295591D01*
X422294Y295522D01*
X421868Y295444D01*
X421444Y295355D01*
X421023Y295255D01*
X420604Y295146D01*
X420188Y295026D01*
X419775Y294896D01*
X419365Y294757D01*
X418958Y294607D01*
X418556Y294447D01*
X418157Y294278D01*
X417763Y294099D01*
X417373Y293910D01*
X416988Y293712D01*
X416608Y293505D01*
X416233Y293289D01*
X415864Y293063D01*
X415500Y292828D01*
X415141Y292585D01*
X414789Y292333D01*
X414443Y292073D01*
X414104Y291804D01*
X413771Y291527D01*
X413445Y291242D01*
X413126Y290949D01*
X412814Y290649D01*
X412510Y290341D01*
X412213Y290025D01*
X411924Y289703D01*
X411643Y289373D01*
X411371Y289037D01*
X411106Y288695D01*
X410850Y288345D01*
X410602Y287990D01*
X410363Y287629D01*
X410133Y287262D01*
X409912Y286890D01*
X409700Y286512D01*
X409497Y286130D01*
X409304Y285742D01*
X409120Y285350D01*
X408946Y284954D01*
X408782Y284553D01*
X408627Y284149D01*
X408482Y283741D01*
X408347Y283329D01*
X408223Y282915D01*
X408108Y282497D01*
X408004Y282077D01*
X407910Y281654D01*
X407826Y281230D01*
X407752Y280803D01*
X407689Y280374D01*
X407637Y279945D01*
X407595Y279514D01*
X407563Y279082D01*
X407542Y278649D01*
X407531Y278216D01*
X407531Y277784D01*
X407542Y277351D01*
X407563Y276918D01*
X407595Y276486D01*
X407637Y276055D01*
X407689Y275626D01*
X407752Y275197D01*
X407826Y274770D01*
X407910Y274346D01*
X408004Y273923D01*
X408108Y273503D01*
X408223Y273085D01*
X408347Y272671D01*
X408482Y272259D01*
X408627Y271851D01*
X408782Y271447D01*
X408946Y271046D01*
X409120Y270650D01*
X409304Y270258D01*
X409497Y269870D01*
X409700Y269488D01*
X409912Y269110D01*
X410133Y268738D01*
X410363Y268371D01*
X410602Y268010D01*
X410850Y267655D01*
X411106Y267305D01*
X411371Y266963D01*
X411643Y266627D01*
X411924Y266297D01*
X412213Y265975D01*
X412510Y265659D01*
X412814Y265351D01*
X413126Y265051D01*
X413445Y264758D01*
X413771Y264473D01*
X414104Y264196D01*
X414443Y263927D01*
X414789Y263667D01*
X415141Y263415D01*
X415500Y263172D01*
X415864Y262937D01*
X416233Y262711D01*
X416608Y262495D01*
X416988Y262288D01*
X417373Y262090D01*
X417763Y261901D01*
X418157Y261722D01*
X418556Y261553D01*
X418958Y261393D01*
X419365Y261243D01*
X419775Y261104D01*
X420188Y260974D01*
X420604Y260854D01*
X421023Y260745D01*
X421444Y260645D01*
X421868Y260556D01*
X422294Y260478D01*
X422721Y260409D01*
X423150Y260352D01*
X423581Y260304D01*
X424012Y260267D01*
X424444Y260241D01*
X424877Y260225D01*
X425310Y260220D01*
D15*
X426846Y247520D02*
X426846Y242440D01*
X426846Y247520D02*
X426844Y247631D01*
X426838Y247741D01*
X426829Y247852D01*
X426815Y247962D01*
X426798Y248071D01*
X426777Y248180D01*
X426752Y248288D01*
X426723Y248395D01*
X426691Y248501D01*
X426655Y248606D01*
X426615Y248709D01*
X426572Y248811D01*
X426525Y248912D01*
X426474Y249011D01*
X426421Y249108D01*
X426364Y249202D01*
X426303Y249295D01*
X426240Y249386D01*
X426173Y249475D01*
X426103Y249561D01*
X426030Y249644D01*
X425955Y249726D01*
X425877Y249804D01*
X425795Y249879D01*
X425712Y249952D01*
X425626Y250022D01*
X425537Y250089D01*
X425446Y250152D01*
X425353Y250213D01*
X425259Y250270D01*
X425162Y250323D01*
X425063Y250374D01*
X424962Y250421D01*
X424860Y250464D01*
X424757Y250504D01*
X424652Y250540D01*
X424546Y250572D01*
X424439Y250601D01*
X424331Y250626D01*
X424222Y250647D01*
X424113Y250664D01*
X424003Y250678D01*
X423892Y250687D01*
X423782Y250693D01*
X423671Y250695D01*
X423560Y250693D01*
X423450Y250687D01*
X423339Y250678D01*
X423229Y250664D01*
X423120Y250647D01*
X423011Y250626D01*
X422903Y250601D01*
X422796Y250572D01*
X422690Y250540D01*
X422585Y250504D01*
X422482Y250464D01*
X422380Y250421D01*
X422279Y250374D01*
X422180Y250323D01*
X422084Y250270D01*
X421989Y250213D01*
X421896Y250152D01*
X421805Y250089D01*
X421716Y250022D01*
X421630Y249952D01*
X421547Y249879D01*
X421465Y249804D01*
X421387Y249726D01*
X421312Y249644D01*
X421239Y249561D01*
X421169Y249475D01*
X421102Y249386D01*
X421039Y249295D01*
X420978Y249202D01*
X420921Y249108D01*
X420868Y249011D01*
X420817Y248912D01*
X420770Y248811D01*
X420727Y248709D01*
X420687Y248606D01*
X420651Y248501D01*
X420619Y248395D01*
X420590Y248288D01*
X420565Y248180D01*
X420544Y248071D01*
X420527Y247962D01*
X420513Y247852D01*
X420504Y247741D01*
X420498Y247631D01*
X420496Y247520D01*
X420496Y242440D01*
X420498Y242329D01*
X420504Y242219D01*
X420513Y242108D01*
X420527Y241998D01*
X420544Y241889D01*
X420565Y241780D01*
X420590Y241672D01*
X420619Y241565D01*
X420651Y241459D01*
X420687Y241354D01*
X420727Y241251D01*
X420770Y241149D01*
X420817Y241048D01*
X420868Y240949D01*
X420921Y240853D01*
X420978Y240758D01*
X421039Y240665D01*
X421102Y240574D01*
X421169Y240485D01*
X421239Y240399D01*
X421312Y240316D01*
X421387Y240234D01*
X421465Y240156D01*
X421547Y240081D01*
X421630Y240008D01*
X421716Y239938D01*
X421805Y239871D01*
X421896Y239808D01*
X421989Y239747D01*
X422084Y239690D01*
X422180Y239637D01*
X422279Y239586D01*
X422380Y239539D01*
X422482Y239496D01*
X422585Y239456D01*
X422690Y239420D01*
X422796Y239388D01*
X422903Y239359D01*
X423011Y239334D01*
X423120Y239313D01*
X423229Y239296D01*
X423339Y239282D01*
X423450Y239273D01*
X423560Y239267D01*
X423671Y239265D01*
X423782Y239267D01*
X423892Y239273D01*
X424003Y239282D01*
X424113Y239296D01*
X424222Y239313D01*
X424331Y239334D01*
X424439Y239359D01*
X424546Y239388D01*
X424652Y239420D01*
X424757Y239456D01*
X424860Y239496D01*
X424962Y239539D01*
X425063Y239586D01*
X425162Y239637D01*
X425258Y239690D01*
X425353Y239747D01*
X425446Y239808D01*
X425537Y239871D01*
X425626Y239938D01*
X425712Y240008D01*
X425795Y240081D01*
X425877Y240156D01*
X425955Y240234D01*
X426030Y240316D01*
X426103Y240399D01*
X426173Y240485D01*
X426240Y240574D01*
X426303Y240665D01*
X426364Y240758D01*
X426421Y240852D01*
X426474Y240949D01*
X426525Y241048D01*
X426572Y241149D01*
X426615Y241251D01*
X426655Y241354D01*
X426691Y241459D01*
X426723Y241565D01*
X426752Y241672D01*
X426777Y241780D01*
X426798Y241889D01*
X426815Y241998D01*
X426829Y242108D01*
X426838Y242219D01*
X426844Y242329D01*
X426846Y242440D01*
X421766Y241805D02*
X419226Y239265D01*
X415785Y248155D02*
X412610Y250695D01*
X412610Y239265D01*
X415785Y239265D02*
X409435Y239265D01*
D10*
X809508Y132658D02*
X821192Y132658D01*
X821192Y135904D01*
X821190Y136017D01*
X821184Y136130D01*
X821174Y136243D01*
X821160Y136356D01*
X821143Y136468D01*
X821121Y136579D01*
X821096Y136689D01*
X821066Y136799D01*
X821033Y136907D01*
X820996Y137014D01*
X820956Y137120D01*
X820911Y137224D01*
X820863Y137327D01*
X820812Y137428D01*
X820757Y137527D01*
X820699Y137624D01*
X820637Y137719D01*
X820572Y137812D01*
X820504Y137902D01*
X820433Y137990D01*
X820358Y138076D01*
X820281Y138159D01*
X820201Y138239D01*
X820118Y138316D01*
X820032Y138391D01*
X819944Y138462D01*
X819854Y138530D01*
X819761Y138595D01*
X819666Y138657D01*
X819569Y138715D01*
X819470Y138770D01*
X819369Y138821D01*
X819266Y138869D01*
X819162Y138914D01*
X819056Y138954D01*
X818949Y138991D01*
X818841Y139024D01*
X818731Y139054D01*
X818621Y139079D01*
X818510Y139101D01*
X818398Y139118D01*
X818285Y139132D01*
X818172Y139142D01*
X818059Y139148D01*
X817946Y139150D01*
X817833Y139148D01*
X817720Y139142D01*
X817607Y139132D01*
X817494Y139118D01*
X817382Y139101D01*
X817271Y139079D01*
X817161Y139054D01*
X817051Y139024D01*
X816943Y138991D01*
X816836Y138954D01*
X816730Y138914D01*
X816626Y138869D01*
X816523Y138821D01*
X816422Y138770D01*
X816323Y138715D01*
X816226Y138657D01*
X816131Y138595D01*
X816038Y138530D01*
X815948Y138462D01*
X815860Y138391D01*
X815774Y138316D01*
X815691Y138239D01*
X815611Y138159D01*
X815534Y138076D01*
X815459Y137990D01*
X815388Y137902D01*
X815320Y137812D01*
X815255Y137719D01*
X815193Y137624D01*
X815135Y137527D01*
X815080Y137428D01*
X815029Y137327D01*
X814981Y137224D01*
X814936Y137120D01*
X814896Y137014D01*
X814859Y136907D01*
X814826Y136799D01*
X814796Y136689D01*
X814771Y136579D01*
X814749Y136468D01*
X814732Y136356D01*
X814718Y136243D01*
X814708Y136130D01*
X814702Y136017D01*
X814700Y135904D01*
X814701Y135904D02*
X814701Y132658D01*
X814701Y136553D02*
X809508Y139149D01*
X809508Y144014D02*
X809508Y147260D01*
X809510Y147373D01*
X809516Y147486D01*
X809526Y147599D01*
X809540Y147712D01*
X809557Y147824D01*
X809579Y147935D01*
X809604Y148045D01*
X809634Y148155D01*
X809667Y148263D01*
X809704Y148370D01*
X809744Y148476D01*
X809789Y148580D01*
X809837Y148683D01*
X809888Y148784D01*
X809943Y148883D01*
X810001Y148980D01*
X810063Y149075D01*
X810128Y149168D01*
X810196Y149258D01*
X810267Y149346D01*
X810342Y149432D01*
X810419Y149515D01*
X810499Y149595D01*
X810582Y149672D01*
X810668Y149747D01*
X810756Y149818D01*
X810846Y149886D01*
X810939Y149951D01*
X811034Y150013D01*
X811131Y150071D01*
X811230Y150126D01*
X811331Y150177D01*
X811434Y150225D01*
X811538Y150270D01*
X811644Y150310D01*
X811751Y150347D01*
X811859Y150380D01*
X811969Y150410D01*
X812079Y150435D01*
X812190Y150457D01*
X812302Y150474D01*
X812415Y150488D01*
X812528Y150498D01*
X812641Y150504D01*
X812754Y150506D01*
X812867Y150504D01*
X812980Y150498D01*
X813093Y150488D01*
X813206Y150474D01*
X813318Y150457D01*
X813429Y150435D01*
X813539Y150410D01*
X813649Y150380D01*
X813757Y150347D01*
X813864Y150310D01*
X813970Y150270D01*
X814074Y150225D01*
X814177Y150177D01*
X814278Y150126D01*
X814377Y150071D01*
X814474Y150013D01*
X814569Y149951D01*
X814662Y149886D01*
X814752Y149818D01*
X814840Y149747D01*
X814926Y149672D01*
X815009Y149595D01*
X815089Y149515D01*
X815166Y149432D01*
X815241Y149346D01*
X815312Y149258D01*
X815380Y149168D01*
X815445Y149075D01*
X815507Y148980D01*
X815565Y148883D01*
X815620Y148784D01*
X815671Y148683D01*
X815719Y148580D01*
X815764Y148476D01*
X815804Y148370D01*
X815841Y148263D01*
X815874Y148155D01*
X815904Y148045D01*
X815929Y147935D01*
X815951Y147824D01*
X815968Y147712D01*
X815982Y147599D01*
X815992Y147486D01*
X815998Y147373D01*
X816000Y147260D01*
X821192Y147909D02*
X821192Y144014D01*
X821192Y147909D02*
X821190Y148010D01*
X821184Y148110D01*
X821174Y148210D01*
X821161Y148310D01*
X821143Y148409D01*
X821122Y148508D01*
X821097Y148605D01*
X821068Y148702D01*
X821035Y148797D01*
X820999Y148891D01*
X820959Y148983D01*
X820916Y149074D01*
X820869Y149163D01*
X820819Y149250D01*
X820765Y149336D01*
X820708Y149419D01*
X820648Y149499D01*
X820585Y149578D01*
X820518Y149654D01*
X820449Y149727D01*
X820377Y149797D01*
X820303Y149865D01*
X820226Y149930D01*
X820146Y149991D01*
X820064Y150050D01*
X819980Y150105D01*
X819894Y150157D01*
X819806Y150206D01*
X819716Y150251D01*
X819624Y150293D01*
X819531Y150331D01*
X819436Y150365D01*
X819341Y150396D01*
X819244Y150423D01*
X819146Y150446D01*
X819047Y150466D01*
X818947Y150481D01*
X818847Y150493D01*
X818747Y150501D01*
X818646Y150505D01*
X818546Y150505D01*
X818445Y150501D01*
X818345Y150493D01*
X818245Y150481D01*
X818145Y150466D01*
X818046Y150446D01*
X817948Y150423D01*
X817851Y150396D01*
X817756Y150365D01*
X817661Y150331D01*
X817568Y150293D01*
X817476Y150251D01*
X817386Y150206D01*
X817298Y150157D01*
X817212Y150105D01*
X817128Y150050D01*
X817046Y149991D01*
X816966Y149930D01*
X816889Y149865D01*
X816815Y149797D01*
X816743Y149727D01*
X816674Y149654D01*
X816607Y149578D01*
X816544Y149499D01*
X816484Y149419D01*
X816427Y149336D01*
X816373Y149250D01*
X816323Y149163D01*
X816276Y149074D01*
X816233Y148983D01*
X816193Y148891D01*
X816157Y148797D01*
X816124Y148702D01*
X816095Y148605D01*
X816070Y148508D01*
X816049Y148409D01*
X816031Y148310D01*
X816018Y148210D01*
X816008Y148110D01*
X816002Y148010D01*
X816000Y147909D01*
X815999Y147909D02*
X815999Y145313D01*
X811408Y82295D02*
X823092Y82295D01*
X823092Y85540D01*
X823090Y85653D01*
X823084Y85766D01*
X823074Y85879D01*
X823060Y85992D01*
X823043Y86104D01*
X823021Y86215D01*
X822996Y86325D01*
X822966Y86435D01*
X822933Y86543D01*
X822896Y86650D01*
X822856Y86756D01*
X822811Y86860D01*
X822763Y86963D01*
X822712Y87064D01*
X822657Y87163D01*
X822599Y87260D01*
X822537Y87355D01*
X822472Y87448D01*
X822404Y87538D01*
X822333Y87626D01*
X822258Y87712D01*
X822181Y87795D01*
X822101Y87875D01*
X822018Y87952D01*
X821932Y88027D01*
X821844Y88098D01*
X821754Y88166D01*
X821661Y88231D01*
X821566Y88293D01*
X821469Y88351D01*
X821370Y88406D01*
X821269Y88457D01*
X821166Y88505D01*
X821062Y88550D01*
X820956Y88590D01*
X820849Y88627D01*
X820741Y88660D01*
X820631Y88690D01*
X820521Y88715D01*
X820410Y88737D01*
X820298Y88754D01*
X820185Y88768D01*
X820072Y88778D01*
X819959Y88784D01*
X819846Y88786D01*
X819733Y88784D01*
X819620Y88778D01*
X819507Y88768D01*
X819394Y88754D01*
X819282Y88737D01*
X819171Y88715D01*
X819061Y88690D01*
X818951Y88660D01*
X818843Y88627D01*
X818736Y88590D01*
X818630Y88550D01*
X818526Y88505D01*
X818423Y88457D01*
X818322Y88406D01*
X818223Y88351D01*
X818126Y88293D01*
X818031Y88231D01*
X817938Y88166D01*
X817848Y88098D01*
X817760Y88027D01*
X817674Y87952D01*
X817591Y87875D01*
X817511Y87795D01*
X817434Y87712D01*
X817359Y87626D01*
X817288Y87538D01*
X817220Y87448D01*
X817155Y87355D01*
X817093Y87260D01*
X817035Y87163D01*
X816980Y87064D01*
X816929Y86963D01*
X816881Y86860D01*
X816836Y86756D01*
X816796Y86650D01*
X816759Y86543D01*
X816726Y86435D01*
X816696Y86325D01*
X816671Y86215D01*
X816649Y86104D01*
X816632Y85992D01*
X816618Y85879D01*
X816608Y85766D01*
X816602Y85653D01*
X816600Y85540D01*
X816601Y85540D02*
X816601Y82295D01*
X816601Y86189D02*
X811408Y88786D01*
X814004Y93651D02*
X823092Y96247D01*
X814004Y93651D02*
X814004Y100142D01*
X816601Y98195D02*
X811408Y98195D01*
M02*
