G04 EAGLE Gerber RS-274X export*
G75*
%MOMM*%
%FSLAX34Y34*%
%LPD*%
%INSolderpaste Top*%
%IPPOS*%
%AMOC8*
5,1,8,0,0,1.08239X$1,22.5*%
G01*
%ADD10R,1.500000X1.300000*%
%ADD11R,1.300000X1.500000*%
%ADD12R,0.660400X2.032000*%
%ADD13R,0.435000X1.526000*%
%ADD14R,0.650000X1.550000*%
%ADD15C,0.147500*%


D10*
X233000Y334300D03*
X233000Y353300D03*
X773700Y303400D03*
X773700Y322400D03*
X703700Y299900D03*
X703700Y318900D03*
X445200Y661400D03*
X445200Y680400D03*
X439800Y724400D03*
X439800Y705400D03*
D11*
X179800Y709800D03*
X198800Y709800D03*
X121000Y660200D03*
X102000Y660200D03*
X71800Y720200D03*
X52800Y720200D03*
X237400Y654800D03*
X256400Y654800D03*
X226600Y604800D03*
X245600Y604800D03*
X245800Y559800D03*
X264800Y559800D03*
X354200Y683000D03*
X335200Y683000D03*
X102300Y692000D03*
X121300Y692000D03*
D10*
X446300Y629600D03*
X446300Y610600D03*
D11*
X672200Y369800D03*
X691200Y369800D03*
D12*
X349650Y323208D03*
X362350Y323208D03*
X375050Y323208D03*
X387750Y323208D03*
X400450Y323208D03*
X413150Y323208D03*
X425850Y323208D03*
X438550Y323208D03*
X438550Y423792D03*
X425850Y423792D03*
X413150Y423792D03*
X400450Y423792D03*
X387750Y423792D03*
X375050Y423792D03*
X362350Y423792D03*
X349650Y423792D03*
X451250Y323208D03*
X463950Y323208D03*
X476650Y323208D03*
X489350Y323208D03*
X502050Y323208D03*
X514750Y323208D03*
X451250Y423792D03*
X463950Y423792D03*
X476650Y423792D03*
X489350Y423792D03*
X502050Y423792D03*
X514750Y423792D03*
D13*
X742020Y458820D03*
X735680Y458820D03*
X729320Y458820D03*
X722980Y458820D03*
X716620Y458820D03*
X710280Y458820D03*
X703920Y458820D03*
X697580Y458820D03*
X697580Y404580D03*
X703920Y404580D03*
X710280Y404580D03*
X716620Y404580D03*
X722980Y404580D03*
X729320Y404580D03*
X735680Y404580D03*
X742020Y404580D03*
D14*
X58650Y96750D03*
X71350Y96750D03*
X84050Y96750D03*
X96750Y96750D03*
X109450Y96750D03*
X122150Y96750D03*
X134850Y96750D03*
X147550Y96750D03*
X147550Y151250D03*
X134850Y151250D03*
X122150Y151250D03*
X109450Y151250D03*
X96750Y151250D03*
X84050Y151250D03*
X71350Y151250D03*
X58650Y151250D03*
X182450Y96650D03*
X195150Y96650D03*
X207850Y96650D03*
X220550Y96650D03*
X233250Y96650D03*
X245950Y96650D03*
X258650Y96650D03*
X271350Y96650D03*
X271350Y151150D03*
X258650Y151150D03*
X245950Y151150D03*
X233250Y151150D03*
X220550Y151150D03*
X207850Y151150D03*
X195150Y151150D03*
X182450Y151150D03*
X312450Y96550D03*
X325150Y96550D03*
X337850Y96550D03*
X350550Y96550D03*
X363250Y96550D03*
X375950Y96550D03*
X388650Y96550D03*
X401350Y96550D03*
X401350Y151050D03*
X388650Y151050D03*
X375950Y151050D03*
X363250Y151050D03*
X350550Y151050D03*
X337850Y151050D03*
X325150Y151050D03*
X312450Y151050D03*
X537550Y148550D03*
X524850Y148550D03*
X512150Y148550D03*
X499450Y148550D03*
X486750Y148550D03*
X474050Y148550D03*
X461350Y148550D03*
X448650Y148550D03*
X448650Y94050D03*
X461350Y94050D03*
X474050Y94050D03*
X486750Y94050D03*
X499450Y94050D03*
X512150Y94050D03*
X524850Y94050D03*
X537550Y94050D03*
X588150Y91850D03*
X600850Y91850D03*
X613550Y91850D03*
X626250Y91850D03*
X638950Y91850D03*
X651650Y91850D03*
X664350Y91850D03*
X677050Y91850D03*
X677050Y146350D03*
X664350Y146350D03*
X651650Y146350D03*
X638950Y146350D03*
X626250Y146350D03*
X613550Y146350D03*
X600850Y146350D03*
X588150Y146350D03*
X713150Y91750D03*
X725850Y91750D03*
X738550Y91750D03*
X751250Y91750D03*
X763950Y91750D03*
X776650Y91750D03*
X789350Y91750D03*
X802050Y91750D03*
X802050Y146250D03*
X789350Y146250D03*
X776650Y146250D03*
X763950Y146250D03*
X751250Y146250D03*
X738550Y146250D03*
X725850Y146250D03*
X713150Y146250D03*
D11*
X235400Y436300D03*
X254400Y436300D03*
X101400Y721300D03*
X120400Y721300D03*
X728600Y356300D03*
X747600Y356300D03*
X617900Y401300D03*
X636900Y401300D03*
X110600Y608700D03*
X91600Y608700D03*
X287800Y471300D03*
X306800Y471300D03*
X104600Y536300D03*
X123600Y536300D03*
X98800Y476300D03*
X117800Y476300D03*
X155400Y619800D03*
X174400Y619800D03*
X159600Y504800D03*
X178600Y504800D03*
X153800Y559800D03*
X172800Y559800D03*
D15*
X383763Y211313D02*
X383763Y193287D01*
X379337Y193287D01*
X379337Y211313D01*
X383763Y211313D01*
X383763Y194688D02*
X379337Y194688D01*
X379337Y196089D02*
X383763Y196089D01*
X383763Y197490D02*
X379337Y197490D01*
X379337Y198891D02*
X383763Y198891D01*
X383763Y200292D02*
X379337Y200292D01*
X379337Y201693D02*
X383763Y201693D01*
X383763Y203094D02*
X379337Y203094D01*
X379337Y204495D02*
X383763Y204495D01*
X383763Y205896D02*
X379337Y205896D01*
X379337Y207297D02*
X383763Y207297D01*
X383763Y208698D02*
X379337Y208698D01*
X379337Y210099D02*
X383763Y210099D01*
X396463Y211313D02*
X396463Y193287D01*
X392037Y193287D01*
X392037Y211313D01*
X396463Y211313D01*
X396463Y194688D02*
X392037Y194688D01*
X392037Y196089D02*
X396463Y196089D01*
X396463Y197490D02*
X392037Y197490D01*
X392037Y198891D02*
X396463Y198891D01*
X396463Y200292D02*
X392037Y200292D01*
X392037Y201693D02*
X396463Y201693D01*
X396463Y203094D02*
X392037Y203094D01*
X392037Y204495D02*
X396463Y204495D01*
X396463Y205896D02*
X392037Y205896D01*
X392037Y207297D02*
X396463Y207297D01*
X396463Y208698D02*
X392037Y208698D01*
X392037Y210099D02*
X396463Y210099D01*
X409163Y211313D02*
X409163Y193287D01*
X404737Y193287D01*
X404737Y211313D01*
X409163Y211313D01*
X409163Y194688D02*
X404737Y194688D01*
X404737Y196089D02*
X409163Y196089D01*
X409163Y197490D02*
X404737Y197490D01*
X404737Y198891D02*
X409163Y198891D01*
X409163Y200292D02*
X404737Y200292D01*
X404737Y201693D02*
X409163Y201693D01*
X409163Y203094D02*
X404737Y203094D01*
X404737Y204495D02*
X409163Y204495D01*
X409163Y205896D02*
X404737Y205896D01*
X404737Y207297D02*
X409163Y207297D01*
X409163Y208698D02*
X404737Y208698D01*
X404737Y210099D02*
X409163Y210099D01*
X421863Y211313D02*
X421863Y193287D01*
X417437Y193287D01*
X417437Y211313D01*
X421863Y211313D01*
X421863Y194688D02*
X417437Y194688D01*
X417437Y196089D02*
X421863Y196089D01*
X421863Y197490D02*
X417437Y197490D01*
X417437Y198891D02*
X421863Y198891D01*
X421863Y200292D02*
X417437Y200292D01*
X417437Y201693D02*
X421863Y201693D01*
X421863Y203094D02*
X417437Y203094D01*
X417437Y204495D02*
X421863Y204495D01*
X421863Y205896D02*
X417437Y205896D01*
X417437Y207297D02*
X421863Y207297D01*
X421863Y208698D02*
X417437Y208698D01*
X417437Y210099D02*
X421863Y210099D01*
X434563Y211313D02*
X434563Y193287D01*
X430137Y193287D01*
X430137Y211313D01*
X434563Y211313D01*
X434563Y194688D02*
X430137Y194688D01*
X430137Y196089D02*
X434563Y196089D01*
X434563Y197490D02*
X430137Y197490D01*
X430137Y198891D02*
X434563Y198891D01*
X434563Y200292D02*
X430137Y200292D01*
X430137Y201693D02*
X434563Y201693D01*
X434563Y203094D02*
X430137Y203094D01*
X430137Y204495D02*
X434563Y204495D01*
X434563Y205896D02*
X430137Y205896D01*
X430137Y207297D02*
X434563Y207297D01*
X434563Y208698D02*
X430137Y208698D01*
X430137Y210099D02*
X434563Y210099D01*
X447263Y211313D02*
X447263Y193287D01*
X442837Y193287D01*
X442837Y211313D01*
X447263Y211313D01*
X447263Y194688D02*
X442837Y194688D01*
X442837Y196089D02*
X447263Y196089D01*
X447263Y197490D02*
X442837Y197490D01*
X442837Y198891D02*
X447263Y198891D01*
X447263Y200292D02*
X442837Y200292D01*
X442837Y201693D02*
X447263Y201693D01*
X447263Y203094D02*
X442837Y203094D01*
X442837Y204495D02*
X447263Y204495D01*
X447263Y205896D02*
X442837Y205896D01*
X442837Y207297D02*
X447263Y207297D01*
X447263Y208698D02*
X442837Y208698D01*
X442837Y210099D02*
X447263Y210099D01*
X459963Y211313D02*
X459963Y193287D01*
X455537Y193287D01*
X455537Y211313D01*
X459963Y211313D01*
X459963Y194688D02*
X455537Y194688D01*
X455537Y196089D02*
X459963Y196089D01*
X459963Y197490D02*
X455537Y197490D01*
X455537Y198891D02*
X459963Y198891D01*
X459963Y200292D02*
X455537Y200292D01*
X455537Y201693D02*
X459963Y201693D01*
X459963Y203094D02*
X455537Y203094D01*
X455537Y204495D02*
X459963Y204495D01*
X459963Y205896D02*
X455537Y205896D01*
X455537Y207297D02*
X459963Y207297D01*
X459963Y208698D02*
X455537Y208698D01*
X455537Y210099D02*
X459963Y210099D01*
X472663Y211313D02*
X472663Y193287D01*
X468237Y193287D01*
X468237Y211313D01*
X472663Y211313D01*
X472663Y194688D02*
X468237Y194688D01*
X468237Y196089D02*
X472663Y196089D01*
X472663Y197490D02*
X468237Y197490D01*
X468237Y198891D02*
X472663Y198891D01*
X472663Y200292D02*
X468237Y200292D01*
X468237Y201693D02*
X472663Y201693D01*
X472663Y203094D02*
X468237Y203094D01*
X468237Y204495D02*
X472663Y204495D01*
X472663Y205896D02*
X468237Y205896D01*
X468237Y207297D02*
X472663Y207297D01*
X472663Y208698D02*
X468237Y208698D01*
X468237Y210099D02*
X472663Y210099D01*
X472663Y242887D02*
X472663Y260913D01*
X472663Y242887D02*
X468237Y242887D01*
X468237Y260913D01*
X472663Y260913D01*
X472663Y244288D02*
X468237Y244288D01*
X468237Y245689D02*
X472663Y245689D01*
X472663Y247090D02*
X468237Y247090D01*
X468237Y248491D02*
X472663Y248491D01*
X472663Y249892D02*
X468237Y249892D01*
X468237Y251293D02*
X472663Y251293D01*
X472663Y252694D02*
X468237Y252694D01*
X468237Y254095D02*
X472663Y254095D01*
X472663Y255496D02*
X468237Y255496D01*
X468237Y256897D02*
X472663Y256897D01*
X472663Y258298D02*
X468237Y258298D01*
X468237Y259699D02*
X472663Y259699D01*
X459963Y260913D02*
X459963Y242887D01*
X455537Y242887D01*
X455537Y260913D01*
X459963Y260913D01*
X459963Y244288D02*
X455537Y244288D01*
X455537Y245689D02*
X459963Y245689D01*
X459963Y247090D02*
X455537Y247090D01*
X455537Y248491D02*
X459963Y248491D01*
X459963Y249892D02*
X455537Y249892D01*
X455537Y251293D02*
X459963Y251293D01*
X459963Y252694D02*
X455537Y252694D01*
X455537Y254095D02*
X459963Y254095D01*
X459963Y255496D02*
X455537Y255496D01*
X455537Y256897D02*
X459963Y256897D01*
X459963Y258298D02*
X455537Y258298D01*
X455537Y259699D02*
X459963Y259699D01*
X447263Y260913D02*
X447263Y242887D01*
X442837Y242887D01*
X442837Y260913D01*
X447263Y260913D01*
X447263Y244288D02*
X442837Y244288D01*
X442837Y245689D02*
X447263Y245689D01*
X447263Y247090D02*
X442837Y247090D01*
X442837Y248491D02*
X447263Y248491D01*
X447263Y249892D02*
X442837Y249892D01*
X442837Y251293D02*
X447263Y251293D01*
X447263Y252694D02*
X442837Y252694D01*
X442837Y254095D02*
X447263Y254095D01*
X447263Y255496D02*
X442837Y255496D01*
X442837Y256897D02*
X447263Y256897D01*
X447263Y258298D02*
X442837Y258298D01*
X442837Y259699D02*
X447263Y259699D01*
X434563Y260913D02*
X434563Y242887D01*
X430137Y242887D01*
X430137Y260913D01*
X434563Y260913D01*
X434563Y244288D02*
X430137Y244288D01*
X430137Y245689D02*
X434563Y245689D01*
X434563Y247090D02*
X430137Y247090D01*
X430137Y248491D02*
X434563Y248491D01*
X434563Y249892D02*
X430137Y249892D01*
X430137Y251293D02*
X434563Y251293D01*
X434563Y252694D02*
X430137Y252694D01*
X430137Y254095D02*
X434563Y254095D01*
X434563Y255496D02*
X430137Y255496D01*
X430137Y256897D02*
X434563Y256897D01*
X434563Y258298D02*
X430137Y258298D01*
X430137Y259699D02*
X434563Y259699D01*
X421863Y260913D02*
X421863Y242887D01*
X417437Y242887D01*
X417437Y260913D01*
X421863Y260913D01*
X421863Y244288D02*
X417437Y244288D01*
X417437Y245689D02*
X421863Y245689D01*
X421863Y247090D02*
X417437Y247090D01*
X417437Y248491D02*
X421863Y248491D01*
X421863Y249892D02*
X417437Y249892D01*
X417437Y251293D02*
X421863Y251293D01*
X421863Y252694D02*
X417437Y252694D01*
X417437Y254095D02*
X421863Y254095D01*
X421863Y255496D02*
X417437Y255496D01*
X417437Y256897D02*
X421863Y256897D01*
X421863Y258298D02*
X417437Y258298D01*
X417437Y259699D02*
X421863Y259699D01*
X409163Y260913D02*
X409163Y242887D01*
X404737Y242887D01*
X404737Y260913D01*
X409163Y260913D01*
X409163Y244288D02*
X404737Y244288D01*
X404737Y245689D02*
X409163Y245689D01*
X409163Y247090D02*
X404737Y247090D01*
X404737Y248491D02*
X409163Y248491D01*
X409163Y249892D02*
X404737Y249892D01*
X404737Y251293D02*
X409163Y251293D01*
X409163Y252694D02*
X404737Y252694D01*
X404737Y254095D02*
X409163Y254095D01*
X409163Y255496D02*
X404737Y255496D01*
X404737Y256897D02*
X409163Y256897D01*
X409163Y258298D02*
X404737Y258298D01*
X404737Y259699D02*
X409163Y259699D01*
X396463Y260913D02*
X396463Y242887D01*
X392037Y242887D01*
X392037Y260913D01*
X396463Y260913D01*
X396463Y244288D02*
X392037Y244288D01*
X392037Y245689D02*
X396463Y245689D01*
X396463Y247090D02*
X392037Y247090D01*
X392037Y248491D02*
X396463Y248491D01*
X396463Y249892D02*
X392037Y249892D01*
X392037Y251293D02*
X396463Y251293D01*
X396463Y252694D02*
X392037Y252694D01*
X392037Y254095D02*
X396463Y254095D01*
X396463Y255496D02*
X392037Y255496D01*
X392037Y256897D02*
X396463Y256897D01*
X396463Y258298D02*
X392037Y258298D01*
X392037Y259699D02*
X396463Y259699D01*
X383763Y260913D02*
X383763Y242887D01*
X379337Y242887D01*
X379337Y260913D01*
X383763Y260913D01*
X383763Y244288D02*
X379337Y244288D01*
X379337Y245689D02*
X383763Y245689D01*
X383763Y247090D02*
X379337Y247090D01*
X379337Y248491D02*
X383763Y248491D01*
X383763Y249892D02*
X379337Y249892D01*
X379337Y251293D02*
X383763Y251293D01*
X383763Y252694D02*
X379337Y252694D01*
X379337Y254095D02*
X383763Y254095D01*
X383763Y255496D02*
X379337Y255496D01*
X379337Y256897D02*
X383763Y256897D01*
X383763Y258298D02*
X379337Y258298D01*
X379337Y259699D02*
X383763Y259699D01*
M02*
