G04 EAGLE Gerber RS-274X export*
G75*
%MOMM*%
%FSLAX34Y34*%
%LPD*%
%INSolderpaste Bottom*%
%IPPOS*%
%AMOC8*
5,1,8,0,0,1.08239X$1,22.5*%
G01*
%ADD10R,1.500000X1.300000*%
%ADD11R,1.300000X1.500000*%
%ADD12R,0.650000X1.525000*%
%ADD13R,2.235200X1.219200*%
%ADD14R,2.200000X3.600000*%


D10*
X840200Y154000D03*
X840200Y135000D03*
X840200Y97000D03*
X840200Y78000D03*
D11*
X447800Y227000D03*
X428800Y227000D03*
X469100Y228700D03*
X488100Y228700D03*
D12*
X272328Y148143D03*
X285028Y148143D03*
X297728Y148143D03*
X310428Y148143D03*
X323128Y148143D03*
X335828Y148143D03*
X348528Y148143D03*
X361228Y148143D03*
X361228Y93903D03*
X348528Y93903D03*
X335828Y93903D03*
X323128Y93903D03*
X310428Y93903D03*
X297728Y93903D03*
X285028Y93903D03*
X272328Y93903D03*
X449350Y146820D03*
X462050Y146820D03*
X474750Y146820D03*
X487450Y146820D03*
X500150Y146820D03*
X512850Y146820D03*
X525550Y146820D03*
X538250Y146820D03*
X538250Y92580D03*
X525550Y92580D03*
X512850Y92580D03*
X500150Y92580D03*
X487450Y92580D03*
X474750Y92580D03*
X462050Y92580D03*
X449350Y92580D03*
X628650Y148020D03*
X641350Y148020D03*
X654050Y148020D03*
X666750Y148020D03*
X679450Y148020D03*
X692150Y148020D03*
X704850Y148020D03*
X717550Y148020D03*
X717550Y93780D03*
X704850Y93780D03*
X692150Y93780D03*
X679450Y93780D03*
X666750Y93780D03*
X654050Y93780D03*
X641350Y93780D03*
X628650Y93780D03*
D13*
X856288Y235114D03*
X856288Y212000D03*
X856288Y188886D03*
D14*
X794310Y212000D03*
D12*
X102757Y148862D03*
X115457Y148862D03*
X128157Y148862D03*
X140857Y148862D03*
X153557Y148862D03*
X166257Y148862D03*
X178957Y148862D03*
X191657Y148862D03*
X191657Y94622D03*
X178957Y94622D03*
X166257Y94622D03*
X153557Y94622D03*
X140857Y94622D03*
X128157Y94622D03*
X115457Y94622D03*
X102757Y94622D03*
D10*
X801300Y134000D03*
X801300Y153000D03*
X803700Y81200D03*
X803700Y100200D03*
M02*
